<svg xmlns="http://www.w3.org/2000/svg" width="169" height="102.189" viewBox="0 0 169 102.189">
  <g id="Grupo_156588" data-name="Grupo 156588" transform="translate(-179.667 -1070)">
    <path id="Trazado_113613" data-name="Trazado 113613" d="M-22,0H107a40,40,0,0,1,0,80H-22Z" transform="translate(201.667 1081)" fill="rgba(121,210,220,0.2)"/>
    <g id="Grupo_156587" data-name="Grupo 156587" transform="translate(199.025 1070)">
      <path id="Trazado_218345" data-name="Trazado 218345" d="M219.081,132.247v24.734a1.687,1.687,0,0,1-1.687,1.687H187.025a1.687,1.687,0,0,1-1.687-1.687V132.247l16.872-12.383Z" transform="translate(-144.986 -94.557)" fill="#ffc477"/>
      <path id="Trazado_218346" data-name="Trazado 218346" d="M203.9,121.1l-15.184,11.152-3.374,2.48v-2.48l16.872-12.383Z" transform="translate(-144.986 -94.557)" fill="#ffc477"/>
      <path id="Trazado_218347" data-name="Trazado 218347" d="M289.22,239.727h6.749v6.749H289.22Z" transform="translate(-226.935 -189.112)" fill="#e6e7e8"/>
      <path id="Trazado_218348" data-name="Trazado 218348" d="M217.3,239.727h10.123v13.5H217.3Z" transform="translate(-170.202 -189.112)" fill="#8b5e3c"/>
      <path id="Trazado_218349" data-name="Trazado 218349" d="M256.014,163.192a3.374,3.374,0,1,1-3.374-3.374A3.374,3.374,0,0,1,256.014,163.192Z" transform="translate(-195.416 -126.075)" fill="#ffd422"/>
      <path id="Trazado_218350" data-name="Trazado 218350" d="M203.9,121.1l-15.184,11.152-3.374,2.48v-2.48l16.872-12.383Z" transform="translate(-144.986 -94.557)" fill="#ffb655"/>
      <path id="Trazado_218351" data-name="Trazado 218351" d="M289.22,239.727h3.374v6.749H289.22Z" transform="translate(-226.935 -189.112)" fill="#d1d3d4"/>
      <path id="Trazado_218352" data-name="Trazado 218352" d="M179.143,107.032,162.271,94.649,145.4,107.032l-5.888,4.319a3.038,3.038,0,0,1-1.771.574,3.072,3.072,0,0,1-2.531-1.333,3.027,3.027,0,0,1,.776-4.134l19.115-13.5h2.109a5.061,5.061,0,0,0,5.062-5.062l6.749,6.749a4.775,4.775,0,0,0,4.556,1.232l14.982,10.578a3.016,3.016,0,1,1-3.526,4.893Z" transform="translate(-105.048 -69.341)" fill="#ff6243"/>
      <path id="Trazado_218353" data-name="Trazado 218353" d="M405.934,342.93l-9.228,25.358-9.516-3.458,1.148-3.172,6.934-19.031,1.148-3.172Z" transform="translate(-304.22 -267.784)" fill="#1e81ce"/>
      <path id="Trazado_218354" data-name="Trazado 218354" d="M23.035,29.924v5.061H9.538V7.991h13.5Z" transform="translate(-6.304 -6.304)" fill="#787680"/>
      <path id="Trazado_218355" data-name="Trazado 218355" d="M167.165,340.875a2.8,2.8,0,0,1,.2-.826,5.062,5.062,0,0,1,3.88-3.257l19-3.358,3.931-.691,12.6,4.589-6.934,19.031-3.155-1.147-10.242,3.442-4.758-1.721-29.9-10.883a5.23,5.23,0,0,1-3.509-5.567,5.061,5.061,0,0,1,6.749-4.033Z" transform="translate(-115.728 -262.49)" fill="#ffdaaa"/>
      <path id="Trazado_218356" data-name="Trazado 218356" d="M113.957,24.863a5.061,5.061,0,0,1-5.062,5.062H97.085c0,3.728-5.062,6.748-10.123,6.748s-10.123-3.02-10.123-6.748H73.465V13.052h3.374l11.81-5.062h17.733a10.11,10.11,0,0,1,7.17,2.97l13.716,13.716a4.98,4.98,0,0,1,.844,6.124,4.844,4.844,0,0,1-4.033,2.193,4.764,4.764,0,0,1-3.374-1.383Z" transform="translate(-56.734 -6.304)" fill="#ffc477"/>
      <path id="Trazado_218357" data-name="Trazado 218357" d="M246.336,87.9l2.632,2.632a4.451,4.451,0,0,1-.742.945,5.049,5.049,0,0,1-3.577,1.484h-3.374A5.061,5.061,0,0,0,246.336,87.9Z" transform="translate(-189.112 -69.341)" fill="#ff5023"/>
      <path id="Trazado_218358" data-name="Trazado 218358" d="M73.465,31.964h3.374V48.836H73.465Z" transform="translate(-56.734 -25.215)" fill="#ffc477"/>
      <path id="Trazado_218359" data-name="Trazado 218359" d="M217.3,239.727h3.374v13.5H217.3Z" transform="translate(-170.202 -189.112)" fill="#754c29"/>
      <path id="Trazado_218360" data-name="Trazado 218360" d="M217.3,239.727h10.123v1.687H217.3Z" transform="translate(-170.202 -189.112)" fill="#754c29"/>
      <path id="Trazado_218361" data-name="Trazado 218361" d="M212.674,330.652a1.693,1.693,0,0,0-.953-.87l-9.512-3.462a1.687,1.687,0,0,0-2.161,1.012l-.577,1.586-11.018-4.012a1.715,1.715,0,0,0-.869-.078l-22.93,4.049a6.771,6.771,0,0,0-4.827,3.566l-10.519-3.838a6.7,6.7,0,0,0-5.156.23,6.764,6.764,0,0,0-3.83,5.131,6.9,6.9,0,0,0,4.6,7.409l29.89,10.879,4.756,1.731a1.671,1.671,0,0,0,1.117.014l9.676-3.266,1.029.372-.577,1.587a1.688,1.688,0,0,0,1.012,2.162l9.513,3.462A1.687,1.687,0,0,0,203.5,357.3l9.232-25.367A1.69,1.69,0,0,0,212.674,330.652Zm-22.831,16.7-9.674,3.266-34.091-12.415a3.565,3.565,0,0,1-2.423-3.727,3.388,3.388,0,0,1,4.5-2.7l10.947,3.985a7.106,7.106,0,0,0,.076.927,6.761,6.761,0,0,0,7.813,5.473l18.994-3.349L185.4,335.5l-18.985,3.35a3.386,3.386,0,0,1-3.91-2.725,3.115,3.115,0,0,1,.009-1.163,1.484,1.484,0,0,0,.028-.169,2.143,2.143,0,0,1,.117-.42,3.4,3.4,0,0,1,2.586-2.173l22.48-3.962,10.595,3.856-5.77,15.86-1.586-.576a1.678,1.678,0,0,0-1.117-.026Zm11.058,7.216-6.342-2.308,8.078-22.2,6.342,2.308Z" transform="translate(-109.428 -256.227)"/>
      <path id="Trazado_218362" data-name="Trazado 218362" d="M35.459,43.372l3.205-2.352V62.425A3.374,3.374,0,0,0,42.039,65.8H72.408a3.374,3.374,0,0,0,3.374-3.374v-21.4l3.206,2.352a4.653,4.653,0,0,0,2.758.9A4.758,4.758,0,0,0,85.7,42.166a4.693,4.693,0,0,0-1.22-6.427L71.689,26.706a6.492,6.492,0,0,0,1.1-1.3,6.658,6.658,0,0,0-1.059-8.223L58.008,3.46A11.736,11.736,0,0,0,49.657,0H31.916a1.66,1.66,0,0,0-.664.137L19.769,5.061h-1.35V1.687A1.687,1.687,0,0,0,16.731,0H3.234A1.687,1.687,0,0,0,1.547,1.687V28.681a1.687,1.687,0,0,0,1.687,1.687h13.5a1.687,1.687,0,0,0,1.687-1.687V25.307h.246c1.209,4.049,6.634,6.748,11.564,6.748s10.356-2.7,11.564-6.748h2.946L29.961,35.741a4.712,4.712,0,0,0-1.191,6.467A4.849,4.849,0,0,0,35.459,43.372ZM15.044,26.994H4.921V3.374H15.044Zm33.743,35.43V52.3h6.749V62.425Zm23.62,0H58.91V50.615a1.687,1.687,0,0,0-1.687-1.687H47.1a1.687,1.687,0,0,0-1.687,1.687v11.81H42.039V38.545L57.223,27.4,72.408,38.545ZM40.352,21.933a1.687,1.687,0,0,0-1.687,1.687c0,2.555-4.178,5.061-8.436,5.061s-8.436-2.507-8.436-5.061a1.687,1.687,0,0,0-1.687-1.687H18.419V8.436h1.687a1.663,1.663,0,0,0,.665-.137L32.254,3.374H49.648a8.38,8.38,0,0,1,5.973,2.471L69.347,19.571a3.27,3.27,0,0,1,.6,4.015,3.206,3.206,0,0,1-4.786.528l-6.333-6.333a6.732,6.732,0,0,0-6.67-5.971H36.977v3.374H52.162a3.374,3.374,0,1,1,0,6.749Zm-8.773,18.39a1.349,1.349,0,0,1,.337-1.834L50.588,25.307h1.573a6.579,6.579,0,0,0,5.9-3.528L62.782,26.5a6.477,6.477,0,0,0,5.356,1.829L82.531,38.489a1.33,1.33,0,1,1-1.551,2.162l-22.759-16.7a1.687,1.687,0,0,0-2,0L33.48,40.64a1.346,1.346,0,0,1-.788.257A1.37,1.37,0,0,1,31.579,40.323Z" transform="translate(0 0)"/>
      <path id="Trazado_218363" data-name="Trazado 218363" d="M281.229,233.423v6.749a1.687,1.687,0,0,0,1.687,1.687h6.749a1.687,1.687,0,0,0,1.687-1.687v-6.749a1.687,1.687,0,0,0-1.687-1.687h-6.749A1.687,1.687,0,0,0,281.229,233.423Zm3.374,1.687h3.374v3.374H284.6Z" transform="translate(-220.631 -182.809)"/>
      <path id="Trazado_218364" data-name="Trazado 218364" d="M241.274,156.889a5.062,5.062,0,1,0,5.062-5.062A5.062,5.062,0,0,0,241.274,156.889Zm6.749,0a1.687,1.687,0,1,1-1.687-1.687A1.687,1.687,0,0,1,248.023,156.889Z" transform="translate(-189.112 -119.771)"/>
    </g>
  </g>
</svg>
