<svg xmlns="http://www.w3.org/2000/svg" width="820" height="251" viewBox="0 0 820 251">
  <g id="Grupo_159651" data-name="Grupo 159651" transform="translate(-390 -1293.23)">
    <g id="Trazado_225622" data-name="Trazado 225622" transform="translate(390 1497.23)" fill="#26c7db">
      <path d="M 139 46 L 13 46 C 9.794679641723633 46 6.781219959259033 44.75178146362305 4.51471996307373 42.48527908325195 C 2.248219966888428 40.21878051757812 1 37.20531845092773 1 34 L 1 13 C 1 9.794679641723633 2.248219966888428 6.781219959259033 4.51471996307373 4.51471996307373 C 6.781219959259033 2.248219966888428 9.794679641723633 1 13 1 L 139 1 C 142.205322265625 1 145.2187805175781 2.248219966888428 147.4852752685547 4.51471996307373 C 149.7517852783203 6.781219959259033 151 9.794679641723633 151 13 L 151 34 C 151 37.20531845092773 149.7517852783203 40.21878051757812 147.4852752685547 42.48527908325195 C 145.2187805175781 44.75178146362305 142.205322265625 46 139 46 Z" stroke="none"/>
      <path d="M 13 2 C 10.06179809570312 2 7.2994384765625 3.144207000732422 5.221832275390625 5.221832275390625 C 3.144210815429688 7.2994384765625 2 10.06179046630859 2 13 L 2 34 C 2 36.93820953369141 3.144210815429688 39.7005615234375 5.221832275390625 41.77816772460938 C 7.2994384765625 43.85579299926758 10.06179809570312 45 13 45 L 139 45 C 141.9382019042969 45 144.7005615234375 43.85579299926758 146.7781677246094 41.77816772460938 C 148.8557891845703 39.7005615234375 150 36.93820953369141 150 34 L 150 13 C 150 10.06179046630859 148.8557891845703 7.2994384765625 146.7781677246094 5.221832275390625 C 144.7005615234375 3.144207000732422 141.9382019042969 2 139 2 L 13 2 M 13 0 L 139 0 C 146.1797027587891 0 152 5.820293426513672 152 13 L 152 34 C 152 41.17971038818359 146.1797027587891 47 139 47 L 13 47 C 5.820297241210938 47 0 41.17971038818359 0 34 L 0 13 C 0 5.820293426513672 5.820297241210938 0 13 0 Z" stroke="none" fill="#12263f"/>
    </g>
    <g id="Trazado_225623" data-name="Trazado 225623" transform="translate(556.756 1497.23)" fill="#26c7db">
      <path d="M 139 46 L 13 46 C 9.794679641723633 46 6.781219959259033 44.75178146362305 4.51471996307373 42.48527908325195 C 2.248219966888428 40.21878051757812 1 37.20531845092773 1 34 L 1 13 C 1 9.794679641723633 2.248219966888428 6.781219959259033 4.51471996307373 4.51471996307373 C 6.781219959259033 2.248219966888428 9.794679641723633 1 13 1 L 139 1 C 142.205322265625 1 145.2187805175781 2.248219966888428 147.4852752685547 4.51471996307373 C 149.7517852783203 6.781219959259033 151 9.794679641723633 151 13 L 151 34 C 151 37.20531845092773 149.7517852783203 40.21878051757812 147.4852752685547 42.48527908325195 C 145.2187805175781 44.75178146362305 142.205322265625 46 139 46 Z" stroke="none"/>
      <path d="M 13 2 C 10.06179809570312 2 7.2994384765625 3.144207000732422 5.221832275390625 5.221832275390625 C 3.144210815429688 7.2994384765625 2 10.06179046630859 2 13 L 2 34 C 2 36.93820953369141 3.144210815429688 39.7005615234375 5.221832275390625 41.77816772460938 C 7.2994384765625 43.85579299926758 10.06179809570312 45 13 45 L 139 45 C 141.9382019042969 45 144.7005615234375 43.85579299926758 146.7781677246094 41.77816772460938 C 148.8557891845703 39.7005615234375 150 36.93820953369141 150 34 L 150 13 C 150 10.06179046630859 148.8557891845703 7.2994384765625 146.7781677246094 5.221832275390625 C 144.7005615234375 3.144207000732422 141.9382019042969 2 139 2 L 13 2 M 13 0 L 139 0 C 146.1797027587891 0 152 5.820293426513672 152 13 L 152 34 C 152 41.17971038818359 146.1797027587891 47 139 47 L 13 47 C 5.820297241210938 47 0 41.17971038818359 0 34 L 0 13 C 0 5.820293426513672 5.820297241210938 0 13 0 Z" stroke="none" fill="#12263f"/>
    </g>
    <g id="Trazado_225624" data-name="Trazado 225624" transform="translate(724.488 1497.23)" fill="#26c7db">
      <path d="M 139 46 L 13 46 C 9.794679641723633 46 6.781219959259033 44.75178146362305 4.51471996307373 42.48527908325195 C 2.248219966888428 40.21878051757812 1 37.20531845092773 1 34 L 1 13 C 1 9.794679641723633 2.248219966888428 6.781219959259033 4.51471996307373 4.51471996307373 C 6.781219959259033 2.248219966888428 9.794679641723633 1 13 1 L 139 1 C 142.205322265625 1 145.2187805175781 2.248219966888428 147.4852752685547 4.51471996307373 C 149.7517852783203 6.781219959259033 151 9.794679641723633 151 13 L 151 34 C 151 37.20531845092773 149.7517852783203 40.21878051757812 147.4852752685547 42.48527908325195 C 145.2187805175781 44.75178146362305 142.205322265625 46 139 46 Z" stroke="none"/>
      <path d="M 13 2 C 10.06179809570312 2 7.2994384765625 3.144207000732422 5.221832275390625 5.221832275390625 C 3.144210815429688 7.2994384765625 2 10.06179046630859 2 13 L 2 34 C 2 36.93820953369141 3.144210815429688 39.7005615234375 5.221832275390625 41.77816772460938 C 7.2994384765625 43.85579299926758 10.06179809570312 45 13 45 L 139 45 C 141.9382019042969 45 144.7005615234375 43.85579299926758 146.7781677246094 41.77816772460938 C 148.8557891845703 39.7005615234375 150 36.93820953369141 150 34 L 150 13 C 150 10.06179046630859 148.8557891845703 7.2994384765625 146.7781677246094 5.221832275390625 C 144.7005615234375 3.144207000732422 141.9382019042969 2 139 2 L 13 2 M 13 0 L 139 0 C 146.1797027587891 0 152 5.820293426513672 152 13 L 152 34 C 152 41.17971038818359 146.1797027587891 47 139 47 L 13 47 C 5.820297241210938 47 0 41.17971038818359 0 34 L 0 13 C 0 5.820293426513672 5.820297241210938 0 13 0 Z" stroke="none" fill="#12263f"/>
    </g>
    <g id="Trazado_225625" data-name="Trazado 225625" transform="translate(891.244 1497.23)" fill="#26c7db">
      <path d="M 139 46 L 13 46 C 9.794679641723633 46 6.781219959259033 44.75178146362305 4.51471996307373 42.48527908325195 C 2.248219966888428 40.21878051757812 1 37.20531845092773 1 34 L 1 13 C 1 9.794679641723633 2.248219966888428 6.781219959259033 4.51471996307373 4.51471996307373 C 6.781219959259033 2.248219966888428 9.794679641723633 1 13 1 L 139 1 C 142.205322265625 1 145.2187805175781 2.248219966888428 147.4852752685547 4.51471996307373 C 149.7517852783203 6.781219959259033 151 9.794679641723633 151 13 L 151 34 C 151 37.20531845092773 149.7517852783203 40.21878051757812 147.4852752685547 42.48527908325195 C 145.2187805175781 44.75178146362305 142.205322265625 46 139 46 Z" stroke="none"/>
      <path d="M 13 2 C 10.06179809570312 2 7.2994384765625 3.144207000732422 5.221832275390625 5.221832275390625 C 3.144210815429688 7.2994384765625 2 10.06179046630859 2 13 L 2 34 C 2 36.93820953369141 3.144210815429688 39.7005615234375 5.221832275390625 41.77816772460938 C 7.2994384765625 43.85579299926758 10.06179809570312 45 13 45 L 139 45 C 141.9382019042969 45 144.7005615234375 43.85579299926758 146.7781677246094 41.77816772460938 C 148.8557891845703 39.7005615234375 150 36.93820953369141 150 34 L 150 13 C 150 10.06179046630859 148.8557891845703 7.2994384765625 146.7781677246094 5.221832275390625 C 144.7005615234375 3.144207000732422 141.9382019042969 2 139 2 L 13 2 M 13 0 L 139 0 C 146.1797027587891 0 152 5.820293426513672 152 13 L 152 34 C 152 41.17971038818359 146.1797027587891 47 139 47 L 13 47 C 5.820297241210938 47 0 41.17971038818359 0 34 L 0 13 C 0 5.820293426513672 5.820297241210938 0 13 0 Z" stroke="none" fill="#12263f"/>
    </g>
    <g id="Trazado_225626" data-name="Trazado 225626" transform="translate(1058 1497.23)" fill="#26c7db">
      <path d="M 139 46 L 13 46 C 9.794679641723633 46 6.781219959259033 44.75178146362305 4.51471996307373 42.48527908325195 C 2.248219966888428 40.21878051757812 1 37.20531845092773 1 34 L 1 13 C 1 9.794679641723633 2.248219966888428 6.781219959259033 4.51471996307373 4.51471996307373 C 6.781219959259033 2.248219966888428 9.794679641723633 1 13 1 L 139 1 C 142.205322265625 1 145.2187805175781 2.248219966888428 147.4852752685547 4.51471996307373 C 149.7517852783203 6.781219959259033 151 9.794679641723633 151 13 L 151 34 C 151 37.20531845092773 149.7517852783203 40.21878051757812 147.4852752685547 42.48527908325195 C 145.2187805175781 44.75178146362305 142.205322265625 46 139 46 Z" stroke="none"/>
      <path d="M 13 2 C 10.06179809570312 2 7.2994384765625 3.144207000732422 5.221832275390625 5.221832275390625 C 3.144210815429688 7.2994384765625 2 10.06179046630859 2 13 L 2 34 C 2 36.93820953369141 3.144210815429688 39.7005615234375 5.221832275390625 41.77816772460938 C 7.2994384765625 43.85579299926758 10.06179809570312 45 13 45 L 139 45 C 141.9382019042969 45 144.7005615234375 43.85579299926758 146.7781677246094 41.77816772460938 C 148.8557891845703 39.7005615234375 150 36.93820953369141 150 34 L 150 13 C 150 10.06179046630859 148.8557891845703 7.2994384765625 146.7781677246094 5.221832275390625 C 144.7005615234375 3.144207000732422 141.9382019042969 2 139 2 L 13 2 M 13 0 L 139 0 C 146.1797027587891 0 152 5.820293426513672 152 13 L 152 34 C 152 41.17971038818359 146.1797027587891 47 139 47 L 13 47 C 5.820297241210938 47 0 41.17971038818359 0 34 L 0 13 C 0 5.820293426513672 5.820297241210938 0 13 0 Z" stroke="none" fill="#12263f"/>
    </g>
    <path id="Trazado_225627" data-name="Trazado 225627" d="M32.538,12.992V17H30.194V5.625h4.438a5.134,5.134,0,0,1,2.254.469,3.454,3.454,0,0,1,1.5,1.332,3.714,3.714,0,0,1,.523,1.965,3.266,3.266,0,0,1-1.145,2.637,4.767,4.767,0,0,1-3.168.965Zm0-1.9h2.094a2.059,2.059,0,0,0,1.418-.437,1.591,1.591,0,0,0,.488-1.25,1.876,1.876,0,0,0-.492-1.352,1.839,1.839,0,0,0-1.359-.531H32.538Zm12.578-.43A6.134,6.134,0,0,0,44.3,10.6a1.654,1.654,0,0,0-1.68.867V17H40.366V8.547H42.5l.063,1.008a2.092,2.092,0,0,1,1.883-1.164,2.366,2.366,0,0,1,.7.1Zm4.977,6.492a4.15,4.15,0,0,1-3.027-1.141A4.054,4.054,0,0,1,45.9,12.977v-.219a5.106,5.106,0,0,1,.492-2.277,3.612,3.612,0,0,1,1.395-1.547,3.914,3.914,0,0,1,2.059-.543,3.508,3.508,0,0,1,2.73,1.094,4.444,4.444,0,0,1,1,3.1v.922H48.186a2.1,2.1,0,0,0,.66,1.328,2,2,0,0,0,1.395.5,2.437,2.437,0,0,0,2.039-.945l1.109,1.242a3.389,3.389,0,0,1-1.375,1.121A4.511,4.511,0,0,1,50.093,17.156Zm-.258-6.945a1.411,1.411,0,0,0-1.09.455,2.357,2.357,0,0,0-.535,1.3H51.35v-.181a1.681,1.681,0,0,0-.406-1.165A1.456,1.456,0,0,0,49.835,10.211ZM62.46,12.852a5.07,5.07,0,0,1-.887,3.129,2.843,2.843,0,0,1-2.395,1.176,2.633,2.633,0,0,1-2.07-.891V20.25H54.85V8.547h2.094l.078.828a2.654,2.654,0,0,1,2.141-.984,2.862,2.862,0,0,1,2.43,1.156,5.207,5.207,0,0,1,.867,3.188ZM60.2,12.688a3.327,3.327,0,0,0-.418-1.82,1.361,1.361,0,0,0-1.215-.641,1.479,1.479,0,0,0-1.461.813V14.5a1.5,1.5,0,0,0,1.477.836Q60.2,15.336,60.2,12.688ZM68.757,17a2.507,2.507,0,0,1-.227-.758,2.732,2.732,0,0,1-2.133.914,3,3,0,0,1-2.059-.719,2.312,2.312,0,0,1-.816-1.812,2.389,2.389,0,0,1,1-2.062,4.915,4.915,0,0,1,2.879-.727h1.039v-.484a1.393,1.393,0,0,0-.3-.937,1.183,1.183,0,0,0-.949-.352,1.345,1.345,0,0,0-.895.273.929.929,0,0,0-.324.75H63.71a2.268,2.268,0,0,1,.453-1.359,3,3,0,0,1,1.281-.98A4.669,4.669,0,0,1,67.3,8.391a3.689,3.689,0,0,1,2.48.785,2.747,2.747,0,0,1,.918,2.207v3.664a4.041,4.041,0,0,0,.336,1.82V17Zm-1.867-1.57a1.945,1.945,0,0,0,.922-.223,1.462,1.462,0,0,0,.625-.6V13.156h-.844q-1.7,0-1.8,1.172l-.008.133a.9.9,0,0,0,.3.7A1.153,1.153,0,0,0,66.889,15.43Zm10.3-4.766a6.134,6.134,0,0,0-.812-.062,1.654,1.654,0,0,0-1.68.867V17H72.436V8.547h2.133l.063,1.008a2.092,2.092,0,0,1,1.883-1.164,2.366,2.366,0,0,1,.7.1ZM82.936,17a2.507,2.507,0,0,1-.227-.758,2.732,2.732,0,0,1-2.133.914,3,3,0,0,1-2.059-.719,2.312,2.312,0,0,1-.816-1.812,2.389,2.389,0,0,1,1-2.062,4.915,4.915,0,0,1,2.879-.727h1.039v-.484a1.393,1.393,0,0,0-.3-.937,1.183,1.183,0,0,0-.949-.352,1.345,1.345,0,0,0-.895.273.929.929,0,0,0-.324.75H77.889a2.268,2.268,0,0,1,.453-1.359,3,3,0,0,1,1.281-.98,4.669,4.669,0,0,1,1.859-.355,3.689,3.689,0,0,1,2.48.785,2.747,2.747,0,0,1,.918,2.207v3.664a4.041,4.041,0,0,0,.336,1.82V17Zm-1.867-1.57a1.945,1.945,0,0,0,.922-.223,1.462,1.462,0,0,0,.625-.6V13.156h-.844q-1.7,0-1.8,1.172l-.008.133a.9.9,0,0,0,.3.7A1.153,1.153,0,0,0,81.069,15.43Zm9.063-.094a1.481,1.481,0,0,0,1.016-.344,1.2,1.2,0,0,0,.406-.914h2.117a2.9,2.9,0,0,1-.469,1.574,3.093,3.093,0,0,1-1.262,1.109,3.949,3.949,0,0,1-1.77.395A3.67,3.67,0,0,1,87.311,16a4.56,4.56,0,0,1-1.047-3.184v-.148A4.508,4.508,0,0,1,87.3,9.555a3.627,3.627,0,0,1,2.852-1.164,3.555,3.555,0,0,1,2.543.9,3.2,3.2,0,0,1,.973,2.4H91.554a1.551,1.551,0,0,0-.406-1.072,1.51,1.51,0,0,0-2.223.163,3.333,3.333,0,0,0-.4,1.866v.235a3.375,3.375,0,0,0,.4,1.878A1.377,1.377,0,0,0,90.132,15.336ZM97.343,17H95.077V8.547h2.266Zm-2.4-10.641a1.112,1.112,0,0,1,.34-.836,1.465,1.465,0,0,1,1.848,0,1.105,1.105,0,0,1,.344.836,1.108,1.108,0,0,1-.348.844,1.448,1.448,0,0,1-1.836,0A1.108,1.108,0,0,1,94.944,6.359ZM98.85,12.7a5.013,5.013,0,0,1,.484-2.242,3.546,3.546,0,0,1,1.395-1.523,4.069,4.069,0,0,1,2.113-.539,3.849,3.849,0,0,1,2.793,1.047,4.2,4.2,0,0,1,1.207,2.844l.016.578a4.418,4.418,0,0,1-1.086,3.121,4.209,4.209,0,0,1-5.832,0A4.5,4.5,0,0,1,98.85,12.8Zm2.258.16a3.16,3.16,0,0,0,.453,1.843,1.628,1.628,0,0,0,2.578.008,3.457,3.457,0,0,0,.461-2.015,3.128,3.128,0,0,0-.461-1.831,1.5,1.5,0,0,0-1.3-.649,1.474,1.474,0,0,0-1.281.646A3.516,3.516,0,0,0,101.108,12.856ZM103.288,5h2.461l-2.164,2.422h-1.836Zm7.039,3.547.07.977a2.951,2.951,0,0,1,2.43-1.133,2.453,2.453,0,0,1,2,.789,3.682,3.682,0,0,1,.672,2.359V17h-2.258V11.594a1.465,1.465,0,0,0-.312-1.043,1.4,1.4,0,0,0-1.039-.324,1.553,1.553,0,0,0-1.43.813V17H108.2V8.547Z" transform="translate(391.959 1511.23)" fill="#12263f"/>
    <path id="Trazado_225628" data-name="Trazado 225628" d="M16.35,17H14.007V5.625H16.35Zm1.672-4.289a5.094,5.094,0,0,1,.887-3.148,2.877,2.877,0,0,1,2.426-1.172,2.589,2.589,0,0,1,2.039.922V5h2.266V17H23.6l-.109-.9a2.657,2.657,0,0,1-2.172,1.055,2.869,2.869,0,0,1-2.395-1.176A5.258,5.258,0,0,1,18.022,12.711Zm2.258.168a3.337,3.337,0,0,0,.414,1.823,1.349,1.349,0,0,0,1.2.634,1.511,1.511,0,0,0,1.477-.884V11.111a1.489,1.489,0,0,0-1.461-.884Q20.28,10.227,20.28,12.879Zm11,4.277a4.15,4.15,0,0,1-3.027-1.141,4.054,4.054,0,0,1-1.168-3.039v-.219a5.106,5.106,0,0,1,.492-2.277,3.612,3.612,0,0,1,1.395-1.547,3.914,3.914,0,0,1,2.059-.543,3.508,3.508,0,0,1,2.73,1.094,4.444,4.444,0,0,1,1,3.1v.922H29.374a2.1,2.1,0,0,0,.66,1.328,2,2,0,0,0,1.395.5,2.437,2.437,0,0,0,2.039-.945l1.109,1.242A3.389,3.389,0,0,1,33.2,16.754,4.511,4.511,0,0,1,31.28,17.156Zm-.258-6.945a1.411,1.411,0,0,0-1.09.455,2.357,2.357,0,0,0-.535,1.3h3.141v-.181a1.681,1.681,0,0,0-.406-1.165A1.456,1.456,0,0,0,31.022,10.211Zm7.094-1.664.07.977a2.951,2.951,0,0,1,2.43-1.133,2.453,2.453,0,0,1,2,.789,3.682,3.682,0,0,1,.672,2.359V17H41.03V11.594a1.465,1.465,0,0,0-.312-1.043,1.4,1.4,0,0,0-1.039-.324,1.553,1.553,0,0,0-1.43.813V17H35.991V8.547ZM47.7,6.469V8.547h1.445V10.2H47.7v4.219a1.007,1.007,0,0,0,.18.672.9.9,0,0,0,.688.2,3.6,3.6,0,0,0,.664-.055v1.711a4.648,4.648,0,0,1-1.367.2,2.156,2.156,0,0,1-2.422-2.4V10.2H44.21V8.547h1.234V6.469ZM52.788,17H50.522V8.547h2.266Zm-2.4-10.641a1.112,1.112,0,0,1,.34-.836,1.465,1.465,0,0,1,1.848,0,1.105,1.105,0,0,1,.344.836,1.108,1.108,0,0,1-.348.844,1.448,1.448,0,0,1-1.836,0A1.108,1.108,0,0,1,50.389,6.359ZM55.194,17V10.2H53.936V8.547h1.258V8.156a3.17,3.17,0,0,1,.98-2.457A3.945,3.945,0,0,1,58.9,4.836,9.031,9.031,0,0,1,61.46,5.3l-.328,1.867a10,10,0,0,0-1.187-.293,5.835,5.835,0,0,0-.906-.066q-1.578,0-1.578,1.4v.344h1.664V10.2H57.46V17Zm7.32,0H60.249V8.547h2.266ZM67.9,15.336a1.481,1.481,0,0,0,1.016-.344,1.2,1.2,0,0,0,.406-.914h2.117a2.9,2.9,0,0,1-.469,1.574,3.093,3.093,0,0,1-1.262,1.109,3.949,3.949,0,0,1-1.77.395A3.67,3.67,0,0,1,65.077,16,4.56,4.56,0,0,1,64.03,12.82v-.148a4.508,4.508,0,0,1,1.039-3.117,3.627,3.627,0,0,1,2.852-1.164,3.555,3.555,0,0,1,2.543.9,3.2,3.2,0,0,1,.973,2.4H69.319a1.551,1.551,0,0,0-.406-1.072,1.51,1.51,0,0,0-2.223.163,3.333,3.333,0,0,0-.4,1.866v.235a3.375,3.375,0,0,0,.4,1.878A1.377,1.377,0,0,0,67.9,15.336ZM77.624,17a2.507,2.507,0,0,1-.227-.758,2.732,2.732,0,0,1-2.133.914,3,3,0,0,1-2.059-.719,2.312,2.312,0,0,1-.816-1.812,2.389,2.389,0,0,1,1-2.062,4.915,4.915,0,0,1,2.879-.727H77.3v-.484a1.393,1.393,0,0,0-.3-.937,1.183,1.183,0,0,0-.949-.352,1.345,1.345,0,0,0-.895.273.929.929,0,0,0-.324.75H72.577a2.268,2.268,0,0,1,.453-1.359,3,3,0,0,1,1.281-.98,4.669,4.669,0,0,1,1.859-.355,3.689,3.689,0,0,1,2.48.785,2.747,2.747,0,0,1,.918,2.207v3.664a4.041,4.041,0,0,0,.336,1.82V17Zm-1.867-1.57a1.945,1.945,0,0,0,.922-.223,1.462,1.462,0,0,0,.625-.6V13.156H76.46q-1.7,0-1.8,1.172l-.008.133a.9.9,0,0,0,.3.7A1.153,1.153,0,0,0,75.757,15.43Zm9.063-.094a1.481,1.481,0,0,0,1.016-.344,1.2,1.2,0,0,0,.406-.914h2.117a2.9,2.9,0,0,1-.469,1.574,3.093,3.093,0,0,1-1.262,1.109,3.949,3.949,0,0,1-1.77.395A3.67,3.67,0,0,1,82,16a4.56,4.56,0,0,1-1.047-3.184v-.148a4.508,4.508,0,0,1,1.039-3.117,3.627,3.627,0,0,1,2.852-1.164,3.555,3.555,0,0,1,2.543.9,3.2,3.2,0,0,1,.973,2.4H86.241a1.551,1.551,0,0,0-.406-1.072,1.51,1.51,0,0,0-2.223.163,3.333,3.333,0,0,0-.4,1.866v.235a3.375,3.375,0,0,0,.4,1.878A1.377,1.377,0,0,0,84.819,15.336ZM92.03,17H89.764V8.547H92.03Zm-2.4-10.641a1.112,1.112,0,0,1,.34-.836,1.465,1.465,0,0,1,1.848,0,1.105,1.105,0,0,1,.344.836,1.108,1.108,0,0,1-.348.844,1.448,1.448,0,0,1-1.836,0A1.108,1.108,0,0,1,89.632,6.359ZM93.538,12.7a5.013,5.013,0,0,1,.484-2.242A3.546,3.546,0,0,1,95.417,8.93a4.069,4.069,0,0,1,2.113-.539,3.849,3.849,0,0,1,2.793,1.047,4.2,4.2,0,0,1,1.207,2.844l.016.578a4.418,4.418,0,0,1-1.086,3.121,4.209,4.209,0,0,1-5.832,0,4.5,4.5,0,0,1-1.09-3.187Zm2.258.16a3.16,3.16,0,0,0,.453,1.843,1.628,1.628,0,0,0,2.578.008,3.457,3.457,0,0,0,.461-2.015,3.128,3.128,0,0,0-.461-1.831,1.5,1.5,0,0,0-1.3-.649,1.474,1.474,0,0,0-1.281.646A3.516,3.516,0,0,0,95.8,12.856ZM97.975,5h2.461L98.272,7.422H96.436Zm7.039,3.547.07.977a2.951,2.951,0,0,1,2.43-1.133,2.453,2.453,0,0,1,2,.789,3.682,3.682,0,0,1,.672,2.359V17h-2.258V11.594a1.465,1.465,0,0,0-.312-1.043,1.4,1.4,0,0,0-1.039-.324,1.553,1.553,0,0,0-1.43.813V17h-2.258V8.547Zm10.516,4.164a5.094,5.094,0,0,1,.887-3.148,2.877,2.877,0,0,1,2.426-1.172,2.589,2.589,0,0,1,2.039.922V5h2.266V17h-2.039L121,16.1a2.657,2.657,0,0,1-2.172,1.055,2.869,2.869,0,0,1-2.395-1.176A5.258,5.258,0,0,1,115.53,12.711Zm2.258.168A3.337,3.337,0,0,0,118.2,14.7a1.349,1.349,0,0,0,1.2.634,1.511,1.511,0,0,0,1.477-.884V11.111a1.489,1.489,0,0,0-1.461-.884Q117.788,10.227,117.788,12.879Zm11,4.277a4.15,4.15,0,0,1-3.027-1.141,4.054,4.054,0,0,1-1.168-3.039v-.219a5.106,5.106,0,0,1,.492-2.277,3.612,3.612,0,0,1,1.395-1.547,3.914,3.914,0,0,1,2.059-.543,3.508,3.508,0,0,1,2.73,1.094,4.444,4.444,0,0,1,1,3.1v.922h-5.383a2.1,2.1,0,0,0,.66,1.328,2,2,0,0,0,1.395.5,2.437,2.437,0,0,0,2.039-.945l1.109,1.242a3.389,3.389,0,0,1-1.375,1.121A4.511,4.511,0,0,1,128.788,17.156Zm-.258-6.945a1.411,1.411,0,0,0-1.09.455,2.357,2.357,0,0,0-.535,1.3h3.141v-.181a1.681,1.681,0,0,0-.406-1.165A1.456,1.456,0,0,0,128.53,10.211Zm-98.1,18.336.07.977a2.951,2.951,0,0,1,2.43-1.133,2.453,2.453,0,0,1,2,.789,3.682,3.682,0,0,1,.672,2.359V37H33.343V31.594a1.465,1.465,0,0,0-.312-1.043,1.4,1.4,0,0,0-1.039-.324,1.553,1.553,0,0,0-1.43.813V37H28.3V28.547ZM41.2,37.156a4.15,4.15,0,0,1-3.027-1.141,4.054,4.054,0,0,1-1.168-3.039v-.219A5.106,5.106,0,0,1,37.5,30.48a3.612,3.612,0,0,1,1.395-1.547,3.914,3.914,0,0,1,2.059-.543,3.508,3.508,0,0,1,2.73,1.094,4.444,4.444,0,0,1,1,3.1v.922H39.3a2.1,2.1,0,0,0,.66,1.328,2,2,0,0,0,1.395.5,2.437,2.437,0,0,0,2.039-.945L44.5,35.633a3.389,3.389,0,0,1-1.375,1.121A4.511,4.511,0,0,1,41.2,37.156Zm-.258-6.945a1.411,1.411,0,0,0-1.09.455,2.357,2.357,0,0,0-.535,1.3H42.46v-.181a1.681,1.681,0,0,0-.406-1.165A1.456,1.456,0,0,0,40.944,30.211Zm8.531,5.125a1.481,1.481,0,0,0,1.016-.344,1.2,1.2,0,0,0,.406-.914h2.117a2.9,2.9,0,0,1-.469,1.574,3.093,3.093,0,0,1-1.262,1.109,3.949,3.949,0,0,1-1.77.395A3.67,3.67,0,0,1,46.655,36a4.56,4.56,0,0,1-1.047-3.184v-.148a4.508,4.508,0,0,1,1.039-3.117A3.627,3.627,0,0,1,49.5,28.391a3.555,3.555,0,0,1,2.543.9,3.2,3.2,0,0,1,.973,2.4H50.9a1.551,1.551,0,0,0-.406-1.072,1.51,1.51,0,0,0-2.223.163,3.333,3.333,0,0,0-.4,1.866v.235a3.375,3.375,0,0,0,.4,1.878A1.377,1.377,0,0,0,49.475,35.336Zm8.719,1.82a4.15,4.15,0,0,1-3.027-1.141A4.054,4.054,0,0,1,54,32.977v-.219a5.106,5.106,0,0,1,.492-2.277,3.612,3.612,0,0,1,1.395-1.547,3.914,3.914,0,0,1,2.059-.543,3.508,3.508,0,0,1,2.73,1.094,4.444,4.444,0,0,1,1,3.1v.922H56.288a2.1,2.1,0,0,0,.66,1.328,2,2,0,0,0,1.395.5,2.437,2.437,0,0,0,2.039-.945l1.109,1.242a3.389,3.389,0,0,1-1.375,1.121A4.511,4.511,0,0,1,58.194,37.156Zm-.258-6.945a1.411,1.411,0,0,0-1.09.455,2.357,2.357,0,0,0-.535,1.3h3.141v-.181a1.681,1.681,0,0,0-.406-1.165A1.456,1.456,0,0,0,57.936,30.211Zm9.594,4.453a.727.727,0,0,0-.41-.652,4.659,4.659,0,0,0-1.316-.426q-3.016-.633-3.016-2.562a2.323,2.323,0,0,1,.934-1.879,3.766,3.766,0,0,1,2.441-.754,4.053,4.053,0,0,1,2.574.758,2.388,2.388,0,0,1,.965,1.969H67.444a1.092,1.092,0,0,0-.312-.8A1.322,1.322,0,0,0,66.155,30a1.351,1.351,0,0,0-.883.258.814.814,0,0,0-.312.656.7.7,0,0,0,.355.605,3.657,3.657,0,0,0,1.2.4,9.8,9.8,0,0,1,1.422.379,2.336,2.336,0,0,1,1.789,2.273,2.2,2.2,0,0,1-.992,1.871,4.28,4.28,0,0,1-2.562.715,4.47,4.47,0,0,1-1.887-.379,3.166,3.166,0,0,1-1.293-1.039,2.414,2.414,0,0,1-.469-1.426h2.141a1.179,1.179,0,0,0,.445.922,1.766,1.766,0,0,0,1.109.32,1.635,1.635,0,0,0,.98-.246A.766.766,0,0,0,67.53,34.664ZM73.561,37H71.3V28.547h2.266Zm-2.4-10.641a1.112,1.112,0,0,1,.34-.836,1.465,1.465,0,0,1,1.848,0,1.193,1.193,0,0,1,0,1.68,1.448,1.448,0,0,1-1.836,0A1.108,1.108,0,0,1,71.163,26.359Zm3.906,6.352a5.094,5.094,0,0,1,.887-3.148,2.877,2.877,0,0,1,2.426-1.172,2.589,2.589,0,0,1,2.039.922V25h2.266V37H80.647l-.109-.9a2.657,2.657,0,0,1-2.172,1.055,2.869,2.869,0,0,1-2.395-1.176A5.258,5.258,0,0,1,75.069,32.711Zm2.258.168a3.337,3.337,0,0,0,.414,1.823,1.349,1.349,0,0,0,1.2.634,1.511,1.511,0,0,0,1.477-.884V31.111a1.489,1.489,0,0,0-1.461-.884Q77.327,30.227,77.327,32.879ZM89.335,37a2.507,2.507,0,0,1-.227-.758,2.732,2.732,0,0,1-2.133.914,3,3,0,0,1-2.059-.719,2.312,2.312,0,0,1-.816-1.812,2.389,2.389,0,0,1,1-2.062,4.915,4.915,0,0,1,2.879-.727h1.039v-.484a1.393,1.393,0,0,0-.3-.937,1.183,1.183,0,0,0-.949-.352,1.345,1.345,0,0,0-.895.273.929.929,0,0,0-.324.75H84.288a2.268,2.268,0,0,1,.453-1.359,3,3,0,0,1,1.281-.98,4.669,4.669,0,0,1,1.859-.355,3.689,3.689,0,0,1,2.48.785,2.747,2.747,0,0,1,.918,2.207v3.664a4.041,4.041,0,0,0,.336,1.82V37Zm-1.867-1.57a1.945,1.945,0,0,0,.922-.223,1.462,1.462,0,0,0,.625-.6V33.156h-.844q-1.7,0-1.8,1.172l-.008.133a.9.9,0,0,0,.3.7A1.153,1.153,0,0,0,87.468,35.43Zm5.2-2.719a5.094,5.094,0,0,1,.887-3.148,2.877,2.877,0,0,1,2.426-1.172,2.589,2.589,0,0,1,2.039.922V25h2.266V37H98.241l-.109-.9a2.657,2.657,0,0,1-2.172,1.055,2.869,2.869,0,0,1-2.395-1.176A5.258,5.258,0,0,1,92.663,32.711Zm2.258.168a3.337,3.337,0,0,0,.414,1.823,1.349,1.349,0,0,0,1.2.634,1.511,1.511,0,0,0,1.477-.884V31.111a1.489,1.489,0,0,0-1.461-.884Q94.921,30.227,94.921,32.879Zm11,4.277a4.15,4.15,0,0,1-3.027-1.141,4.054,4.054,0,0,1-1.168-3.039v-.219a5.106,5.106,0,0,1,.492-2.277,3.612,3.612,0,0,1,1.395-1.547,3.914,3.914,0,0,1,2.059-.543,3.508,3.508,0,0,1,2.73,1.094,4.444,4.444,0,0,1,1,3.1v.922h-5.383a2.1,2.1,0,0,0,.66,1.328,2,2,0,0,0,1.395.5,2.437,2.437,0,0,0,2.039-.945l1.109,1.242a3.389,3.389,0,0,1-1.375,1.121A4.511,4.511,0,0,1,105.921,37.156Zm-.258-6.945a1.411,1.411,0,0,0-1.09.455,2.357,2.357,0,0,0-.535,1.3h3.141v-.181a1.681,1.681,0,0,0-.406-1.165A1.456,1.456,0,0,0,105.663,30.211Zm9.594,4.453a.727.727,0,0,0-.41-.652,4.659,4.659,0,0,0-1.316-.426q-3.016-.633-3.016-2.562a2.323,2.323,0,0,1,.934-1.879,3.766,3.766,0,0,1,2.441-.754,4.053,4.053,0,0,1,2.574.758,2.388,2.388,0,0,1,.965,1.969h-2.258a1.092,1.092,0,0,0-.312-.8,1.322,1.322,0,0,0-.977-.316,1.351,1.351,0,0,0-.883.258.814.814,0,0,0-.312.656.7.7,0,0,0,.355.605,3.657,3.657,0,0,0,1.2.4,9.8,9.8,0,0,1,1.422.379,2.336,2.336,0,0,1,1.789,2.273,2.2,2.2,0,0,1-.992,1.871,4.28,4.28,0,0,1-2.562.715,4.47,4.47,0,0,1-1.887-.379,3.166,3.166,0,0,1-1.293-1.039,2.414,2.414,0,0,1-.469-1.426h2.141a1.179,1.179,0,0,0,.445.922,1.766,1.766,0,0,0,1.109.32,1.635,1.635,0,0,0,.98-.246A.766.766,0,0,0,115.257,34.664Z" transform="translate(559.486 1502.23)" fill="#12263f"/>
    <path id="Trazado_225629" data-name="Trazado 225629" d="M24.835,14.656H20.725L19.944,17H17.452L21.686,5.625h2.172L28.116,17H25.624Zm-3.477-1.9H24.2L22.772,8.5ZM33.78,10.664a6.134,6.134,0,0,0-.812-.062,1.654,1.654,0,0,0-1.68.867V17H29.03V8.547h2.133l.063,1.008a2.092,2.092,0,0,1,1.883-1.164,2.366,2.366,0,0,1,.7.1Zm.758,2.047a4.954,4.954,0,0,1,.926-3.133,3,3,0,0,1,2.5-1.187,2.631,2.631,0,0,1,2.164.953l.094-.8h2.047v8.172a3.613,3.613,0,0,1-.5,1.93,3.236,3.236,0,0,1-1.418,1.25,4.985,4.985,0,0,1-2.141.43,4.635,4.635,0,0,1-1.812-.371A3.217,3.217,0,0,1,35.054,19l1-1.375a2.645,2.645,0,0,0,2.047.945,1.936,1.936,0,0,0,1.4-.48,1.8,1.8,0,0,0,.5-1.363v-.453a2.612,2.612,0,0,1-2.055.883,2.992,2.992,0,0,1-2.465-1.191,4.953,4.953,0,0,1-.941-3.16Zm2.258.168a3.085,3.085,0,0,0,.461,1.8,1.466,1.466,0,0,0,1.266.653A1.568,1.568,0,0,0,40,14.561V11a1.564,1.564,0,0,0-1.461-.775,1.476,1.476,0,0,0-1.277.665A3.477,3.477,0,0,0,36.8,12.879Zm12.266,3.262a2.831,2.831,0,0,1-2.312,1.016,2.67,2.67,0,0,1-2.074-.781,3.335,3.335,0,0,1-.73-2.289V8.547H46.2v5.467q0,1.322,1.2,1.322a1.63,1.63,0,0,0,1.578-.8V8.547h2.266V17H49.124Zm6.008-7.594.07.945a2.971,2.971,0,0,1,2.43-1.1A2.255,2.255,0,0,1,59.811,9.68,2.9,2.9,0,0,1,62.35,8.391a2.521,2.521,0,0,1,2.047.8,3.681,3.681,0,0,1,.672,2.41V17H62.8V11.609a1.61,1.61,0,0,0-.281-1.051,1.246,1.246,0,0,0-.992-.332,1.409,1.409,0,0,0-1.406.969l.008,5.8H57.874V11.617a1.59,1.59,0,0,0-.289-1.062,1.259,1.259,0,0,0-.984-.328,1.463,1.463,0,0,0-1.391.8V17H52.952V8.547Zm15.625,8.609a4.15,4.15,0,0,1-3.027-1.141A4.054,4.054,0,0,1,66.5,12.977v-.219a5.106,5.106,0,0,1,.492-2.277,3.612,3.612,0,0,1,1.395-1.547,3.914,3.914,0,0,1,2.059-.543,3.508,3.508,0,0,1,2.73,1.094,4.444,4.444,0,0,1,1,3.1v.922H68.788a2.1,2.1,0,0,0,.66,1.328,2,2,0,0,0,1.395.5,2.437,2.437,0,0,0,2.039-.945l1.109,1.242a3.389,3.389,0,0,1-1.375,1.121A4.511,4.511,0,0,1,70.694,17.156Zm-.258-6.945a1.411,1.411,0,0,0-1.09.455,2.357,2.357,0,0,0-.535,1.3h3.141v-.181a1.681,1.681,0,0,0-.406-1.165A1.456,1.456,0,0,0,70.436,10.211ZM77.53,8.547l.07.977a2.951,2.951,0,0,1,2.43-1.133,2.453,2.453,0,0,1,2,.789,3.682,3.682,0,0,1,.672,2.359V17H80.444V11.594a1.465,1.465,0,0,0-.312-1.043,1.4,1.4,0,0,0-1.039-.324,1.553,1.553,0,0,0-1.43.813V17H75.405V8.547Zm9.586-2.078V8.547h1.445V10.2H87.116v4.219a1.007,1.007,0,0,0,.18.672.9.9,0,0,0,.688.2,3.6,3.6,0,0,0,.664-.055v1.711a4.648,4.648,0,0,1-1.367.2,2.156,2.156,0,0,1-2.422-2.4V10.2H83.624V8.547h1.234V6.469ZM94.718,17a2.507,2.507,0,0,1-.227-.758,2.732,2.732,0,0,1-2.133.914,3,3,0,0,1-2.059-.719,2.312,2.312,0,0,1-.816-1.812,2.389,2.389,0,0,1,1-2.062,4.915,4.915,0,0,1,2.879-.727H94.4v-.484a1.393,1.393,0,0,0-.3-.937,1.183,1.183,0,0,0-.949-.352,1.345,1.345,0,0,0-.895.273.929.929,0,0,0-.324.75H89.671a2.268,2.268,0,0,1,.453-1.359,3,3,0,0,1,1.281-.98,4.669,4.669,0,0,1,1.859-.355,3.689,3.689,0,0,1,2.48.785,2.747,2.747,0,0,1,.918,2.207v3.664A4.041,4.041,0,0,0,97,16.867V17ZM92.85,15.43a1.945,1.945,0,0,0,.922-.223,1.462,1.462,0,0,0,.625-.6V13.156h-.844q-1.7,0-1.8,1.172l-.008.133a.9.9,0,0,0,.3.7A1.153,1.153,0,0,0,92.85,15.43Zm9.063-.094a1.481,1.481,0,0,0,1.016-.344,1.2,1.2,0,0,0,.406-.914h2.117a2.9,2.9,0,0,1-.469,1.574,3.093,3.093,0,0,1-1.262,1.109,3.949,3.949,0,0,1-1.77.395A3.67,3.67,0,0,1,99.093,16a4.56,4.56,0,0,1-1.047-3.184v-.148a4.508,4.508,0,0,1,1.039-3.117,3.627,3.627,0,0,1,2.852-1.164,3.555,3.555,0,0,1,2.543.9,3.2,3.2,0,0,1,.973,2.4h-2.117a1.551,1.551,0,0,0-.406-1.072,1.51,1.51,0,0,0-2.223.163,3.333,3.333,0,0,0-.4,1.866v.235a3.375,3.375,0,0,0,.4,1.878A1.377,1.377,0,0,0,101.913,15.336ZM109.124,17h-2.266V8.547h2.266Zm-2.4-10.641a1.112,1.112,0,0,1,.34-.836,1.465,1.465,0,0,1,1.848,0,1.105,1.105,0,0,1,.344.836,1.108,1.108,0,0,1-.348.844,1.448,1.448,0,0,1-1.836,0A1.108,1.108,0,0,1,106.725,6.359Zm3.906,6.336a5.013,5.013,0,0,1,.484-2.242,3.546,3.546,0,0,1,1.395-1.523,4.069,4.069,0,0,1,2.113-.539,3.849,3.849,0,0,1,2.793,1.047,4.2,4.2,0,0,1,1.207,2.844l.016.578a4.418,4.418,0,0,1-1.086,3.121,4.209,4.209,0,0,1-5.832,0,4.5,4.5,0,0,1-1.09-3.187Zm2.258.16a3.16,3.16,0,0,0,.453,1.843,1.628,1.628,0,0,0,2.578.008,3.457,3.457,0,0,0,.461-2.015,3.128,3.128,0,0,0-.461-1.831,1.5,1.5,0,0,0-1.3-.649,1.474,1.474,0,0,0-1.281.646A3.516,3.516,0,0,0,112.889,12.856ZM115.069,5h2.461l-2.164,2.422H113.53Zm7.039,3.547.07.977a2.951,2.951,0,0,1,2.43-1.133,2.453,2.453,0,0,1,2,.789,3.682,3.682,0,0,1,.672,2.359V17h-2.258V11.594a1.465,1.465,0,0,0-.312-1.043,1.4,1.4,0,0,0-1.039-.324,1.553,1.553,0,0,0-1.43.813V17h-2.258V8.547Z" transform="translate(727.993 1511.23)" fill="#12263f"/>
    <path id="Trazado_225630" data-name="Trazado 225630" d="M39.311,5.625l2.922,8.25,2.906-8.25h3.078V17H45.866V13.891L46.1,8.523,43.03,17H41.421L38.358,8.531l.234,5.359V17H36.249V5.625ZM55.014,17a2.507,2.507,0,0,1-.227-.758,2.732,2.732,0,0,1-2.133.914,3,3,0,0,1-2.059-.719,2.312,2.312,0,0,1-.816-1.812,2.389,2.389,0,0,1,1-2.062,4.915,4.915,0,0,1,2.879-.727h1.039v-.484a1.393,1.393,0,0,0-.3-.937,1.183,1.183,0,0,0-.949-.352,1.345,1.345,0,0,0-.895.273.929.929,0,0,0-.324.75H49.968a2.268,2.268,0,0,1,.453-1.359,3,3,0,0,1,1.281-.98,4.669,4.669,0,0,1,1.859-.355,3.689,3.689,0,0,1,2.48.785,2.747,2.747,0,0,1,.918,2.207v3.664a4.041,4.041,0,0,0,.336,1.82V17Zm-1.867-1.57a1.945,1.945,0,0,0,.922-.223,1.462,1.462,0,0,0,.625-.6V13.156H53.85q-1.7,0-1.8,1.172l-.008.133a.9.9,0,0,0,.3.7A1.153,1.153,0,0,0,53.147,15.43Zm7.625-6.883.07.977a2.951,2.951,0,0,1,2.43-1.133,2.453,2.453,0,0,1,2,.789,3.682,3.682,0,0,1,.672,2.359V17H63.686V11.594a1.465,1.465,0,0,0-.312-1.043,1.4,1.4,0,0,0-1.039-.324,1.553,1.553,0,0,0-1.43.813V17H58.647V8.547Zm10.773,8.609a4.15,4.15,0,0,1-3.027-1.141,4.054,4.054,0,0,1-1.168-3.039v-.219a5.106,5.106,0,0,1,.492-2.277,3.612,3.612,0,0,1,1.395-1.547A3.914,3.914,0,0,1,71.3,8.391a3.508,3.508,0,0,1,2.73,1.094,4.444,4.444,0,0,1,1,3.1v.922H69.639a2.1,2.1,0,0,0,.66,1.328,2,2,0,0,0,1.395.5,2.437,2.437,0,0,0,2.039-.945l1.109,1.242a3.389,3.389,0,0,1-1.375,1.121A4.511,4.511,0,0,1,71.546,17.156Zm-.258-6.945a1.411,1.411,0,0,0-1.09.455,2.357,2.357,0,0,0-.535,1.3H72.8v-.181a1.681,1.681,0,0,0-.406-1.165A1.456,1.456,0,0,0,71.288,10.211Zm7.406-1.664v8.914a3.024,3.024,0,0,1-.742,2.176,2.821,2.821,0,0,1-2.141.777,4.591,4.591,0,0,1-1.117-.133V18.492a4.238,4.238,0,0,0,.711.07q1.023,0,1.023-1.086V8.547ZM76.249,6.359a1.112,1.112,0,0,1,.34-.836,1.47,1.47,0,0,1,1.852,0,1.112,1.112,0,0,1,.34.836,1.108,1.108,0,0,1-.348.844,1.448,1.448,0,0,1-1.836,0A1.108,1.108,0,0,1,76.249,6.359ZM80.108,12.7a5.013,5.013,0,0,1,.484-2.242A3.546,3.546,0,0,1,81.987,8.93,4.069,4.069,0,0,1,84.1,8.391a3.849,3.849,0,0,1,2.793,1.047A4.2,4.2,0,0,1,88.1,12.281l.016.578A4.418,4.418,0,0,1,87.03,15.98a4.209,4.209,0,0,1-5.832,0,4.5,4.5,0,0,1-1.09-3.187Zm2.258.16a3.16,3.16,0,0,0,.453,1.843,1.628,1.628,0,0,0,2.578.008,3.457,3.457,0,0,0,.461-2.015A3.128,3.128,0,0,0,85.4,10.86a1.5,1.5,0,0,0-1.3-.649,1.474,1.474,0,0,0-1.281.646A3.516,3.516,0,0,0,82.366,12.856Zm10.773-.145a5.094,5.094,0,0,1,.887-3.148,2.877,2.877,0,0,1,2.426-1.172,2.589,2.589,0,0,1,2.039.922V5h2.266V17H98.718l-.109-.9a2.657,2.657,0,0,1-2.172,1.055,2.869,2.869,0,0,1-2.395-1.176A5.258,5.258,0,0,1,93.139,12.711Zm2.258.168a3.337,3.337,0,0,0,.414,1.823,1.349,1.349,0,0,0,1.2.634,1.511,1.511,0,0,0,1.477-.884V11.111a1.489,1.489,0,0,0-1.461-.884Q95.4,10.227,95.4,12.879Zm11,4.277a4.15,4.15,0,0,1-3.027-1.141,4.054,4.054,0,0,1-1.168-3.039v-.219a5.106,5.106,0,0,1,.492-2.277,3.612,3.612,0,0,1,1.395-1.547,3.914,3.914,0,0,1,2.059-.543,3.508,3.508,0,0,1,2.73,1.094,4.444,4.444,0,0,1,1,3.1v.922h-5.383a2.1,2.1,0,0,0,.66,1.328,2,2,0,0,0,1.395.5,2.437,2.437,0,0,0,2.039-.945l1.109,1.242a3.389,3.389,0,0,1-1.375,1.121A4.511,4.511,0,0,1,106.4,17.156Zm-.258-6.945a1.411,1.411,0,0,0-1.09.455,2.357,2.357,0,0,0-.535,1.3h3.141v-.181a1.681,1.681,0,0,0-.406-1.165A1.456,1.456,0,0,0,106.139,10.211ZM34.112,32.7a5.013,5.013,0,0,1,.484-2.242,3.546,3.546,0,0,1,1.395-1.523,4.069,4.069,0,0,1,2.113-.539A3.849,3.849,0,0,1,40.9,29.438,4.2,4.2,0,0,1,42.1,32.281l.016.578a4.418,4.418,0,0,1-1.086,3.121,4.209,4.209,0,0,1-5.832,0,4.5,4.5,0,0,1-1.09-3.187Zm2.258.16a3.16,3.16,0,0,0,.453,1.843,1.628,1.628,0,0,0,2.578.008,3.457,3.457,0,0,0,.461-2.015A3.128,3.128,0,0,0,39.4,30.86a1.5,1.5,0,0,0-1.3-.649,1.474,1.474,0,0,0-1.281.646A3.516,3.516,0,0,0,36.37,32.856Zm14.758,0a5.119,5.119,0,0,1-.867,3.168,2.872,2.872,0,0,1-2.422,1.137,2.639,2.639,0,0,1-2.2-1.055l-.1.9H43.511V25h2.258v4.3a2.571,2.571,0,0,1,2.055-.914,2.9,2.9,0,0,1,2.426,1.137,5.126,5.126,0,0,1,.879,3.2Zm-2.258-.164a3.363,3.363,0,0,0-.406-1.871,1.374,1.374,0,0,0-1.211-.59,1.489,1.489,0,0,0-1.484.883v3.336a1.509,1.509,0,0,0,1.5.891,1.394,1.394,0,0,0,1.438-1.078A5.562,5.562,0,0,0,48.87,32.688Zm6.039-4.141v8.914a3.024,3.024,0,0,1-.742,2.176,2.821,2.821,0,0,1-2.141.777,4.591,4.591,0,0,1-1.117-.133V38.492a4.238,4.238,0,0,0,.711.07q1.023,0,1.023-1.086v-8.93Zm-2.445-2.187a1.112,1.112,0,0,1,.34-.836,1.47,1.47,0,0,1,1.852,0,1.2,1.2,0,0,1-.008,1.68,1.448,1.448,0,0,1-1.836,0A1.108,1.108,0,0,1,52.464,26.359Zm8.1,10.8a4.15,4.15,0,0,1-3.027-1.141,4.054,4.054,0,0,1-1.168-3.039v-.219a5.106,5.106,0,0,1,.492-2.277,3.612,3.612,0,0,1,1.395-1.547,3.914,3.914,0,0,1,2.059-.543,3.508,3.508,0,0,1,2.73,1.094,4.444,4.444,0,0,1,1,3.1v.922H58.659a2.1,2.1,0,0,0,.66,1.328,2,2,0,0,0,1.395.5,2.437,2.437,0,0,0,2.039-.945l1.109,1.242a3.389,3.389,0,0,1-1.375,1.121A4.511,4.511,0,0,1,60.565,37.156Zm-.258-6.945a1.411,1.411,0,0,0-1.09.455,2.357,2.357,0,0,0-.535,1.3h3.141v-.181a1.681,1.681,0,0,0-.406-1.165A1.456,1.456,0,0,0,60.307,30.211Zm8.531,5.125a1.481,1.481,0,0,0,1.016-.344,1.2,1.2,0,0,0,.406-.914h2.117a2.9,2.9,0,0,1-.469,1.574,3.093,3.093,0,0,1-1.262,1.109,3.949,3.949,0,0,1-1.77.395A3.67,3.67,0,0,1,66.018,36a4.56,4.56,0,0,1-1.047-3.184v-.148a4.508,4.508,0,0,1,1.039-3.117,3.627,3.627,0,0,1,2.852-1.164,3.555,3.555,0,0,1,2.543.9,3.2,3.2,0,0,1,.973,2.4H70.261a1.551,1.551,0,0,0-.406-1.072,1.51,1.51,0,0,0-2.223.163,3.333,3.333,0,0,0-.4,1.866v.235a3.375,3.375,0,0,0,.4,1.878A1.377,1.377,0,0,0,68.839,35.336ZM76.05,37H73.784V28.547H76.05Zm-2.4-10.641a1.112,1.112,0,0,1,.34-.836,1.465,1.465,0,0,1,1.848,0,1.193,1.193,0,0,1,0,1.68A1.448,1.448,0,0,1,74,27.2,1.108,1.108,0,0,1,73.651,26.359ZM77.557,32.7a5.013,5.013,0,0,1,.484-2.242,3.546,3.546,0,0,1,1.395-1.523,4.069,4.069,0,0,1,2.113-.539,3.849,3.849,0,0,1,2.793,1.047,4.2,4.2,0,0,1,1.207,2.844l.016.578a4.418,4.418,0,0,1-1.086,3.121,4.209,4.209,0,0,1-5.832,0,4.5,4.5,0,0,1-1.09-3.187Zm2.258.16a3.16,3.16,0,0,0,.453,1.843,1.628,1.628,0,0,0,2.578.008,3.457,3.457,0,0,0,.461-2.015,3.128,3.128,0,0,0-.461-1.831,1.5,1.5,0,0,0-1.3-.649,1.474,1.474,0,0,0-1.281.646A3.516,3.516,0,0,0,79.815,32.856Zm9.219-4.309.07.977a2.951,2.951,0,0,1,2.43-1.133,2.453,2.453,0,0,1,2,.789,3.682,3.682,0,0,1,.672,2.359V37H91.948V31.594a1.465,1.465,0,0,0-.312-1.043,1.4,1.4,0,0,0-1.039-.324,1.553,1.553,0,0,0-1.43.813V37H86.909V28.547Zm10.773,8.609a4.15,4.15,0,0,1-3.027-1.141,4.054,4.054,0,0,1-1.168-3.039v-.219A5.106,5.106,0,0,1,96.1,30.48,3.612,3.612,0,0,1,97.5,28.934a3.914,3.914,0,0,1,2.059-.543,3.508,3.508,0,0,1,2.73,1.094,4.444,4.444,0,0,1,1,3.1v.922H97.9a2.1,2.1,0,0,0,.66,1.328,2,2,0,0,0,1.395.5,2.437,2.437,0,0,0,2.039-.945l1.109,1.242a3.389,3.389,0,0,1-1.375,1.121A4.511,4.511,0,0,1,99.807,37.156Zm-.258-6.945a1.411,1.411,0,0,0-1.09.455,2.357,2.357,0,0,0-.535,1.3h3.141v-.181a1.681,1.681,0,0,0-.406-1.165A1.456,1.456,0,0,0,99.55,30.211Zm9.594,4.453a.727.727,0,0,0-.41-.652,4.659,4.659,0,0,0-1.316-.426q-3.016-.633-3.016-2.562a2.323,2.323,0,0,1,.934-1.879,3.766,3.766,0,0,1,2.441-.754,4.053,4.053,0,0,1,2.574.758,2.388,2.388,0,0,1,.965,1.969h-2.258a1.092,1.092,0,0,0-.312-.8,1.322,1.322,0,0,0-.977-.316,1.351,1.351,0,0,0-.883.258.814.814,0,0,0-.312.656.7.7,0,0,0,.355.605,3.657,3.657,0,0,0,1.2.4,9.8,9.8,0,0,1,1.422.379,2.336,2.336,0,0,1,1.789,2.273,2.2,2.2,0,0,1-.992,1.871,4.28,4.28,0,0,1-2.562.715,4.47,4.47,0,0,1-1.887-.379,3.166,3.166,0,0,1-1.293-1.039,2.414,2.414,0,0,1-.469-1.426h2.141a1.179,1.179,0,0,0,.445.922,1.766,1.766,0,0,0,1.109.32,1.635,1.635,0,0,0,.98-.246A.766.766,0,0,0,109.143,34.664Z" transform="translate(895.52 1502.23)" fill="#12263f"/>
    <path id="Trazado_225631" data-name="Trazado 225631" d="M60.866,13.211A4.025,4.025,0,0,1,59.511,16.1a4.76,4.76,0,0,1-3.223,1.055,4.28,4.28,0,0,1-3.441-1.473,6.038,6.038,0,0,1-1.254-4.043v-.7a6.819,6.819,0,0,1,.578-2.891,4.332,4.332,0,0,1,1.652-1.918,5.164,5.164,0,0,1,5.668.387,4.326,4.326,0,0,1,1.391,2.961H58.538a2.376,2.376,0,0,0-.613-1.6,2.271,2.271,0,0,0-1.605-.5,1.991,1.991,0,0,0-1.754.84,4.707,4.707,0,0,0-.6,2.605V11.7a5.038,5.038,0,0,0,.559,2.7,1.954,1.954,0,0,0,1.762.852,2.314,2.314,0,0,0,1.621-.5,2.241,2.241,0,0,0,.613-1.535ZM64.639,17H62.374V8.547h2.266Zm-2.4-10.641a1.112,1.112,0,0,1,.34-.836,1.465,1.465,0,0,1,1.848,0,1.105,1.105,0,0,1,.344.836,1.108,1.108,0,0,1-.348.844,1.448,1.448,0,0,1-1.836,0A1.108,1.108,0,0,1,62.241,6.359Zm8.148,10.8a4.15,4.15,0,0,1-3.027-1.141,4.054,4.054,0,0,1-1.168-3.039v-.219a5.106,5.106,0,0,1,.492-2.277,3.612,3.612,0,0,1,1.395-1.547,3.914,3.914,0,0,1,2.059-.543,3.508,3.508,0,0,1,2.73,1.094,4.444,4.444,0,0,1,1,3.1v.922H68.483a2.1,2.1,0,0,0,.66,1.328,2,2,0,0,0,1.395.5,2.437,2.437,0,0,0,2.039-.945l1.109,1.242a3.389,3.389,0,0,1-1.375,1.121A4.511,4.511,0,0,1,70.389,17.156Zm-.258-6.945a1.411,1.411,0,0,0-1.09.455,2.357,2.357,0,0,0-.535,1.3h3.141v-.181a1.681,1.681,0,0,0-.406-1.165A1.456,1.456,0,0,0,70.132,10.211Zm9.766.453a6.134,6.134,0,0,0-.812-.062,1.654,1.654,0,0,0-1.68.867V17H75.147V8.547H77.28l.063,1.008a2.092,2.092,0,0,1,1.883-1.164,2.366,2.366,0,0,1,.7.1Zm5.836,0a6.134,6.134,0,0,0-.812-.062,1.654,1.654,0,0,0-1.68.867V17H80.983V8.547h2.133l.063,1.008a2.092,2.092,0,0,1,1.883-1.164,2.366,2.366,0,0,1,.7.1Zm4.977,6.492a4.15,4.15,0,0,1-3.027-1.141,4.054,4.054,0,0,1-1.168-3.039v-.219a5.106,5.106,0,0,1,.492-2.277A3.612,3.612,0,0,1,88.4,8.934a3.914,3.914,0,0,1,2.059-.543,3.508,3.508,0,0,1,2.73,1.094,4.444,4.444,0,0,1,1,3.1v.922H88.8a2.1,2.1,0,0,0,.66,1.328,2,2,0,0,0,1.395.5,2.437,2.437,0,0,0,2.039-.945l1.109,1.242a3.389,3.389,0,0,1-1.375,1.121A4.511,4.511,0,0,1,90.71,17.156Zm-.258-6.945a1.411,1.411,0,0,0-1.09.455,2.357,2.357,0,0,0-.535,1.3h3.141v-.181a1.681,1.681,0,0,0-.406-1.165A1.456,1.456,0,0,0,90.452,10.211Z" transform="translate(1063.047 1511.23)" fill="#12263f"/>
    <path id="Trazado_224281" data-name="Trazado 224281" d="M1660.982,1579.577l4.084,4.085a2.1,2.1,0,0,0,2.963,0l4.084-4.085a2.1,2.1,0,0,0-1.481-3.577h-8.169A2.1,2.1,0,0,0,1660.982,1579.577Z" transform="translate(-1200.439 -78.77)" fill="#12263f"/>
    <path id="Trazado_224282" data-name="Trazado 224282" d="M1660.982,1579.577l4.084,4.085a2.1,2.1,0,0,0,2.963,0l4.084-4.085a2.1,2.1,0,0,0-1.481-3.577h-8.169A2.1,2.1,0,0,0,1660.982,1579.577Z" transform="translate(-1034.406 -78.77)" fill="#12263f"/>
    <path id="Trazado_224283" data-name="Trazado 224283" d="M1660.982,1579.577l4.084,4.085a2.1,2.1,0,0,0,2.963,0l4.084-4.085a2.1,2.1,0,0,0-1.481-3.577h-8.169A2.1,2.1,0,0,0,1660.982,1579.577Z" transform="translate(-865.952 -78.77)" fill="#12263f"/>
    <path id="Trazado_224284" data-name="Trazado 224284" d="M1660.982,1579.577l4.084,4.085a2.1,2.1,0,0,0,2.963,0l4.084-4.085a2.1,2.1,0,0,0-1.481-3.577h-8.169A2.1,2.1,0,0,0,1660.982,1579.577Z" transform="translate(-698.477 -78.77)" fill="#12263f"/>
    <g id="Grupo_158833" data-name="Grupo 158833" transform="translate(415 1394.854)">
      <path id="Trazado_224277" data-name="Trazado 224277" d="M1615.643,1357.16a39.307,39.307,0,1,0,39.307,39.307,39.306,39.306,0,0,0-39.307-39.307Z" transform="translate(-1564.645 -1345.469)" fill="#fed935"/>
      <path id="Trazado_224278" data-name="Trazado 224278" d="M1597.768,1327.6a51,51,0,1,1-51,51,51,51,0,0,1,51-51Zm0,11.692a39.307,39.307,0,1,0,39.307,39.307,39.306,39.306,0,0,0-39.307-39.307Z" transform="translate(-1546.769 -1327.597)" fill="#e7a539"/>
      <path id="Trazado_224279" data-name="Trazado 224279" d="M1637.075,1456.573a39.306,39.306,0,0,1-78.611,0h-11.694a51,51,0,0,0,102,0Z" transform="translate(-1546.769 -1405.566)" fill="#d97b2e"/>
      <path id="Trazado_224280" data-name="Trazado 224280" d="M1660.982,1579.577l4.084,4.085a2.1,2.1,0,0,0,2.963,0l4.084-4.085a2.1,2.1,0,0,0-1.481-3.577h-8.169A2.1,2.1,0,0,0,1660.982,1579.577Z" transform="translate(-1615.439 -1477.762)" fill="#d97b2e"/>
    </g>
    <g id="Grupo_158834" data-name="Grupo 158834" transform="translate(581.467 1394.854)">
      <path id="Trazado_224277-2" data-name="Trazado 224277" d="M1615.643,1357.16a39.307,39.307,0,1,0,39.307,39.307,39.306,39.306,0,0,0-39.307-39.307Z" transform="translate(-1564.645 -1345.469)" fill="#fed935"/>
      <path id="Trazado_224278-2" data-name="Trazado 224278" d="M1597.768,1327.6a51,51,0,1,1-51,51,51,51,0,0,1,51-51Zm0,11.692a39.307,39.307,0,1,0,39.307,39.307,39.306,39.306,0,0,0-39.307-39.307Z" transform="translate(-1546.769 -1327.597)" fill="#e7a539"/>
      <path id="Trazado_224279-2" data-name="Trazado 224279" d="M1637.075,1456.573a39.306,39.306,0,0,1-78.611,0h-11.694a51,51,0,0,0,102,0Z" transform="translate(-1546.769 -1405.566)" fill="#d97b2e"/>
      <path id="Trazado_224280-2" data-name="Trazado 224280" d="M1660.982,1579.577l4.084,4.085a2.1,2.1,0,0,0,2.963,0l4.084-4.085a2.1,2.1,0,0,0-1.481-3.577h-8.169A2.1,2.1,0,0,0,1660.982,1579.577Z" transform="translate(-1615.439 -1477.762)" fill="#d97b2e"/>
    </g>
    <g id="Grupo_158835" data-name="Grupo 158835" transform="translate(749.488 1394.854)">
      <path id="Trazado_224277-3" data-name="Trazado 224277" d="M1615.643,1357.16a39.307,39.307,0,1,0,39.307,39.307,39.306,39.306,0,0,0-39.307-39.307Z" transform="translate(-1564.645 -1345.469)" fill="#fed935"/>
      <path id="Trazado_224278-3" data-name="Trazado 224278" d="M1597.768,1327.6a51,51,0,1,1-51,51,51,51,0,0,1,51-51Zm0,11.692a39.307,39.307,0,1,0,39.307,39.307,39.306,39.306,0,0,0-39.307-39.307Z" transform="translate(-1546.769 -1327.597)" fill="#e7a539"/>
      <path id="Trazado_224279-3" data-name="Trazado 224279" d="M1637.075,1456.573a39.306,39.306,0,0,1-78.611,0h-11.694a51,51,0,0,0,102,0Z" transform="translate(-1546.769 -1405.566)" fill="#d97b2e"/>
      <path id="Trazado_224280-3" data-name="Trazado 224280" d="M1660.982,1579.577l4.084,4.085a2.1,2.1,0,0,0,2.963,0l4.084-4.085a2.1,2.1,0,0,0-1.481-3.577h-8.169A2.1,2.1,0,0,0,1660.982,1579.577Z" transform="translate(-1615.439 -1477.762)" fill="#d97b2e"/>
    </g>
    <g id="Grupo_158836" data-name="Grupo 158836" transform="translate(916.533 1394.854)">
      <path id="Trazado_224277-4" data-name="Trazado 224277" d="M1615.643,1357.16a39.307,39.307,0,1,0,39.307,39.307,39.306,39.306,0,0,0-39.307-39.307Z" transform="translate(-1564.645 -1345.469)" fill="#fed935"/>
      <path id="Trazado_224278-4" data-name="Trazado 224278" d="M1597.768,1327.6a51,51,0,1,1-51,51,51,51,0,0,1,51-51Zm0,11.692a39.307,39.307,0,1,0,39.307,39.307,39.306,39.306,0,0,0-39.307-39.307Z" transform="translate(-1546.769 -1327.597)" fill="#e7a539"/>
      <path id="Trazado_224279-4" data-name="Trazado 224279" d="M1637.075,1456.573a39.306,39.306,0,0,1-78.611,0h-11.694a51,51,0,0,0,102,0Z" transform="translate(-1546.769 -1405.566)" fill="#d97b2e"/>
      <path id="Trazado_224280-4" data-name="Trazado 224280" d="M1660.982,1579.577l4.084,4.085a2.1,2.1,0,0,0,2.963,0l4.084-4.085a2.1,2.1,0,0,0-1.481-3.577h-8.169A2.1,2.1,0,0,0,1660.982,1579.577Z" transform="translate(-1615.439 -1477.762)" fill="#d97b2e"/>
    </g>
    <g id="Grupo_158837" data-name="Grupo 158837" transform="translate(1083 1394.854)">
      <path id="Trazado_224277-5" data-name="Trazado 224277" d="M1615.643,1357.16a39.307,39.307,0,1,0,39.307,39.307,39.306,39.306,0,0,0-39.307-39.307Z" transform="translate(-1564.645 -1345.469)" fill="#fed935"/>
      <path id="Trazado_224278-5" data-name="Trazado 224278" d="M1597.768,1327.6a51,51,0,1,1-51,51,51,51,0,0,1,51-51Zm0,11.692a39.307,39.307,0,1,0,39.307,39.307,39.306,39.306,0,0,0-39.307-39.307Z" transform="translate(-1546.769 -1327.597)" fill="#e7a539"/>
      <path id="Trazado_224279-5" data-name="Trazado 224279" d="M1637.075,1456.573a39.306,39.306,0,0,1-78.611,0h-11.694a51,51,0,0,0,102,0Z" transform="translate(-1546.769 -1405.566)" fill="#d97b2e"/>
      <path id="Trazado_224280-5" data-name="Trazado 224280" d="M1660.982,1579.577l4.084,4.085a2.1,2.1,0,0,0,2.963,0l4.084-4.085a2.1,2.1,0,0,0-1.481-3.577h-8.169A2.1,2.1,0,0,0,1660.982,1579.577Z" transform="translate(-1615.439 -1477.762)" fill="#d97b2e"/>
    </g>
    <path id="Trazado_225632" data-name="Trazado 225632" d="M53.789,34H48.508V17.188L43.32,18.7v-4L53.3,11.25h.484Z" transform="translate(414.492 1429.854)" fill="#12263f"/>
    <path id="Trazado_225633" data-name="Trazado 225633" d="M57.992,34H42.117V30.563l7.313-7.687q2.7-3.078,2.7-4.891a3.4,3.4,0,0,0-.641-2.234,2.287,2.287,0,0,0-1.859-.766,2.316,2.316,0,0,0-1.953,1.023,4.206,4.206,0,0,0-.75,2.555H41.648A7.471,7.471,0,0,1,42.7,14.7,7.341,7.341,0,0,1,45.6,11.922a8.633,8.633,0,0,1,4.156-1,8.493,8.493,0,0,1,5.68,1.7,6.08,6.08,0,0,1,1.992,4.891,7.1,7.1,0,0,1-.5,2.617A11.477,11.477,0,0,1,55.375,22.8a39.163,39.163,0,0,1-3.4,3.742l-2.937,3.391h8.953Z" transform="translate(582.019 1429.854)" fill="#12263f"/>
    <path id="Trazado_225634" data-name="Trazado 225634" d="M46.929,20.422h2.484q2.953,0,2.953-2.891a2.5,2.5,0,0,0-.7-1.836,2.666,2.666,0,0,0-1.984-.711,2.854,2.854,0,0,0-1.82.609,1.859,1.859,0,0,0-.773,1.516H41.82a5.39,5.39,0,0,1,1-3.2,6.6,6.6,0,0,1,2.773-2.2,9.482,9.482,0,0,1,3.9-.789,9.317,9.317,0,0,1,5.969,1.734,5.766,5.766,0,0,1,2.172,4.766,4.806,4.806,0,0,1-.9,2.773,6.4,6.4,0,0,1-2.617,2.117A6.116,6.116,0,0,1,56.961,24.3a5.246,5.246,0,0,1,1.031,3.3,5.87,5.87,0,0,1-2.344,4.875,9.729,9.729,0,0,1-6.156,1.828,10.089,10.089,0,0,1-4.148-.852,6.5,6.5,0,0,1-2.9-2.359,6.134,6.134,0,0,1-.984-3.43h5.3a2.371,2.371,0,0,0,.844,1.813,2.979,2.979,0,0,0,2.078.766,3.12,3.12,0,0,0,2.219-.773,2.585,2.585,0,0,0,.828-1.977,3.022,3.022,0,0,0-.859-2.437,3.592,3.592,0,0,0-2.375-.719H46.929Z" transform="translate(750.526 1429.854)" fill="#12263f"/>
    <path id="Trazado_225635" data-name="Trazado 225635" d="M56.023,25.109h2.313v4.063H56.023V34H50.758V29.172h-8.8l-.312-3.219L50.758,11.3V11.25h5.266Zm-9.359,0h4.094v-7l-.328.531Z" transform="translate(918.053 1429.854)" fill="#12263f"/>
    <path id="Trazado_225636" data-name="Trazado 225636" d="M42.429,22.887,43.82,11.25h13.3v4.094H48.1l-.516,4.519a6.211,6.211,0,0,1,1.477-.581,7.429,7.429,0,0,1,7,1.757,8.088,8.088,0,0,1,1.82,5.633,8.073,8.073,0,0,1-.977,3.961,6.712,6.712,0,0,1-2.742,2.727,8.657,8.657,0,0,1-4.172.953,9.315,9.315,0,0,1-4.016-.882,7.2,7.2,0,0,1-2.937-2.42,5.88,5.88,0,0,1-1.047-3.474h5.281a2.987,2.987,0,0,0,.8,1.98,2.529,2.529,0,0,0,1.891.733q2.656,0,2.656-3.929,0-3.633-3.25-3.633a3.243,3.243,0,0,0-2.75,1.185Z" transform="translate(1085.58 1429.854)" fill="#12263f"/>
    <g id="Trazado_225637" data-name="Trazado 225637" transform="translate(683.5 1293.23)" fill="#26c7db">
      <path d="M 220 46 L 13 46 C 9.794676780700684 46 6.781205654144287 44.75179290771484 4.514705657958984 42.48529434204102 C 2.248205900192261 40.21879577636719 1 37.205322265625 1 34 L 1 13 C 1 9.794676780700684 2.248205900192261 6.781205654144287 4.514705657958984 4.514705657958984 C 6.781205654144287 2.248205900192261 9.794676780700684 1 13 1 L 220 1 C 223.205322265625 1 226.2187957763672 2.248205900192261 228.4852905273438 4.514705657958984 C 230.7518005371094 6.781205654144287 232 9.794676780700684 232 13 L 232 34 C 232 37.205322265625 230.7518005371094 40.21879577636719 228.4852905273438 42.48529434204102 C 226.2187957763672 44.75179290771484 223.205322265625 46 220 46 Z" stroke="none"/>
      <path d="M 13 2 C 10.06178283691406 2 7.2994384765625 3.144187927246094 5.221817016601562 5.221813201904297 C 3.144180297851562 7.2994384765625 2 10.06178283691406 2 13 L 2 34 C 2 36.93821716308594 3.144180297851562 39.70053100585938 5.221817016601562 41.77815628051758 C 7.2994384765625 43.85581207275391 10.06178283691406 45 13 45 L 220 45 C 222.9381866455078 45 225.7005310058594 43.85581207275391 227.7781524658203 41.77815628051758 C 229.8558197021484 39.70053100585938 231 36.93818664550781 231 34 L 231 13 C 231 10.06178283691406 229.8558197021484 7.2994384765625 227.7781524658203 5.221813201904297 C 225.7005310058594 3.144187927246094 222.9382171630859 2 220 2 L 13 2 M 13 0 L 220 0 C 227.1796875 0 233 5.820281982421875 233 13 L 233 34 C 233 41.1796875 227.1796875 47 220 47 L 13 47 C 5.820281982421875 47 0 41.1796875 0 34 L 0 13 C 0 5.820281982421875 5.820281982421875 0 13 0 Z" stroke="none" fill="#12263f"/>
    </g>
    <path id="Trazado_225638" data-name="Trazado 225638" d="M30.435,18.2H23.8V25H19.689V7.938H31.1v3.176H23.8v3.926h6.633ZM39.377,25A4.459,4.459,0,0,1,39,23.863a3.672,3.672,0,0,1-3.047,1.371,4.5,4.5,0,0,1-3.047-1.084,3.45,3.45,0,0,1-1.254-2.725,3.546,3.546,0,0,1,1.523-3.117,7.761,7.761,0,0,1,4.43-1.055h1.219v-.671q0-1.755-1.512-1.755a1.236,1.236,0,0,0-1.406,1.39H31.959a3.54,3.54,0,0,1,1.564-2.985,6.575,6.575,0,0,1,3.99-1.147,5.764,5.764,0,0,1,3.832,1.184,4.115,4.115,0,0,1,1.441,3.246v5.613a5.748,5.748,0,0,0,.539,2.672V25ZM36.9,22.422a2.2,2.2,0,0,0,1.225-.316,1.983,1.983,0,0,0,.7-.715V19.363H37.678q-2.062,0-2.062,1.852a1.131,1.131,0,0,0,.363.873A1.315,1.315,0,0,0,36.9,22.422Zm14.707-.984a.912.912,0,0,0-.527-.809,8.021,8.021,0,0,0-2-.633,9.138,9.138,0,0,1-2.437-.861,4.083,4.083,0,0,1-1.465-1.295,3.092,3.092,0,0,1-.5-1.746,3.5,3.5,0,0,1,1.441-2.877,5.938,5.938,0,0,1,3.773-1.131,6.579,6.579,0,0,1,4.031,1.137,3.555,3.555,0,0,1,1.523,2.988H51.482q0-1.523-1.605-1.523a1.591,1.591,0,0,0-1.043.346,1.07,1.07,0,0,0-.422.861.982.982,0,0,0,.516.855,4.872,4.872,0,0,0,1.646.539,14.228,14.228,0,0,1,1.986.5q2.859.984,2.859,3.527a3.321,3.321,0,0,1-1.541,2.824,6.758,6.758,0,0,1-3.99,1.09,6.9,6.9,0,0,1-2.906-.586,4.86,4.86,0,0,1-1.992-1.594,3.609,3.609,0,0,1-.715-2.121h3.691a1.526,1.526,0,0,0,.586,1.283,2.41,2.41,0,0,0,1.441.4,1.9,1.9,0,0,0,1.213-.328A1.05,1.05,0,0,0,51.611,21.438Zm11.789,3.8a6.518,6.518,0,0,1-4.723-1.74,6.009,6.009,0,0,1-1.8-4.529v-.328a7.787,7.787,0,0,1,.721-3.434,5.274,5.274,0,0,1,2.1-2.3,6.35,6.35,0,0,1,3.281-.814A5.489,5.489,0,0,1,67.2,13.744a6.516,6.516,0,0,1,1.547,4.623V19.9H60.893a2.846,2.846,0,0,0,.926,1.676,2.755,2.755,0,0,0,1.852.609,3.549,3.549,0,0,0,2.93-1.312l1.8,2.133a5.045,5.045,0,0,1-2.092,1.623A7.069,7.069,0,0,1,63.4,25.234Zm-.445-10.1q-1.734,0-2.062,2.3h3.984v-.3a1.956,1.956,0,0,0-.48-1.471A1.912,1.912,0,0,0,62.955,15.133Zm14.016,6.3a.912.912,0,0,0-.527-.809,8.021,8.021,0,0,0-2-.633A9.138,9.138,0,0,1,72,19.135a4.083,4.083,0,0,1-1.465-1.295,3.092,3.092,0,0,1-.5-1.746,3.5,3.5,0,0,1,1.441-2.877,5.938,5.938,0,0,1,3.773-1.131,6.579,6.579,0,0,1,4.031,1.137A3.555,3.555,0,0,1,80.8,16.211H76.842q0-1.523-1.605-1.523a1.591,1.591,0,0,0-1.043.346,1.07,1.07,0,0,0-.422.861.982.982,0,0,0,.516.855,4.872,4.872,0,0,0,1.646.539,14.228,14.228,0,0,1,1.986.5q2.859.984,2.859,3.527a3.321,3.321,0,0,1-1.541,2.824,6.758,6.758,0,0,1-3.99,1.09,6.9,6.9,0,0,1-2.906-.586,4.86,4.86,0,0,1-1.992-1.594,3.609,3.609,0,0,1-.715-2.121h3.691a1.526,1.526,0,0,0,.586,1.283,2.41,2.41,0,0,0,1.441.4,1.9,1.9,0,0,0,1.213-.328A1.05,1.05,0,0,0,76.971,21.438ZM88.1,18.566a7.746,7.746,0,0,1,1.3-4.746,4.282,4.282,0,0,1,3.633-1.734A3.641,3.641,0,0,1,95.9,13.422V7h3.961V25H96.307l-.2-1.359a3.739,3.739,0,0,1-3.094,1.594A4.274,4.274,0,0,1,89.428,23.5,7.991,7.991,0,0,1,88.1,18.566Zm3.949.246q0,3.375,1.969,3.375a1.944,1.944,0,0,0,1.875-1.1V16.258a1.892,1.892,0,0,0-1.852-1.125q-1.828,0-1.98,2.953Zm16.184,6.422a6.518,6.518,0,0,1-4.723-1.74,6.009,6.009,0,0,1-1.8-4.529v-.328a7.787,7.787,0,0,1,.721-3.434,5.274,5.274,0,0,1,2.1-2.3,6.35,6.35,0,0,1,3.281-.814,5.489,5.489,0,0,1,4.219,1.658,6.516,6.516,0,0,1,1.547,4.623V19.9h-7.852a2.846,2.846,0,0,0,.926,1.676,2.755,2.755,0,0,0,1.852.609,3.549,3.549,0,0,0,2.93-1.312l1.8,2.133a5.045,5.045,0,0,1-2.092,1.623A7.069,7.069,0,0,1,108.236,25.234Zm-.445-10.1q-1.734,0-2.062,2.3h3.984v-.3a1.956,1.956,0,0,0-.48-1.471A1.912,1.912,0,0,0,107.791,15.133ZM125.31,25H121.35V7h3.961Zm9.574,0a4.459,4.459,0,0,1-.375-1.137,3.672,3.672,0,0,1-3.047,1.371,4.5,4.5,0,0,1-3.047-1.084,3.45,3.45,0,0,1-1.254-2.725,3.546,3.546,0,0,1,1.523-3.117,7.761,7.761,0,0,1,4.43-1.055h1.219v-.671q0-1.755-1.512-1.755a1.236,1.236,0,0,0-1.406,1.39h-3.949a3.54,3.54,0,0,1,1.564-2.985,6.575,6.575,0,0,1,3.99-1.147,5.764,5.764,0,0,1,3.832,1.184,4.115,4.115,0,0,1,1.441,3.246v5.613a5.748,5.748,0,0,0,.539,2.672V25Zm-2.473-2.578a2.2,2.2,0,0,0,1.225-.316,1.983,1.983,0,0,0,.7-.715V19.363h-1.148q-2.062,0-2.062,1.852a1.131,1.131,0,0,0,.363.873A1.315,1.315,0,0,0,132.412,22.422Zm19.1-2.121,2-7.98h4.16L153.541,25H149.51l-4.137-12.68h4.172Zm13.477,4.934a6.518,6.518,0,0,1-4.723-1.74,6.009,6.009,0,0,1-1.8-4.529v-.328a7.787,7.787,0,0,1,.721-3.434,5.274,5.274,0,0,1,2.1-2.3,6.35,6.35,0,0,1,3.281-.814,5.489,5.489,0,0,1,4.219,1.658,6.516,6.516,0,0,1,1.547,4.623V19.9h-7.852a2.846,2.846,0,0,0,.926,1.676,2.755,2.755,0,0,0,1.852.609,3.549,3.549,0,0,0,2.93-1.312l1.8,2.133a5.045,5.045,0,0,1-2.092,1.623A7.069,7.069,0,0,1,164.99,25.234Zm-.445-10.1q-1.734,0-2.062,2.3h3.984v-.3a1.956,1.956,0,0,0-.48-1.471A1.912,1.912,0,0,0,164.545,15.133Zm11-2.812.129,1.488a4.3,4.3,0,0,1,3.621-1.723,3.618,3.618,0,0,1,2.959,1.184,5.635,5.635,0,0,1,1.014,3.563V25H179.31V17a2.14,2.14,0,0,0-.387-1.412,1.789,1.789,0,0,0-1.406-.451,1.883,1.883,0,0,0-1.723.914V25h-3.949V12.32Zm14.508-3.152V12.32h2.086v2.742h-2.086v5.8a1.481,1.481,0,0,0,.258,1,1.383,1.383,0,0,0,1.02.281,5.793,5.793,0,0,0,.984-.07v2.824a7.288,7.288,0,0,1-2.227.34,4.137,4.137,0,0,1-3.012-.961,3.939,3.939,0,0,1-.973-2.918V15.063H184.49V12.32h1.617V9.168ZM200.838,25a4.459,4.459,0,0,1-.375-1.137,3.672,3.672,0,0,1-3.047,1.371,4.5,4.5,0,0,1-3.047-1.084,3.45,3.45,0,0,1-1.254-2.725,3.546,3.546,0,0,1,1.523-3.117,7.761,7.761,0,0,1,4.43-1.055h1.219v-.671q0-1.755-1.512-1.755a1.236,1.236,0,0,0-1.406,1.39H193.42a3.54,3.54,0,0,1,1.564-2.985,6.575,6.575,0,0,1,3.99-1.147,5.764,5.764,0,0,1,3.832,1.184,4.115,4.115,0,0,1,1.441,3.246v5.613a5.748,5.748,0,0,0,.539,2.672V25Zm-2.473-2.578a2.2,2.2,0,0,0,1.225-.316,1.983,1.983,0,0,0,.7-.715V19.363h-1.148q-2.062,0-2.062,1.852a1.131,1.131,0,0,0,.363.873A1.315,1.315,0,0,0,198.365,22.422Z" transform="translate(688.805 1302.23)" fill="#12263f"/>
    <path id="Trazado_224285" data-name="Trazado 224285" d="M692.818,128.457v37.728" transform="translate(-226.333 1232.511)" fill="#1f2a40" stroke="#12263f" stroke-miterlimit="10" stroke-width="2"/>
    <path id="Trazado_225639" data-name="Trazado 225639" d="M4,0A4,4,0,1,1,0,4,4,4,0,0,1,4,0Z" transform="translate(462.667 1396.23)" fill="#12263f"/>
    <path id="Trazado_224285-2" data-name="Trazado 224285" d="M692.818,128.457v37.728" transform="translate(-61.31 1232.511)" fill="#1f2a40" stroke="#12263f" stroke-miterlimit="10" stroke-width="2"/>
    <path id="Trazado_225640" data-name="Trazado 225640" d="M4,0A4,4,0,1,1,0,4,4,4,0,0,1,4,0Z" transform="translate(627.69 1396.23)" fill="#12263f"/>
    <path id="Trazado_224285-3" data-name="Trazado 224285" d="M692.818,128.457v37.728" transform="translate(109.123 1232.511)" fill="#1f2a40" stroke="#12263f" stroke-miterlimit="10" stroke-width="2"/>
    <path id="Trazado_225641" data-name="Trazado 225641" d="M4,0A4,4,0,1,1,0,4,4,4,0,0,1,4,0Z" transform="translate(798.123 1396.23)" fill="#12263f"/>
    <path id="Trazado_224285-4" data-name="Trazado 224285" d="M692.818,128.457v37.728" transform="translate(275.637 1232.511)" fill="#1f2a40" stroke="#12263f" stroke-miterlimit="10" stroke-width="2"/>
    <path id="Trazado_225642" data-name="Trazado 225642" d="M4,0A4,4,0,1,1,0,4,4,4,0,0,1,4,0Z" transform="translate(964.636 1396.23)" fill="#12263f"/>
    <path id="Trazado_224285-5" data-name="Trazado 224285" d="M692.818,128.457v37.728" transform="translate(441.667 1232.511)" fill="#1f2a40" stroke="#12263f" stroke-miterlimit="10" stroke-width="2"/>
    <path id="Trazado_225643" data-name="Trazado 225643" d="M4,0A4,4,0,1,1,0,4,4,4,0,0,1,4,0Z" transform="translate(1130.667 1396.23)" fill="#12263f"/>
    <path id="Trazado_224286" data-name="Trazado 224286" d="M0,0V669.985" transform="translate(1135.482 1361.191) rotate(90)" fill="#1f2a40" stroke="#12263f" stroke-miterlimit="10" stroke-width="2"/>
  </g>
</svg>
