<svg xmlns="http://www.w3.org/2000/svg" width="56.918" height="36.046" viewBox="0 0 56.918 36.046">
  <g id="Grupo_156647" data-name="Grupo 156647" transform="translate(-128 -19.469)">
    <path id="Trazado_218394" data-name="Trazado 218394" d="M179.968,19.469H132.949A4.955,4.955,0,0,0,128,24.418V53.04a2.475,2.475,0,0,0,3.847,2.059l5.189-3.459h42.932a4.955,4.955,0,0,0,4.949-4.949V24.418A4.955,4.955,0,0,0,179.968,19.469Zm2.475,27.222a2.477,2.477,0,0,1-2.475,2.475H136.661a1.238,1.238,0,0,0-.686.208l-5.5,3.667V24.418a2.477,2.477,0,0,1,2.475-2.475h47.019a2.477,2.477,0,0,1,2.475,2.475Z" fill="#f57c22"/>
    <path id="Trazado_218395" data-name="Trazado 218395" d="M319.136,51.469A11.149,11.149,0,0,0,308,62.605c.585,14.763,21.69,14.759,22.272,0A11.149,11.149,0,0,0,319.136,51.469Zm0,19.8a8.671,8.671,0,0,1-8.661-8.661c.407-11.464,16.918-11.461,17.323,0A8.671,8.671,0,0,1,319.136,71.267Z" transform="translate(-152.16 -27.051)" fill="#f57c22"/>
    <path id="Trazado_218396" data-name="Trazado 218396" d="M353.35,75.069a4.637,4.637,0,0,0-5.437,4.949,1.238,1.238,0,0,0,2.475,0,2.085,2.085,0,0,1,1.987-2.475h.976a1.989,1.989,0,0,1,1.987,1.986c.069,1.1-.987,1.765-1.807,2.268-1.427.783-3.167,4.425-.668,4.8a1.237,1.237,0,0,0,1.237-1.237,1.8,1.8,0,0,1,.8-1.5C359.444,81.607,358.446,75.343,353.35,75.069Z" transform="translate(-185.886 -46.939)" fill="#f57c22"/>
    <path id="Trazado_218397" data-name="Trazado 218397" d="M373.332,155.438a1.237,1.237,0,1,0,1.22,1.22A1.237,1.237,0,0,0,373.332,155.438Z" transform="translate(-206.356 -114.939)" fill="#f57c22"/>
    <path id="Trazado_218398" data-name="Trazado 218398" d="M176.216,67.469H161.368a1.238,1.238,0,0,0,0,2.475h14.848a1.238,1.238,0,0,0,0-2.475Z" transform="translate(-27.181 -40.576)" fill="#f57c22"/>
    <path id="Trazado_218399" data-name="Trazado 218399" d="M176.219,107.469H161.371a1.238,1.238,0,0,0,0,2.475h14.848a1.238,1.238,0,0,0,0-2.475Z" transform="translate(-27.184 -74.389)" fill="#f57c22"/>
    <path id="Trazado_218400" data-name="Trazado 218400" d="M176.2,147.469H161.355a1.238,1.238,0,0,0,0,2.475H176.2a1.238,1.238,0,0,0,0-2.475Z" transform="translate(-27.168 -108.202)" fill="#f57c22"/>
  </g>
</svg>
