<svg xmlns="http://www.w3.org/2000/svg" width="109.849" height="109.484" viewBox="0 0 109.849 109.484">
  <g id="Grupo_158728" data-name="Grupo 158728" transform="translate(0 -0.85)">
    <g id="Grupo_158711" data-name="Grupo 158711" transform="translate(1.611 53.278)">
      <path id="Trazado_224162" data-name="Trazado 224162" d="M22.945,300.659H11.709a4.2,4.2,0,0,1-4.2-4.2V249.416a4.2,4.2,0,0,1,4.2-4.2H22.945a4.2,4.2,0,0,1,4.2,4.2v47.041a4.2,4.2,0,0,1-4.2,4.2Z" transform="translate(-7.507 -245.213)" fill="#57be92"/>
    </g>
    <g id="Grupo_158712" data-name="Grupo 158712" transform="translate(12.775 53.279)">
      <path id="Trazado_224163" data-name="Trazado 224163" d="M68.019,249.419v47.04a4.2,4.2,0,0,1-4.2,4.2H59.542a4.2,4.2,0,0,0,4.2-4.2v-47.04a4.2,4.2,0,0,0-4.2-4.2h4.273A4.2,4.2,0,0,1,68.019,249.419Z" transform="translate(-59.542 -245.217)" fill="#09a76d"/>
    </g>
    <g id="Grupo_158713" data-name="Grupo 158713" transform="translate(21.251 30.092)">
      <path id="Trazado_224164" data-name="Trazado 224164" d="M134.925,166.535s-.523-1.61-.752-2.1a6.147,6.147,0,0,1-.539-3.4c.339-2.6.429-5.252.507-7.741.128-4.1-.373-8.821-3.19-12.025a12.2,12.2,0,0,0-9.188-4.123,2.468,2.468,0,0,0-2.425,2.482v7.153c0,5.535-1.02,11.806-4.608,16.225-4.742,5.841-8.982,5.052-15.68,5.061v39.464h3.788a6.326,6.326,0,0,1,3.939,1.387c1.828,1.455,5.4,5.208,10.888,5.208h34.227V166.535Z" transform="translate(-99.051 -137.145)" fill="#fed2a4"/>
    </g>
    <g id="Grupo_158716" data-name="Grupo 158716" transform="translate(43.964 30.092)">
      <g id="Grupo_158715" data-name="Grupo 158715">
        <g id="Grupo_158714" data-name="Grupo 158714">
          <path id="Trazado_224165" data-name="Trazado 224165" d="M204.912,137.146a12.2,12.2,0,0,1,9.188,4.123c2.817,3.2,3.319,7.921,3.19,12.025-.078,2.489-.168,5.141-.507,7.741a6.147,6.147,0,0,0,.539,3.4c.143.306.4,1.053.576,1.568a11.4,11.4,0,0,1,.573,2.958,12.3,12.3,0,0,1-1.127,5.667,13.336,13.336,0,0,1-6.556,6.076,2.61,2.61,0,0,1-3.831-2.165,2.665,2.665,0,0,1,.7-1.919c.883-.983,2.2-1.417,3.169-2.3a5.962,5.962,0,0,0,2.132-4.5,11.4,11.4,0,0,0-.843-3.951,11.833,11.833,0,0,1-.926-3.274,10.779,10.779,0,0,1,.116-2.136c.162-1.342.444-2.669.512-4.021a22.6,22.6,0,0,0-.377-5.288,28.416,28.416,0,0,0-3.9-9.819Z" transform="translate(-204.912 -137.146)" fill="#ffbd86"/>
        </g>
      </g>
    </g>
    <g id="Grupo_158717" data-name="Grupo 158717" transform="translate(58.201 2.461)">
      <path id="Trazado_224166" data-name="Trazado 224166" d="M300.365,10.889l4.212,8.534A4.544,4.544,0,0,0,308,21.908l9.418,1.369a4.543,4.543,0,0,1,2.518,7.749l-6.815,6.643a4.544,4.544,0,0,0-1.307,4.021l1.609,9.379a4.543,4.543,0,0,1-6.592,4.789l-8.423-4.428a4.545,4.545,0,0,0-4.228,0l-8.423,4.428a4.543,4.543,0,0,1-6.592-4.789l1.609-9.379a4.543,4.543,0,0,0-1.307-4.021l-6.815-6.643a4.543,4.543,0,0,1,2.518-7.749l9.418-1.369a4.543,4.543,0,0,0,3.421-2.485l4.212-8.534a4.543,4.543,0,0,1,8.148,0Z" transform="translate(-271.272 -8.357)" fill="#fee45a"/>
    </g>
    <g id="Grupo_158718" data-name="Grupo 158718" transform="translate(93.27 17.061)">
      <path id="Trazado_224167" data-name="Trazado 224167" d="M441.5,91.12a4.549,4.549,0,0,0-1.305,4.023l1.609,9.379a4.544,4.544,0,0,1-6.593,4.79l-.487-.256a4.652,4.652,0,0,0,2.45-4.948l-1.66-9.684a4.7,4.7,0,0,1,1.348-4.153l7.037-6.857a4.7,4.7,0,0,0-.308-7l2.207.321a4.542,4.542,0,0,1,2.516,7.748Z" transform="translate(-434.725 -76.409)" fill="#fed402"/>
    </g>
    <g id="Grupo_158719" data-name="Grupo 158719" transform="translate(63.103 59.512)">
      <path id="Trazado_224168" data-name="Trazado 224168" d="M313.81,286.161H300.064a5.945,5.945,0,0,1,0-11.89H313.81a5.945,5.945,0,0,1,0,11.89Z" transform="translate(-294.119 -274.271)" fill="#f6a96c"/>
    </g>
    <g id="Grupo_158720" data-name="Grupo 158720" transform="translate(63.103 83.293)">
      <path id="Trazado_224169" data-name="Trazado 224169" d="M313.81,397H300.064a5.945,5.945,0,0,1,0-11.89H313.81a5.945,5.945,0,0,1,0,11.89Z" transform="translate(-294.119 -385.114)" fill="#f6a96c"/>
    </g>
    <g id="Grupo_158721" data-name="Grupo 158721" transform="translate(59.707 95.184)">
      <path id="Trazado_224170" data-name="Trazado 224170" d="M297.983,452.425H284.237a5.945,5.945,0,1,1,0-11.89h13.746a5.945,5.945,0,1,1,0,11.89Z" transform="translate(-278.292 -440.535)" fill="#f6a96c"/>
    </g>
    <g id="Grupo_158722" data-name="Grupo 158722" transform="translate(65.895 71.403)">
      <path id="Trazado_224171" data-name="Trazado 224171" d="M326.824,341.584H313.078a5.945,5.945,0,0,1,0-11.89h13.746a5.945,5.945,0,1,1,0,11.89Z" transform="translate(-307.133 -329.694)" fill="#f6a96c"/>
    </g>
    <g id="Grupo_158723" data-name="Grupo 158723" transform="translate(63.102 59.512)">
      <path id="Trazado_224172" data-name="Trazado 224172" d="M319.752,280.217a5.913,5.913,0,0,1-.4,2.136,5.942,5.942,0,0,0-5.546-3.809H300.062a5.942,5.942,0,0,0-5.548,3.809,5.944,5.944,0,0,1,5.548-8.082h13.747a5.945,5.945,0,0,1,5.944,5.946Z" transform="translate(-294.116 -274.271)" fill="#ea9b58"/>
    </g>
    <g id="Grupo_158724" data-name="Grupo 158724" transform="translate(63.102 83.294)">
      <path id="Trazado_224173" data-name="Trazado 224173" d="M319.752,391.062a5.913,5.913,0,0,1-.4,2.136,5.941,5.941,0,0,0-5.546-3.809H300.062a5.942,5.942,0,0,0-5.548,3.809,5.944,5.944,0,0,1,5.548-8.082h13.747a5.945,5.945,0,0,1,5.944,5.946Z" transform="translate(-294.116 -385.116)" fill="#ea9b58"/>
    </g>
    <g id="Grupo_158725" data-name="Grupo 158725" transform="translate(59.708 95.182)">
      <path id="Trazado_224174" data-name="Trazado 224174" d="M303.931,446.475a5.859,5.859,0,0,1-.4,2.137,5.944,5.944,0,0,0-5.548-3.809H284.24a5.942,5.942,0,0,0-5.548,3.809,5.859,5.859,0,0,1-.4-2.136,5.944,5.944,0,0,1,5.945-5.945h13.745a5.946,5.946,0,0,1,5.946,5.946Z" transform="translate(-278.295 -440.529)" fill="#ea9b58"/>
    </g>
    <g id="Grupo_158726" data-name="Grupo 158726" transform="translate(65.894 71.403)">
      <path id="Trazado_224175" data-name="Trazado 224175" d="M332.767,335.64a5.868,5.868,0,0,1-.4,2.136,5.941,5.941,0,0,0-5.546-3.809H313.076a5.942,5.942,0,0,0-5.548,3.809,5.868,5.868,0,0,1-.4-2.136,5.944,5.944,0,0,1,5.945-5.945h13.747a5.944,5.944,0,0,1,5.943,5.946Z" transform="translate(-307.131 -329.694)" fill="#ea9b58"/>
    </g>
    <g id="Grupo_158727" data-name="Grupo 158727" transform="translate(0 0.85)">
      <path id="Trazado_224176" data-name="Trazado 224176" d="M315.163,26.283a6.154,6.154,0,0,0-3.41-10.5l-9.417-1.368a2.933,2.933,0,0,1-2.208-1.6L295.916,4.28a6.154,6.154,0,0,0-11.036,0l-4.212,8.534a2.933,2.933,0,0,1-2.208,1.6l-9.417,1.368a6.154,6.154,0,0,0-3.411,10.5l6.815,6.642a2.932,2.932,0,0,1,.843,2.6L271.681,44.9a6.146,6.146,0,0,0,8.928,6.487l8.423-4.428a2.932,2.932,0,0,1,2.729,0l8.423,4.428a6.154,6.154,0,0,0,8.929-6.487l-.308-1.8a1.611,1.611,0,0,0-3.175.544l.308,1.8a2.933,2.933,0,0,1-4.255,3.092l-8.423-4.428a6.151,6.151,0,0,0-5.727,0l-8.423,4.428a2.933,2.933,0,0,1-4.255-3.092l1.608-9.379a6.151,6.151,0,0,0-1.769-5.447l-6.815-6.643a2.933,2.933,0,0,1,1.625-5l9.417-1.368a6.154,6.154,0,0,0,4.634-3.366l4.212-8.534a2.933,2.933,0,0,1,5.259,0l4.212,8.534a6.154,6.154,0,0,0,4.634,3.366l9.417,1.368a2.932,2.932,0,0,1,1.625,5L306.1,30.619a6.152,6.152,0,0,0-1.77,5.447l.053.312a1.611,1.611,0,0,0,3.175-.544l-.054-.312a2.932,2.932,0,0,1,.843-2.6Z" transform="translate(-207.178 -0.85)"/>
      <path id="Trazado_224177" data-name="Trazado 224177" d="M88.516,171.54a7.55,7.55,0,0,0-5.722-12.482l-24.512-.03c0-.01-.275-.8-.447-1.164l0-.006a4.532,4.532,0,0,1-.4-2.512c.359-2.75.448-5.6.52-7.9.184-5.884-.99-10.182-3.59-13.139a13.736,13.736,0,0,0-10.319-4.67h-.089a4.083,4.083,0,0,0-4.025,4.093v7.153c0,4.552-.737,10.885-4.247,15.21-3.724,4.587-6.94,4.548-12.266,4.482l-.554-.006v-1.933a5.82,5.82,0,0,0-5.813-5.813H5.813A5.82,5.82,0,0,0,0,158.637v16.172a1.611,1.611,0,0,0,3.221,0V158.637a2.6,2.6,0,0,1,2.592-2.592H17.048a2.6,2.6,0,0,1,2.592,2.592v47.041a2.6,2.6,0,0,1-2.592,2.592H5.813a2.6,2.6,0,0,1-2.592-2.592v-23.52a1.611,1.611,0,1,0-3.221,0v23.52a5.82,5.82,0,0,0,5.813,5.813H17.048a5.819,5.819,0,0,0,5.813-5.813v-2.432h2.177a4.737,4.737,0,0,1,2.936,1.037c.217.173.47.389.763.639,2.014,1.719,5.762,4.92,11.128,4.92H79.4a7.551,7.551,0,0,0,5.869-12.308,7.547,7.547,0,0,0,3.249-12.064,7.556,7.556,0,0,0,0-13.929Zm-19.468-9.261H82.794a4.335,4.335,0,1,1,0,8.669H69.048a4.335,4.335,0,0,1,0-8.669ZM59.469,206.62h-19.6c-4.178,0-7.1-2.5-9.037-4.148-.3-.258-.588-.5-.849-.71a7.971,7.971,0,0,0-4.942-1.737H22.861V163.791l.514.006c5.642.068,10.1.124,14.807-5.673,2.266-2.792,4.968-8.049,4.968-17.24v-7.153a.854.854,0,0,1,.825-.872h.065a10.662,10.662,0,0,1,7.9,3.576c2.035,2.314,2.947,5.883,2.79,10.912-.069,2.223-.156,4.991-.494,7.583a7.744,7.744,0,0,0,.677,4.294l.011.024.017.038,0,.008a11.287,11.287,0,0,1,.968,3.847,10.757,10.757,0,0,1-.991,4.942,11.679,11.679,0,0,1-5.736,5.255,1.611,1.611,0,0,0-.819,2.125c1.247,2.812,5.878-1.415,7.021-2.6a12.448,12.448,0,0,0,2.476-3.468,13.931,13.931,0,0,0,1.267-6.4c-.011-.24-.033-.489-.062-.743h3.817a7.547,7.547,0,0,0,3.233,11.329,7.534,7.534,0,0,0,0,9.852,7.549,7.549,0,0,0-2.939,11.717,7.546,7.546,0,0,0-3.711,11.472Zm19.93,0H65.644a4.334,4.334,0,0,1,.008-8.669H79.4a4.335,4.335,0,1,1,0,8.669Zm3.4-11.89H69.048a4.335,4.335,0,1,1,0-8.669H82.794a4.335,4.335,0,1,1,0,8.669Zm2.792-11.89H71.84a4.335,4.335,0,1,1,0-8.669H85.586a4.335,4.335,0,1,1,0,8.669Z" transform="translate(0 -102.007)"/>
    </g>
  </g>
</svg>
