<svg xmlns="http://www.w3.org/2000/svg" xmlns:xlink="http://www.w3.org/1999/xlink" width="399.895" height="565.341" viewBox="0 0 399.895 565.341">
  <defs>
    <filter id="Trazado_217093" x="0" y="1.933" width="399.895" height="562.804" filterUnits="userSpaceOnUse">
      <feOffset dy="3" input="SourceAlpha"/>
      <feGaussianBlur stdDeviation="3" result="blur"/>
      <feFlood flood-opacity="0.161" result="color"/>
      <feComposite operator="out" in="SourceGraphic" in2="blur"/>
      <feComposite operator="in" in="color"/>
      <feComposite operator="in" in2="SourceGraphic"/>
    </filter>
    <filter id="Rectángulo_41934">
      <feOffset dy="3" input="SourceAlpha"/>
      <feGaussianBlur stdDeviation="3" result="blur-2"/>
      <feFlood flood-opacity="0.161" result="color-2"/>
      <feComposite operator="out" in="SourceGraphic" in2="blur-2"/>
      <feComposite operator="in" in="color-2"/>
      <feComposite operator="in" in2="SourceGraphic"/>
    </filter>
  </defs>
  <g id="Grupo_158760" data-name="Grupo 158760" transform="translate(-180 -1325.263)">
    <g id="Grupo_146703" data-name="Grupo 146703" transform="translate(-252 -2532.736)">
      <g id="Grupo_146692" data-name="Grupo 146692" transform="translate(432 3858)">
        <g data-type="innerShadowGroup">
          <path id="Trazado_217093-2" data-name="Trazado 217093" d="M27.474,0H372.421c15.173,0,27.474,13.58,27.474,30.331V532.473c0,16.751-12.3,30.331-27.474,30.331H27.474C12.3,562.8,0,549.224,0,532.473V30.331C0,13.58,12.3,0,27.474,0Z" transform="translate(0 1.932)" fill="#feebde"/>
          <g transform="matrix(1, 0, 0, 1, 0, 0)" filter="url(#Trazado_217093)">
            <path id="Trazado_217093-3" data-name="Trazado 217093" d="M27.474,0H372.421c15.173,0,27.474,13.58,27.474,30.331V532.473c0,16.751-12.3,30.331-27.474,30.331H27.474C12.3,562.8,0,549.224,0,532.473V30.331C0,13.58,12.3,0,27.474,0Z" transform="translate(0 1.93)" fill="#fff"/>
          </g>
        </g>
        <path id="Trazado_217148" data-name="Trazado 217148" d="M-1079.093-7840.218s16.115,300.757-124.65,398.689-222.453,57.483-222.453,57.483v85.283s5.573,19.235,25.435,21.116,353.478,0,353.478,0,16.713-1.73,18.619-21.116,0-513.753,0-513.753,1.531-23.351-18.619-27.7S-1079.093-7840.218-1079.093-7840.218Z" transform="translate(1426.195 7842.153)" fill="#fcd1b1" opacity="0.3"/>
        <g data-type="innerShadowGroup">
          <g transform="matrix(1, 0, 0, 1, 0, 0)" filter="url(#Rectángulo_41934)">
            <rect id="Rectángulo_41934-2" data-name="Rectángulo 41934" width="362.191" height="528.195" rx="15" transform="translate(18.44 18.7)" fill="#fff" opacity="0.442"/>
          </g>
          <g id="Rectángulo_41934-3" data-name="Rectángulo 41934" transform="translate(18.445 18.7)" fill="none" stroke="#f57c22" stroke-width="3" opacity="0.442">
            <rect width="362.191" height="528.195" rx="15" stroke="none"/>
            <rect x="1.5" y="1.5" width="359.191" height="525.195" rx="13.5" fill="none"/>
          </g>
        </g>
      </g>
    </g>
    <g id="Grupo_158756" data-name="Grupo 158756" transform="translate(-284.542 1500.249)">
      <circle id="Elipse_6206" data-name="Elipse 6206" cx="6.043" cy="6.043" r="6.043" transform="translate(658.229 180.926)" fill="#f57c22"/>
      <g id="Grupo_158755" data-name="Grupo 158755">
        <path id="Trazado_224209" data-name="Trazado 224209" d="M795.187,145.193,776.722,15.93c-3.866-27.078-28.148-48.178-55.545-48.178H689.349a6.055,6.055,0,0,0-6.056,6.055,6.056,6.056,0,0,0,6.056,6.056h31.828a44.21,44.21,0,0,1,43.557,37.779L783.2,146.9a19.089,19.089,0,0,1,.05,5.037l-2.81,22.479a6.056,6.056,0,0,0,5.258,6.76,6.387,6.387,0,0,0,.758.048,6.057,6.057,0,0,0,6-5.3l2.811-22.484a31.158,31.158,0,0,0-.078-8.248Z" fill="#f57c22"/>
        <path id="Trazado_224224" data-name="Trazado 224224" d="M677.881,242.707a208.748,208.748,0,0,0,50.218-9.954L745.217,369.28h12.205l-3.674-29.311,18.363-15.459a31.01,31.01,0,0,0,11.07-23.776V250.063l5.992-47.941a6.056,6.056,0,0,0-5.258-6.76h0a6.057,6.057,0,0,0-6.76,5.258l-6.039,48.315c-.031.249-.047,51.8-.047,51.8a18.926,18.926,0,0,1-6.758,14.511l-12.36,10.406-4.747-37.857s10.843-37.216,10.877-37.628l8.074-100.318a6.041,6.041,0,0,0-.2-2.086L745.565,73.313V23.968a6.056,6.056,0,1,0-12.111,0V61.993c-14.733-12.1-23.651-24.891-27.763-39.65a6.055,6.055,0,1,0-11.666,3.25c5.347,19.193,17.329,35.277,37.54,50.286l-16.474,29.2c-10.062-9.981-16.6-20.7-19.912-32.582a6.056,6.056,0,0,0-11.667,3.25c4.155,14.913,12.493,28.114,25.432,40.227-10.2,14.827-17.026,36.88-8.73,54.091L724.773,221.1a196.771,196.771,0,0,1-47.733,9.529,6.224,6.224,0,0,0-5.62,6.461C671.405,241.051,674.95,242.911,677.881,242.707Zm33.414-77.544a43.958,43.958,0,0,1,1.136-30.705v0l25.126-44.54L754,149.94l-7.939,98.64-2.64,9.025L739.2,223.953a6.11,6.11,0,0,0-.62-2.09Z" fill="#f57c22"/>
        <path id="Trazado_224225" data-name="Trazado 224225" d="M647.509,369.28,664.271,319l16.763,50.284H693.8l-23.785-71.353a6.055,6.055,0,0,0-11.489,0L634.742,369.28Z" fill="#f57c22"/>
        <path id="Trazado_224226" data-name="Trazado 224226" d="M556.428,324.516l18.365,15.46-3.674,29.3h12.206l17.117-136.52a208.728,208.728,0,0,0,50.218,9.954v0q4.4.3,6.461-5.62a6.055,6.055,0,0,0-5.62-6.461h0a196.77,196.77,0,0,1-47.733-9.529l24.559-51.032c8.3-17.211,1.474-39.264-8.73-54.091,12.939-12.113,21.278-25.314,25.432-40.227a6.056,6.056,0,0,0-11.667-3.25c-3.311,11.886-9.85,22.6-19.912,32.582l-16.474-29.2c20.213-15.013,32.2-31.1,37.543-50.29a6.055,6.055,0,0,0-11.666-3.25c-4.113,14.76-13.031,27.554-27.763,39.65V23.968a6.055,6.055,0,1,0-12.111,0V73.313l-20.4,74.453a6.065,6.065,0,0,0-.2,2.086L570.45,250.17c.034.412,10.877,37.628,10.877,37.628l-4.747,37.858-12.362-10.407a18.923,18.923,0,0,1-6.756-14.51s-.016-51.554-.047-51.8L545.3,151.947a19.033,19.033,0,0,1,.05-5.041l10.9-76.307a6.055,6.055,0,1,0-11.989-1.712l-10.9,76.308a31.15,31.15,0,0,0-.078,8.252l12.08,96.619v50.675A31.007,31.007,0,0,0,556.428,324.516Zm18.113-174.577,16.446-60.026,25.126,44.54a43.955,43.955,0,0,1,1.136,30.7l-27.288,56.7a6.077,6.077,0,0,0-.622,2.091L585.12,257.6l-2.64-9.025Z" fill="#f57c22"/>
        <path id="Trazado_224213" data-name="Trazado 224213" d="M553.126,49.61a6.246,6.246,0,0,0,.865.061,6.058,6.058,0,0,0,5.987-5.2l3.835-26.831a44.211,44.211,0,0,1,43.555-37.778H639.2a6.056,6.056,0,0,0,6.055-6.056,6.055,6.055,0,0,0-6.055-6.055H607.365c-27.353,0-51.672,21.057-55.539,48.179l-3.84,26.828a6.056,6.056,0,0,0,5.137,6.852Z" fill="#f57c22"/>
      </g>
    </g>
  </g>
</svg>
