<svg xmlns="http://www.w3.org/2000/svg" width="169" height="106.225" viewBox="0 0 169 106.225">
  <g id="Grupo_158813" data-name="Grupo 158813" transform="translate(-180 -1935.533)">
    <path id="Trazado_113613" data-name="Trazado 113613" d="M-22,0H107a40,40,0,0,1,0,80H-22Z" transform="translate(202 1952.646)" fill="rgba(121,210,220,0.2)"/>
    <g id="Layer_49" data-name="Layer 49" transform="translate(194.947 1921.467)">
      <g id="Grupo_158812" data-name="Grupo 158812" transform="translate(0 14.067)">
        <g id="Grupo_158765" data-name="Grupo 158765" transform="translate(43.173 24.402)">
          <path id="Trazado_224231" data-name="Trazado 224231" d="M206.807,153.491c-5.553,6.983-13.745,6-16.5,5.422a.811.811,0,0,0-.981.784v12.241a15.2,15.2,0,0,0,30.408,0V158.393c0-.079,0-.159,0-.238a.815.815,0,0,0-.785-.8c-6.316-.185-9.644-2.689-10.923-3.942A.819.819,0,0,0,206.807,153.491Z" transform="translate(-189.326 -153.179)" fill="#f9d0b4"/>
        </g>
        <g id="Grupo_158766" data-name="Grupo 158766" transform="translate(73.542 31.573)">
          <path id="Trazado_224232" data-name="Trazado 224232" d="M323.52,184.624a6.309,6.309,0,0,0-.976.078v11.51c0,.343-.016.682-.038,1.02a6.345,6.345,0,1,0,1.014-12.607Z" transform="translate(-322.506 -184.624)" fill="#f9d0b4"/>
        </g>
        <g id="Grupo_158767" data-name="Grupo 158767" transform="translate(35.849 31.573)">
          <path id="Trazado_224233" data-name="Trazado 224233" d="M164.535,196.211V184.7a6.35,6.35,0,1,0,.038,12.529h0C164.551,196.893,164.535,196.554,164.535,196.211Z" transform="translate(-157.212 -184.624)" fill="#f9d0b4"/>
        </g>
        <g id="Grupo_158768" data-name="Grupo 158768" transform="translate(26.252 56.639)">
          <path id="Trazado_224234" data-name="Trazado 224234" d="M177.688,312.245a6,6,0,0,0-4.526-5.485l-8.728-2.2a29.782,29.782,0,0,1-2.9-.893l-6.524,7.527a1.667,1.667,0,0,1-2.351.168l-2.908-2.521a1.667,1.667,0,0,1-.168-2.351l5.612-6.475a5.234,5.234,0,0,1-.948-3v-2.475a15.081,15.081,0,0,1-14.009,0v2.474a5.238,5.238,0,0,1-.976,3.043l5.573,6.43a1.667,1.667,0,0,1-.168,2.351l-2.908,2.521a1.667,1.667,0,0,1-2.351-.168l-6.507-7.507c-.93.336-1.875.629-2.834.871l-8.738,2.2a6,6,0,0,0-4.526,5.485l-1.681,28.987a1.668,1.668,0,0,0,1.666,1.761H177.7a1.668,1.668,0,0,0,1.666-1.761Z" transform="translate(-115.122 -294.546)" fill="#3caadc"/>
        </g>
        <g id="Grupo_158769" data-name="Grupo 158769" transform="translate(75.465 1.14)">
          <path id="Trazado_224235" data-name="Trazado 224235" d="M351.115,51.167A20.075,20.075,0,0,0,345.333,90.5a2.085,2.085,0,0,1,1.494,2v3.292a.752.752,0,0,0,1.229.581l6.136-5.045a2.138,2.138,0,0,1,.926-.436,20.072,20.072,0,0,0-4-39.721Z" transform="translate(-330.941 -51.167)" fill="#5290db"/>
        </g>
        <g id="Grupo_158770" data-name="Grupo 158770" transform="translate(1.14 1.14)">
          <path id="Trazado_224236" data-name="Trazado 224236" d="M24.974,51.167A20.075,20.075,0,0,1,30.756,90.5a2.085,2.085,0,0,0-1.494,2v3.292a.752.752,0,0,1-1.229.581L21.9,91.324a2.138,2.138,0,0,0-.926-.436,20.072,20.072,0,0,1,4-39.721Z" transform="translate(-5 -51.167)" fill="#f5c84c"/>
        </g>
        <g id="Grupo_158771" data-name="Grupo 158771" transform="translate(38.236 10.239)">
          <path id="Trazado_224237" data-name="Trazado 224237" d="M204.91,101.7a19.824,19.824,0,0,1,.788-5.2,8.6,8.6,0,0,0-10.419-1.176,8.693,8.693,0,0,0-7.448-4.251h-4.46a15.71,15.71,0,0,0-13.046,7,19.986,19.986,0,0,1-2.647,14.614v1.111a6.315,6.315,0,0,1,3.96-1.392,6.428,6.428,0,0,1,.976.077v-.731a.812.812,0,0,1,.981-.784c2.754.576,10.946,1.562,16.5-5.421a.819.819,0,0,1,1.217-.077c1.279,1.254,4.607,3.757,10.923,3.942a.815.815,0,0,1,.785.8c0,.079,0,.158,0,.238v2.034a6.312,6.312,0,0,1,5.378,1.7v-.825A19.982,19.982,0,0,1,204.91,101.7Z" transform="translate(-167.678 -91.068)" fill="#754e34"/>
        </g>
        <g id="Grupo_158772" data-name="Grupo 158772" transform="translate(50.395 56.638)">
          <path id="Trazado_224238" data-name="Trazado 224238" d="M226.573,306.492a1.65,1.65,0,0,1,.4.956h3.954a1.656,1.656,0,0,1,.4-.956l5.612-6.475a5.233,5.233,0,0,1-.948-3v-2.475a15.081,15.081,0,0,1-14.009,0v2.474a5.238,5.238,0,0,1-.976,3.043Z" transform="translate(-221 -294.544)" fill="#f9d0b4"/>
        </g>
        <g id="Grupo_158773" data-name="Grupo 158773" transform="translate(60.309 62.111)">
          <path id="Trazado_224239" data-name="Trazado 224239" d="M267.959,329.891a1.667,1.667,0,0,0,2.351-.168l6.524-7.527a29.832,29.832,0,0,1-3.156-1.352c-.85-.425-1.586-.8-1.723-.887a5.253,5.253,0,0,1-1.461-1.414l-5.612,6.475a1.667,1.667,0,0,0,.168,2.351Z" transform="translate(-264.475 -318.544)" fill="#70d6f9"/>
        </g>
        <g id="Grupo_158774" data-name="Grupo 158774" transform="translate(44.034 62.156)">
          <path id="Trazado_224240" data-name="Trazado 224240" d="M197.706,320.3c-.071.039-.724.363-1.5.748a29.693,29.693,0,0,1-3.1,1.316l6.507,7.507a1.667,1.667,0,0,0,2.351.168l2.908-2.521a1.667,1.667,0,0,0,.168-2.351l-5.573-6.43a5.25,5.25,0,0,1-1.758,1.563Z" transform="translate(-193.102 -318.742)" fill="#70d6f9"/>
        </g>
        <g id="Grupo_158775" data-name="Grupo 158775" transform="translate(26.252 89.945)">
          <path id="Trazado_224241" data-name="Trazado 224241" d="M126.3,440.606H115.9l-.776,13.379a1.668,1.668,0,0,0,1.666,1.76H126.3Z" transform="translate(-115.124 -440.606)" fill="#f9d0b4"/>
        </g>
        <g id="Grupo_158776" data-name="Grupo 158776" transform="translate(79.545 89.945)">
          <path id="Trazado_224242" data-name="Trazado 224242" d="M359.009,440.606H348.832v15.14h9.288a1.668,1.668,0,0,0,1.666-1.76Z" transform="translate(-348.832 -440.606)" fill="#f9d0b4"/>
        </g>
        <g id="Grupo_158777" data-name="Grupo 158777" transform="translate(15.787 25.248)">
          <path id="Trazado_224243" data-name="Trazado 224243" d="M74.383,160.889a6.389,6.389,0,0,1-4.886-2.127,1.14,1.14,0,0,1,1.748-1.465,4.411,4.411,0,0,0,6.277,0,1.14,1.14,0,0,1,1.748,1.465A6.391,6.391,0,0,1,74.383,160.889Z" transform="translate(-69.23 -156.889)"/>
        </g>
        <g id="Grupo_158778" data-name="Grupo 158778" transform="translate(24.961 16.864)">
          <circle id="Elipse_6206" data-name="Elipse 6206" cx="1.791" cy="1.791" r="1.791"/>
        </g>
        <g id="Grupo_158779" data-name="Grupo 158779" transform="translate(12.934 16.864)">
          <circle id="Elipse_6207" data-name="Elipse 6207" cx="1.791" cy="1.791" r="1.791"/>
        </g>
        <g id="Grupo_158780" data-name="Grupo 158780" transform="translate(90.582 25.248)">
          <path id="Trazado_224244" data-name="Trazado 224244" d="M406.4,160.89a1.138,1.138,0,0,1-.874-.408,4.411,4.411,0,0,0-6.277,0,1.14,1.14,0,0,1-1.748-1.465,6.676,6.676,0,0,1,9.773,0,1.14,1.14,0,0,1-.873,1.873Z" transform="translate(-397.231 -156.89)"/>
        </g>
        <g id="Grupo_158781" data-name="Grupo 158781" transform="translate(99.756 16.864)">
          <circle id="Elipse_6208" data-name="Elipse 6208" cx="1.791" cy="1.791" r="1.791"/>
        </g>
        <g id="Grupo_158782" data-name="Grupo 158782" transform="translate(87.729 16.864)">
          <circle id="Elipse_6209" data-name="Elipse 6209" cx="1.791" cy="1.791" r="1.791"/>
        </g>
        <g id="Grupo_158783" data-name="Grupo 158783" transform="translate(42.032 23.262)">
          <path id="Trazado_224245" data-name="Trazado 224245" d="M200.67,184.419a16.362,16.362,0,0,1-16.344-16.344v-12.23a1.935,1.935,0,0,1,.718-1.513,1.955,1.955,0,0,1,1.637-.4c2.934.615,10.308,1.356,15.374-5.015a1.959,1.959,0,0,1,2.907-.181c1.049,1.028,4.139,3.44,10.158,3.617a1.951,1.951,0,0,1,1.891,1.915l0,.261v13.544a16.362,16.362,0,0,1-16.344,16.344Zm-14.064-28.176v11.831a14.064,14.064,0,1,0,28.127,0V154.623c-6.041-.251-9.479-2.513-11.113-4.014-5.742,6.939-14.024,6.188-17.014,5.635Zm16.34-6.614h0Z" transform="translate(-184.326 -148.177)"/>
        </g>
        <g id="Grupo_158784" data-name="Grupo 158784" transform="translate(72.831 30.433)">
          <path id="Trazado_224246" data-name="Trazado 224246" d="M321.114,194.6a6.809,6.809,0,0,1-.7-.037,1.14,1.14,0,1,1,.234-2.268,4.54,4.54,0,0,0,.468.026,5.207,5.207,0,1,0,0-10.415c-.121,0-.241,0-.359.013a1.14,1.14,0,1,1-.169-2.274c.175-.013.351-.02.529-.02a7.488,7.488,0,0,1,0,14.975Z" transform="translate(-319.389 -179.624)"/>
        </g>
        <g id="Grupo_158785" data-name="Grupo 158785" transform="translate(34.709 30.433)">
          <path id="Trazado_224247" data-name="Trazado 224247" d="M159.7,194.6a7.488,7.488,0,0,1,0-14.975q.3,0,.587.024a1.14,1.14,0,0,1-.187,2.273q-.2-.016-.4-.016a5.207,5.207,0,0,0,0,10.415c.124,0,.247-.006.368-.016a1.14,1.14,0,0,1,.189,2.272q-.276.024-.557.024Z" transform="translate(-152.21 -179.624)"/>
        </g>
        <g id="Grupo_158786" data-name="Grupo 158786" transform="translate(25.112 55.792)">
          <path id="Trazado_224248" data-name="Trazado 224248" d="M173.845,341.267H112.933a2.808,2.808,0,0,1-2.8-2.964l1.681-28.989a7.108,7.108,0,0,1,5.386-6.524l8.738-2.2c.888-.223,1.8-.5,2.726-.837a1.14,1.14,0,0,1,1.249.326l6.507,7.507a.527.527,0,0,0,.743.053l2.908-2.521a.527.527,0,0,0,.053-.743l-5.573-6.43a1.14,1.14,0,0,1-.067-1.408,4.083,4.083,0,0,0,.765-2.382v-2.18a1.14,1.14,0,1,1,2.28,0v2.18a6.331,6.331,0,0,1-.711,2.924l5.029,5.8a2.811,2.811,0,0,1-.283,3.96l-2.908,2.521a2.81,2.81,0,0,1-3.96-.283l-6-6.924c-.742.248-1.48.465-2.2.646l-8.738,2.2a4.838,4.838,0,0,0-3.666,4.443l-1.681,28.989a.527.527,0,0,0,.527.555h60.912a.527.527,0,0,0,.527-.556l-1.681-28.984A4.839,4.839,0,0,0,169.025,305l-8.728-2.2c-.741-.187-1.5-.41-2.263-.667l-6.017,6.942a2.811,2.811,0,0,1-3.96.283l-2.908-2.521a2.807,2.807,0,0,1-.282-3.96l5.072-5.853a6.336,6.336,0,0,1-.687-2.873v-2.123a1.14,1.14,0,1,1,2.28,0v2.123a4.085,4.085,0,0,0,.742,2.346,1.141,1.141,0,0,1-.073,1.4l-5.612,6.475a.526.526,0,0,0,.053.743l2.909,2.521a.527.527,0,0,0,.743-.053l6.524-7.526a1.136,1.136,0,0,1,1.251-.325,28.894,28.894,0,0,0,2.784.859l8.728,2.2a7.108,7.108,0,0,1,5.386,6.527l1.681,28.984a2.807,2.807,0,0,1-2.8,2.966Z" transform="translate(-110.125 -290.834)"/>
        </g>
        <g id="Grupo_158787" data-name="Grupo 158787" transform="translate(78.405 78.735)">
          <path id="Trazado_224249" data-name="Trazado 224249" d="M344.972,418.529a1.14,1.14,0,0,1-1.14-1.14v-24.8a1.14,1.14,0,1,1,2.28,0v24.8A1.14,1.14,0,0,1,344.972,418.529Z" transform="translate(-343.832 -391.448)"/>
        </g>
        <g id="Grupo_158788" data-name="Grupo 158788" transform="translate(36.289 78.735)">
          <path id="Trazado_224250" data-name="Trazado 224250" d="M160.278,418.529a1.14,1.14,0,0,1-1.14-1.14v-24.8a1.14,1.14,0,1,1,2.28,0v24.8A1.14,1.14,0,0,1,160.278,418.529Z" transform="translate(-159.138 -391.448)"/>
        </g>
        <g id="Grupo_158789" data-name="Grupo 158789" transform="translate(74.326)">
          <path id="Trazado_224251" data-name="Trazado 224251" d="M343.724,93.823a1.9,1.9,0,0,1-.812-.184,1.875,1.875,0,0,1-1.084-1.711V88.637a.95.95,0,0,0-.676-.908,21.222,21.222,0,1,1,10.339.415,1.007,1.007,0,0,0-.434.2l-6.136,5.045a1.881,1.881,0,0,1-1.2.433Zm3.433-45.376A18.935,18.935,0,0,0,341.8,85.542a3.244,3.244,0,0,1,2.312,3.095v2.469l5.5-4.523a3.291,3.291,0,0,1,1.419-.671,18.932,18.932,0,0,0-3.777-37.464Z" transform="translate(-325.943 -46.167)"/>
        </g>
        <g id="Grupo_158790" data-name="Grupo 158790" transform="translate(0 0)">
          <path id="Trazado_224252" data-name="Trazado 224252" d="M24.646,93.824a1.878,1.878,0,0,1-1.2-.434l-6.136-5.045a1.007,1.007,0,0,0-.434-.2,21.212,21.212,0,0,1,4.23-41.977h.1A21.215,21.215,0,0,1,27.218,87.73a.951.951,0,0,0-.676.908V91.93a1.875,1.875,0,0,1-1.084,1.711A1.912,1.912,0,0,1,24.646,93.824ZM21.119,48.448a18.932,18.932,0,0,0-3.777,37.464,3.3,3.3,0,0,1,1.418.671l5.5,4.523V88.638a3.244,3.244,0,0,1,2.312-3.095,18.935,18.935,0,0,0-5.361-37.095Zm-.005-1.14h0Z" transform="translate(0 -46.168)"/>
        </g>
        <g id="Grupo_158791" data-name="Grupo 158791" transform="translate(39.94 9.099)">
          <path id="Trazado_224253" data-name="Trazado 224253" d="M176.288,95.065a1.14,1.14,0,0,1-.932-1.8,16.876,16.876,0,0,1,13.783-7.2H193.6a9.879,9.879,0,0,1,7.819,3.908,9.727,9.727,0,0,1,10.543,1.566,1.14,1.14,0,1,1-1.508,1.71,7.455,7.455,0,0,0-8.82-.815,1.14,1.14,0,0,1-1.564-.392,7.6,7.6,0,0,0-6.47-3.7h-4.459a14.593,14.593,0,0,0-11.917,6.229,1.141,1.141,0,0,1-.934.485Z" transform="translate(-175.149 -86.07)"/>
        </g>
        <g id="Grupo_158807" data-name="Grupo 158807" transform="translate(55.469 68.402)">
          <path id="Trazado_224257" data-name="Trazado 224257" d="M247.854,348.412H244.39a1.14,1.14,0,0,1,0-2.28h3.463a1.14,1.14,0,1,1,0,2.28Z" transform="translate(-243.25 -346.132)"/>
        </g>
        <g id="Grupo_158808" data-name="Grupo 158808" transform="translate(65.188 60.97)">
          <path id="Trazado_224258" data-name="Trazado 224258" d="M293.35,319.476a1.134,1.134,0,0,1-.389-.069,31.176,31.176,0,0,1-3.277-1.4c-1.48-.74-1.716-.874-1.831-.949a6.36,6.36,0,0,1-1.778-1.72,1.14,1.14,0,1,1,1.869-1.3,4.1,4.1,0,0,0,1.144,1.108c.047.028.321.178,1.615.825a29.016,29.016,0,0,0,3.036,1.3,1.14,1.14,0,0,1-.389,2.212Z" transform="translate(-285.869 -313.543)"/>
        </g>
        <g id="Grupo_158809" data-name="Grupo 158809" transform="translate(42.893 61.016)">
          <path id="Trazado_224259" data-name="Trazado 224259" d="M189.242,319.651a1.14,1.14,0,0,1-.387-2.213,28.817,28.817,0,0,0,2.981-1.265c.744-.368,1.37-.679,1.47-.731a4.081,4.081,0,0,0,1.369-1.22,1.14,1.14,0,0,1,1.856,1.324,6.44,6.44,0,0,1-2.139,1.9c-.037.02-.12.065-1.545.77a31.025,31.025,0,0,1-3.218,1.366,1.148,1.148,0,0,1-.387.067Z" transform="translate(-188.101 -313.744)"/>
        </g>
        <g id="Grupo_158810" data-name="Grupo 158810" transform="translate(26.167 88.805)">
          <path id="Trazado_224260" data-name="Trazado 224260" d="M125.61,437.886h-9.72a1.14,1.14,0,1,1,0-2.28h9.72a1.14,1.14,0,1,1,0,2.28Z" transform="translate(-114.75 -435.606)"/>
        </g>
        <g id="Grupo_158811" data-name="Grupo 158811" transform="translate(78.785 88.805)">
          <path id="Trazado_224261" data-name="Trazado 224261" d="M356.123,437.886H346.64a1.14,1.14,0,1,1,0-2.28h9.483a1.14,1.14,0,1,1,0,2.28Z" transform="translate(-345.5 -435.606)"/>
        </g>
      </g>
    </g>
  </g>
</svg>
