<svg xmlns="http://www.w3.org/2000/svg" width="190.333" height="107.379" viewBox="0 0 190.333 107.379">
  <g id="Grupo_156580" data-name="Grupo 156580" transform="translate(-179.667 -940.621)">
    <g id="Grupo_128133" data-name="Grupo 128133" transform="translate(0 557)">
      <rect id="Rectángulo_33803" data-name="Rectángulo 33803" width="190" height="100" transform="translate(180 391)" fill="none"/>
      <path id="Trazado_113613" data-name="Trazado 113613" d="M-22,0H107a40,40,0,0,1,0,80H-22Z" transform="translate(201.667 401)" fill="rgba(121,210,220,0.2)"/>
      <g id="Grupo_156581" data-name="Grupo 156581" transform="translate(124.386 -207.046)">
        <g id="Grupo_156581-2" data-name="Grupo 156581" transform="translate(79.668 590.667)">
          <ellipse id="Elipse_6170" data-name="Elipse 6170" cx="28.5" cy="15" rx="28.5" ry="15" transform="translate(25.048 22.379)" fill="#a2afbf"/>
          <path id="Trazado_218287" data-name="Trazado 218287" d="M43.686,400H29.369A5.369,5.369,0,0,0,24,405.369v16.107H49.055V405.369A5.369,5.369,0,0,0,43.686,400Z" transform="translate(-22.21 -314.097)" fill="#628ec5"/>
          <ellipse id="Elipse_6171" data-name="Elipse 6171" cx="7.5" cy="7" rx="7.5" ry="7" transform="translate(7.048 70.379)" fill="#ffcf94"/>
          <path id="Trazado_218288" data-name="Trazado 218288" d="M219.686,400H205.369A5.369,5.369,0,0,0,200,405.369v16.107h25.055V405.369A5.369,5.369,0,0,0,219.686,400Z" transform="translate(-158.838 -314.097)" fill="#7cb2f8"/>
          <circle id="Elipse_6172" data-name="Elipse 6172" cx="7" cy="7" r="7" transform="translate(47.048 70.379)" fill="#ffdbac"/>
          <path id="Trazado_218289" data-name="Trazado 218289" d="M395.686,400H381.369A5.369,5.369,0,0,0,376,405.369v16.107h25.055V405.369A5.369,5.369,0,0,0,395.686,400Z" transform="translate(-295.465 -314.097)" fill="#628ec5"/>
          <ellipse id="Elipse_6173" data-name="Elipse 6173" cx="7.5" cy="7" rx="7.5" ry="7" transform="translate(85.048 70.379)" fill="#ffcf94"/>
          <path id="Trazado_218290" data-name="Trazado 218290" d="M40,424h3.579v16.107H40Z" transform="translate(-34.631 -332.728)"/>
          <path id="Trazado_218291" data-name="Trazado 218291" d="M104,424h3.579v16.107H104Z" transform="translate(-84.314 -332.728)"/>
          <path id="Trazado_218292" data-name="Trazado 218292" d="M216,424h3.579v16.107H216Z" transform="translate(-171.258 -332.728)"/>
          <path id="Trazado_218293" data-name="Trazado 218293" d="M280,424h3.579v16.107H280Z" transform="translate(-220.941 -332.728)"/>
          <path id="Trazado_218294" data-name="Trazado 218294" d="M19.579,343.12a3.579,3.579,0,0,1,3.579-3.579H37.476a3.579,3.579,0,0,1,3.579,3.579v16.107h3.579V343.12a7.159,7.159,0,0,0-7.159-7.159H35.631a8.949,8.949,0,1,0-10.627,0H23.159A7.159,7.159,0,0,0,16,343.12v16.107h3.579ZM24.948,328.8a5.369,5.369,0,1,1,5.369,5.369A5.369,5.369,0,0,1,24.948,328.8Z" transform="translate(-16 -251.848)"/>
          <path id="Trazado_218295" data-name="Trazado 218295" d="M220.635,359.227V343.12a7.159,7.159,0,0,0-7.159-7.159h-1.845a8.948,8.948,0,1,0-10.627,0h-1.845A7.159,7.159,0,0,0,192,343.12v16.107h3.579V343.12a3.579,3.579,0,0,1,3.579-3.579h14.317a3.579,3.579,0,0,1,3.579,3.579v16.107Zm-14.317-25.055a5.369,5.369,0,1,1,5.369-5.369A5.369,5.369,0,0,1,206.317,334.172Z" transform="translate(-152.627 -251.848)"/>
          <path id="Trazado_218296" data-name="Trazado 218296" d="M389.476,335.962h-1.845a8.948,8.948,0,1,0-10.627,0h-1.845A7.159,7.159,0,0,0,368,343.12v16.107h3.579V343.12a3.579,3.579,0,0,1,3.579-3.579h14.317a3.579,3.579,0,0,1,3.579,3.579v16.107h3.579V343.12a7.159,7.159,0,0,0-7.159-7.159Zm-7.159-1.79a5.369,5.369,0,1,1,5.369-5.369A5.369,5.369,0,0,1,382.317,334.172Z" transform="translate(-289.255 -251.848)"/>
          <path id="Trazado_218297" data-name="Trazado 218297" d="M392,424h3.579v16.107H392Z" transform="translate(-307.886 -332.728)"/>
          <path id="Trazado_218298" data-name="Trazado 218298" d="M456,424h3.579v16.107H456Z" transform="translate(-357.569 -332.728)"/>
          <path id="Trazado_218299" data-name="Trazado 218299" d="M180.849,149.942a12.035,12.035,0,0,0-4.132-8.662l-2.473,2.577a8.476,8.476,0,0,1,3.026,6.085c0,7.275-12.293,13.422-26.845,13.422s-26.845-6.148-26.845-13.422a8.476,8.476,0,0,1,3.026-6.085l-2.473-2.577A12.034,12.034,0,0,0,120,149.942c0,9.534,13.363,17,30.424,17S180.849,159.475,180.849,149.942Z" transform="translate(-96.734 -113.254)"/>
          <path id="Trazado_218300" data-name="Trazado 218300" d="M248,272h3.579v7.159H248Z" transform="translate(-196.1 -214.731)"/>
          <path id="Trazado_218301" data-name="Trazado 218301" d="M73.6,241.517,84.338,227.2l2.863,2.148L76.463,243.665Z" transform="translate(-60.714 -179.953)"/>
          <path id="Trazado_218302" data-name="Trazado 218302" d="M377.6,229.348l2.863-2.148L391.2,241.517l-2.863,2.148Z" transform="translate(-296.707 -179.953)"/>
          <path id="Trazado_218303" data-name="Trazado 218303" d="M211.793,34.738l-17.9,12.17L176,34.738,193.9,24Z" transform="translate(-140.207 -22.211)" fill="#ffc041"/>
          <path id="Trazado_218304" data-name="Trazado 218304" d="M256,84.17v20.044l17.9-10.738V72Z" transform="translate(-202.31 -59.473)" fill="#e6a93e"/>
          <path id="Trazado_218305" data-name="Trazado 218305" d="M176,72V93.476l17.9,10.738V84.17Z" transform="translate(-140.207 -59.473)" fill="#cd9737"/>
          <path id="Trazado_218306" data-name="Trazado 218306" d="M206.5,27l-17.9-10.738a1.79,1.79,0,0,0-1.843,0L168.868,27A1.79,1.79,0,0,0,168,28.529V50a1.79,1.79,0,0,0,.868,1.534l17.9,10.738a1.79,1.79,0,0,0,1.843,0l17.9-10.738A1.79,1.79,0,0,0,207.373,50V28.529A1.79,1.79,0,0,0,206.5,27ZM185.9,57.582l-14.317-8.59V31.91L185.9,41.644Zm1.79-19.051-14.575-9.908,14.575-8.746,14.575,8.746Zm16.107,10.461-14.317,8.59V41.644l14.317-9.734Z" transform="translate(-133.996 -16.002)"/>
        </g>
      </g>
    </g>
  </g>
</svg>
