<svg xmlns="http://www.w3.org/2000/svg" width="83.968" height="83.995" viewBox="0 0 83.968 83.995">
  <g id="Grupo_159651" data-name="Grupo 159651" transform="translate(-390.137 -734)">
    <path id="Trazado_218307" data-name="Trazado 218307" d="M191.629,79.879v55.083a1.721,1.721,0,0,1-1.721,1.721h-46a1.721,1.721,0,0,1-1.723-1.721V79.879a1.722,1.722,0,0,1,1.723-1.723h46A1.722,1.722,0,0,1,191.629,79.879Z" transform="translate(271.278 668.666)" fill="#f44545"/>
    <path id="Trazado_218308" data-name="Trazado 218308" d="M375.293,79.879v55.083a1.721,1.721,0,0,1-1.721,1.721H361.891V78.156h11.681A1.722,1.722,0,0,1,375.293,79.879Z" transform="translate(87.615 668.666)" fill="#c42d2d"/>
    <path id="Trazado_218309" data-name="Trazado 218309" d="M222.4,331.279a3.664,3.664,0,0,0-1.6,4.931l1.129,2.219a1.076,1.076,0,0,1-.959,1.564h-4.355l-10.3,0a2.44,2.44,0,1,0-.067,4.879c-4.813,0-4.539,0-4.559,0a2.554,2.554,0,0,0-1.719.77,2.481,2.481,0,0,0-.663,2.4,2.3,2.3,0,0,0,2.331,1.706h2.118a2.438,2.438,0,0,0,.049,4.876l7.6,0a2.435,2.435,0,0,0-2.44,2.438A2.439,2.439,0,0,0,211.4,359.5l17.054.006h.045a5.756,5.756,0,0,0,5.758-5.737l-.022-12.89a5.856,5.856,0,0,0-.067-.886h-3.252a3.9,3.9,0,0,1-3.475-2.131l-3.017-5.925A1.5,1.5,0,0,0,222.4,331.279Z" transform="translate(223.594 457.206)" fill="#f2bb88"/>
    <path id="Trazado_218310" data-name="Trazado 218310" d="M283.9,455.758a5.757,5.757,0,0,1-5.755,5.554H278.1l-19.491,0a2.438,2.438,0,0,0,2.437,2.388l17.054.006h.044a5.757,5.757,0,0,0,5.758-5.737Z" transform="translate(173.957 353.011)" fill="#e3a76f"/>
    <path id="Trazado_218313" data-name="Trazado 218313" d="M110.89,125.744a3.666,3.666,0,0,1,1.6,4.931l-1.129,2.219a1.077,1.077,0,0,0,.959,1.564h4.355l10.3,0a2.44,2.44,0,1,1,.067,4.879c3.851,0,4.534,0,4.559,0a2.552,2.552,0,0,1,1.718.77,2.489,2.489,0,0,1,.664,2.4,2.3,2.3,0,0,1-2.331,1.706h-2.118a2.439,2.439,0,0,1-.049,4.877l-7.6,0a2.433,2.433,0,0,1,2.44,2.438,2.439,2.439,0,0,1-2.438,2.439l-17.054.006h-.044a5.757,5.757,0,0,1-5.759-5.737l.023-12.89a5.786,5.786,0,0,1,.067-.886h3.252a3.9,3.9,0,0,0,3.475-2.131l3.016-5.925A1.505,1.505,0,0,1,110.89,125.744Z" transform="translate(307.352 629.022)" fill="#f2bb88"/>
    <path id="Trazado_218314" data-name="Trazado 218314" d="M99.038,250.227a5.754,5.754,0,0,0,5.755,5.553h.045l19.491,0a2.437,2.437,0,0,1-2.437,2.387l-17.054.006h-.045a5.755,5.755,0,0,1-5.758-5.737Z" transform="translate(307.349 524.823)" fill="#e3a76f"/>
    <path id="Trazado_218315" data-name="Trazado 218315" d="M22.987,177.464c0,1.358-1.473,2.479-3.271,2.479H10.968c-1.8,0-3.284-1.111-3.284-2.47V159.257c0-1.36,1.472-2.479,3.272-2.48h8.75c1.8,0,3.274,1.111,3.276,2.47Z" transform="translate(383.713 602.942)" fill="#ebebf0"/>
    <path id="Trazado_218316" data-name="Trazado 218316" d="M16.177,177.647l1.967,2.3H10.968c-1.8,0-3.284-1.11-3.284-2.47V159.257c0-1.359,1.472-2.479,3.272-2.48h7.188l-1.967,2.294a2.393,2.393,0,0,0,0,3.114l.647.752a2.394,2.394,0,0,1,0,3.113l-.647.753a2.389,2.389,0,0,0,0,3.111l.647.753a2.394,2.394,0,0,1,0,3.113l-.647.754A2.39,2.39,0,0,0,16.177,177.647Z" transform="translate(383.713 602.942)" fill="#ffa90b"/>
    <path id="Trazado_218317" data-name="Trazado 218317" d="M79.446,58.185H73.971V14.676A2.968,2.968,0,0,0,71,11.71H60.513V9.946A9.944,9.944,0,0,0,46.215,1a9.943,9.943,0,0,0-14.3,8.942V11.71H25a2.969,2.969,0,0,0-2.966,2.966V26.785a2.7,2.7,0,0,1-2.445,1.6H17.8v-.073c0-2.049-2.031-3.715-4.52-3.715H4.519C2.028,24.594,0,26.267,0,28.32V46.559A3.455,3.455,0,0,0,1.464,49.3a5.107,5.107,0,0,0,3.064.977h8.761a5.079,5.079,0,0,0,3.065-.985,3.9,3.9,0,0,0,.818-.834A6.971,6.971,0,0,0,22.014,50.4h.025V69.76A2.968,2.968,0,0,0,25,72.724h7.041a3.479,3.479,0,0,0,1.769,1.3A3.686,3.686,0,0,0,37.223,79.1l4.126,0a.086.086,0,0,0-.005.015,3.687,3.687,0,0,0,3.489,4.87L61.954,84A6.971,6.971,0,0,0,66.8,82.049a4.774,4.774,0,0,0,3.881,1.817H79.44A5.385,5.385,0,0,0,81.4,83.5a4.588,4.588,0,0,0,1.1-.609,3.491,3.491,0,0,0,1.464-2.74V61.91C83.968,59.858,81.94,58.186,79.446,58.185ZM9.413,42.046l-.647.753a3.616,3.616,0,0,0,0,4.732l.221.258H4.528a2.656,2.656,0,0,1-1.57-.477,1.038,1.038,0,0,1-.47-.752V28.32c0-.585.868-1.238,2.032-1.24H8.987l-.22.257a3.613,3.613,0,0,0,0,4.732l.645.752a1.141,1.141,0,0,1,0,1.494l-.645.752a3.614,3.614,0,0,0,0,4.732l.646.753A1.141,1.141,0,0,1,9.413,42.046Zm5.909,4.5a1.047,1.047,0,0,1-.469.759,4.2,4.2,0,0,1-2.59.479l-1.609-1.876a1.143,1.143,0,0,1,0-1.494l.646-.753a3.615,3.615,0,0,0,0-4.732l-.646-.752a1.142,1.142,0,0,1,0-1.494l.645-.752a3.614,3.614,0,0,0,0-4.733l-.645-.752a1.142,1.142,0,0,1,0-1.494l1.609-1.876h1.02c1.164,0,2.032.65,2.034,1.23C15.316,28.327,15.322,47.779,15.322,46.551ZM50.567,2.486a7.468,7.468,0,0,1,7.459,7.46V11.71H51.81V9.946a9.917,9.917,0,0,0-3.117-7.221A7.44,7.44,0,0,1,50.567,2.486ZM46.215,3.893a7.453,7.453,0,0,1,3.109,6.053V11.71H43.107V9.946A7.454,7.454,0,0,1,46.215,3.893ZM34.4,9.946a7.46,7.46,0,0,1,9.334-7.221A9.917,9.917,0,0,0,40.62,9.946V11.71H34.4ZM22.039,47.918h-.025a4.484,4.484,0,0,1-1.941-.438,4.544,4.544,0,0,1-2.265-2.431L17.8,30.868h1.79a5.12,5.12,0,0,0,4.587-2.813l2.973-5.84s0,0,0,0h0l.005-.01v0h0c.006-.011.011-.021.015-.03l0,0,0-.009c.006-.013.012-.023.015-.031l-.01.019.017-.035A.268.268,0,0,1,27.558,22a2.431,2.431,0,0,1,1.063,3.266l-1.132,2.221a2.323,2.323,0,0,0,2.071,3.375l14.671-.005A1.258,1.258,0,0,1,45.5,32.078a1.2,1.2,0,0,1-1.2,1.182h-8.36a1.243,1.243,0,1,0,0,2.487H48.819a1.316,1.316,0,0,1,.886.408,1.124,1.124,0,0,1-.791,1.986H35.85a1.243,1.243,0,0,0,0,2.486h10.9a1.2,1.2,0,0,1,0,2.4l-11.907,0a1.243,1.243,0,1,0,0,2.486c4.593,0,4.668-.124,5.144.351a1.2,1.2,0,0,1-.847,2.046h-.026Zm9.385,22.319H25a.479.479,0,0,1-.479-.477V50.4L39.134,50.4a3.688,3.688,0,0,0,3.489-4.87l-.005-.013,4.126,0a3.685,3.685,0,0,0,3.409-5.081A3.62,3.62,0,0,0,51.461,34.4a4.5,4.5,0,0,0-3.68-1.136,3.708,3.708,0,0,0-3.551-4.884l-14.4.005L30.835,26.4a4.911,4.911,0,0,0-2.15-6.61,2.749,2.749,0,0,0-3.7,1.2l-.459.9v-7.22A.479.479,0,0,1,25,14.2h6.913V18.8a1.244,1.244,0,0,0,2.487,0V14.2H49.324V18.8a1.244,1.244,0,0,0,2.487,0V14.2h6.273V53.565a2.746,2.746,0,0,0-2.8-.184,4.921,4.921,0,0,0-2.152,6.61l1.008,1.981-14.4,0A3.757,3.757,0,0,0,36.2,64.45a3.6,3.6,0,0,0-.01,2.4H35.149A3.832,3.832,0,0,0,31.424,70.237Zm34.734,8.4a4.519,4.519,0,0,1-4.2,2.868L44.835,81.5a1.2,1.2,0,0,1-.848-2.046c.607-.607,1.176-.251,5.144-.352a1.243,1.243,0,1,0,0-2.486h-4.3c-8.26-.013-7.976.131-8.458-.355a1.2,1.2,0,0,1,.819-2.048h0a.107.107,0,0,0,.025,0H48.116a1.244,1.244,0,0,0,0-2.487H37.225c-1.74-.083-2.6.227-3.109-.388a1.3,1.3,0,0,1,1.037-2.006H48.028a1.243,1.243,0,0,0,0-2.486H39.641a1.192,1.192,0,0,1-1.106-1.564,1.284,1.284,0,0,1,1.2-.832l14.673,0a2.321,2.321,0,0,0,2.069-3.374l-1.13-2.221A2.431,2.431,0,0,1,56.41,55.6a.264.264,0,0,1,.356.116l2.972,5.841h0l0,.006,0,0v0a.006.006,0,0,0,0,0l.006.013.006.011,0-.005.005.01.005.01v0l.005.009,0-.007,0,.008,0,0h0a.043.043,0,0,1,0,.008v0l0,.005,0,0a.006.006,0,0,0,0,0l.005.01,0-.007.005.01,0,.008h0a5.337,5.337,0,0,0,5.073,2.812h1.3C66.162,67.066,66.158,79.429,66.158,78.64ZM66.1,28.026a1.243,1.243,0,0,0-1.243,1.243v32.7A2.858,2.858,0,0,1,62,60.518L60.57,57.7V14.2h4.289V24.3a1.243,1.243,0,1,0,2.486,0V14.2H71a.478.478,0,0,1,.479.479V58.185h-.8A5,5,0,0,0,67.344,59.4V29.269A1.243,1.243,0,0,0,66.1,28.026ZM81.481,80.151a1.089,1.089,0,0,1-.4.7,2.6,2.6,0,0,1-1.644.533H74.629V74.217a1.244,1.244,0,0,0-2.487,0v7.163H70.677a2.631,2.631,0,0,1-1.562-.477,1.057,1.057,0,0,1-.47-.761V79.056c0-.017.006-17.13.006-17.155,0-.582.87-1.23,2.036-1.23h1.455v8.572a1.244,1.244,0,0,0,2.487,0V60.671h4.818c1.164,0,2.034.655,2.034,1.239Z" transform="translate(390.137 734)"/>
  </g>
</svg>
