<svg id="Grupo_156609" data-name="Grupo 156609" xmlns="http://www.w3.org/2000/svg" width="35.97" height="40.273" viewBox="0 0 35.97 40.273">
  <g id="Grupo_156593" data-name="Grupo 156593" transform="translate(26.925 6.447)">
    <g id="Grupo_156592" data-name="Grupo 156592">
      <path id="Trazado_218365" data-name="Trazado 218365" d="M370.442,88.908a.787.787,0,0,1-.787-.787V82.743a.787.787,0,1,1,1.573,0v5.379A.787.787,0,0,1,370.442,88.908Z" transform="translate(-369.655 -81.956)" fill="#f57c22"/>
    </g>
  </g>
  <g id="Grupo_156595" data-name="Grupo 156595" transform="translate(26.922 3.915)">
    <g id="Grupo_156594" data-name="Grupo 156594">
      <circle id="Elipse_6174" data-name="Elipse 6174" cx="0.787" cy="0.787" r="0.787" fill="#f57c22"/>
    </g>
  </g>
  <g id="Grupo_156598" data-name="Grupo 156598">
    <path id="Trazado_218366" data-name="Trazado 218366" d="M63.322,8.264A8.258,8.258,0,0,0,50.042,1.7H30.215a2.866,2.866,0,0,0-2.863,2.863V33.179a2.866,2.866,0,0,0,2.863,2.863h2.5v1.369a2.866,2.866,0,0,0,2.863,2.863H56.139A2.866,2.866,0,0,0,59,37.411V26.5a.787.787,0,0,0-1.573,0v10.91a1.291,1.291,0,0,1-1.289,1.29H35.573a1.291,1.291,0,0,1-1.289-1.29V36.042h16.5a2.866,2.866,0,0,0,2.863-2.863V16.406a8.292,8.292,0,0,0,3.785-.224v3.208a.787.787,0,1,0,1.573,0V15.525a8.271,8.271,0,0,0,4.32-7.261ZM52.071,33.179a1.291,1.291,0,0,1-1.29,1.29H30.215a1.291,1.291,0,0,1-1.289-1.29V4.565a1.291,1.291,0,0,1,1.289-1.289H48.477a8.22,8.22,0,0,0-1.671,4.639H33.411a.787.787,0,0,0-.787.787v3.322a.787.787,0,0,0,.787.787H47.585a.783.783,0,0,0,.476-.16,8.311,8.311,0,0,0,4.01,3.318ZM46.8,9.488v1.749H34.2V9.488Zm8.262,5.466a6.691,6.691,0,1,1,6.689-6.691A6.7,6.7,0,0,1,55.06,14.954Z" transform="translate(-27.352)" fill="#f57c22"/>
    <g id="Grupo_156597" data-name="Grupo 156597" transform="translate(30.078 22.146)">
      <g id="Grupo_156596" data-name="Grupo 156596">
        <path id="Trazado_218367" data-name="Trazado 218367" d="M410.527,283.112a.787.787,0,1,1,.766-.608A.794.794,0,0,1,410.527,283.112Z" transform="translate(-409.742 -281.541)" fill="#f57c22"/>
      </g>
    </g>
  </g>
  <g id="Grupo_156608" data-name="Grupo 156608" transform="translate(5.272 15.546)">
    <g id="Grupo_156607" data-name="Grupo 156607">
      <g id="Grupo_156600" data-name="Grupo 156600">
        <g id="Grupo_156599" data-name="Grupo 156599">
          <path id="Trazado_218368" data-name="Trazado 218368" d="M109.338,199.206H95.164a.787.787,0,1,1,0-1.573h14.174a.787.787,0,0,1,0,1.573Z" transform="translate(-94.377 -197.633)" fill="#f57c22"/>
        </g>
      </g>
      <g id="Grupo_156602" data-name="Grupo 156602" transform="translate(0 3.731)">
        <g id="Grupo_156601" data-name="Grupo 156601">
          <path id="Trazado_218369" data-name="Trazado 218369" d="M109.338,246.636H95.164a.787.787,0,1,1,0-1.573h14.174a.787.787,0,1,1,0,1.573Z" transform="translate(-94.377 -245.063)" fill="#f57c22"/>
        </g>
      </g>
      <g id="Grupo_156604" data-name="Grupo 156604" transform="translate(0 7.462)">
        <g id="Grupo_156603" data-name="Grupo 156603">
          <path id="Trazado_218370" data-name="Trazado 218370" d="M109.338,294.066H95.164a.787.787,0,1,1,0-1.573h14.174a.787.787,0,0,1,0,1.573Z" transform="translate(-94.377 -292.493)" fill="#f57c22"/>
        </g>
      </g>
      <g id="Grupo_156606" data-name="Grupo 156606" transform="translate(0 11.192)">
        <g id="Grupo_156605" data-name="Grupo 156605">
          <path id="Trazado_218371" data-name="Trazado 218371" d="M109.338,341.5H95.164a.787.787,0,1,1,0-1.573h14.174a.787.787,0,0,1,0,1.573Z" transform="translate(-94.377 -339.923)" fill="#f57c22"/>
        </g>
      </g>
    </g>
  </g>
</svg>
