<svg id="Grupo_156645" data-name="Grupo 156645" xmlns="http://www.w3.org/2000/svg" width="42.652" height="42.652" viewBox="0 0 42.652 42.652">
  <g id="Grupo_156611" data-name="Grupo 156611" transform="translate(20.471 40.986)">
    <g id="Grupo_156610" data-name="Grupo 156610">
      <path id="Trazado_218372" data-name="Trazado 218372" d="M247.162,492.244a.832.832,0,1,0,.244.589A.839.839,0,0,0,247.162,492.244Z" transform="translate(-245.74 -492)" fill="#f57c22"/>
    </g>
  </g>
  <g id="Grupo_156613" data-name="Grupo 156613" transform="translate(0 8.783)">
    <g id="Grupo_156612" data-name="Grupo 156612">
      <path id="Trazado_218373" data-name="Trazado 218373" d="M38.2,123.9l-2.779-.664v-1.1a5.5,5.5,0,0,0,2.57-4.65v-3.1a5.495,5.495,0,0,0-9.612-3.642,7.344,7.344,0,0,0-7.045-5.3h0a7.344,7.344,0,0,0-7.049,5.315,5.495,5.495,0,0,0-9.624,3.628v3.1a5.5,5.5,0,0,0,2.57,4.65v1.1l-2.779.664A5.78,5.78,0,0,0,0,129.54v5.6a.833.833,0,0,0,.833.833H7.494v2.5a.833.833,0,0,0,.833.833h9.139a.833.833,0,1,0,0-1.666H13.747v-3.666a.833.833,0,0,0-1.666,0v3.666H9.16v-3.759a6.065,6.065,0,0,1,4.666-5.916l4.1-.982,2.636,6a.833.833,0,0,0,.762.5h0a.833.833,0,0,0,.763-.5l2.634-5.989,4.085.976a6.064,6.064,0,0,1,4.67,5.917v.93a.834.834,0,0,0,0,.652v2.173h-2.9v-3.666a.833.833,0,0,0-1.666,0v3.666h-4.08a.833.833,0,1,0,0,1.666h9.483a.833.833,0,0,0,.833-.833v-2.5h6.678a.833.833,0,0,0,.833-.833v-5.6A5.78,5.78,0,0,0,38.2,123.9Zm-5.707-13.353a3.836,3.836,0,0,1,3.832,3.832v.29H33.942a10.293,10.293,0,0,1-5.127-1.368A3.839,3.839,0,0,1,32.493,110.548Zm-3.832,6.8c0-.085,0-2.24,0-2.24a11.959,11.959,0,0,0,5.277,1.227h2.383v1.148a3.832,3.832,0,0,1-7.664,0v-.136Zm-12.991-4.58a5.665,5.665,0,0,1,11.33,0v.109l-3.092-1.816a.833.833,0,0,0-1.06.183,6.291,6.291,0,0,1-4.833,2.256H15.67Zm-9.343,1.818v-.206a3.832,3.832,0,0,1,7.51-1.078A10.293,10.293,0,0,1,8.71,114.67H6.327Zm0,2.9v-1.148H8.71a11.959,11.959,0,0,0,5.282-1.23v2.378a3.832,3.832,0,0,1-7.664,0Zm1.167,16.4v.426H5v-3.7a.833.833,0,0,0-1.666,0v3.7H1.666V129.54a4.12,4.12,0,0,1,3.173-4.02l2.641-.631L9.2,129.018A7.733,7.733,0,0,0,7.494,133.881Zm2.665-6.9-1.265-3.031c0-.02,0-.04,0-.06v-1.059a5.462,5.462,0,0,0,2.519,0v1.005c0,.016,0,.031,0,.047s0,.052,0,.078Zm3.279-.64a7.83,7.83,0,0,0-1.408.484l.811-1.943,2.641.633a4.127,4.127,0,0,1,.6.193Zm4.135-1.736a5.785,5.785,0,0,0-1.7-.71l-2.789-.668v-1.093a5.538,5.538,0,0,0,1.722-1.717,7.384,7.384,0,0,0,2.769,2.961Zm5.83,1.237-2.08,4.731-2.083-4.74v-1.718a7.337,7.337,0,0,0,4.164.008v1.719Zm-2.068-3.088a5.671,5.671,0,0,1-5.665-5.665v-1.927h2.344a7.95,7.95,0,0,0,5.63-2.328l3.351,1.968v2.482A5.671,5.671,0,0,1,21.335,122.757Zm3.735.641h0a7.383,7.383,0,0,0,2.788-2.962,5.541,5.541,0,0,0,1.712,1.7v1.093l-2.789.668a5.786,5.786,0,0,0-1.712.716V123.4Zm4.122,2.949-2.635-.629a4.134,4.134,0,0,1,.613-.2l2.635-.631.815,1.951A7.831,7.831,0,0,0,29.191,126.347Zm2.039-2.368a.832.832,0,0,0,.006-.091c0-.008,0-.016,0-.023v-1.029a5.46,5.46,0,0,0,2.519,0v1.059c0,.015,0,.03,0,.045l-1.272,3.046Zm9.755,10.328H39.32v-3.7a.833.833,0,0,0-1.666,0v3.7H35.141v-.422a7.733,7.733,0,0,0-1.7-4.857l1.729-4.14,2.647.632a4.12,4.12,0,0,1,3.173,4.02Z" transform="translate(0 -105.437)" fill="#f57c22"/>
    </g>
  </g>
  <g id="Grupo_156615" data-name="Grupo 156615" transform="translate(17.699 19.264)">
    <g id="Grupo_156614" data-name="Grupo 156614">
      <path id="Trazado_218374" data-name="Trazado 218374" d="M213.882,231.494a.832.832,0,1,0,.244.589A.839.839,0,0,0,213.882,231.494Z" transform="translate(-212.46 -231.25)" fill="#f57c22"/>
    </g>
  </g>
  <g id="Grupo_156617" data-name="Grupo 156617" transform="translate(23.269 19.264)">
    <g id="Grupo_156616" data-name="Grupo 156616">
      <path id="Trazado_218375" data-name="Trazado 218375" d="M280.752,231.494a.832.832,0,1,0,.244.589A.839.839,0,0,0,280.752,231.494Z" transform="translate(-279.33 -231.25)" fill="#f57c22"/>
    </g>
  </g>
  <g id="Grupo_156619" data-name="Grupo 156619" transform="translate(19.436 22.068)">
    <g id="Grupo_156618" data-name="Grupo 156618">
      <path id="Trazado_218376" data-name="Trazado 218376" d="M236.8,265.157a.833.833,0,0,0-1.178,0,.632.632,0,0,1-.893,0,.833.833,0,0,0-1.178,1.178,2.3,2.3,0,0,0,3.25,0A.833.833,0,0,0,236.8,265.157Z" transform="translate(-233.307 -264.913)" fill="#f57c22"/>
    </g>
  </g>
  <g id="Grupo_156621" data-name="Grupo 156621" transform="translate(33.04 4.498)">
    <g id="Grupo_156620" data-name="Grupo 156620">
      <path id="Trazado_218377" data-name="Trazado 218377" d="M398.024,54h-.571a.833.833,0,0,0,0,1.666h.571a.833.833,0,0,0,0-1.666Z" transform="translate(-396.62 -54)" fill="#f57c22"/>
    </g>
  </g>
  <g id="Grupo_156623" data-name="Grupo 156623" transform="translate(37.082 4.498)">
    <g id="Grupo_156622" data-name="Grupo 156622">
      <path id="Trazado_218378" data-name="Trazado 218378" d="M446.545,54h-.571a.833.833,0,0,0,0,1.666h.571a.833.833,0,1,0,0-1.666Z" transform="translate(-445.141 -54)" fill="#f57c22"/>
    </g>
  </g>
  <g id="Grupo_156625" data-name="Grupo 156625" transform="translate(35.347 6.234)">
    <g id="Grupo_156624" data-name="Grupo 156624">
      <path id="Trazado_218379" data-name="Trazado 218379" d="M425.144,74.831a.833.833,0,0,0-.833.833v.571a.833.833,0,1,0,1.666,0v-.571A.833.833,0,0,0,425.144,74.831Z" transform="translate(-424.311 -74.831)" fill="#f57c22"/>
    </g>
  </g>
  <g id="Grupo_156627" data-name="Grupo 156627" transform="translate(3.286 4.498)">
    <g id="Grupo_156626" data-name="Grupo 156626">
      <path id="Trazado_218380" data-name="Trazado 218380" d="M40.848,54h-.571a.833.833,0,1,0,0,1.666h.571a.833.833,0,0,0,0-1.666Z" transform="translate(-39.444 -54)" fill="#f57c22"/>
    </g>
  </g>
  <g id="Grupo_156629" data-name="Grupo 156629" transform="translate(7.328 4.498)">
    <g id="Grupo_156628" data-name="Grupo 156628">
      <path id="Trazado_218381" data-name="Trazado 218381" d="M89.369,54H88.8a.833.833,0,0,0,0,1.666h.571a.833.833,0,1,0,0-1.666Z" transform="translate(-87.965 -54)" fill="#f57c22"/>
    </g>
  </g>
  <g id="Grupo_156631" data-name="Grupo 156631" transform="translate(5.593 6.234)">
    <g id="Grupo_156630" data-name="Grupo 156630">
      <path id="Trazado_218382" data-name="Trazado 218382" d="M67.967,74.831a.833.833,0,0,0-.833.833v.571a.833.833,0,0,0,1.666,0v-.571A.833.833,0,0,0,67.967,74.831Z" transform="translate(-67.134 -74.831)" fill="#f57c22"/>
    </g>
  </g>
  <g id="Grupo_156633" data-name="Grupo 156633" transform="translate(5.593 2.192)">
    <g id="Grupo_156632" data-name="Grupo 156632">
      <path id="Trazado_218383" data-name="Trazado 218383" d="M67.967,26.31a.833.833,0,0,0-.833.833v.571a.833.833,0,1,0,1.666,0v-.571A.833.833,0,0,0,67.967,26.31Z" transform="translate(-67.134 -26.31)" fill="#f57c22"/>
    </g>
  </g>
  <g id="Grupo_156635" data-name="Grupo 156635" transform="translate(20.493 3.173)">
    <g id="Grupo_156634" data-name="Grupo 156634">
      <path id="Trazado_218384" data-name="Trazado 218384" d="M246.833,38.087a.833.833,0,0,0-.833.833v2.192a.833.833,0,0,0,1.666,0V38.92A.833.833,0,0,0,246.833,38.087Z" transform="translate(-246 -38.087)" fill="#f57c22"/>
    </g>
  </g>
  <g id="Grupo_156637" data-name="Grupo 156637" transform="translate(20.493)">
    <g id="Grupo_156636" data-name="Grupo 156636">
      <path id="Trazado_218385" data-name="Trazado 218385" d="M247.422.244A.833.833,0,0,0,246,.833a.833.833,0,1,0,1.422-.589Z" transform="translate(-246 0)" fill="#f57c22"/>
    </g>
  </g>
  <g id="Grupo_156639" data-name="Grupo 156639" transform="translate(15.765 1.879)">
    <g id="Grupo_156638" data-name="Grupo 156638">
      <path id="Trazado_218386" data-name="Trazado 218386" d="M191.89,24.019,190.671,22.8a.833.833,0,0,0-1.178,1.178l1.219,1.219a.833.833,0,0,0,1.178-1.178Z" transform="translate(-189.249 -22.556)" fill="#f57c22"/>
    </g>
  </g>
  <g id="Grupo_156641" data-name="Grupo 156641" transform="translate(23.96 1.833)">
    <g id="Grupo_156640" data-name="Grupo 156640">
      <path id="Trazado_218387" data-name="Trazado 218387" d="M290.307,22.25a.833.833,0,0,0-1.178,0l-1.26,1.26a.833.833,0,0,0,1.178,1.178l1.26-1.26A.833.833,0,0,0,290.307,22.25Z" transform="translate(-287.625 -22.006)" fill="#f57c22"/>
    </g>
  </g>
</svg>
