<svg xmlns="http://www.w3.org/2000/svg" width="40.323" height="42" viewBox="0 0 40.323 42">
  <g id="Grupo_156646" data-name="Grupo 156646" transform="translate(-10.22)">
    <path id="Trazado_218388" data-name="Trazado 218388" d="M371,36.641a2.562,2.562,0,0,0-2.559,2.559.552.552,0,1,0,1.1,0A1.455,1.455,0,1,1,371,40.655h-.35a.552.552,0,0,0-.552.552V43.1a.552.552,0,1,0,1.1,0V41.751a2.559,2.559,0,0,0-.2-5.11Z" transform="translate(-327.705 -33.945)" fill="#f57c22"/>
    <path id="Trazado_218389" data-name="Trazado 218389" d="M391.506,143.284a.552.552,0,0,0-.552.552V144a.552.552,0,1,0,1.1,0v-.162A.552.552,0,0,0,391.506,143.284Z" transform="translate(-349.401 -131.488)" fill="#f57c22"/>
    <path id="Trazado_218390" data-name="Trazado 218390" d="M47.856,0h-10.8a2.69,2.69,0,0,0-2.687,2.687V7.555a11.193,11.193,0,0,0-9.2-4.816h-2.75a9.242,9.242,0,0,0-7.879,4.435,5.277,5.277,0,0,0-3.7,5.212L11,17.755a2.451,2.451,0,0,0-.778,1.792v.577a2.461,2.461,0,0,0,2.458,2.458h1.649a9.85,9.85,0,0,0,1.823,2.89l-2.814,3.9a.617.617,0,0,0-.1.205L10.4,40.492A1.205,1.205,0,0,0,11.569,42H34.455a1.483,1.483,0,0,0,1.479-1.59L35.7,37.221a5.994,5.994,0,0,0-.637-2.3.615.615,0,1,0-1.1.558,4.769,4.769,0,0,1,.507,1.827l.233,3.189a.252.252,0,0,1-.252.271H31.618V38.256a.615.615,0,0,0-1.23,0v2.514H16.916l1.57-6.039a.045.045,0,0,1,.044-.034h2.718a3.265,3.265,0,0,0,1.529-.379,6.766,6.766,0,0,0,1.207.109,6.6,6.6,0,0,0,4.578-1.82h0c.12.025.029.007,1.852.293a4.778,4.778,0,0,1,1.86.707.615.615,0,1,0,.666-1.035,6,6,0,0,0-2.336-.888,17.249,17.249,0,0,1-1.976-.338,1.18,1.18,0,0,1-.755-1.088,2.026,2.026,0,0,0,1.145-2.506,10.9,10.9,0,0,0,4.621-5.17H34.8a2.46,2.46,0,0,0,2.458-2.458v-.578a2.455,2.455,0,0,0-.88-1.883V16.081a2.684,2.684,0,0,0,.684.089H39a.407.407,0,0,1,.406.406v1.747a.988.988,0,0,0,.677.946,1.02,1.02,0,0,0,.33.056.986.986,0,0,0,.784-.389l2.036-2.623a.368.368,0,0,1,.292-.143h4.336a2.69,2.69,0,0,0,2.687-2.687V2.687A2.69,2.69,0,0,0,47.856,0ZM11.45,20.125v-.578a1.229,1.229,0,0,1,1.228-1.228h1a10.1,10.1,0,0,0,.253,3.033H12.678A1.229,1.229,0,0,1,11.45,20.125ZM24,33.2a3.265,3.265,0,0,0,.529-1.784v-.983h2.116A2.4,2.4,0,0,0,27.393,32,5.393,5.393,0,0,1,24,33.2Zm3.044-4H24.394A1.092,1.092,0,0,0,23.3,30.289v1.122a2.057,2.057,0,0,1-2.055,2.055H18.53a1.276,1.276,0,0,0-1.234.955l-1.65,6.348H11.6L14.4,30l4.711-6.525a.81.81,0,0,1,.532-.328.823.823,0,0,1,.618.149l.03.022a.765.765,0,0,1,.317.607.756.756,0,0,1-.139.464l-1.147,1.638a.993.993,0,0,0,.813,1.564h6.947a.805.805,0,0,1,.806.813A.826.826,0,0,1,27.048,29.2Zm8.976-9.073A1.229,1.229,0,0,1,34.8,21.352h-.76a9.247,9.247,0,0,0,.269-2.22c0-.274-.006-.546-.016-.813H34.8a1.229,1.229,0,0,1,1.227,1.228ZM34.8,17.089H34.2a16.435,16.435,0,0,0-.329-2,2.9,2.9,0,0,0-2.654-2.222,19.331,19.331,0,0,1-7.031-1.787,1.4,1.4,0,0,0-1.743.465.878.878,0,0,1-.7.356,2.469,2.469,0,0,1-1.49-.745,12.649,12.649,0,0,1-1.217-1.216,1.606,1.606,0,0,0-1.2-.543h0a1.6,1.6,0,0,0-1.195.537,10.482,10.482,0,0,0-1.527,2.279.615.615,0,1,0,1.1.549,9.251,9.251,0,0,1,1.346-2.012.363.363,0,0,1,.274-.123.374.374,0,0,1,.281.128,13.863,13.863,0,0,0,1.336,1.334,3.7,3.7,0,0,0,2.278,1.042,2.107,2.107,0,0,0,1.737-.9.165.165,0,0,1,.2-.037,20.575,20.575,0,0,0,7.482,1.9,1.664,1.664,0,0,1,1.525,1.272,15.6,15.6,0,0,1,.352,2.379c.033.444.05.909.05,1.382a7.946,7.946,0,0,1-.442,2.632,9.6,9.6,0,0,1-4.342,4.988,2.021,2.021,0,0,0-1.208-.4H20.593l.886-1.265a2.008,2.008,0,0,0-.463-2.773l-.03-.022a2.05,2.05,0,0,0-2.871.455l-1.225,1.7a8.464,8.464,0,0,1-1.557-2.685,9.335,9.335,0,0,1-.392-4.015,15.531,15.531,0,0,1,.365-2.431.615.615,0,0,0-1.2-.283,16.39,16.39,0,0,0-.343,2.054H12.678a2.457,2.457,0,0,0-.467.045l-.138-4.783a4.053,4.053,0,0,1,3.036-4.058A.615.615,0,0,0,15.488,8a8.007,8.007,0,0,1,6.939-4.033h2.75a9.979,9.979,0,0,1,9.968,9.968v3.177a2.47,2.47,0,0,0-.347-.025Zm14.515-3.605a1.458,1.458,0,0,1-1.456,1.456H43.521a1.59,1.59,0,0,0-1.264.619L40.633,17.65V16.576A1.638,1.638,0,0,0,39,14.94H37.059a1.438,1.438,0,0,1-.684-.171v-.831A11.141,11.141,0,0,0,35.6,9.851V2.687A1.458,1.458,0,0,1,37.059,1.23h10.8a1.458,1.458,0,0,1,1.457,1.456Z" transform="translate(0)" fill="#f57c22"/>
    <path id="Trazado_218391" data-name="Trazado 218391" d="M133.158,219a.552.552,0,0,0,.552-.552v-.616a.552.552,0,1,0-1.1,0v.616A.552.552,0,0,0,133.158,219Z" transform="translate(-112.314 -199.372)" fill="#f57c22"/>
    <path id="Trazado_218392" data-name="Trazado 218392" d="M245.235,219a.552.552,0,0,0,.552-.552v-.616a.552.552,0,1,0-1.1,0v.616a.552.552,0,0,0,.552.552Z" transform="translate(-215.167 -199.372)" fill="#f57c22"/>
    <path id="Trazado_218393" data-name="Trazado 218393" d="M172.758,259.577a2.012,2.012,0,0,1,2.206,0,.552.552,0,1,0,.556-.953,3.135,3.135,0,0,0-3.318,0,.552.552,0,1,0,.556.953Z" transform="translate(-148.28 -236.882)" fill="#f57c22"/>
  </g>
</svg>
