<svg xmlns="http://www.w3.org/2000/svg" width="169" height="108.386" viewBox="0 0 169 108.386">
  <g id="Grupo_156995" data-name="Grupo 156995" transform="translate(-179.667 -1063.803)">
    <path id="Trazado_113613" data-name="Trazado 113613" d="M-22,0H107a40,40,0,0,1,0,80H-22Z" transform="translate(201.667 1081)" fill="rgba(121,210,220,0.2)"/>
    <g id="Grupo_156996" data-name="Grupo 156996" transform="translate(200.572 1055.636)">
      <g id="Grupo_156996-2" data-name="Grupo 156996" transform="translate(1.643 9.81)">
        <path id="Trazado_219718" data-name="Trazado 219718" d="M192.921,324.372H207.06c4.612,1.382,8.61,4.085,8.61,7.2v18.465H184.311V331.568C184.311,328.457,188.3,325.754,192.921,324.372Z" transform="translate(-145.651 -256.87)" fill="#ebd2ff" fill-rule="evenodd"/>
        <path id="Trazado_219719" data-name="Trazado 219719" d="M272.689,331.568v18.465h5.306V331.568c0-3.112-4-5.814-8.61-7.2h-5.306C268.691,325.754,272.689,328.457,272.689,331.568Z" transform="translate(-207.976 -256.87)" fill="#d7bef0" fill-rule="evenodd"/>
        <path id="Trazado_219720" data-name="Trazado 219720" d="M94.281,433.169h8.356l6.831-.954,6.775.954h26.809l6.663-1.308,6.936,1.308h8.362v12.794H94.281Z" transform="translate(-75.307 -340.855)" fill="#d09080" fill-rule="evenodd"/>
        <path id="Trazado_219721" data-name="Trazado 219721" d="M7.512,366.7V339.492A6.106,6.106,0,0,1,13.6,333.4H23.653c.174,0,.347.006.515.019a4.679,4.679,0,0,1,4.178,1.828l8.182,10.835a1.857,1.857,0,0,0,1.673.831H48.447a4.661,4.661,0,1,1,0,9.323H34.841a4.648,4.648,0,0,1-3.713-1.853l-1.389-1.835v16.482H9.836a2.874,2.874,0,0,1-2.324-2.33Z" transform="translate(-7.512 -263.926)" fill="#ff6978" fill-rule="evenodd"/>
        <path id="Trazado_219722" data-name="Trazado 219722" d="M341.574,366.7V339.492a6.107,6.107,0,0,0-6.093-6.087H325.432q-.26,0-.521.019a4.678,4.678,0,0,0-4.178,1.828l-8.176,10.835a1.884,1.884,0,0,1-1.673.831H300.638a4.661,4.661,0,1,0,0,9.323h13.6a4.66,4.66,0,0,0,3.719-1.853l1.382-1.835v16.482h19.9a2.889,2.889,0,0,0,2.331-2.33Z" transform="translate(-232.894 -263.926)" fill="#ccf49f" fill-rule="evenodd"/>
        <path id="Trazado_219723" data-name="Trazado 219723" d="M206.445,103.343h26.7L239.9,110.1c.539.533,1.153.223,1.153-.483v-6.273a6.278,6.278,0,0,0,6.254-6.26V81.288a6.272,6.272,0,0,0-6.254-6.254H206.445a6.278,6.278,0,0,0-6.261,6.254V97.082a6.283,6.283,0,0,0,6.261,6.261Z" transform="translate(-158.053 -62.055)" fill="#ecf4ff" fill-rule="evenodd"/>
        <path id="Trazado_219724" data-name="Trazado 219724" d="M27.837,50.657H55.93a8.33,8.33,0,0,0,8.306-8.306V23.979a8.329,8.329,0,0,0-8.306-8.3h-36a8.329,8.329,0,0,0-8.306,8.3V42.351a8.33,8.33,0,0,0,8.306,8.306v6.279a.647.647,0,0,0,1.153.477Z" transform="translate(-10.723 -15.679)" fill="#ecf4ff" fill-rule="evenodd"/>
        <path id="Trazado_219725" data-name="Trazado 219725" d="M233.224,251.19a8.852,8.852,0,0,1-17.7,0v-9.484a4.968,4.968,0,0,1,4.959-4.952H231.9a1.185,1.185,0,0,1,1.321,1.314Z" transform="translate(-170.036 -188.412)" fill="#ffcbbe" fill-rule="evenodd"/>
        <path id="Trazado_219726" data-name="Trazado 219726" d="M215.521,241.7v2.858h17.7v-6.5a1.185,1.185,0,0,0-1.321-1.314H220.48A4.968,4.968,0,0,0,215.521,241.7Z" transform="translate(-170.036 -188.41)" fill="#ffe5a0" fill-rule="evenodd"/>
        <path id="Trazado_219727" data-name="Trazado 219727" d="M17.858,251.19a8.852,8.852,0,0,0,17.7,0v-9.484a4.968,4.968,0,0,0-4.959-4.952H22.811a4.967,4.967,0,0,0-4.953,4.952v9.484Z" transform="translate(-15.596 -188.412)" fill="#ffcbbe" fill-rule="evenodd"/>
        <path id="Trazado_219728" data-name="Trazado 219728" d="M430.91,251.19a8.848,8.848,0,1,1-17.7,0v-9.484a4.963,4.963,0,0,1,4.952-4.952h7.792a4.963,4.963,0,0,1,4.953,4.952Z" transform="translate(-324.499 -188.412)" fill="#c68b87" fill-rule="evenodd"/>
        <path id="Trazado_219729" data-name="Trazado 219729" d="M453.035,268.886a8.875,8.875,0,0,1-8.845,8.851,9,9,0,0,1-2.659-.409,8.9,8.9,0,0,0,6.155-7.581,11.844,11.844,0,0,0,5.343-.551l.006-9.794Z" transform="translate(-346.624 -206.107)" fill="#bd7d79" fill-rule="evenodd"/>
        <path id="Trazado_219730" data-name="Trazado 219730" d="M35.561,241.705v3.446a6.643,6.643,0,0,1-5.74-.515c-.93-.527-1.091-.533-1.2.322-.323,2.486-1.444,9.347-10.748,6.54l-.012-9.794a4.967,4.967,0,0,1,4.953-4.952H30.6A4.968,4.968,0,0,1,35.561,241.705Z" transform="translate(-15.596 -188.411)" fill="#c68b87" fill-rule="evenodd"/>
        <path id="Trazado_219731" data-name="Trazado 219731" d="M413.212,241.705v3.446a6.632,6.632,0,0,0,5.733-.515c.936-.527,1.091-.533,1.2.322.323,2.486,1.444,9.347,10.755,6.54l.006-9.794a4.959,4.959,0,0,0-4.953-4.952h-7.792a4.963,4.963,0,0,0-4.952,4.952Z" transform="translate(-324.498 -188.411)" fill="#477b9e" fill-rule="evenodd"/>
        <path id="Trazado_219732" data-name="Trazado 219732" d="M452.18,241.7v9.484a8.028,8.028,0,0,1-.043.862,11.844,11.844,0,0,0,5.343-.551l.006-9.794a4.965,4.965,0,0,0-4.605-4.94,3.233,3.233,0,0,0-.347-.012h-5.306a4.963,4.963,0,0,1,4.952,4.953Z" transform="translate(-351.076 -188.41)" fill="#365e7d" fill-rule="evenodd"/>
        <path id="Trazado_219733" data-name="Trazado 219733" d="M52.4,280.181a8.889,8.889,0,0,1-6.2,8.442,8.846,8.846,0,0,0,11.5-8.442v-6.037a6.553,6.553,0,0,1-5.306-.285v6.322Z" transform="translate(-37.745 -217.403)" fill="#f7beaf" fill-rule="evenodd"/>
        <path id="Trazado_219734" data-name="Trazado 219734" d="M51.875,236.753a4.968,4.968,0,0,1,4.959,4.952v3.161a6.553,6.553,0,0,0,5.306.285v-3.446a4.968,4.968,0,0,0-4.959-4.952Z" transform="translate(-42.174 -188.411)" fill="#bd7d79" fill-rule="evenodd"/>
        <path id="Trazado_219735" data-name="Trazado 219735" d="M250.066,279.1a8.889,8.889,0,0,1-6.2,8.442,8.846,8.846,0,0,0,11.5-8.442V272.47h-5.306V279.1Z" transform="translate(-192.184 -216.318)" fill="#f7beaf" fill-rule="evenodd"/>
        <path id="Trazado_219736" data-name="Trazado 219736" d="M267.5,238.067v6.5H272.8v-6.5a1.185,1.185,0,0,0-1.321-1.314h-5.306a1.185,1.185,0,0,1,1.32,1.314Z" transform="translate(-209.615 -188.411)" fill="#f2ce7e" fill-rule="evenodd"/>
        <path id="Trazado_219737" data-name="Trazado 219737" d="M85.544,392.2a.354.354,0,0,0-.644.217v22.439h5.306V398.376Z" transform="translate(-67.978 -309.75)" fill="#cf4351" fill-rule="evenodd"/>
        <path id="Trazado_219738" data-name="Trazado 219738" d="M471.924,339.634v27.211a2.889,2.889,0,0,1-2.331,2.331H474.9a2.889,2.889,0,0,0,2.331-2.331V339.634a6.117,6.117,0,0,0-5.4-6.05,8.783,8.783,0,0,1-2.139,1.351,6.086,6.086,0,0,1,2.232,4.7Z" transform="translate(-368.55 -264.068)" fill="#b3e59f" fill-rule="evenodd"/>
        <path id="Trazado_219739" data-name="Trazado 219739" d="M200.5,98.191a6.28,6.28,0,0,0,6.192,5.374h26.7l6.756,6.756c.539.533,1.153.223,1.153-.483v-6.273a6.278,6.278,0,0,0,6.254-6.26V81.51a6.275,6.275,0,0,0-5.368-6.192,5.983,5.983,0,0,1,.062.886V92A6.273,6.273,0,0,1,236,98.253H201.383a5.953,5.953,0,0,1-.887-.062Z" transform="translate(-158.297 -62.277)" fill="#ddeafb" fill-rule="evenodd"/>
        <path id="Trazado_219740" data-name="Trazado 219740" d="M60.414,38.507a8.325,8.325,0,0,1-8.306,8.306h-36a8.269,8.269,0,0,1-2.585-.415,8.337,8.337,0,0,0,7.891,5.721V58.4a.647.647,0,0,0,1.153.477l6.756-6.756H57.414a8.33,8.33,0,0,0,8.306-8.306V25.441A8.349,8.349,0,0,0,60,17.55a8.328,8.328,0,0,1,.415,2.585V38.507Z" transform="translate(-12.208 -17.141)" fill="#ddeafb" fill-rule="evenodd"/>
        <path id="Trazado_219741" data-name="Trazado 219741" d="M378.571,437.843h5.306v12.794h-5.306Z" transform="translate(-297.432 -345.529)" fill="#be694f" fill-rule="evenodd"/>
      </g>
      <path id="Trazado_219742" data-name="Trazado 219742" d="M5.988,75.061a7.211,7.211,0,0,0,13.978-2.473v-4.01a8.259,8.259,0,0,1-3.893-.632,13.415,13.415,0,0,1-.335,1.326,8.627,8.627,0,0,1-2.74,4.3A8,8,0,0,1,7.351,75.2a12.352,12.352,0,0,1-1.364-.143ZM48.473,64.319H62.891V59.788h-11.1A3.333,3.333,0,0,0,48.473,63.1ZM62.89,67.6H48.473v4.99a7.209,7.209,0,0,0,14.418,0V67.6Zm44.94,10.947a7.81,7.81,0,0,1,2.293,1.847,7.682,7.682,0,0,1,1.835,4.983V96.433a1.64,1.64,0,0,1-3.279,0V85.375a4.429,4.429,0,0,0-1.054-2.87,4.5,4.5,0,0,0-2.269-1.438,10.435,10.435,0,0,1-12.484-.13,3.139,3.139,0,0,0-.967.273,3,3,0,0,0-1.116.911L81.982,93.787a1.647,1.647,0,0,1-1.308.657H69.387a3.022,3.022,0,1,0,0,6.043H82.869a2.948,2.948,0,0,0,1.469-.316c.955-.477,1.847-1.928,2.5-2.8l5.833-7.717a1.635,1.635,0,1,1,2.61,1.971l-5.548,7.351v14.294h18.949v-9.416a1.64,1.64,0,0,1,3.279,0v11.058a1.635,1.635,0,0,1-1.636,1.636H1.643A1.64,1.64,0,0,1,0,114.917V103.859a1.639,1.639,0,0,1,3.279,0v9.416H22.234V98.981L16.681,91.63A1.638,1.638,0,0,1,19.3,89.659l5.7,7.55c.521.688,1.042,1.382,1.562,2.076a3.018,3.018,0,0,0,1.066.886,2.869,2.869,0,0,0,1.37.316H42.578a3.022,3.022,0,1,0,0-6.043H31.284a1.637,1.637,0,0,1-1.308-.657L21.168,82.121a3.032,3.032,0,0,0-2.083-1.184A10.448,10.448,0,0,1,6.6,81.074a4.5,4.5,0,0,0-2.244,1.4,4.44,4.44,0,0,0-1.079,2.9V96.434a1.64,1.64,0,0,1-3.279,0V85.375a7.7,7.7,0,0,1,1.884-5.039,7.894,7.894,0,0,1,2.25-1.791,10.4,10.4,0,0,1-1.866-5.957V63.1a6.6,6.6,0,0,1,6.589-6.6h7.792a6.6,6.6,0,0,1,6.6,6.6v9.484a10.419,10.419,0,0,1-1.7,5.709,6.35,6.35,0,0,1,2.238,1.853L32.1,91.159H38.66V84.508a6.84,6.84,0,0,1,2.616-5.033A17.231,17.231,0,0,1,46,76.617a10.412,10.412,0,0,1-.806-4.029V63.1a6.6,6.6,0,0,1,6.6-6.6H64.533a1.646,1.646,0,0,1,1.643,1.643V72.588a10.486,10.486,0,0,1-.725,3.825,17.846,17.846,0,0,1,5.071,2.913A6.948,6.948,0,0,1,73.3,84.508v6.651h6.564L88.175,80.15A6.278,6.278,0,0,1,90.419,78.3a10.41,10.41,0,0,1-1.7-5.715V63.1a6.6,6.6,0,0,1,6.6-6.6H103.1a6.6,6.6,0,0,1,6.6,6.6v9.484a10.447,10.447,0,0,1-1.866,5.957Zm-1.86-3.484a12.2,12.2,0,0,1-1.364.143,7.993,7.993,0,0,1-5.641-1.637,8.594,8.594,0,0,1-2.746-4.3,13.4,13.4,0,0,1-.329-1.326,8.291,8.291,0,0,1-3.9.632v4.01a7.21,7.21,0,0,0,13.978,2.473ZM91.993,65.292a5.345,5.345,0,0,0,4.072-1.209,1.655,1.655,0,0,1,1.066-.459,1.631,1.631,0,0,1,1.711,1.556,13.056,13.056,0,0,0,.508,3.13,5.43,5.43,0,0,0,1.661,2.709,4.919,4.919,0,0,0,3.44.917,11.8,11.8,0,0,0,1.965-.285V63.1a3.344,3.344,0,0,0-3.317-3.316H95.309A3.344,3.344,0,0,0,91.993,63.1Zm-72.027,0V63.1a3.334,3.334,0,0,0-3.316-3.316H8.858A3.333,3.333,0,0,0,5.548,63.1v8.548a11.673,11.673,0,0,0,1.959.285,4.919,4.919,0,0,0,3.44-.917,5.484,5.484,0,0,0,1.667-2.709,12.756,12.756,0,0,0,.5-3.13,1.64,1.64,0,0,1,2.764-1.11A5.348,5.348,0,0,0,19.966,65.292ZM47.754,79.437a14.248,14.248,0,0,0-4.3,2.473,3.743,3.743,0,0,0-1.513,2.6v6.651h.639a6.3,6.3,0,0,1,5.529,9.329H63.851a6.309,6.309,0,0,1,5.535-9.329h.632V84.508a3.863,3.863,0,0,0-1.624-2.7,15.251,15.251,0,0,0-4.637-2.547c-.211.254-.434.5-.663.731a10.452,10.452,0,0,1-14.821,0q-.27-.27-.521-.558ZM13.668,20.31a1.639,1.639,0,0,1,0-3.279h30.36a1.639,1.639,0,0,1,0,3.279Zm0,17.257a1.643,1.643,0,0,1,0-3.285h15.18a1.643,1.643,0,0,1,0,3.285Zm0-8.628a1.64,1.64,0,0,1,0-3.279h30.36a1.64,1.64,0,0,1,0,3.279Zm32.04,17.486a4.534,4.534,0,0,0,1.06,1.673,4.583,4.583,0,0,0,3.266,1.357h9.639a1.64,1.64,0,0,1,0,3.279H50.035A7.834,7.834,0,0,1,44.45,50.4a7.971,7.971,0,0,1-2.145-3.979H19.439L12.013,53.85A1.644,1.644,0,0,1,9.2,52.7V46.288a9.978,9.978,0,0,1-8.3-9.806V18.109a9.968,9.968,0,0,1,9.942-9.942h36a9.968,9.968,0,0,1,9.942,9.942v3.037H84.648a7.915,7.915,0,0,1,7.9,7.9V44.838a7.919,7.919,0,0,1-6.26,7.724v6.446a1.637,1.637,0,0,1-2.8,1.159l-7.432-7.432H67.1a1.64,1.64,0,1,1,0-3.279h9.639a1.619,1.619,0,0,1,1.165.49l5.1,5.1V51.1a1.642,1.642,0,0,1,1.643-1.643,4.635,4.635,0,0,0,4.618-4.618V29.044a4.635,4.635,0,0,0-4.618-4.618H56.791V36.482a9.968,9.968,0,0,1-9.942,9.942H45.708ZM18.757,43.145H46.849a6.687,6.687,0,0,0,6.663-6.664V18.109a6.688,6.688,0,0,0-6.663-6.663h-36a6.688,6.688,0,0,0-6.664,6.663V36.482a6.688,6.688,0,0,0,6.664,6.663,1.64,1.64,0,0,1,1.636,1.643v3.949L17.6,43.629a1.628,1.628,0,0,1,1.159-.484Zm67.695,60.621H25.513v9.508H86.452v-9.508Z"/>
    </g>
  </g>
</svg>
