<svg xmlns="http://www.w3.org/2000/svg" width="169" height="108.614" viewBox="0 0 169 108.614">
  <g id="Grupo_158635" data-name="Grupo 158635" transform="translate(-180 -6546.031)">
    <path id="Trazado_113613" data-name="Trazado 113613" d="M-22,0H107a40,40,0,0,1,0,80H-22Z" transform="translate(202 6563.455)" fill="rgba(121,210,220,0.2)"/>
    <g id="Grupo_158633" data-name="Grupo 158633" transform="translate(197.368 6533.631)">
      <g id="Grupo_158633-2" data-name="Grupo 158633" transform="translate(1.672 14.072)">
        <path id="Trazado_223946" data-name="Trazado 223946" d="M28.963,392.243H13.736A6.236,6.236,0,0,0,7.5,398.479V414.5H35.2V398.48A6.237,6.237,0,0,0,28.963,392.243Z" transform="translate(-7.5 -309.235)" fill="#61a2f9"/>
        <path id="Trazado_223947" data-name="Trazado 223947" d="M19.712,392.237a6.239,6.239,0,0,0-6.238,6.238V414.5H7.5V398.475a6.237,6.237,0,0,1,6.235-6.238Z" transform="translate(-7.5 -309.23)" fill="#4073c8"/>
        <path id="Trazado_223948" data-name="Trazado 223948" d="M153.214,326.693H137.987a6.236,6.236,0,0,0-6.236,6.236v30.639h27.7V332.929A6.236,6.236,0,0,0,153.214,326.693Z" transform="translate(-104.051 -258.298)" fill="#78d0b1"/>
        <path id="Trazado_223949" data-name="Trazado 223949" d="M143.962,326.687a6.239,6.239,0,0,0-6.238,6.238v30.639H131.75V332.925a6.237,6.237,0,0,1,6.235-6.238Z" transform="translate(-104.05 -258.294)" fill="#57988b"/>
        <path id="Trazado_223950" data-name="Trazado 223950" d="M277.464,235.944H262.237A6.236,6.236,0,0,0,256,242.18v50.87h27.7V242.18A6.237,6.237,0,0,0,277.464,235.944Z" transform="translate(-200.602 -187.78)" fill="#f6e266"/>
        <path id="Trazado_223951" data-name="Trazado 223951" d="M268.212,235.938a6.239,6.239,0,0,0-6.238,6.238v50.87H256v-50.87a6.237,6.237,0,0,1,6.236-6.238Z" transform="translate(-200.601 -187.776)" fill="#eab14d"/>
        <path id="Trazado_223952" data-name="Trazado 223952" d="M401.714,122.345H386.487a6.236,6.236,0,0,0-6.236,6.236v76.195h27.7V128.582A6.237,6.237,0,0,0,401.714,122.345Z" transform="translate(-297.152 -99.506)" fill="#f57c22"/>
        <path id="Trazado_223953" data-name="Trazado 223953" d="M392.462,122.34a6.239,6.239,0,0,0-6.238,6.238v76.195H380.25V128.578a6.237,6.237,0,0,1,6.235-6.238Z" transform="translate(-297.151 -99.503)" fill="#d86c1b"/>
        <path id="Trazado_223954" data-name="Trazado 223954" d="M126.717,19.9l-23.912,1.983,3.018,4.352-46.9,32.522,7.637,11.013,46.9-32.523,3.018,4.352Z" transform="translate(-47.461 -19.9)" fill="#f57c22"/>
      </g>
      <g id="Grupo_158634" data-name="Grupo 158634" transform="translate(0 12.4)">
        <path id="Trazado_223955" data-name="Trazado 223955" d="M112.471,184.742a1.672,1.672,0,0,0,1.672-1.672V122.758a7.917,7.917,0,0,0-7.908-7.908H91.006a7.917,7.917,0,0,0-7.907,7.908V141.63a7.863,7.863,0,0,0-4.565-1.456H63.308a7.918,7.918,0,0,0-7.909,7.908v13.779a7.862,7.862,0,0,0-4.565-1.456H35.608a7.918,7.918,0,0,0-7.909,7.909v8.161a7.862,7.862,0,0,0-4.565-1.456H7.909A7.917,7.917,0,0,0,0,182.927v16.025a1.672,1.672,0,0,0,1.672,1.672h110.8a1.672,1.672,0,0,0,1.672-1.672v-9.194a1.672,1.672,0,1,0-3.344,0v7.522H86.443V122.758a4.569,4.569,0,0,1,4.563-4.563h15.229a4.569,4.569,0,0,1,4.563,4.563V183.07A1.672,1.672,0,0,0,112.471,184.742ZM3.344,182.927a4.57,4.57,0,0,1,4.565-4.565H23.135a4.57,4.57,0,0,1,4.565,4.565V197.28H3.344Zm27.7-14.614a4.57,4.57,0,0,1,4.565-4.565H50.835a4.57,4.57,0,0,1,4.565,4.565V197.28H31.044Zm27.7-20.231a4.57,4.57,0,0,1,4.565-4.564H78.535a4.57,4.57,0,0,1,4.565,4.564v49.2H58.743Z" transform="translate(0 -92.01)"/>
        <path id="Trazado_223956" data-name="Trazado 223956" d="M59.363,64.895a1.672,1.672,0,0,0,2.327.421l45.525-31.569,2.066,2.978a1.672,1.672,0,0,0,2.886-.239l10.237-21.7a1.672,1.672,0,0,0-1.65-2.38L96.841,14.387A1.672,1.672,0,0,0,95.6,17.006l2.066,2.98L68.427,40.266a1.672,1.672,0,1,0,1.905,2.748L100.95,21.781a1.672,1.672,0,0,0,.422-2.327L100,17.481l18.14-1.5L110.377,32.44l-1.368-1.972a1.672,1.672,0,0,0-2.327-.421L61.158,61.615l-5.73-8.265,9.43-6.54a1.672,1.672,0,1,0-1.906-2.748l-10.8,7.493a1.672,1.672,0,0,0-.421,2.327Z" transform="translate(-39.963 -12.4)"/>
      </g>
    </g>
  </g>
</svg>
