<svg xmlns="http://www.w3.org/2000/svg" width="417.738" height="775.313" viewBox="0 0 417.738 775.313">
  <g id="Grupo_158642" data-name="Grupo 158642" transform="translate(-291.353 -30.6)">
    <g id="Chart_3" data-name="Chart 3" transform="translate(291.353 240.324)">
      <g id="Chart">
        <path id="Trazado_223999" data-name="Trazado 223999" d="M295.673,202.471l146.934-84.81c2.384-1.378,4.317-.262,4.317,2.493V322.21a9.546,9.546,0,0,1-4.317,7.48L295.673,414.5c-2.384,1.378-4.32.26-4.32-2.493V209.954A9.546,9.546,0,0,1,295.673,202.471Z" transform="translate(-291.353 -117.071)" opacity="0.2"/>
        <g id="Speach_Bubble" data-name="Speach Bubble" transform="translate(11.394 19.234)">
          <path id="Trazado_224000" data-name="Trazado 224000" d="M429.774,126.153l-128.96,74.386a10.527,10.527,0,0,0-4.763,8.246v193.7a10.379,10.379,0,0,0,4.79,8.193l9.068,5.144a10.649,10.649,0,0,0,9.546-.046l128.96-74.386a10.524,10.524,0,0,0,4.761-8.246v-193.7a10.389,10.389,0,0,0-4.788-8.2l-9.068-5.144A10.657,10.657,0,0,0,429.774,126.153Z" transform="translate(-296.051 -125.001)" fill="#26c7db"/>
          <path id="Trazado_224001" data-name="Trazado 224001" d="M319.456,369.4c-2.532,1.47-7.162,1.523-9.556.056l-9.059-5.164a10.355,10.355,0,0,1-4.79-8.183V162.4a9.8,9.8,0,0,1,1.516-4.86L316.1,168.267a9.491,9.491,0,0,0-1.407,4.683V366.636C314.695,369.418,316.655,371.021,319.456,369.4Z" transform="translate(-296.051 -78.618)" opacity="0.2"/>
          <g id="Grupo_158653" data-name="Grupo 158653" transform="translate(18.644 11.05)">
            <path id="Trazado_224003" data-name="Trazado 224003" d="M437.459,130.207,308.5,204.6a10.526,10.526,0,0,0-4.761,8.244v193.7c0,3.037,2.134,4.266,4.761,2.748L437.459,334.9a10.517,10.517,0,0,0,4.761-8.246v-193.7C442.22,129.921,440.09,128.689,437.459,130.207Z" transform="translate(-303.738 -129.557)" fill="#fafafa"/>
            <path id="Trazado_224004" data-name="Trazado 224004" d="M438.412,134.056v192.6a6.845,6.845,0,0,1-2.855,4.948L307.548,405.438l0-51.275,0-141.324a6.845,6.845,0,0,1,2.855-4.945l128.009-73.838m1.174-4.5a4.322,4.322,0,0,0-2.127.65L308.5,204.6a10.526,10.526,0,0,0-4.761,8.244v193.7c0,2.154,1.074,3.4,2.636,3.4a4.308,4.308,0,0,0,2.125-.65L437.459,334.9a10.517,10.517,0,0,0,4.761-8.246v-193.7c0-2.154-1.072-3.4-2.634-3.4Z" transform="translate(-303.738 -129.557)" fill="#197b87"/>
          </g>
        </g>
        <g id="Controls" transform="translate(55.206 66.595)">
          <path id="Trazado_224005" data-name="Trazado 224005" d="M352.824,305.706l.315-157.783c0-2.949-1.943-4.218-4.339-2.835a9.918,9.918,0,0,0-4.339,7.846l-.315,157.78c0,2.952,1.943,4.22,4.339,2.835A9.913,9.913,0,0,0,352.824,305.706Z" transform="translate(-271.31 -144.528)" fill="#e0e0e0"/>
          <path id="Trazado_224006" data-name="Trazado 224006" d="M352.807,193.028l.041,43.548a9.906,9.906,0,0,1-4.339,7.844c-2.394,1.385-4.339.116-4.339-2.835l-.041-43.545Z" transform="translate(-271.334 -75.398)" fill="#26c7db"/>
          <path id="Trazado_224007" data-name="Trazado 224007" d="M348.184,213.223a10.682,10.682,0,0,1-4.038,1.438l-.017-16.624,8.678-5.008.015,16.3A19.279,19.279,0,0,1,348.184,213.223Z" transform="translate(-271.334 -75.397)" opacity="0.3"/>
          <path id="Trazado_224008" data-name="Trazado 224008" d="M363.4,196.059c0-7.021-4.931-9.866-11.011-6.357s-11.011,12.049-11.011,19.073,4.928,9.866,11.011,6.357S363.4,203.083,363.4,196.059Z" transform="translate(-275.255 -82.281)" fill="#26c7db"/>
          <path id="Trazado_224010" data-name="Trazado 224010" d="M339.193,313.576l.315-157.783c0-2.949-1.943-4.218-4.339-2.835a9.918,9.918,0,0,0-4.339,7.846l-.315,157.78c0,2.949,1.943,4.22,4.339,2.835A9.913,9.913,0,0,0,339.193,313.576Z" transform="translate(-290.739 -133.311)" fill="#e0e0e0"/>
          <path id="Trazado_224011" data-name="Trazado 224011" d="M339.353,170.991l-.16,116.083a9.913,9.913,0,0,1-4.339,7.844c-2.4,1.385-4.339.116-4.339-2.835L330.678,176Z" transform="translate(-290.739 -106.809)" fill="#26c7db"/>
          <path id="Trazado_224012" data-name="Trazado 224012" d="M334.651,190.634a10.73,10.73,0,0,1-4.079,1.443L330.6,176l8.676-5.011-.022,15.792A19.277,19.277,0,0,1,334.651,190.634Z" transform="translate(-290.658 -106.809)" opacity="0.3"/>
          <path id="Trazado_224013" data-name="Trazado 224013" d="M349.851,173.794c0-7.021-4.928-9.869-11.009-6.357s-11.011,12.049-11.011,19.073,4.928,9.866,11.011,6.357S349.853,180.818,349.851,173.794Z" transform="translate(-294.565 -114.019)" fill="#26c7db"/>
          <path id="Trazado_224015" data-name="Trazado 224015" d="M325.562,321.446l.315-157.783c0-2.949-1.943-4.218-4.339-2.835a9.918,9.918,0,0,0-4.339,7.846l-.315,157.78c0,2.949,1.943,4.22,4.339,2.838A9.921,9.921,0,0,0,325.562,321.446Z" transform="translate(-310.168 -122.093)" fill="#e0e0e0"/>
          <path id="Trazado_224016" data-name="Trazado 224016" d="M325.544,208.768l.044,43.548a9.913,9.913,0,0,1-4.339,7.844c-2.4,1.385-4.339.116-4.339-2.835l-.044-43.545Z" transform="translate(-310.194 -52.963)" fill="#26c7db"/>
          <path id="Trazado_224017" data-name="Trazado 224017" d="M320.922,228.965a10.741,10.741,0,0,1-4.041,1.436l-.015-16.624,8.676-5.008.017,16.3A19.39,19.39,0,0,1,320.922,228.965Z" transform="translate(-310.192 -52.962)" opacity="0.3"/>
          <path id="Trazado_224018" data-name="Trazado 224018" d="M336.137,211.8c0-7.021-4.928-9.869-11.011-6.357s-11.011,12.049-11.011,19.073,4.931,9.866,11.011,6.357S336.137,218.821,336.137,211.8Z" transform="translate(-314.115 -59.846)" fill="#26c7db"/>
        </g>
      </g>
    </g>
    <g id="Chart_2" data-name="Chart 2" transform="translate(291.353 41.744)">
      <g id="Chart-2" data-name="Chart">
        <path id="Trazado_224020" data-name="Trazado 224020" d="M295.673,120.6,442.607,35.785c2.384-1.378,4.317-.26,4.317,2.493V166.173a9.55,9.55,0,0,1-4.317,7.482L295.673,258.466c-2.384,1.378-4.32.262-4.32-2.493V128.077A9.538,9.538,0,0,1,295.673,120.6Z" transform="translate(-291.353 -35.195)" opacity="0.2"/>
        <g id="Speach_Bubble-2" data-name="Speach Bubble" transform="translate(11.394 19.235)">
          <path id="Trazado_224021" data-name="Trazado 224021" d="M429.774,44.279l-128.96,74.386a10.518,10.518,0,0,0-4.763,8.244V246.451a10.387,10.387,0,0,0,4.79,8.2l9.068,5.144a10.664,10.664,0,0,0,9.546-.046l128.96-74.386a10.528,10.528,0,0,0,4.761-8.246V57.575a10.393,10.393,0,0,0-4.788-8.2L439.32,44.23A10.657,10.657,0,0,0,429.774,44.279Z" transform="translate(-296.051 -43.126)" fill="#f57c22"/>
          <path id="Trazado_224022" data-name="Trazado 224022" d="M319.456,213.362c-2.532,1.47-7.162,1.521-9.556.053l-9.059-5.161a10.363,10.363,0,0,1-4.79-8.186V80.526a9.81,9.81,0,0,1,1.516-4.86L316.1,86.391a9.5,9.5,0,0,0-1.407,4.686V210.6C314.695,213.384,316.655,214.987,319.456,213.362Z" transform="translate(-296.051 3.257)" opacity="0.2"/>
          <g id="Grupo_158654" data-name="Grupo 158654" transform="translate(18.644 11.051)">
            <path id="Trazado_224024" data-name="Trazado 224024" d="M437.459,48.332,308.5,122.719a10.53,10.53,0,0,0-4.761,8.246V250.5c0,3.037,2.134,4.266,4.761,2.748l128.96-74.384a10.522,10.522,0,0,0,4.761-8.249V51.08C442.22,48.044,440.09,46.814,437.459,48.332Z" transform="translate(-303.738 -47.682)" fill="#fafafa"/>
            <path id="Trazado_224025" data-name="Trazado 224025" d="M438.412,52.179V170.615a6.841,6.841,0,0,1-2.855,4.948L307.548,249.4l0-51.272,0-67.163a6.845,6.845,0,0,1,2.855-4.948L438.412,52.179m1.174-4.5a4.323,4.323,0,0,0-2.127.65L308.5,122.718a10.53,10.53,0,0,0-4.761,8.246V250.5c0,2.154,1.074,3.4,2.636,3.4a4.313,4.313,0,0,0,2.125-.652l128.96-74.384a10.522,10.522,0,0,0,4.761-8.249V51.08c0-2.154-1.072-3.4-2.634-3.4Z" transform="translate(-303.738 -47.681)" fill="#fda829"/>
          </g>
        </g>
        <g id="Bar_graph" data-name="Bar graph" transform="translate(45.403 59.641)">
          <g id="Grupo_158656" data-name="Grupo 158656" transform="translate(80.464)">
            <g id="Grupo_158655" data-name="Grupo 158655" transform="translate(0.001)">
              <path id="Trazado_224026" data-name="Trazado 224026" d="M350.647,152.018l0-82.857-7.394-4.269,0,82.857Z" transform="translate(-343.249 -52.505)" fill="#f57c22"/>
              <path id="Trazado_224028" data-name="Trazado 224028" d="M346.3,156.789,367.758,144.4l0-82.856L346.3,73.932Z" transform="translate(-338.904 -57.276)" fill="#fda829"/>
              <path id="Trazado_224029" data-name="Trazado 224029" d="M372.107,64.054l-7.395-4.269L343.249,72.172l7.394,4.269Z" transform="translate(-343.249 -59.785)" fill="#f57c22"/>
            </g>
            <path id="Trazado_224031" data-name="Trazado 224031" d="M372.106,61.545,350.644,73.611l-7.4-3.949,7.106,4.737c-.17,2.416-.029,79.923.291,82.39.323-2.467.458-80.134.3-82.472Z" transform="translate(-343.249 -57.277)" fill="#fff" opacity="0.3"/>
          </g>
          <g id="Grupo_158658" data-name="Grupo 158658" transform="translate(40.232 39.534)">
            <g id="Grupo_158657" data-name="Grupo 158657" transform="translate(0)">
              <path id="Trazado_224032" data-name="Trazado 224032" d="M334.059,152.013l0-66.552-7.394-4.269,0,66.552Z" transform="translate(-326.661 -68.805)" fill="#e58d0a"/>
              <path id="Trazado_224034" data-name="Trazado 224034" d="M329.713,156.784,351.17,144.4l0-66.55L329.71,90.232Z" transform="translate(-322.315 -73.576)" fill="#f57c22"/>
              <path id="Trazado_224036" data-name="Trazado 224036" d="M355.519,80.354l-7.4-4.269L326.661,88.472l7.394,4.269Z" transform="translate(-326.661 -76.085)" fill="#fda829"/>
            </g>
            <path id="Trazado_224038" data-name="Trazado 224038" d="M334.342,90.4l21.176-12.551-21.46,12.074c-2.338-1.324-7.4-3.956-7.4-3.956s4.732,3.022,7.116,4.424c-.075,2.505.117,63.841.281,66.4C334.223,154.227,334.415,92.822,334.342,90.4Z" transform="translate(-326.661 -73.577)" fill="#fff" opacity="0.3"/>
          </g>
          <g id="Grupo_158660" data-name="Grupo 158660" transform="translate(0 73.45)">
            <g id="Grupo_158659" data-name="Grupo 158659">
              <path id="Trazado_224039" data-name="Trazado 224039" d="M317.47,155.308l0-55.864-7.395-4.268,0,55.864Z" transform="translate(-310.073 -82.789)" fill="#fda829"/>
              <path id="Trazado_224041" data-name="Trazado 224041" d="M313.125,160.08l21.458-12.389,0-55.862-21.463,12.387Z" transform="translate(-305.727 -87.56)" fill="#fcb750"/>
              <path id="Trazado_224043" data-name="Trazado 224043" d="M338.931,94.338l-7.4-4.269-21.463,12.387,7.395,4.268Z" transform="translate(-310.073 -90.069)" fill="#f57c22"/>
            </g>
            <path id="Trazado_224045" data-name="Trazado 224045" d="M338.93,91.829,317.468,103.9l-7.4-3.949,7.1,4.635s-.024,53.977.3,55.5c.32-1.521.313-55.485.313-55.485Z" transform="translate(-310.073 -87.56)" fill="#fff" opacity="0.3"/>
          </g>
        </g>
      </g>
    </g>
    <g id="Speech_Bubble" data-name="Speech Bubble" transform="translate(543.587 30.6)">
      <g id="Speech_Bubble-2" data-name="Speech Bubble">
        <g id="Speech_Bubble-3" data-name="Speech Bubble">
          <path id="Trazado_224046" data-name="Trazado 224046" d="M395.351,82.142A51.487,51.487,0,1,0,446.784,30.6,51.534,51.534,0,0,0,395.351,82.142Zm4.632,0a46.861,46.861,0,1,1,46.892,46.817A46.905,46.905,0,0,1,399.983,82.137Z" transform="translate(-395.351 -30.6)" fill="#455a64"/>
          <path id="Trazado_224047" data-name="Trazado 224047" d="M397.261,79.414a46.861,46.861,0,1,0,46.8-46.9A46.907,46.907,0,0,0,397.261,79.414Z" transform="translate(-392.629 -27.878)" fill="#fff"/>
          <path id="Trazado_224048" data-name="Trazado 224048" d="M424.917,88.908l6.578-17.021-18.765.017,6.609,17.009A2.991,2.991,0,0,0,424.917,88.908Z" transform="translate(-370.581 28.249)" fill="#455a64"/>
        </g>
        <g id="Bulb" transform="translate(27.108 18.315)">
          <g id="Grupo_158662" data-name="Grupo 158662" transform="translate(15.328 54.272)">
            <g id="Grupo_158661" data-name="Grupo 158661">
              <path id="Trazado_224049" data-name="Trazado 224049" d="M414.034,62.9h15.753a1.186,1.186,0,0,0,0-2.372H414.034a1.186,1.186,0,1,0,0,2.372Z" transform="translate(-412.848 -60.528)" fill="#455a64"/>
            </g>
          </g>
          <g id="Grupo_158664" data-name="Grupo 158664" transform="translate(15.328 58.684)">
            <g id="Grupo_158663" data-name="Grupo 158663">
              <path id="Trazado_224050" data-name="Trazado 224050" d="M412.848,63.533a1.186,1.186,0,0,1,1.186-1.186h15.753a1.186,1.186,0,0,1,1.186,1.186,9.062,9.062,0,1,1-18.125,0Z" transform="translate(-412.848 -62.347)" fill="#455a64"/>
            </g>
          </g>
          <g id="Grupo_158665" data-name="Grupo 158665">
            <path id="Trazado_224051" data-name="Trazado 224051" d="M406.528,62.533a24.505,24.505,0,0,0,12.01,20.982,6.5,6.5,0,0,1,3.226,5.554,1.066,1.066,0,0,0,1.062,1.06h16.182a1.105,1.105,0,0,0,.757-.306,1.123,1.123,0,0,0,.306-.754,6.44,6.44,0,0,1,3.243-5.569,24.4,24.4,0,0,0,11.979-21.36A24.694,24.694,0,0,0,432.1,38.18a24.382,24.382,0,0,0-25.576,24.353Z" transform="translate(-406.528 -38.151)" fill="#26c7db"/>
          </g>
        </g>
        <g id="Grupo_158667" data-name="Grupo 158667" transform="translate(41.076 28.185)">
          <path id="Trazado_224053" data-name="Trazado 224053" d="M431.072,68.1a10.189,10.189,0,0,1-5.94,2.67V84.328H421V70.908a21.648,21.648,0,0,1-4.889-.878,14.124,14.124,0,0,1-3.822-1.739l2.239-5.03a15.249,15.249,0,0,0,7.955,2.377q3.926,0,3.924-1.962a1.626,1.626,0,0,0-1.118-1.533,20.612,20.612,0,0,0-3.6-1.05,34.506,34.506,0,0,1-4.545-1.256,7.671,7.671,0,0,1-3.136-2.154,5.823,5.823,0,0,1-1.307-3.995,6.9,6.9,0,0,1,2.134-5.079,10.173,10.173,0,0,1,6.165-2.6V42.221h4.133v3.718a20.044,20.044,0,0,1,3.771.689,13.984,13.984,0,0,1,3.221,1.344l-2.1,5.062a14.037,14.037,0,0,0-6.682-1.86,5.6,5.6,0,0,0-2.961.6,1.81,1.81,0,0,0-.929,1.567,1.55,1.55,0,0,0,1.1,1.446,19.849,19.849,0,0,0,3.548,1,33.491,33.491,0,0,1,4.562,1.256,7.893,7.893,0,0,1,3.136,2.137,5.706,5.706,0,0,1,1.324,3.978A6.8,6.8,0,0,1,431.072,68.1Z" transform="translate(-412.287 -42.221)" fill="#fff"/>
        </g>
      </g>
    </g>
    <g id="Character_3" data-name="Character 3" transform="translate(414.659 164.591)">
      <g id="Character">
        <g id="Bottom" transform="translate(81.331 240.063)">
          <g id="Grupo_158674" data-name="Grupo 158674" transform="translate(0 259.682)">
            <path id="Trazado_224054" data-name="Trazado 224054" d="M431.793,329.133l3.793-33.776-38.469-3.463s1.627,26.034,1.4,37.977c-.112,5.627-4.089,16.216-4.089,16.216s16.1,8.355,24.46,4.938,13.885-16.592,13.684-19.005S431.793,329.133,431.793,329.133Z" transform="translate(-349.074 -291.894)" fill="#ffbda7"/>
            <path id="Trazado_224055" data-name="Trazado 224055" d="M376.26,343.881c-.529.01-.929,4.9,2,7.3,3.381,2.77,14.123,8.067,27,6.2s19.8-5.923,24.887-10.269,12.217-10.48,18.033-11.848c5.4-1.273,12.677-5.729,14.382-7.409s1.327-9.02,1.327-9.02Z" transform="translate(-375.497 -253.49)" fill="#263238"/>
            <path id="Trazado_224056" data-name="Trazado 224056" d="M458.336,307.224a2.07,2.07,0,0,1,1.986,1.686c.437,2.015.975,7.89,1.889,11.2,1.273,4.594,2.244,14.041,1.6,17.814s-10.866,8.474-16.476,10.691c-5.734,2.265-12.326,6.842-18.1,11.7-5.976,5.033-18.644,10.378-27.06,10.463-9.959.1-21.227-2.881-23.88-7.383-3.284-5.571-5.722-12.066,8.916-19.056,2.772-1.324,12.481-7.216,15.787-9.347,8.95-5.765,15.222-11.023,19.2-21.026.466-1.167.953-2.462,2.066-3.073a4.8,4.8,0,0,1,2.867-.3c2.464.3,12.3,1.46,14.562,2.474,2,.895,4.829,1.928,4.834,4.429a8.329,8.329,0,0,1-.509,2.549c-.167.514-.293,1.193.165,1.489.434.277.994-.058,1.373-.405a37.822,37.822,0,0,0,3.893-4.771,42.186,42.186,0,0,1,3.721-4.32,25.307,25.307,0,0,0,2.5-1.657C458.552,309.484,458.316,308.4,458.336,307.224Z" transform="translate(-375.614 -270.043)" fill="#455a64"/>
            <path id="Trazado_224057" data-name="Trazado 224057" d="M429.353,339.411c2.535-2.134,5.232-4.2,7.943-6.056l0-.012s-17.167,10.691-24.271,6.095c-4.577-2.961-2.5-6.692-2.408-7.873s-16.024-9.238-20.422-9.675h0c-1.21.686-2.212,1.273-2.864,1.545-11.443,4.737-12.869,10.616-10.815,17.941,2.653,4.5,12.738,9.025,25.607,8.8C410.537,350.032,423.377,344.444,429.353,339.411Z" transform="translate(-375.726 -249.138)" fill="#37474f"/>
            <path id="Trazado_224058" data-name="Trazado 224058" d="M393.93,349.008c-9.112,3.771-5.164,5.394-2.588,5.709s17.865-8.836,27.152-16.34c9.687-7.829,17.155-18.241,20.754-21.115,1.341-1.072,2.784-2.384,4.065-3.611-.279-1.986-.509-3.793-.713-4.744a2.07,2.07,0,0,0-1.986-1.683c-.019,1.174.216,2.26-.667,3.155a25.016,25.016,0,0,1-2.5,1.657,42.179,42.179,0,0,0-3.721,4.32,37.832,37.832,0,0,1-3.893,4.771C422.006,331.284,403.044,345.234,393.93,349.008Z" transform="translate(-357.892 -270.043)" fill="#37474f"/>
            <g id="Grupo_158673" data-name="Grupo 158673" transform="translate(12.152 51.818)">
              <g id="Grupo_158668" data-name="Grupo 158668" transform="translate(0 20.542)">
                <path id="Trazado_224059" data-name="Trazado 224059" d="M402.663,332.7a.914.914,0,0,0,.572-.213.882.882,0,0,0,.1-1.261c-2.651-3.078-15.066-10.281-21.806-9.432a.894.894,0,1,0,.226,1.773c6.3-.776,18.1,6.376,20.2,8.816A.906.906,0,0,0,402.663,332.7Z" transform="translate(-380.737 -321.729)" fill="#263238"/>
              </g>
              <g id="Grupo_158669" data-name="Grupo 158669" transform="translate(7.917 15.554)">
                <path id="Trazado_224060" data-name="Trazado 224060" d="M405.926,330.644a.927.927,0,0,0,.572-.211.887.887,0,0,0,.1-1.264c-2.648-3.075-15.062-10.272-21.807-9.43a.9.9,0,1,0,.228,1.775c6.3-.769,18.1,6.372,20.194,8.811A.9.9,0,0,0,405.926,330.644Z" transform="translate(-384.001 -319.672)" fill="#263238"/>
              </g>
              <g id="Grupo_158670" data-name="Grupo 158670" transform="translate(15.843 10.817)">
                <path id="Trazado_224061" data-name="Trazado 224061" d="M409.195,328.694a.894.894,0,0,0,.57-.213.882.882,0,0,0,.1-1.259c-2.649-3.08-15.066-10.288-21.807-9.432a.9.9,0,1,0,.228,1.775c6.3-.776,18.1,6.371,20.194,8.814A.908.908,0,0,0,409.195,328.694Z" transform="translate(-387.269 -317.719)" fill="#263238"/>
              </g>
              <g id="Grupo_158671" data-name="Grupo 158671" transform="translate(23.165 5.442)">
                <path id="Trazado_224062" data-name="Trazado 224062" d="M412.214,326.476a.914.914,0,0,0,.572-.213.886.886,0,0,0,.1-1.261c-2.648-3.078-15.091-10.276-21.807-9.43a.9.9,0,1,0,.228,1.775c6.289-.771,18.1,6.371,20.194,8.811A.906.906,0,0,0,412.214,326.476Z" transform="translate(-390.288 -315.503)" fill="#263238"/>
              </g>
              <g id="Grupo_158672" data-name="Grupo 158672" transform="translate(28.797)">
                <path id="Trazado_224063" data-name="Trazado 224063" d="M416.078,324.3a.9.9,0,0,0,.56-.2.882.882,0,0,0,.124-1.256c-3.643-4.368-16.619-10.339-23.356-9.5a.9.9,0,1,0,.228,1.775c6.066-.754,18.491,4.984,21.726,8.857A.906.906,0,0,0,416.078,324.3Z" transform="translate(-392.61 -313.259)" fill="#263238"/>
              </g>
            </g>
          </g>
          <g id="Grupo_158681" data-name="Grupo 158681" transform="translate(137.316 265.976)">
            <path id="Trazado_224064" data-name="Trazado 224064" d="M441.492,341.291l-9.149-40.562,40.012-6.24.643,40.04s3.056,10.769.8,14.472-26.294,7.6-28.5,5.132S441.492,341.291,441.492,341.291Z" transform="translate(-432.343 -294.489)" fill="#ffbda7"/>
            <path id="Trazado_224065" data-name="Trazado 224065" d="M437.762,348.661c1.053,9.1,2.959,14.981,6.9,19.91s10.953,5.77,17.894,3.335,15.724-7.744,17.349-15.9.951-13.529-1.06-21.84Z" transform="translate(-424.619 -237.94)" fill="#263238"/>
            <path id="Trazado_224066" data-name="Trazado 224066" d="M468.094,311c2.9-.153,2.117,7.009,3.485,19.277,1.48,13.272,7.463,23.672,9.59,34.312,2.433,12.156,1.969,17.778-2.559,25.864S457.1,408,448.036,398.327c-7.395-7.887-8.159-17.543-8.13-29.982.029-12.859.165-21.918-.9-31.544-1.019-9.2-4.877-17.7-2.418-19.039.262,1.336,2.726,10.655,4.349,10.507a17.038,17.038,0,0,0-.138-3.5,3.954,3.954,0,0,1,.645-3.088c.737-.9,3.5-2.023,4.664-2.372,2.823-.846,7.863-1.9,10.744-2.486,1.433-.291,2.877-.529,4.324-.691a12.685,12.685,0,0,1,3.687.015,2.257,2.257,0,0,1,1.627,1.065,3.487,3.487,0,0,1,.218,1.395,8.98,8.98,0,0,0,.488,2.5c.124.352.432.764.842.623a.78.78,0,0,0,.434-.805C468.409,319.43,468.194,311.785,468.094,311Z" transform="translate(-427.44 -270.959)" fill="#455a64"/>
            <path id="Trazado_224067" data-name="Trazado 224067" d="M477.917,331.674c.369,1.754,2.656,13.366-.875,15.944-3.822,2.787-6.437-6.243-6.437-6.243s-9.352-1.373-22.527,5.476c.783,1.834-.977,8.414-4.729,7.528-3.725-.878-5.838-14.264-5.865-14.436.024,11.921.948,21.254,8.127,28.91,9.068,9.675,26.046.211,30.574-7.875s4.991-13.708,2.559-25.864C478.5,333.9,478.221,332.763,477.917,331.674Z" transform="translate(-425.015 -241.486)" fill="#37474f"/>
            <path id="Trazado_224068" data-name="Trazado 224068" d="M453.027,371.769c.279,4.468,5.193,2.345,5.1-4s-3.422-21.756-4.683-32.131c-.839-14.928-1.436-24.792-4.337-24.64.019.15.022.3.039.454,0,0,.3,8.506.34,9.471.519,9.119.638,26.837,1.935,35.073A128.014,128.014,0,0,1,453.027,371.769Z" transform="translate(-408.451 -270.959)" fill="#37474f"/>
            <path id="Trazado_224069" data-name="Trazado 224069" d="M452.087,372.036a125.442,125.442,0,0,1-3.527-15.365c-1.4-8.152-6.284-24.472-8.7-33.247-.783-1.441-3.24-9.638-3.24-9.638-2.006.568,0,8.387.941,12.044s2.086,7.582,3.262,12.83c3,10.344,3.289,25.874,5.222,31.831S453.251,376.315,452.087,372.036Z" transform="translate(-427.472 -266.984)" fill="#37474f"/>
            <g id="Grupo_158680" data-name="Grupo 158680" transform="translate(14.167 61.012)">
              <g id="Grupo_158675" data-name="Grupo 158675" transform="translate(7.403 37.717)">
                <path id="Trazado_224070" data-name="Trazado 224070" d="M442.463,342.23a1.372,1.372,0,0,0,.386-.15c.1-.063,10.366-6.1,22.178-4.773a1.189,1.189,0,0,0,1.278-.834.874.874,0,0,0-.82-1.067c-12.636-1.424-23.264,4.843-23.715,5.115a.941.941,0,0,0-.386,1.334A1.035,1.035,0,0,0,442.463,342.23Z" transform="translate(-441.236 -335.195)" fill="#263238"/>
              </g>
              <g id="Grupo_158676" data-name="Grupo 158676" transform="translate(4.51 27.825)">
                <path id="Trazado_224071" data-name="Trazado 224071" d="M441.272,338.626a1.319,1.319,0,0,0,.352-.131c.114-.063,11.676-6.41,24.831-5.336a1.188,1.188,0,0,0,1.251-.868.882.882,0,0,0-.861-1.043c-13.914-1.128-25.733,5.37-26.233,5.644a.965.965,0,0,0-.444,1.332A1.042,1.042,0,0,0,441.272,338.626Z" transform="translate(-440.044 -331.117)" fill="#263238"/>
              </g>
              <g id="Grupo_158677" data-name="Grupo 158677" transform="translate(3.172 18.408)">
                <path id="Trazado_224072" data-name="Trazado 224072" d="M466.087,329.552a1.169,1.169,0,0,0,.88-.749.871.871,0,0,0-.73-1.125c-13.158-2.3-25.68,5.105-26.211,5.426a.94.94,0,0,0-.388,1.334,1.121,1.121,0,0,0,1.467.223c.119-.068,12.284-7.252,24.528-5.1A1.141,1.141,0,0,0,466.087,329.552Z" transform="translate(-439.492 -327.234)" fill="#263238"/>
              </g>
              <g id="Grupo_158678" data-name="Grupo 158678" transform="translate(1.543 9.654)">
                <path id="Trazado_224073" data-name="Trazado 224073" d="M465.875,326.089a1.171,1.171,0,0,0,.871-.735.86.86,0,0,0-.706-1.135c-14.482-2.779-26.25,5.081-26.742,5.416a.928.928,0,0,0-.3,1.349,1.128,1.128,0,0,0,1.489.138c.109-.078,11.431-7.608,24.911-5.028A1.191,1.191,0,0,0,465.875,326.089Z" transform="translate(-438.82 -323.625)" fill="#263238"/>
              </g>
              <g id="Grupo_158679" data-name="Grupo 158679">
                <path id="Trazado_224074" data-name="Trazado 224074" d="M465.423,322.1a1.177,1.177,0,0,0,.866-.72.863.863,0,0,0-.686-1.147c-13.582-2.8-26.383,5.353-26.919,5.7a.932.932,0,0,0-.332,1.344,1.1,1.1,0,0,0,1.482.17c.124-.08,12.493-7.945,25.1-5.348A1.179,1.179,0,0,0,465.423,322.1Z" transform="translate(-438.184 -319.645)" fill="#263238"/>
              </g>
            </g>
          </g>
          <g id="Grupo_158682" data-name="Grupo 158682" transform="translate(36.777)">
            <path id="Trazado_224075" data-name="Trazado 224075" d="M518.6,184.825c8.855,48.389,6.049,179.364,6.049,179.364.49,5.467,3.6,13.116,6.141,40.079,2.675,28.442,2.573,69.048,2.573,69.048s-24.043,10.267-38.985,4.962c0,0-16.058-60.911-23.829-94.41-7.354-31.7-12.77-81.274-12.77-81.274l-8.729,47.758s1.1,20.519.585,34.879c-.6,16.7-9.614,80.648-9.614,80.648s-22.34,13.378-37.884.628c0,0-10.478-94.044-10.982-114.131-.99-39.405.793-116.719,5.45-167.552Z" transform="translate(-390.89 -184.825)" fill="#37474f"/>
            <path id="Trazado_224076" data-name="Trazado 224076" d="M439.19,270.353l-7.856-51.2s-18.1-2.76-27.4-11.712c0,0,6.022,11.863,23.1,16.442l7.8,46.6-4.37,47.625Z" transform="translate(-372.3 -152.584)" fill="#263238"/>
          </g>
        </g>
        <g id="Top">
          <g id="Grupo_158684" data-name="Grupo 158684" transform="translate(0 93.954)">
            <g id="Grupo_158683" data-name="Grupo 158683">
              <path id="Trazado_224077" data-name="Trazado 224077" d="M370.73,183.747c4.05,4.2,8,10.432,14.863,17.858s17.079,20.191,27.426,28.421c10.393,8.266,15.534,11.707,31.574-.885,20.361-15.99,41.425-39.451,41.425-39.451l15.105-51.336c-15.168.291-22.161,4.785-33.584,16.345-19.527,19.76-40.724,41.227-40.724,41.227s-30.441-24.084-34.317-27.771a17.848,17.848,0,0,1-5.452-10.4,83.367,83.367,0,0,0-2.052-9.871c-.876-3.449-1.218-4.756-2.195-9.066s-1.167-11.358-1.443-12.947c-.713-1.855-3.3-2.069-6.073,1.817-1.722,2.411-1.945,5.877-2.151,8.147-.228,2.53.095,5.683-.725,5.983s-4.126-2.04-7.587-3.408-6.41-3.364-10.555-2.75a4.746,4.746,0,0,0-4.145,5.751,6.14,6.14,0,0,0,1.775,2.709,5.1,5.1,0,0,0-3.995.626c-1.94,1.264-2.471,5.239-1.094,6.941a3.15,3.15,0,0,0-3.442,2.3c-.762,2.287-.844,4.657,1.378,5.92,0,0-2.011.172-2.294,1.293s-.691,3.834,1.072,5.438,6.5,2.566,6.5,2.566.228.895,2.3,2.379a56.865,56.865,0,0,0,6.9,5.115C362.008,178.3,367.5,180.4,370.73,183.747Z" transform="translate(-342.193 -124.583)" fill="#ffbda7"/>
              <path id="Trazado_224078" data-name="Trazado 224078" d="M355.694,155.726a2.034,2.034,0,0,1-.728,1.642,16.15,16.15,0,0,1-1.926,1.426,9.541,9.541,0,0,1-1.014.633,3.98,3.98,0,0,1-1.062.369l-2.442.509a9.9,9.9,0,0,0,2.542.167,3.217,3.217,0,0,0,1.322-.32,10.165,10.165,0,0,0,1.145-.618,10.689,10.689,0,0,0,1.948-1.715,2.737,2.737,0,0,0,.548-1.261,1.739,1.739,0,0,0-.163-.849,11.255,11.255,0,0,0,1.989-.434,6.314,6.314,0,0,0,2.889-1.441,4.75,4.75,0,0,0,.762-1.47,1.8,1.8,0,0,0,.08-.521l.88-.953a13.946,13.946,0,0,0,2.53,6.124,16.711,16.711,0,0,0,6.054,5.363s-2.789-1.627-5.035-6.481c-1.933-4.174-.65-9.578.808-12.226a1.154,1.154,0,0,0,.179-.032,2.248,2.248,0,0,0,.893-.817,3.049,3.049,0,0,0,.408-2.195,6.248,6.248,0,0,0-.723-1.969,11.748,11.748,0,0,0-6.185-4.858,5.6,5.6,0,0,0-.769-1.577,9.063,9.063,0,0,0-1.184-1.395,11.762,11.762,0,0,1,1.011,1.5,5.229,5.229,0,0,1,.621,1.637l.015.1.1.048a12.144,12.144,0,0,1,5.7,4.921c.575,1.062.922,2.428.3,3.3-.383.521-.621.65-1.222.471-.577-.15-1.22-.4-1.858-.58-1.3-.386-2.6-.594-3.834-.936a15.328,15.328,0,0,1-3.531-1.487c-1.123-.643-2.18-1.414-3.255-2.166a27.122,27.122,0,0,1-3.095-2.416,31.853,31.853,0,0,0,6.017,5.127,13.263,13.263,0,0,0,3.648,1.693c1.288.378,2.585.611,3.8,1,.252.075.495.165.742.25a2.433,2.433,0,0,1,.618,1.637,2.68,2.68,0,0,1-1.705,2.382,16.024,16.024,0,0,1-3.07,1.2,9.014,9.014,0,0,1-3.187.272c-2.059-.373-3.968-1.78-5.947-2.826-1.982-1.091-3.966-2.173-6.005-3.165,1.846,1.319,3.745,2.547,5.649,3.764.948.618,1.916,1.2,2.9,1.775a6.648,6.648,0,0,0,5.445,1.213,3.221,3.221,0,0,1,1.581,1.373,1.484,1.484,0,0,1,.09,1.273,4.247,4.247,0,0,1-.735,1.193,6.744,6.744,0,0,1-2.612,1.125,6.351,6.351,0,0,1-2.821.313,11.2,11.2,0,0,1-2.663-1.244,18.673,18.673,0,0,0-2.93-1.072c-1.972-.58-3.956-1.091-5.971-1.492,1.911.752,3.844,1.426,5.755,2.137a29.108,29.108,0,0,1,2.784,1.15,11.2,11.2,0,0,0,2.852,1.392A4.332,4.332,0,0,0,355.694,155.726Zm9.343-12.246c-.015-.019-.024-.041-.039-.061h0Z" transform="translate(-340.695 -115.683)" fill="#f0997a"/>
            </g>
            <path id="Trazado_224079" data-name="Trazado 224079" d="M477.709,129.925c-13.177.631-18.433,3.488-31.445,15.21s-41.178,42.257-41.178,42.257l-27.278-20.713s1.911,4.242-4.625,13.315-15.564,8.285-15.564,8.285S374.582,208,382.365,215.5s16.876,14.96,21.743,15.43,8.7-1.082,19.393-8.884,54.207-47.132,54.207-47.132Z" transform="translate(-320.206 -116.969)" fill="#e0e0e0"/>
          </g>
          <path id="Trazado_224080" data-name="Trazado 224080" d="M475.089,205.507c7.63-3.75,14.809-3.412,17.259-12.99,1.909-7.453-2.607-15.212-3.345-22.253-.827-7.88,3.374-16.91-1.455-23.189-3.284-4.274-9.563-5.251-13.007-9.4-4.72-5.68-2.18-14.547-5.4-21.2a13.522,13.522,0,0,0-14.858-7.038c-6.7,1.606-12.619,1.29-18.9,4.126s-11.782,8.375-12.636,15.212c-.948,7.589,3.861,15.035,2.877,22.619-.6,4.615-3.269,8.654-5.149,12.91s-2.91,9.476-.371,13.376,7.705,5.1,11.116,8.261c5.489,5.1,5.236,13.863,9.005,20.337,4.686,8.043,16.189,11.181,24.31,6.633C468.293,210.814,471.223,207.406,475.089,205.507Z" transform="translate(-233.294 -52.675)" fill="#263238"/>
          <g id="Chest" transform="translate(121.482 106.793)">
            <path id="Trazado_224081" data-name="Trazado 224081" d="M433.534,129.877l52.936,2.265,16.471,3.939c4.754,2.168,11.353,15.03,9.2,44.76-.868,11.962-4.586,33.786-4.688,42.742,0,13.034,10.938,30.974,12.195,56.385-39.114,24.045-113.352,16.73-127.368,3.854,1.821-25.139,2.8-27.637,6-48.808a309.4,309.4,0,0,0,3.085-31.753s-7.495-12.624-6.881-21.123c.9-12.469,3.49-16.9,14.906-30.841,10.863-13.272,18.908-21.3,18.908-21.3Z" transform="translate(-392.281 -129.877)" fill="#f0f0f0"/>
          </g>
          <g id="Grupo_158692" data-name="Grupo 158692" transform="translate(133.722)">
            <path id="Trazado_224082" data-name="Trazado 224082" d="M477.339,106.416c13.444,1.489,16.7,23.468,13.5,35.866-6.158,23.917-22.3,26.713-22.922,36.926q-12.082-7.091-24.164-14.176L424.956,154a67.539,67.539,0,0,1-11.5-8.164c-3.4-3.085-7.392-4.521-9.49-8.954a20.348,20.348,0,0,1-1.026-13.218,6.681,6.681,0,0,1-4.795-3.941,11.182,11.182,0,0,1-.631-6.345c1.045-6.544,5.8-11.894,11.026-15.969q1.117-.873,2.282-1.686c10.994-7.691,25.047-11.55,38.379-9.2C460.893,88.6,473.7,93.858,477.339,106.416Z" transform="translate(-397.328 -85.845)" fill="#263238"/>
            <g id="Grupo_158691" data-name="Grupo 158691" transform="translate(11.248 25.669)">
              <path id="Trazado_224083" data-name="Trazado 224083" d="M460.741,173.7l1.339-22.175s6.1,3.65,11.911-2.374c6.629-6.871,7.281-14.363,3.665-19.17-4-5.314-12.825-3.3-16.65,3.172-5.768,1.38-8.106-6.861-3.73-15.309,0,0-27.928,1.9-40.877-19.335-3.512-3.3-9.369-2.636-11.275,1.763-1.365,3.148-3.16,8.414-1.868,19.073.48,3.961-1.431,8.685-1.281,14.031.587,21.089,5.392,27.882,11.166,31.44,3.6,2.217,9.59,3.536,15.765,3.551l-.466,5.68h0c-.126,3.083-.854,3.185-3.526,3.333-2.117.116-4,.233-4,.233l8.27,26.517c8.9-11.426,24.445-14.438,42.633-23.136,0,0,.466.056-4.426-.667S461.148,177.839,460.741,173.7Z" transform="translate(-401.966 -96.429)" fill="#ffbda7"/>
              <g id="Grupo_158690" data-name="Grupo 158690" transform="translate(4.842 12.758)">
                <g id="Grupo_158685" data-name="Grupo 158685" transform="translate(17.05 34.652)">
                  <path id="Trazado_224084" data-name="Trazado 224084" d="M422.45,115.976l-11.458,3.7a5.914,5.914,0,0,0,7.475,4.087A6.305,6.305,0,0,0,422.45,115.976Z" transform="translate(-410.992 -115.976)" fill="#b16668"/>
                  <path id="Trazado_224085" data-name="Trazado 224085" d="M419.3,117.072a6.625,6.625,0,0,0-6.6,5.188,5.709,5.709,0,0,0,3.34-.053,6.191,6.191,0,0,0,4.152-5.025A6.7,6.7,0,0,0,419.3,117.072Z" transform="translate(-408.562 -114.416)" fill="#f28f8f"/>
                </g>
                <g id="Grupo_158686" data-name="Grupo 158686">
                  <path id="Trazado_224086" data-name="Trazado 224086" d="M404.273,107.624l7.591-3.386a3.989,3.989,0,0,0-5.36-2.195A4.366,4.366,0,0,0,404.273,107.624Z" transform="translate(-403.962 -101.689)" fill="#263238"/>
                  <path id="Trazado_224087" data-name="Trazado 224087" d="M411.6,108.592a3.564,3.564,0,0,1-3.177,3.788,3.341,3.341,0,0,1-3.728-3.046,3.565,3.565,0,0,1,3.177-3.788A3.34,3.34,0,0,1,411.6,108.592Z" transform="translate(-402.927 -96.22)" fill="#263238"/>
                </g>
                <g id="Grupo_158687" data-name="Grupo 158687" transform="translate(27.987 2.687)">
                  <path id="Trazado_224088" data-name="Trazado 224088" d="M423.409,109.108l-7.395-4.019A4.041,4.041,0,0,1,421.6,103.3,4.422,4.422,0,0,1,423.409,109.108Z" transform="translate(-414.771 -102.797)" fill="#263238"/>
                  <path id="Trazado_224089" data-name="Trazado 224089" d="M422.418,108.9a3.569,3.569,0,0,1-3.177,3.791,3.342,3.342,0,0,1-3.728-3.046,3.565,3.565,0,0,1,3.175-3.791A3.345,3.345,0,0,1,422.418,108.9Z" transform="translate(-415.501 -98.473)" fill="#263238"/>
                </g>
                <g id="Grupo_158688" data-name="Grupo 158688" transform="translate(7.691 6.119)">
                  <path id="Trazado_224090" data-name="Trazado 224090" d="M421.152,104.212l-2.466,23.7L407.133,121.8Z" transform="translate(-407.133 -104.212)" fill="#f0997a"/>
                </g>
                <g id="Grupo_158689" data-name="Grupo 158689" transform="translate(21.71 44.622)">
                  <path id="Trazado_224091" data-name="Trazado 224091" d="M413.3,134.642c15.277.25,24.952-5.341,29.083-14.555,0,0-1.312,8.644-7.511,13.31-6.946,5.224-21.962,5.426-21.962,5.426Z" transform="translate(-412.913 -120.087)" fill="#f0997a"/>
                </g>
              </g>
            </g>
          </g>
          <path id="Trazado_224092" data-name="Trazado 224092" d="M470.178,135.086a42.487,42.487,0,0,1-4.839-2.93c-2.974-2.028-3.849-4.344-7.017-4.344-1.79,8.268-12.156,16.291-20.143,19.575-7.662,3.148-11.484,12.006-11.484,12.006s9.292-8.625,15.43-6,17.894,9.476,17.894,9.476,6.238-9.272,8.312-16.112C470.608,139.257,470.178,135.086,470.178,135.086Zm-47.239,9.408c-.73-2.6,1.6-12.107,1.6-12.107s1.288.024,1.407-2.571c.007-.158.063-1.339.061-1.518a10.012,10.012,0,0,0-2.234,1.436,35.065,35.065,0,0,1-6.529,3.087s-10.451,10.174-13.531,20.574c5.777-4.169,11.288-4.987,15.944-2.117,5.862,3.611,7.041,8.115,7.041,8.115C427.111,154.428,423.669,147.091,422.939,144.494Z" transform="translate(-254.507 -26.027)" fill="#e0e0e0"/>
          <g id="Grupo_158696" data-name="Grupo 158696" transform="translate(65.755 112.997)">
            <g id="Grupo_158694" data-name="Grupo 158694" transform="translate(0 60.496)">
              <path id="Trazado_224093" data-name="Trazado 224093" d="M369.3,159.739l51.11,7.013,39.414,5.408,39.146,105.7L412.634,263.8Z" transform="translate(-369.305 -154.013)" fill="#fda829"/>
              <path id="Trazado_224094" data-name="Trazado 224094" d="M402.393,191.162c.74,2.855,4.824,12.5,15.314,14.63,11.938,2.428,25.141.5,25.141.5l-4.484-12.115Z" transform="translate(-322.141 -109.224)" opacity="0.15"/>
              <path id="Trazado_224095" data-name="Trazado 224095" d="M381.775,168.03s-.507-1.46-1.133-3.257,4.514-2.505,11.477-1.576l13.33,1.778c6.963.929,13.114,3.138,13.737,4.938l1.13,3.257Z" transform="translate(-353.217 -149.668)" opacity="0.15"/>
              <g id="Grupo_158693" data-name="Grupo 158693" transform="translate(20.893)">
                <path id="Trazado_224096" data-name="Trazado 224096" d="M377.968,163.861c-.4-1.123,1.652-1.681,4.574-1.244l5.29.791s-2.406-7.048,9.258-5.9,15.147,9.059,15.147,9.059l5.651.888c3.121.49,6.056,1.783,6.551,2.889l.9,2-46.63-6.4S378.361,164.984,377.968,163.861Z" transform="translate(-377.919 -157.378)" fill="#fda829"/>
                <path id="Trazado_224098" data-name="Trazado 224098" d="M419.416,173.236c-.519-1.494-4.873-3.265-10.32-4.356-.063-.187-.129-.376-.175-.524-.5-1.567.058-2.617,3.342-2.163l.117-1.307-32.306-4.162,1.482,1.225c4.264.495,6.049.834,7.014,3.609.08.228.136.412.211.633-5.045-.289-8.418.434-7.909,1.906L382,171.353l38.544,5.142Z" transform="translate(-374.847 -152.61)" fill="#f57c22"/>
              </g>
            </g>
            <g id="Grupo_158695" data-name="Grupo 158695" transform="translate(73.542)">
              <path id="Trazado_224100" data-name="Trazado 224100" d="M552.606,190.317a128.1,128.1,0,0,0-6.071-24.564l-36.616,16.126s-7.783,4.065-25.619,12.588c-9.667,4.618-18.331,8.06-26.778,6.345-2.5-.5-11.011-1.693-13.553-1.909-2.755-.235-5.522.075-8.28.01-1.768-.041-6.139-.383-6.139-.383l3.447,9.3a12.812,12.812,0,0,1,1.445.941c1.084.7,1.007,1.991-.577,2.646a36.488,36.488,0,0,1-14.455,2.484,82.769,82.769,0,0,1-14.639-1.8,8.941,8.941,0,0,0-2.544-.252,2.95,2.95,0,0,0-2.2,1.152,3.051,3.051,0,0,0,.136,3.211,11.123,11.123,0,0,0,2.348,2.438,6.562,6.562,0,0,1,2.064,2.648c.538,1.569-.022,3.41.737,4.885.885,1.72,3.107,2.171,4.62,3.376,1.317,1.05,2.057,2.651,3.09,3.985a14.362,14.362,0,0,0,6.449,4.431c7.007,2.593,14.084,1.855,21.331.912,15.12-1.962,26.548-7.785,33.815-10.022s16.48-3.878,38.173-9.859c17.686-4.877,22.481-6.638,28.935-9.2C549.445,206.749,554.124,202.5,552.606,190.317Z" transform="translate(-399.627 -84.944)" fill="#ffbda7"/>
              <path id="Trazado_224101" data-name="Trazado 224101" d="M504.189,225.366c-4.3-13.912-10.136-31.714-16.658-49.007-3.136-8.319-4.429-12.964-10.482-25.493-5.641-11.673-18.168-14.416-31.494-18.43,0,0-12.595,21.205-3.934,48.52,4.652,14.671,20.2,47.668,20.2,47.668l-29.279,15.151a37.635,37.635,0,0,1,9.44,12.362c4,8.154-.961,17.931-.961,17.931s29.478-8.263,40.64-10.9,21.416-8.688,24.317-13.15S508.494,239.28,504.189,225.366Z" transform="translate(-352.711 -132.435)" fill="#e0e0e0"/>
            </g>
          </g>
        </g>
      </g>
    </g>
  </g>
</svg>
