<svg xmlns="http://www.w3.org/2000/svg" width="100.334" height="100.334" viewBox="0 0 100.334 100.334">
  <g id="_20-Currency_Exchange" data-name=" 20-Currency Exchange" transform="translate(0 0.001)">
    <path id="Trazado_224102" data-name="Trazado 224102" d="M140.55,40a12.437,12.437,0,0,1,9.814,4.75A20.368,20.368,0,0,0,131.5,61.227,12.542,12.542,0,0,1,140.55,40Z" transform="translate(-102.925 -32.162)" fill="#ffac5a"/>
    <path id="Trazado_224103" data-name="Trazado 224103" d="M128.788,14.32a18.843,18.843,0,0,1,3.527,5.754,20.45,20.45,0,0,0-6.6-1.1c-.392,0-.768.016-1.16.047A12.542,12.542,0,1,0,105.7,35.5a20.609,20.609,0,0,0,.031,7.839A18.813,18.813,0,1,1,128.788,14.32Z" transform="translate(-77.116 -6.435)" fill="#ff873c"/>
    <path id="Trazado_224104" data-name="Trazado 224104" d="M310.3,70.271l-5.675,4.264a20.357,20.357,0,0,0-8.387-8.215L300.9,64Z" transform="translate(-238.187 -51.459)" fill="#ffbeaa"/>
    <circle id="Elipse_6200" data-name="Elipse 6200" cx="20.5" cy="20.5" r="20.5" transform="translate(28 12.332)" fill="#ffac5a"/>
    <path id="Trazado_224105" data-name="Trazado 224105" d="M465.03,56V81.084h-9.406V56Z" transform="translate(-366.338 -45.027)" fill="#64e1dc"/>
    <path id="Trazado_224106" data-name="Trazado 224106" d="M484.327,56V81.084h-4.7V56Z" transform="translate(-385.635 -45.027)" fill="#00c8c8"/>
    <path id="Trazado_224107" data-name="Trazado 224107" d="M203.556,108.541a12.937,12.937,0,0,1,.094,1.568,14.133,14.133,0,1,1-3.606-9.406h-5.017a3.919,3.919,0,1,0,0,7.839Z" transform="translate(-141.015 -77.187)" fill="#ffdfb0"/>
    <path id="Trazado_224108" data-name="Trazado 224108" d="M212.186,97.566a14.016,14.016,0,0,1,8.831,3.135h4.808a14.094,14.094,0,0,0-18.377-2.3A14.082,14.082,0,0,1,212.186,97.566Z" transform="translate(-166.795 -77.187)" fill="#ffcf94"/>
    <path id="Trazado_224109" data-name="Trazado 224109" d="M255.207,134.271h-8.528A3.907,3.907,0,0,1,243.556,128h-.013a3.919,3.919,0,1,0,0,7.839h8.528a12.934,12.934,0,0,1,.094,1.568,14.1,14.1,0,0,1-6.236,11.709,14.11,14.11,0,0,0,9.372-13.277A12.937,12.937,0,0,0,255.207,134.271Z" transform="translate(-192.666 -102.917)" fill="#ffcf94"/>
    <path id="Trazado_224110" data-name="Trazado 224110" d="M200.237,84.7a14,14,0,0,0-24.507,10.877,14.094,14.094,0,0,1,24.507-7.741h6.741l.6-.439a20.357,20.357,0,0,0-1.812-2.7Z" transform="translate(-141.208 -64.32)" fill="#fc9942"/>
    <path id="Trazado_224111" data-name="Trazado 224111" d="M319.146,163.135h3.228a18.614,18.614,0,0,0,2.888,1.464,20.568,20.568,0,0,0,.248-3.032A18.684,18.684,0,0,1,322.374,160h-3.23a12.94,12.94,0,0,1,.094,1.568,14.026,14.026,0,0,1-.092,1.568Z" transform="translate(-256.603 -128.646)" fill="#fc9942"/>
    <path id="Trazado_224112" data-name="Trazado 224112" d="M223.463,127.839h-3.135a1.568,1.568,0,0,1,0-3.135h3.135a1.568,1.568,0,0,1,1.568,1.568h3.135a4.7,4.7,0,0,0-4.7-4.7V120h-3.135v1.568a4.7,4.7,0,1,0,0,9.406h3.135a1.568,1.568,0,0,1,0,3.135h-3.135a1.568,1.568,0,0,1-1.568-1.568h-3.135a4.7,4.7,0,0,0,4.7,4.7v1.568h3.135v-1.568a4.7,4.7,0,1,0,0-9.406Z" transform="translate(-173.369 -96.485)" fill="#ff873c"/>
    <path id="Trazado_224113" data-name="Trazado 224113" d="M295.193,20.542V39.354a59.328,59.328,0,0,1-12.542,1.568,21.321,21.321,0,0,1-7.839-1.568,18.688,18.688,0,0,1-3.135-1.568H259.919a3.919,3.919,0,1,1,0-7.839h11.758l.6-.439,5.675-4.264-9.406-6.271-4.656,2.32a20.044,20.044,0,0,0-2.853-1.223,18.842,18.842,0,0,0-3.527-5.754l.063-.047L266.974,8Z" transform="translate(-205.833 -6.433)" fill="#ffcdbe"/>
    <path id="Trazado_224114" data-name="Trazado 224114" d="M273.149,8l-9.406,6.271-.063.047a18.485,18.485,0,0,1,1.587,2.073l7.883-5.255,28.219,12.542V20.542Z" transform="translate(-212.008 -6.433)" fill="#ffd8cf"/>
    <path id="Trazado_224115" data-name="Trazado 224115" d="M274.441,135.919a18.686,18.686,0,0,1-3.135-1.568H259.548a3.919,3.919,0,0,1-3.59-2.352,3.919,3.919,0,0,0,3.59,5.487h11.758a18.684,18.684,0,0,0,3.135,1.568,21.321,21.321,0,0,0,7.839,1.568,59.328,59.328,0,0,0,12.542-1.568v-3.135a59.328,59.328,0,0,1-12.542,1.568A21.321,21.321,0,0,1,274.441,135.919Z" transform="translate(-205.535 -106.134)" fill="#ffbeaa"/>
    <path id="Trazado_224116" data-name="Trazado 224116" d="M152.076,50.04a23.516,23.516,0,0,0-18.124,15.825,12.607,12.607,0,0,0,2.33,3.435,20.368,20.368,0,0,1,18.86-16.477,12.349,12.349,0,0,0-3.065-2.783Z" transform="translate(-107.702 -40.235)" fill="#fc9942"/>
    <path id="Trazado_224117" data-name="Trazado 224117" d="M226.44,48.4a12.349,12.349,0,0,1,3.065,2.783c.392-.031.768-.047,1.16-.047a20.45,20.45,0,0,1,6.6,1.1,19.009,19.009,0,0,0-2.005-3.777A22.958,22.958,0,0,0,226.44,48.4Z" transform="translate(-182.066 -38.594)" fill="#fa732d"/>
    <path id="Trazado_224118" data-name="Trazado 224118" d="M131.135,138.083a20.873,20.873,0,0,1,.361-3.857,12.607,12.607,0,0,1-2.33-3.435A23.468,23.468,0,0,0,128,138.083c0,.522.044,1.033.078,1.546a18.747,18.747,0,0,0,3.449,2.436A20.783,20.783,0,0,1,131.135,138.083Z" transform="translate(-102.916 -105.162)" fill="#fa732d"/>
    <path id="Trazado_224119" data-name="Trazado 224119" d="M364.554,200.953l3.595-3.595v18.164h3.135V197.358l3.595,3.595,2.217-2.217-6.271-6.271-.011.011a1.544,1.544,0,0,0-2.184-.033l-.024.024-6.271,6.271Z" transform="translate(-291.331 -154.382)" fill="#19cffc"/>
    <circle id="Elipse_6201" data-name="Elipse 6201" cx="11" cy="11" r="11" transform="translate(56 70.332)" fill="#ffc170"/>
    <ellipse id="Elipse_6202" data-name="Elipse 6202" cx="6.5" cy="6" rx="6.5" ry="6" transform="translate(61 75.332)" fill="#ffcf94"/>
    <path id="Trazado_224120" data-name="Trazado 224120" d="M222.956,279.368,253.464,272l3.135,10.974H208Z" transform="translate(-167.239 -218.698)" fill="#1cadb5"/>
    <path id="Trazado_224121" data-name="Trazado 224121" d="M246.709,328v34.49H184V349.948h6.271v3.135a3.145,3.145,0,0,1,3.135,3.135h43.9a3.145,3.145,0,0,1,3.135-3.135V337.406a3.145,3.145,0,0,1-3.135-3.135h-43.9a3.145,3.145,0,0,1-3.135,3.135v4.7H184V328Z" transform="translate(-147.942 -263.724)" fill="#64e1dc"/>
    <g id="Grupo_158698" data-name="Grupo 158698" transform="translate(1.568 64.276)">
      <path id="Trazado_224122" data-name="Trazado 224122" d="M190.271,443.135V440H184v12.542h3.135v-6.271A3.135,3.135,0,0,1,190.271,443.135Z" transform="translate(-149.51 -418.052)" fill="#00c8c8"/>
      <path id="Trazado_224123" data-name="Trazado 224123" d="M187.135,335.839a4.7,4.7,0,0,1,4.7-4.7h54.87V328H184v14.109h3.135Z" transform="translate(-149.51 -328)" fill="#00c8c8"/>
      <path id="Trazado_224124" data-name="Trazado 224124" d="M17.406,357.948v3.135H8V336h9.406v21.948Z" transform="translate(-8 -334.432)" fill="#00c8c8"/>
    </g>
    <path id="Trazado_224125" data-name="Trazado 224125" d="M36.7,357.948v3.135H32V336h4.7v21.948Z" transform="translate(-25.729 -270.157)" fill="#64e1dc"/>
    <path id="Trazado_224126" data-name="Trazado 224126" d="M81.084,309.948h10.19a3.919,3.919,0,1,1,0,7.839H79.516a21.689,21.689,0,0,1-10.974,3.135A59.327,59.327,0,0,1,56,319.354V300.542L84.219,288l12.542,1.568,3.982,2.665-14.956,3.606h-4.7Z" transform="translate(-45.026 -231.563)" fill="#ffcdbe"/>
    <path id="Trazado_224127" data-name="Trazado 224127" d="M188.7,300.615h-1.568A3.135,3.135,0,0,0,184,303.75h4.7l14.956-3.606-3.449-2.3Z" transform="translate(-147.942 -239.475)" fill="#ffbeaa"/>
    <path id="Trazado_224128" data-name="Trazado 224128" d="M94.049,413.207a3.919,3.919,0,0,1-2.775,1.144H79.516a21.689,21.689,0,0,1-10.974,3.135A59.327,59.327,0,0,1,56,415.919v3.135a59.327,59.327,0,0,0,12.542,1.568,21.689,21.689,0,0,0,10.974-3.135H91.274A3.911,3.911,0,0,0,94.862,412,3.881,3.881,0,0,1,94.049,413.207Z" transform="translate(-45.026 -331.263)" fill="#ffbeaa"/>
    <path id="Trazado_224129" data-name="Trazado 224129" d="M216,375.677h3.919a3.919,3.919,0,0,0,0-7.839H216v-4.7A3.145,3.145,0,0,0,219.135,360h21.948a10.974,10.974,0,0,0,0,21.948H219.135A3.145,3.145,0,0,0,216,378.813Z" transform="translate(-173.672 -289.454)" fill="#f0f0f0"/>
    <path id="Trazado_224130" data-name="Trazado 224130" d="M369.083,363.135v15.677a3.145,3.145,0,0,0-3.135,3.135H344A10.974,10.974,0,1,0,344,360h21.948A3.145,3.145,0,0,0,369.083,363.135Z" transform="translate(-276.588 -289.454)" fill="#f0f0f0"/>
    <path id="Trazado_224131" data-name="Trazado 224131" d="M151.839,328v14.109h-1.568l-6.271-4.7a13.024,13.024,0,0,1,1.834-6c1.144-1.913,2.712-3.4,4.437-3.4Z" transform="translate(-115.781 -263.724)" fill="#faa68e"/>
    <path id="Trazado_224132" data-name="Trazado 224132" d="M30.886,182.569l-3.595,3.595V168H24.156v18.164l-3.595-3.595-2.217,2.217,6.271,6.271.011-.011a1.544,1.544,0,0,0,2.184.033l.024-.024,6.271-6.271Z" transform="translate(-14.749 -135.079)" fill="#19cffc"/>
    <path id="Trazado_224133" data-name="Trazado 224133" d="M48,136h3.135v3.135H48Z" transform="translate(-38.594 -109.35)" fill="#19cffc"/>
    <path id="Trazado_224134" data-name="Trazado 224134" d="M321.723,376.8l4.244-4.244-2.217-2.217-3.595,3.595-3.595-3.595-2.217,2.217,4.244,4.244v.919h-3.135v3.135h3.135v1.568h-3.135v3.135h3.135v1.568h3.135v-1.568h3.135v-3.135h-3.135v-1.568h3.135v-3.135h-3.135Z" transform="translate(-252.744 -297.77)" fill="#ff873c"/>
    <path id="Trazado_224135" data-name="Trazado 224135" d="M169.5,9.405h-9.406a1.568,1.568,0,0,0-1.568,1.568V11.7L132.511.134A1.568,1.568,0,0,0,131,.263l-8.39,5.594A20.366,20.366,0,1,0,97.98,37.918a21.934,21.934,0,0,0,43.191-2.839,22.109,22.109,0,0,0,6.381.978,58.452,58.452,0,0,0,10.974-1.188v1.188a1.568,1.568,0,0,0,1.568,1.568H169.5a1.568,1.568,0,0,0,1.568-1.568V10.973A1.568,1.568,0,0,0,169.5,9.405ZM91.113,20.379A17.245,17.245,0,0,1,123,11.295a21.961,21.961,0,0,0-3.672-.321c-.157,0-.314.02-.47.024a13.918,13.918,0,0,0-10.5-4.727A14.089,14.089,0,0,0,97.67,29.562a21.8,21.8,0,0,0-.285,3.36c0,.256.03.5.038.757A17.222,17.222,0,0,1,91.113,20.379Zm23.629-8.916A22.008,22.008,0,0,0,98.686,25.553a10.963,10.963,0,0,1,16.057-14.089Zm4.59,40.27a18.813,18.813,0,1,1,15.255-29.787h-4.1a15.647,15.647,0,1,0,4.523,10.974h1.122a21.657,21.657,0,0,0,1.961,1.006,18.813,18.813,0,0,1-18.761,17.806Zm.08-23.516A5.464,5.464,0,0,0,121,31.364c-.034,0-.067-.011-.1-.011h-3.135a1.568,1.568,0,0,1,0-3.135Zm1.488-4.612v-.091h-3.135v1.568a4.7,4.7,0,0,0,0,9.406H120.9a1.568,1.568,0,0,1,0,3.135h-3.135a1.568,1.568,0,0,1-1.568-1.568h-3.135a4.7,4.7,0,0,0,4.7,4.7v1.568H120.9V40.76a4.686,4.686,0,0,0,3.44-7.887c.157.014.314.049.48.049h7.055a12.583,12.583,0,1,1-6.5-10.974h-.555a5.463,5.463,0,0,0-3.919,1.659Zm26.651,9.315a20.313,20.313,0,0,1-10.1-2.872,1.578,1.578,0,0,0-.87-.263H124.819a2.352,2.352,0,0,1,0-4.7h11.758a1.567,1.567,0,0,0,.941-.314l6.271-4.7-1.881-2.508-4.3,3.226a21.922,21.922,0,0,0-10.5-8.375,20.158,20.158,0,0,0-2.41-4.175l7.331-4.883,26.494,11.777V31.667A56.669,56.669,0,0,1,147.551,32.921Zm20.38,1.568h-6.271V12.541h6.271Z" transform="translate(-70.733)"/>
    <path id="Trazado_224136" data-name="Trazado 224136" d="M472,152h3.135v3.135H472Z" transform="translate(-379.505 -122.214)"/>
    <path id="Trazado_224137" data-name="Trazado 224137" d="M24,432h3.135v3.135H24Z" transform="translate(-19.297 -347.344)"/>
    <path id="Trazado_224138" data-name="Trazado 224138" d="M98.766,217.058H90.542l-2.811-9.836a1.557,1.557,0,0,0-1.881-1.1l-5.9,1.428V197.327l3.595,3.595,2.217-2.217-6.271-6.271-.011.011a1.527,1.527,0,0,0-2.159-.058l-.049.048-6.271,6.271,2.217,2.217,3.6-3.6V208.31l-20.8,5.017L52.6,211.048a1.566,1.566,0,0,0-.676-.251l-12.542-1.568a1.588,1.588,0,0,0-.831.122L12.542,220.917v-.723a1.568,1.568,0,0,0-1.568-1.568H1.568A1.568,1.568,0,0,0,0,220.194v25.083a1.568,1.568,0,0,0,1.568,1.568h9.406a1.568,1.568,0,0,0,1.568-1.568v-1.188a58.451,58.451,0,0,0,10.974,1.188,23.291,23.291,0,0,0,10.974-2.885v10.723a1.568,1.568,0,0,0,1.568,1.568H98.766a1.568,1.568,0,0,0,1.568-1.568v-34.49a1.568,1.568,0,0,0-1.568-1.568Zm-13.639-7.525,2.154,7.525H53.93l1.488-.359.144.1.105-.157,24.249-5.851h.038v-.009ZM9.406,243.71H3.135V221.762H9.406Zm14.109-1.568a56.778,56.778,0,0,1-10.974-1.254V224.348L39.431,212.4l11.742,1.469.7.47-11.3,2.723H36.058a1.568,1.568,0,0,0-1.568,1.568v12.15l-5.33-4-1.881,2.508,6.271,4.7a1.567,1.567,0,0,0,.941.314H46.248a2.352,2.352,0,1,1,0,4.7H34.49a1.583,1.583,0,0,0-.867.262,20.322,20.322,0,0,1-10.107,2.874Zm34.49-6.271a9.407,9.407,0,0,1,5.33-8.466L61.6,229.138l4.241,4.247v.919H62.709v3.135h3.135v1.568H62.709v3.135h3.135v1.568H68.98v-1.568h3.135v-3.135H68.98v-1.568h3.135V234.3H68.98v-.919l4.244-4.244-1.735-1.735a9.406,9.406,0,1,1-13.482,8.466Zm21.948,0a12.5,12.5,0,0,0-4.274-9.406H88.065a4.728,4.728,0,0,0,2.863,2.867V242.41a4.728,4.728,0,0,0-2.867,2.867H75.675a12.5,12.5,0,0,0,4.278-9.406Zm-9.135-8.759-3.407,3.407-3.407-3.407A9.286,9.286,0,0,1,70.819,227.112ZM54.87,235.871a12.5,12.5,0,0,0,4.274,9.406H46.759A4.728,4.728,0,0,0,43.9,242.41v-.268h2.352a5.487,5.487,0,1,0,0-10.974H43.9v-1.836a4.728,4.728,0,0,0,2.867-2.867H59.148a12.5,12.5,0,0,0-4.278,9.406ZM97.2,251.548H37.625v-9.406h3.135v1.568a1.568,1.568,0,0,0,1.568,1.568,1.568,1.568,0,0,1,1.568,1.568,1.568,1.568,0,0,0,1.568,1.568h43.9a1.568,1.568,0,0,0,1.568-1.568,1.568,1.568,0,0,1,1.568-1.568,1.568,1.568,0,0,0,1.568-1.568V228.032a1.568,1.568,0,0,0-1.568-1.568,1.568,1.568,0,0,1-1.568-1.568,1.568,1.568,0,0,0-1.568-1.568h-43.9A1.568,1.568,0,0,0,43.9,224.9a1.568,1.568,0,0,1-1.568,1.568,1.568,1.568,0,0,0-1.568,1.568v3.135H37.625V220.194H97.2Z" transform="translate(0 -154.35)"/>
    <path id="Trazado_224139" data-name="Trazado 224139" d="M24.626,191.045a1.544,1.544,0,0,0,2.184.033l.024-.024,6.271-6.271-2.217-2.217-3.6,3.6V168H24.156v18.164l-3.595-3.595-2.217,2.217,6.271,6.271Z" transform="translate(-14.749 -135.079)"/>
    <path id="Trazado_224140" data-name="Trazado 224140" d="M48,136h3.135v3.135H48Z" transform="translate(-38.594 -109.35)"/>
  </g>
</svg>
