<svg xmlns="http://www.w3.org/2000/svg" width="110.008" height="110.042" viewBox="0 0 110.008 110.042">
  <g id="Grupo_158699" data-name="Grupo 158699" transform="translate(-0.501)">
    <path id="Trazado_224141" data-name="Trazado 224141" d="M170.3,224.562a6.422,6.422,0,0,0-9.046.761l-14.7,15.105h.015a6.57,6.57,0,0,0-6.306-4.728h-24.34a25.7,25.7,0,0,0-10.32-2.148c-10.168,0-18.961,4.929-23.159,14.269l19.429,19.33.036-.029,3.346-3.227a8.589,8.589,0,0,1,5.967-2.41h28.636a17.117,17.117,0,0,0,11.938-4.85l19.262-23.028A6.419,6.419,0,0,0,170.3,224.562Z" transform="translate(-64.332 -175.109)" fill="#fed2a4"/>
    <path id="Trazado_224142" data-name="Trazado 224142" d="M241.169,31.483A21.487,21.487,0,1,1,219.682,10,21.486,21.486,0,0,1,241.169,31.483Z" transform="translate(-155.205 -7.848)" fill="#ffe781"/>
    <path id="Trazado_224143" data-name="Trazado 224143" d="M44.778,360.909,34.371,371.161l-24.125-24.31L20.468,336.6a4.3,4.3,0,0,1,6.078,0l18.232,18.232A4.3,4.3,0,0,1,44.778,360.909Z" transform="translate(-7.651 -263.267)" fill="#e87288"/>
    <path id="Trazado_224144" data-name="Trazado 224144" d="M222.393,333.863a2.15,2.15,0,1,0-3.04,0A2.152,2.152,0,0,0,222.393,333.863Z" transform="translate(-171.322 -259.226)"/>
    <path id="Trazado_224145" data-name="Trazado 224145" d="M188.449,23.635A23.635,23.635,0,1,0,212.084,0,23.663,23.663,0,0,0,188.449,23.635Zm42.974,0A19.338,19.338,0,1,1,212.084,4.3,19.36,19.36,0,0,1,231.423,23.635Z" transform="translate(-147.553)"/>
    <path id="Trazado_224146" data-name="Trazado 224146" d="M25.25,276.093a2.148,2.148,0,0,0,3.033.018L38.7,265.848a6.493,6.493,0,0,0,1.53-6.668l2.241-2.161a6.408,6.408,0,0,1,4.474-1.808H75.508A19.238,19.238,0,0,0,89,249.732c.149-.145-1.134,1.367,19.487-23.279A8.595,8.595,0,0,0,95.4,215.3L82.726,228.329a8.635,8.635,0,0,0-6.68-3.2H52.086a27.721,27.721,0,0,0-10.76-2.148c-10.347,0-19.381,4.779-24.23,13.739a6.418,6.418,0,0,0-5.747,1.781L1.128,248.753a2.149,2.149,0,0,0,0,3.031Zm16.075-48.814a23.456,23.456,0,0,1,9.459,1.969,2.144,2.144,0,0,0,.861.181h24.4a4.3,4.3,0,1,1,0,8.594H58.515a2.148,2.148,0,0,0,0,4.3H76.046a8.582,8.582,0,0,0,8.519-9.718c12.265-12.608,13.995-14.379,14.068-14.467a4.3,4.3,0,1,1,6.562,5.553L85.923,246.726a14.961,14.961,0,0,1-10.415,4.189H46.944a10.682,10.682,0,0,0-7.459,3.012l-1.826,1.762L20.826,238.857C24.76,231.477,32.143,227.279,41.325,227.279ZM14.39,241.538a2.144,2.144,0,0,1,2.661-.3c.372.227-.7-.745,18.61,18.534a2.153,2.153,0,0,1,.012,3.028l-8.881,8.749L5.68,250.273Z" transform="translate(0 -166.686)"/>
    <path id="Trazado_224147" data-name="Trazado 224147" d="M269.972,42.206v2.451a6.445,6.445,0,0,0,2.11,12.522,2.187,2.187,0,0,1,2.174,1.9,2.151,2.151,0,0,1-2.135,2.4,3.859,3.859,0,0,1-2.758-1.587,2.19,2.19,0,0,0-2.765-.51,2.151,2.151,0,0,0-.557,3.237,8.912,8.912,0,0,0,3.931,2.8v2.441a2.194,2.194,0,0,0,1.829,2.193,2.15,2.15,0,0,0,2.467-2.126V65.4a6.445,6.445,0,0,0-2.11-12.522,2.187,2.187,0,0,1-2.174-1.9,2.151,2.151,0,0,1,2.135-2.4,3.406,3.406,0,0,1,2.273,1.075,2.206,2.206,0,0,0,2.813.241,2.15,2.15,0,0,0,.228-3.281,8.3,8.3,0,0,0-3.164-1.978v-2.5a2.149,2.149,0,0,0-2.467-2.126A2.192,2.192,0,0,0,269.972,42.206Z" transform="translate(-208.073 -31.396)"/>
  </g>
</svg>
