<svg xmlns="http://www.w3.org/2000/svg" width="100.167" height="119.471" viewBox="0 0 100.167 119.471">
  <g id="Grupo_158700" data-name="Grupo 158700" transform="translate(-41.364)">
    <g id="Grupo_158700-2" data-name="Grupo 158700" transform="translate(65.187 88.109)">
      <path id="Trazado_224148" data-name="Trazado 224148" d="M204.929,390.717H185.3a4.415,4.415,0,1,0,0-8.83h-7.265a15.888,15.888,0,0,1-5.73-1.069l-5.557-2.149a15.884,15.884,0,0,0-5.73-1.069H143.458v22.514h61.471a4.7,4.7,0,0,0,0-9.4Z" transform="translate(-143.458 -377.599)" fill="#ffa78f"/>
    </g>
    <g id="Grupo_158701" data-name="Grupo 158701" transform="translate(65.187 103.683)">
      <path id="Trazado_224149" data-name="Trazado 224149" d="M204.929,446.8H143.458v4.484h61.471a4.7,4.7,0,0,0,4.129-6.94,4.7,4.7,0,0,1-4.129,2.456Z" transform="translate(-143.458 -444.342)" fill="#f89580"/>
    </g>
    <g id="Grupo_158702" data-name="Grupo 158702" transform="translate(43.114 83.625)">
      <path id="Trazado_224150" data-name="Trazado 224150" d="M75.606,360.715v29.428a2.333,2.333,0,0,1-2.333,2.333H50.031a1.167,1.167,0,0,1-1.167-1.167V359.549a1.167,1.167,0,0,1,1.167-1.167H73.272a2.333,2.333,0,0,1,2.334,2.333Z" transform="translate(-48.864 -358.382)" fill="#80b4fb"/>
    </g>
    <g id="Grupo_158703" data-name="Grupo 158703" transform="translate(43.114 83.625)">
      <path id="Trazado_224151" data-name="Trazado 224151" d="M54.778,391.311V359.549a1.167,1.167,0,0,1,1.167-1.167H50.032a1.167,1.167,0,0,0-1.167,1.167v31.762a1.167,1.167,0,0,0,1.167,1.167h5.913A1.167,1.167,0,0,1,54.778,391.311Z" transform="translate(-48.865 -358.382)" fill="#61a2f9"/>
    </g>
    <g id="Grupo_158704" data-name="Grupo 158704" transform="translate(62.733 1.75)">
      <path id="Trazado_224152" data-name="Trazado 224152" d="M142.678,68.542a4.631,4.631,0,0,0,3.922-7.088,29.11,29.11,0,0,1-4.388-14.814,29.263,29.263,0,1,1,30.22,28.631.932.932,0,0,1-.963-.931V71.871a.933.933,0,0,0-1.533-.715l-9.384,7.867a1.167,1.167,0,0,0,0,1.788l9.384,7.867a.933.933,0,0,0,1.533-.715v-2.5a.929.929,0,0,1,.9-.93A38.516,38.516,0,1,0,138.75,66.368a4.627,4.627,0,0,0,3.928,2.175Z" transform="translate(-132.944 -7.5)" fill="#ffc269"/>
    </g>
    <g id="Grupo_158705" data-name="Grupo 158705" transform="translate(103.204 11.011)">
      <path id="Trazado_224153" data-name="Trazado 224153" d="M333.7,76.45a29.268,29.268,0,0,1-25.132,28.972.93.93,0,0,0,.691.276,29.263,29.263,0,0,0-1.174-58.51c-.571,0-1.139.027-1.7.064A29.264,29.264,0,0,1,333.7,76.45Z" transform="translate(-306.382 -47.187)" fill="#ffa95f"/>
    </g>
    <g id="Grupo_158706" data-name="Grupo 158706" transform="translate(62.733 1.75)">
      <path id="Trazado_224154" data-name="Trazado 224154" d="M142.61,66.368A38.527,38.527,0,0,1,173.4,7.55c-.552-.027-1.107-.045-1.666-.049a38.528,38.528,0,0,0-32.98,58.867,4.652,4.652,0,0,0,5.866,1.757,4.61,4.61,0,0,1-2.006-1.757Z" transform="translate(-132.944 -7.5)" fill="#ffa95f"/>
    </g>
    <g id="Grupo_158707" data-name="Grupo 158707" transform="translate(89.923 65.186)">
      <path id="Trazado_224155" data-name="Trazado 224155" d="M253.742,289.235a1.166,1.166,0,0,1,0-1.788l7.058-5.917v-1.235a.933.933,0,0,0-1.533-.715l-9.384,7.867a1.166,1.166,0,0,0,0,1.788l9.384,7.867a.933.933,0,0,0,1.533-.715v-1.235Z" transform="translate(-249.466 -279.36)" fill="#ffa95f"/>
    </g>
    <g id="Grupo_158708" data-name="Grupo 158708" transform="translate(83.415 22.35)">
      <circle id="Elipse_6203" data-name="Elipse 6203" cx="17.685" cy="17.685" r="17.685" fill="#ffc269"/>
    </g>
    <g id="Grupo_158709" data-name="Grupo 158709" transform="translate(83.415 22.35)">
      <path id="Trazado_224156" data-name="Trazado 224156" d="M226.279,113.466a17.685,17.685,0,0,1,15.333-17.525,17.685,17.685,0,1,0,0,35.049,17.684,17.684,0,0,1-15.333-17.524Z" transform="translate(-221.575 -95.781)" fill="#ffa95f"/>
    </g>
    <g id="Grupo_158710" data-name="Grupo 158710" transform="translate(41.364)">
      <path id="Trazado_224157" data-name="Trazado 224157" d="M126.658,368.483H112.585a6.164,6.164,0,0,0-5.559-8.83H99.762a14.084,14.084,0,0,1-5.1-.952l-5.557-2.15a17.568,17.568,0,0,0-6.362-1.187H71.606v-.4a4.088,4.088,0,0,0-4.083-4.083H44.281a2.92,2.92,0,0,0-2.917,2.917v6.865a1.75,1.75,0,1,0,3.5,0v-6.281H67.522a.584.584,0,0,1,.583.583v29.429a.584.584,0,0,1-.583.583H44.864v-15.3a1.75,1.75,0,1,0-3.5,0V385.56a2.92,2.92,0,0,0,2.917,2.917H67.522a4.088,4.088,0,0,0,4.083-4.083v-3.014h55.052a6.448,6.448,0,0,0,0-12.9Zm0,9.4H71.606V358.865H82.743a14.085,14.085,0,0,1,5.1.952l5.557,2.15a17.569,17.569,0,0,0,6.362,1.187h7.265a2.665,2.665,0,1,1,0,5.329H96.8a1.75,1.75,0,0,0,0,3.5h29.861a2.948,2.948,0,1,1,0,5.9Z" transform="translate(-41.364 -269.006)"/>
      <path id="Trazado_224158" data-name="Trazado 224158" d="M278.416,121.325a2.27,2.27,0,0,1,2.267,2.267,1.75,1.75,0,1,0,3.5,0,5.777,5.777,0,0,0-4.017-5.495v-2.124a1.75,1.75,0,1,0-3.5,0V118.1a5.767,5.767,0,0,0,1.75,11.262c.043,0,.086,0,.128,0a2.267,2.267,0,1,1-2.395,2.263,1.75,1.75,0,0,0-3.5,0,5.777,5.777,0,0,0,4.017,5.495v2.124a1.75,1.75,0,0,0,3.5,0v-2.124a5.767,5.767,0,0,0-1.75-11.262c-.043,0-.086,0-.128,0a2.267,2.267,0,0,1,.128-4.53Z" transform="translate(-218.681 -87.57)"/>
      <path id="Trazado_224159" data-name="Trazado 224159" d="M243.487,93.009a1.75,1.75,0,0,0-.7-2.374,19.441,19.441,0,1,0,6.583,5.847,1.75,1.75,0,1,0-2.854,2.025,15.914,15.914,0,1,1-5.4-4.8,1.749,1.749,0,0,0,2.373-.7Z" transform="translate(-173.774 -67.682)"/>
      <path id="Trazado_224160" data-name="Trazado 224160" d="M141.012,26.038a1.748,1.748,0,0,0,2.315-.875A36.827,36.827,0,0,1,176.868,3.5h.246a36.458,36.458,0,0,1,22.765,8.031A1.75,1.75,0,0,0,202.066,8.8,39.926,39.926,0,0,0,177.137,0h-.269a40.332,40.332,0,0,0-36.731,23.723,1.75,1.75,0,0,0,.875,2.315Z" transform="translate(-116.97)"/>
      <path id="Trazado_224161" data-name="Trazado 224161" d="M136.928,94.967a6.381,6.381,0,0,0,5.408-9.763,27.515,27.515,0,1,1,25.132,12.953V96.546a2.683,2.683,0,0,0-4.408-2.056l-9.384,7.867a2.917,2.917,0,0,0,0,4.47l9.384,7.867a2.665,2.665,0,0,0,1.717.631,2.692,2.692,0,0,0,1.142-.256,2.658,2.658,0,0,0,1.549-2.431v-1.7a40.33,40.33,0,0,0,29.505-65.709,1.75,1.75,0,1,0-2.714,2.21,36.829,36.829,0,0,1-27.677,60.026,2.694,2.694,0,0,0-2.614,2.68v.745l-7.51-6.3,7.51-6.3v.718a2.682,2.682,0,0,0,2.77,2.68,31.005,31.005,0,1,0-27.374-14.642,2.88,2.88,0,1,1-4.878,3.064A36.884,36.884,0,0,1,129.7,63.255a1.75,1.75,0,1,0-3.428-.7,40.386,40.386,0,0,0,5.246,29.417,6.337,6.337,0,0,0,5.413,3Z" transform="translate(-105.825 -30.425)"/>
    </g>
  </g>
</svg>
