<svg xmlns="http://www.w3.org/2000/svg" width="169" height="106.196" viewBox="0 0 169 106.196">
  <g id="Grupo_158732" data-name="Grupo 158732" transform="translate(-179.667 -1063.803)">
    <path id="Trazado_113613" data-name="Trazado 113613" d="M-22,0H107a40,40,0,0,1,0,80H-22Z" transform="translate(201.667 1081)" fill="rgba(121,210,220,0.2)"/>
    <g id="Grupo_158733" data-name="Grupo 158733" transform="translate(198.334 1055.803)">
      <g id="Grupo_158753" data-name="Grupo 158753" transform="translate(9.713 9.713)">
        <g id="Grupo_158733-2" data-name="Grupo 158733" transform="translate(58.237 82.456)">
          <path id="Trazado_224178" data-name="Trazado 224178" d="M312.22,401.12l7.262,7.262A44.332,44.332,0,0,1,288,421.434V411.157a34.15,34.15,0,0,0,24.22-10.037Z" transform="translate(-288 -401.12)" fill="#e6e9ed"/>
        </g>
        <g id="Grupo_158734" data-name="Grupo 158734" transform="translate(37.683 87.766)">
          <path id="Trazado_224179" data-name="Trazado 224179" d="M212.554,430.647v10.277a44.339,44.339,0,0,1-20.023-4.745L192,434.073a20.183,20.183,0,0,0,3.169-8.153h.017a34.129,34.129,0,0,0,17.368,4.727Z" transform="translate(-192 -425.92)" fill="#ff826e"/>
        </g>
        <g id="Grupo_158735" data-name="Grupo 158735" transform="translate(82.456 58.237)">
          <path id="Trazado_224180" data-name="Trazado 224180" d="M411.157,288h10.277a44.332,44.332,0,0,1-13.052,31.482l-7.262-7.262A34.15,34.15,0,0,0,411.157,288Z" transform="translate(-401.12 -288)" fill="#69d6f4"/>
        </g>
        <g id="Grupo_158736" data-name="Grupo 158736" transform="translate(82.456 26.755)">
          <path id="Trazado_224181" data-name="Trazado 224181" d="M421.434,172.442H411.157a34.15,34.15,0,0,0-10.037-24.22l7.262-7.262a44.331,44.331,0,0,1,13.052,31.482Z" transform="translate(-401.12 -140.96)" fill="#fcd770"/>
        </g>
        <g id="Grupo_158737" data-name="Grupo 158737" transform="translate(43.318 13.703)">
          <path id="Trazado_224182" data-name="Trazado 224182" d="M233.239,90.277a34.267,34.267,0,0,0-14.148,3.049,5.736,5.736,0,0,0-.771-1.233,33.594,33.594,0,0,0,1.216-8.941V82.141a44.611,44.611,0,0,1,45.185,10.911l-7.262,7.262a34.15,34.15,0,0,0-24.22-10.037Z" transform="translate(-218.32 -80)" fill="#b4dd7f"/>
        </g>
        <g id="Grupo_158738" data-name="Grupo 158738" transform="translate(3.426 0)">
          <path id="Trazado_224183" data-name="Trazado 224183" d="M54.267,29.7H45.7a6.849,6.849,0,0,0-6.851,6.851V39.98H37.139A5.116,5.116,0,0,0,33.216,41.8,33.6,33.6,0,0,1,32,32.854,16.842,16.842,0,0,1,48.854,16H69.683a3.436,3.436,0,0,1,3.426,3.426V32.854A33.6,33.6,0,0,1,71.892,41.8,5.116,5.116,0,0,0,67.97,39.98H66.257V36.554a3.436,3.436,0,0,0-3.426-3.426H61.118A8.581,8.581,0,0,1,54.267,29.7Z" transform="translate(-32 -16)" fill="#656d78"/>
        </g>
        <g id="Grupo_158739" data-name="Grupo 158739" transform="translate(20.657 51.385)">
          <path id="Trazado_224184" data-name="Trazado 224184" d="M119.126,258l-1.61,4.847H114.09L112.48,258l3.323-2Z" transform="translate(-112.48 -256)" fill="#ff826e"/>
        </g>
        <g id="Grupo_158740" data-name="Grupo 158740" transform="translate(23.98 49.176)">
          <path id="Trazado_224185" data-name="Trazado 224185" d="M141.7,258.167a3.436,3.436,0,0,0-3.426,3.426v-3.426a3.451,3.451,0,0,0-3.426-3.426,3.436,3.436,0,0,0-3.426,3.426A3.451,3.451,0,0,0,128,254.741h1.713l1.61-4.847,5.241,3.135,1.473-7.348a23.994,23.994,0,0,1,13.943,21.8v.959h-6.851v-6.851a3.451,3.451,0,0,0-3.426-3.426Z" transform="translate(-128 -245.68)" fill="#fcd770"/>
        </g>
        <g id="Grupo_158741" data-name="Grupo 158741" transform="translate(0.445 48.713)">
          <path id="Trazado_224186" data-name="Trazado 224186" d="M31.337,246.192v22.13a1.855,1.855,0,0,1-3.683.308l-.5-3.015a6.827,6.827,0,0,0-2.329-4.094,6.752,6.752,0,0,0-4.419-1.627,2.729,2.729,0,0,0-2.312,1.25H18.08A24.081,24.081,0,0,1,32.622,243.52a3.413,3.413,0,0,0-1.285,2.672Z" transform="translate(-18.08 -243.52)" fill="#fcd770"/>
        </g>
        <g id="Grupo_158742" data-name="Grupo 158742" transform="translate(19.869 49.33)">
          <path id="Trazado_224187" data-name="Trazado 224187" d="M112.911,248.455l-3.323,2-.1.051v-2.055a3.446,3.446,0,0,0-.685-2.055Z" transform="translate(-108.8 -246.4)" fill="#ffc729"/>
        </g>
        <g id="Grupo_158743" data-name="Grupo 158743" transform="translate(23.98 47.96)">
          <path id="Trazado_224188" data-name="Trazado 224188" d="M138.037,241.2v.017l-1.473,7.348-5.241-3.134-3.323-2L134.851,240a25.375,25.375,0,0,1,3.186,1.2Z" transform="translate(-128 -240)" fill="#ffc729"/>
        </g>
        <g id="Grupo_158744" data-name="Grupo 158744" transform="translate(54.811 34.257)">
          <path id="Trazado_224189" data-name="Trazado 224189" d="M272,193.128v-13.7A3.436,3.436,0,0,1,275.426,176h13.7a3.359,3.359,0,0,1,2.552,1.165,3.324,3.324,0,0,1,.874,2.261v13.7a3.436,3.436,0,0,1-3.426,3.426h-13.7A3.436,3.436,0,0,1,272,193.128Z" transform="translate(-272 -176)" fill="#ff826e"/>
        </g>
        <g id="Grupo_158745" data-name="Grupo 158745" transform="translate(54.811 61.662)">
          <path id="Trazado_224190" data-name="Trazado 224190" d="M272,321.128v-13.7A3.436,3.436,0,0,1,275.426,304h13.7a3.36,3.36,0,0,1,2.552,1.165,3.324,3.324,0,0,1,.874,2.261v13.7a3.436,3.436,0,0,1-3.426,3.426h-13.7A3.436,3.436,0,0,1,272,321.128Z" transform="translate(-272 -304)" fill="#ff826e"/>
        </g>
        <g id="Grupo_158746" data-name="Grupo 158746" transform="translate(8.564 95.919)">
          <path id="Trazado_224191" data-name="Trazado 224191" d="M85.649,466.107l1.182,4.745H56L57.713,464H85.118Z" transform="translate(-56 -464)" fill="#b4dd7f"/>
        </g>
        <g id="Grupo_158747" data-name="Grupo 158747" transform="translate(0 47.96)">
          <path id="Trazado_224192" data-name="Trazado 224192" d="M50.257,257.128a3.436,3.436,0,0,1,3.426-3.426,3.451,3.451,0,0,1,3.426,3.426v19.509a19.607,19.607,0,0,1-.257,3.169,20.183,20.183,0,0,1-3.169,8.153H26.277l-3.289-4.4a11.754,11.754,0,0,1-2.278-5.5l-.445-3.066a49.536,49.536,0,0,0-3.049-11.39l-1.011-2.535A2.856,2.856,0,0,1,16,260.006v-.1a2.757,2.757,0,0,1,.462-1.524,2.729,2.729,0,0,1,2.312-1.25,6.752,6.752,0,0,1,4.419,1.627,6.827,6.827,0,0,1,2.329,4.094l.5,3.015a1.855,1.855,0,0,0,3.683-.308v-22.13a3.413,3.413,0,0,1,1.285-2.672A3.461,3.461,0,0,1,33.128,240a3.349,3.349,0,0,1,2.415,1.011c.12.12.223.24.325.36a3.446,3.446,0,0,1,.685,2.055V253.7a3.436,3.436,0,0,1,3.426-3.426,3.451,3.451,0,0,1,3.426,3.426,3.436,3.436,0,0,1,3.426-3.426,3.451,3.451,0,0,1,3.426,3.426Z" transform="translate(-16 -240)" fill="#f0d0b4"/>
        </g>
        <g id="Grupo_158748" data-name="Grupo 158748" transform="translate(37.683 23.98)">
          <path id="Trazado_224193" data-name="Trazado 224193" d="M198.406,131.049a5.026,5.026,0,0,1,.445,2.09,5.146,5.146,0,0,1-5.139,5.139H192V128h1.713a5.116,5.116,0,0,1,3.922,1.816,5.734,5.734,0,0,1,.771,1.233Z" transform="translate(-192 -128)" fill="#f0d0b4"/>
        </g>
        <g id="Grupo_158749" data-name="Grupo 158749" transform="translate(17.128 44.328)">
          <path id="Trazado_224194" data-name="Trazado 224194" d="M106.277,223.246a9.87,9.87,0,0,0,2.021-.206l1.4,3.631-6.851,3.426-4.111-2.055c-.1-.12-.206-.24-.325-.36A3.349,3.349,0,0,0,96,226.671l1.4-3.631a9.87,9.87,0,0,0,2.021.206Z" transform="translate(-96 -223.04)" fill="#f0d0b4"/>
        </g>
        <g id="Grupo_158750" data-name="Grupo 158750" transform="translate(10.277 13.703)">
          <path id="Trazado_224195" data-name="Trazado 224195" d="M91.406,90.277v10.277a10.259,10.259,0,0,1-8.256,10.072,9.867,9.867,0,0,1-2.021.206H74.277a9.867,9.867,0,0,1-2.021-.206A10.259,10.259,0,0,1,64,100.554v-13.7A6.849,6.849,0,0,1,70.851,80h8.564a8.581,8.581,0,0,0,6.851,3.426H87.98a3.436,3.436,0,0,1,3.426,3.426Z" transform="translate(-64 -80)" fill="#f0d0b4"/>
        </g>
        <g id="Grupo_158751" data-name="Grupo 158751" transform="translate(3.426 23.98)">
          <path id="Trazado_224196" data-name="Trazado 224196" d="M38.851,128v10.277H37.139a5.139,5.139,0,1,1,0-10.277Z" transform="translate(-32 -128)" fill="#f0d0b4"/>
        </g>
        <g id="Grupo_158752" data-name="Grupo 158752" transform="translate(17.128 30.831)">
          <path id="Trazado_224197" data-name="Trazado 224197" d="M96,160h13.7A6.851,6.851,0,1,1,96,160Z" transform="translate(-96 -160)" fill="#ff826e"/>
        </g>
      </g>
      <g id="Grupo_158754" data-name="Grupo 158754" transform="translate(8 8)">
        <ellipse id="Elipse_6204" data-name="Elipse 6204" cx="1.809" cy="1.206" rx="1.809" ry="1.206" transform="translate(16.887 24.173)"/>
        <circle id="Elipse_6205" data-name="Elipse 6205" cx="1.206" cy="1.206" r="1.206" transform="translate(31.362 24.173)"/>
        <path id="Trazado_224198" data-name="Trazado 224198" d="M105.128,153.713V152H88v1.713a8.564,8.564,0,1,0,17.128,0Zm-13.41,1.713h9.69a5.139,5.139,0,0,1-9.69,0Z" transform="translate(-70.872 -121.169)"/>
        <path id="Trazado_224199" data-name="Trazado 224199" d="M67.95,21.7a46.311,46.311,0,0,0-11.99,1.6V13.139A5.145,5.145,0,0,0,50.821,8H29.99A18.585,18.585,0,0,0,11.426,26.564a35.034,35.034,0,0,0,1.088,8.593,6.828,6.828,0,0,0,5.764,10.525h.137a12.008,12.008,0,0,0,7.569,9.472l-.379.973a5.1,5.1,0,0,0-1.756.812,25.644,25.644,0,0,0-15.318,18.6A4.645,4.645,0,0,0,8,77.673a4.548,4.548,0,0,0,.327,1.7l1.016,2.538a47.884,47.884,0,0,1,2.939,10.995l.438,3.071a13.729,13.729,0,0,0,2.6,6.284l2.806,3.743L16.083,114.2H51.3l-.862-3.446A45.785,45.785,0,0,0,67.95,114.2a46.247,46.247,0,0,0,0-92.494ZM45.484,70.039a5.133,5.133,0,0,0-1.715-2.633l1.194-5.964a22.149,22.149,0,0,1,10.984,18.5H52.534V74.8a5.118,5.118,0,0,0-7.05-4.76ZM40.669,59.526c.372.123.747.242,1.108.382l-.723,3.609-3.8-2.282Zm-7.454,6.711-.793-2.377,1.271-.764,1.271.762-.793,2.379Zm4.758-.572,1.268.76a5.107,5.107,0,0,0-1.821.9ZM52.534,94.319V83.365h6.851V80.693A25.566,25.566,0,0,0,41.853,56.313l-.45-1.158a12.008,12.008,0,0,0,7.569-9.472h.137a6.858,6.858,0,0,0,6.851-6.851,6.948,6.948,0,0,0-.106-1.057A32.53,32.53,0,1,1,52.411,96.53a22.1,22.1,0,0,0,.123-2.211ZM49.108,35.406a3.426,3.426,0,0,1,0,6.851Zm20.554,68.426A35.767,35.767,0,0,0,92.1,94.524L96.974,99.4a42.651,42.651,0,0,1-27.311,11.33ZM94.524,92.1a35.776,35.776,0,0,0,9.308-22.442h6.894A42.652,42.652,0,0,1,99.4,96.975Zm9.308-25.867A35.776,35.776,0,0,0,94.524,43.8L99.4,38.924a42.652,42.652,0,0,1,11.33,27.313ZM96.975,36.5,92.1,41.373a35.844,35.844,0,0,0-37.04-7.011,35.07,35.07,0,0,0,.886-7.5A42.617,42.617,0,0,1,96.975,36.5ZM14.851,38.831a3.429,3.429,0,0,1,3.426-3.426v6.851A3.429,3.429,0,0,1,14.851,38.831ZM21.7,43.97v-13.7a5.136,5.136,0,0,1,4.962-5.121,13.241,13.241,0,0,0,4.364,4.834l1.9-2.85a9.807,9.807,0,0,1-4.375-8.175v-.677H25.128v.677a13.3,13.3,0,0,0,.334,2.89,8.555,8.555,0,0,0-7.185,8.424V31.98a6.8,6.8,0,0,0-2.833.63,31.679,31.679,0,0,1-.593-6.046A15.156,15.156,0,0,1,29.99,11.426H50.821a1.716,1.716,0,0,1,1.713,1.713V26.564a31.679,31.679,0,0,1-.593,6.046,6.8,6.8,0,0,0-2.833-.63V30.267a5.145,5.145,0,0,0-5.139-5.139H42.257a6.858,6.858,0,0,1-6.851-6.851H31.98A10.287,10.287,0,0,0,42.257,28.554H43.97a1.716,1.716,0,0,1,1.713,1.713v13.7a8.574,8.574,0,0,1-8.564,8.564H30.267A8.574,8.574,0,0,1,21.7,43.97Zm8.564,11.99h6.851c.3,0,.6-.024.9-.046l.36.925-4.688,2.345-3.069-1.535a5.125,5.125,0,0,0-1.5-1.129l.236-.606C29.662,55.936,29.962,55.96,30.267,55.96ZM21.7,61.944V83.223c0,.147-.26.168-.283.026l-.5-3.015a8.509,8.509,0,0,0-8.141-7.12A22.156,22.156,0,0,1,21.7,61.944ZM16.112,95.5l-.438-3.073a51.32,51.32,0,0,0-3.148-11.781L11.51,78.1a1.284,1.284,0,0,1-.084-.529,1.059,1.059,0,0,1,1.059-1.059A5.111,5.111,0,0,1,17.541,80.8l.5,3.015a3.567,3.567,0,0,0,7.086-.588V61.1a1.713,1.713,0,1,1,3.426,0V83.365H31.98V71.375a1.713,1.713,0,1,1,3.426,0v11.99h3.426V71.375a1.713,1.713,0,1,1,3.426,0v11.99h3.426V74.8a1.713,1.713,0,1,1,3.426,0V94.319a18.6,18.6,0,0,1-2.669,9.6H20.846l-2.782-3.708A10.31,10.31,0,0,1,16.112,95.5Zm4.359,15.273.856-3.426h24.73l.856,3.426Zm28.76-4.856a22.082,22.082,0,0,0,2.528-5.839,35.937,35.937,0,0,0,14.477,3.787v6.86a42.256,42.256,0,0,1-16.851-4.19Z" transform="translate(-8 -8)"/>
        <path id="Trazado_224200" data-name="Trazado 224200" d="M292.766,179.581,290.344,182l6.534,6.535,11.462-15.282L305.6,171.2l-9.092,12.124Z" transform="translate(-229.893 -136.258)"/>
        <path id="Trazado_224201" data-name="Trazado 224201" d="M269.139,191.98h13.7a5.145,5.145,0,0,0,5.139-5.139V179.99h-3.426v6.851a1.716,1.716,0,0,1-1.713,1.713h-13.7a1.716,1.716,0,0,1-1.713-1.713v-13.7a1.716,1.716,0,0,1,1.713-1.713H277.7V168h-8.564A5.145,5.145,0,0,0,264,173.139v13.7A5.145,5.145,0,0,0,269.139,191.98Z" transform="translate(-209.189 -133.743)"/>
        <path id="Trazado_224202" data-name="Trazado 224202" d="M296.508,311.324l-3.743-3.743L290.344,310l6.534,6.535,11.462-15.282L305.6,299.2Z" transform="translate(-229.893 -236.852)"/>
        <path id="Trazado_224203" data-name="Trazado 224203" d="M282.841,319.98a5.145,5.145,0,0,0,5.139-5.139V307.99h-3.426v6.851a1.715,1.715,0,0,1-1.713,1.713h-13.7a1.715,1.715,0,0,1-1.713-1.713v-13.7a1.715,1.715,0,0,1,1.713-1.713H277.7V296h-8.564A5.145,5.145,0,0,0,264,301.138v13.7a5.145,5.145,0,0,0,5.139,5.139Z" transform="translate(-209.189 -234.338)"/>
      </g>
    </g>
  </g>
</svg>
