<svg xmlns="http://www.w3.org/2000/svg" xmlns:xlink="http://www.w3.org/1999/xlink" width="399.895" height="565.341" viewBox="0 0 399.895 565.341">
  <defs>
    <filter id="Trazado_217093" x="0" y="1.934" width="399.895" height="562.804" filterUnits="userSpaceOnUse">
      <feOffset dy="3" input="SourceAlpha"/>
      <feGaussianBlur stdDeviation="3" result="blur"/>
      <feFlood flood-opacity="0.161" result="color"/>
      <feComposite operator="out" in="SourceGraphic" in2="blur"/>
      <feComposite operator="in" in="color"/>
      <feComposite operator="in" in2="SourceGraphic"/>
    </filter>
  </defs>
  <g id="Grupo_158761" data-name="Grupo 158761" transform="translate(-600.053 -1325.263)">
    <g data-type="innerShadowGroup">
      <path id="Trazado_217093-2" data-name="Trazado 217093" d="M27.474,0H372.421c15.173,0,27.474,13.58,27.474,30.331V532.473c0,16.751-12.3,30.331-27.474,30.331H27.474C12.3,562.8,0,549.224,0,532.473V30.331C0,13.58,12.3,0,27.474,0Z" transform="translate(600.053 1327.196)" fill="#feebde"/>
      <g transform="matrix(1, 0, 0, 1, 600.05, 1325.26)" filter="url(#Trazado_217093)">
        <path id="Trazado_217093-3" data-name="Trazado 217093" d="M27.474,0H372.421c15.173,0,27.474,13.58,27.474,30.331V532.473c0,16.751-12.3,30.331-27.474,30.331H27.474C12.3,562.8,0,549.224,0,532.473V30.331C0,13.58,12.3,0,27.474,0Z" transform="translate(0 1.93)" fill="#fff"/>
      </g>
    </g>
    <path id="Trazado_217148" data-name="Trazado 217148" d="M-1079.093-7840.218s16.115,300.757-124.65,398.689-222.453,57.483-222.453,57.483v85.283s5.573,19.235,25.435,21.116,353.478,0,353.478,0,16.713-1.73,18.619-21.116,0-513.753,0-513.753,1.531-23.351-18.619-27.7S-1079.093-7840.218-1079.093-7840.218Z" transform="translate(2026.248 9167.416)" fill="#fcd1b1" opacity="0.3"/>
    <g id="Grupo_158757" data-name="Grupo 158757" transform="translate(1104.609 1379.832)">
      <path id="Trazado_224221" data-name="Trazado 224221" d="M-92.42,350.682a119.1,119.1,0,0,1-42.211-62.875,194.031,194.031,0,0,0,9.131-21.63,75.862,75.862,0,0,1,13.918,27c1.588,5.68,10.563,3.3,8.94-2.5-10.984-39.268-45.385-54.983-46.845-55.634a4.642,4.642,0,0,0-6.128,2.352,4.642,4.642,0,0,0,2.352,6.129,81.166,81.166,0,0,1,20.621,14.8,148.417,148.417,0,0,1-33.727,57.41,4.64,4.64,0,0,0,.178,6.562,4.642,4.642,0,0,0,6.563-.178,167.266,167.266,0,0,0,18.609-23.48,129.517,129.517,0,0,0,48.6,63.6Z" transform="translate(-12.241 -7.79)" fill="#f57c22"/>
      <path id="Trazado_224222" data-name="Trazado 224222" d="M-191.927,324.121h0c-26.374,22.494-73.7,49.481-149.4,50.316a32.57,32.57,0,0,0-17.627,5.485c-6.553,4.156-17.517,11.11-26.123,8.612-.875-.255-3.962-2.933-7.68-12.147-10.464-25.932-12.793-66.028-11.608-92.484,1.462-32.662,8.773-81.3,35.3-127.526,2.988-5.207-5.064-9.825-8.052-4.621C-404.568,199.6-412.13,249.8-413.638,283.488c-1.285,28.7,1.265,69.09,12.274,96.374,4.186,10.372,8.667,16.126,13.7,17.588,12,3.487,23.966-3.523,33.685-9.686a23.3,23.3,0,0,1,12.757-4.043c78.475-.866,127.778-29.047,155.32-52.535a4.642,4.642,0,0,0,.519-6.544A4.641,4.641,0,0,0-191.927,324.121Z" transform="translate(0 -3.557)" fill="#f57c22"/>
      <path id="Trazado_224223" data-name="Trazado 224223" d="M-102.285,117.278a119.417,119.417,0,0,0-71.739,26.229,119.73,119.73,0,0,0-40.654,62.862,199.283,199.283,0,0,0-73.53,27.06,208.9,208.9,0,0,0-34.427,26.395c9.809-46.854,7.524-94.429,5.806-115.016,8.016,5.021,20.9,11.131,36.164,11.13a56.271,56.271,0,0,0,12.544-1.411c5.736-1.309,10.46-5.1,12.331-9.89a13.2,13.2,0,0,0,.765-6.779,21.4,21.4,0,0,0,16.917-20.9v-17.7A21.393,21.393,0,0,0-259.477,77.9H-298.53a41.353,41.353,0,0,0-27.383,10.32,235.992,235.992,0,0,0-39.424,44.9,4.644,4.644,0,0,0,1.25,6.445q3.481,2.071,6.445-1.25a226.663,226.663,0,0,1,37.871-43.131,32.072,32.072,0,0,1,21.241-8h39.053a12.1,12.1,0,0,1,12.082,12.082v17.7a12.1,12.1,0,0,1-12.082,12.082h-18.874a5.418,5.418,0,0,1-5.412-5.412v-4.827a5.418,5.418,0,0,1,5.412-5.278,4.641,4.641,0,0,0,4.641-4.641,4.641,4.641,0,0,0-4.641-4.642A14.659,14.659,0,0,0-293,117.693a40.894,40.894,0,0,0-.047,5.94,14.713,14.713,0,0,0,14.7,14.7h13.928a4.245,4.245,0,0,1-.016,2.934c-.756,1.936-3.012,3.59-5.749,4.215-26.575,6.065-48.957-13.789-49.173-13.985a4.676,4.676,0,0,0-7.728,4.019c.093.736,9.086,74.037-8.27,137.532-8.218,10.415-19.8,30.435-20.3,31.3-2.872,4.976,4.85,10.17,8.04,4.639.123-.211,12.232-21.155,20.018-30.787a200.556,200.556,0,0,1,44.24-36.853,190.162,190.162,0,0,1,73.1-26.25,4.643,4.643,0,0,0,3.872-3.553A110.313,110.313,0,0,1-168.2,150.737a110.1,110.1,0,0,1,65.915-24.174Z" transform="translate(-2.376 0)" fill="#f57c22"/>
    </g>
    <path id="Trazado_224227" data-name="Trazado 224227" d="M-523.9,322.107V465.818a11.922,11.922,0,0,1-3.514,8.485,11.921,11.921,0,0,1-8.486,3.515H-868.239a11.921,11.921,0,0,1-8.486-3.515,11.922,11.922,0,0,1-3.514-8.485V-32.593a11.922,11.922,0,0,1,3.514-8.485,11.921,11.921,0,0,1,8.486-3.515H-535.9a11.921,11.921,0,0,1,8.486,3.515,11.922,11.922,0,0,1,3.514,8.485V109.048h3V-32.593a15,15,0,0,0-15-15H-868.239a15,15,0,0,0-15,15V465.818a15,15,0,0,0,15,15H-535.9a15,15,0,0,0,15-15V322.107Z" transform="translate(1502.07 1391.322)" fill="#f57c22" opacity="0.45"/>
  </g>
</svg>
