<svg xmlns="http://www.w3.org/2000/svg" width="1032" height="906.795" viewBox="0 0 1032 906.795">
  <g id="Grupo_159650" data-name="Grupo 159650" transform="translate(-284.667 -1455)">
    <g id="Grupo_156332" data-name="Grupo 156332" transform="translate(-0.333 -245.744)">
      <g id="Grupo_156319" data-name="Grupo 156319" transform="matrix(0.951, -0.309, 0.309, 0.951, -411.702, 837.984)">
        <g id="Grupo_130269" data-name="Grupo 130269" transform="translate(478.776 1730.314) rotate(180)">
          <g id="Grupo_130268" data-name="Grupo 130268" transform="translate(0 0)">
            <circle id="Elipse_5852" data-name="Elipse 5852" cx="10.719" cy="10.719" r="10.719" transform="translate(105.054 192.028)" fill="#26c7db"/>
            <circle id="Elipse_5853" data-name="Elipse 5853" cx="10.719" cy="10.719" r="10.719" transform="translate(115.773 87.884)" fill="#26c7db"/>
            <path id="Trazado_196335" data-name="Trazado 196335" d="M11.553,5.778A5.777,5.777,0,1,1,5.775,0,5.776,5.776,0,0,1,11.553,5.778Z" transform="translate(146.666 115.714)" fill="#26c7db"/>
            <circle id="Elipse_5854" data-name="Elipse 5854" cx="5.719" cy="5.719" r="5.719" transform="translate(42.138 202.03)" fill="#26c7db"/>
            <circle id="Elipse_5855" data-name="Elipse 5855" cx="10.719" cy="10.719" r="10.719" transform="translate(0 199.114)" fill="#26c7db"/>
          </g>
        </g>
      </g>
      <g id="Grupo_156321" data-name="Grupo 156321" transform="translate(1710.359 1445.744)">
        <path id="Trazado_217427" data-name="Trazado 217427" d="M-1318.292,973.769-392.535,1159-483.6,1000.231-1227.248,815Z" transform="translate(-0.824 -4.308)" fill="#08384e"/>
        <path id="Trazado_217428" data-name="Trazado 217428" d="M-1317,973.769-1250.87,987h715.453l-690.534-172Z" transform="translate(-0.834 -4.308)" fill="#0f546e" opacity="0.5" style="mix-blend-mode: multiply;isolation: isolate"/>
        <path id="Trazado_217429" data-name="Trazado 217429" d="M-1118.3,628.333l526.269,185.231,91.044,158.769L-1209.359,787.1Z" transform="translate(-1.661 -2.872)" fill="#08384e"/>
        <path id="Trazado_217430" data-name="Trazado 217430" d="M-1209.359,787.1l50.95,13.231h528.791l-488.679-172Z" transform="translate(-1.661 -2.872)" fill="#0f546e" opacity="0.5" style="mix-blend-mode: multiply;isolation: isolate"/>
        <path id="Trazado_217431" data-name="Trazado 217431" d="M-606.664,785.667l-498.47-185.231,91.044-158.769L-692.557,626.9Z" transform="translate(-2.463 -1.436)" fill="#08384e"/>
        <path id="Trazado_217432" data-name="Trazado 217432" d="M-1103.35,600.436l35.773,13.231,352.179.064-296.908-172.064Z" transform="translate(-2.477 -1.436)" fill="#0f546e" opacity="0.5" style="mix-blend-mode: multiply;isolation: isolate"/>
        <path id="Trazado_217433" data-name="Trazado 217433" d="M-709.72,600.128-995.943,414.9l117.523-13.231,77.657,39.692Z" transform="translate(-3.303 -1.128)" fill="#08384e"/>
        <path id="Trazado_217434" data-name="Trazado 217434" d="M-880.861,401.667-997.393,414.9l20.423,13.231h148.849Z" transform="translate(-1.853 -1.128)" fill="#0f546e" opacity="0.5" style="mix-blend-mode: multiply;isolation: isolate"/>
        <path id="Trazado_217435" data-name="Trazado 217435" d="M-818.771,413.769h-182.122L-909.832,255Z" transform="translate(-3.265 0)" fill="#fed935"/>
        <path id="Trazado_217436" data-name="Trazado 217436" d="M-710.56,600.436h-394.575l91.044-158.769H-801.6Z" transform="translate(-2.463 -1.436)" fill="#fda829"/>
        <path id="Trazado_217437" data-name="Trazado 217437" d="M-602.3,787.1h-607.062l91.062-158.769h424.938Z" transform="translate(-1.661 -2.872)" fill="#f57c22"/>
        <path id="Trazado_217438" data-name="Trazado 217438" d="M-501.846,973.769h-819.513L-1230.315,815H-592.89Z" transform="translate(-0.8 -4.308)" fill="#de3f18"/>
        <path id="Trazado_217439" data-name="Trazado 217439" d="M-393.359,1160.436h-1032l91.061-158.769H-484.42Z" transform="translate(0 -5.743)" fill="#0f546e"/>
        <g id="Grupo_156305" data-name="Grupo 156305" transform="translate(-1418.72 1007.5)" style="mix-blend-mode: screen;isolation: isolate">
          <path id="Trazado_217440" data-name="Trazado 217440" d="M-1418.668,1149.974H-399.947l-1.9-3.308H-1416.77Z" transform="translate(1418.668 -1014.359)" fill="#0f546e"/>
          <path id="Trazado_217441" data-name="Trazado 217441" d="M-1342.2,1016.641h866.952l-1.9-3.308H-1340.3Z" transform="translate(1418.08 -1013.333)" fill="#0f546e"/>
        </g>
        <g id="Grupo_156306" data-name="Grupo 156306" transform="translate(-1315.615 822.269)" style="mix-blend-mode: screen;isolation: isolate">
          <path id="Trazado_217442" data-name="Trazado 217442" d="M-1314.765,963.308h806.2l-1.9-3.308h-802.408Z" transform="translate(1314.765 -827.692)" fill="#0f546e"/>
          <path id="Trazado_217443" data-name="Trazado 217443" d="M-1238.413,829.974h654.675l-1.9-3.308h-650.881Z" transform="translate(1314.177 -826.667)" fill="#0f546e"/>
        </g>
        <g id="Grupo_156307" data-name="Grupo 156307" transform="translate(-1204.381 637.039)" style="mix-blend-mode: screen;isolation: isolate">
          <path id="Trazado_217444" data-name="Trazado 217444" d="M-1202.668,776.641h593.782l-1.9-3.308H-1200.77Z" transform="translate(1202.668 -641.026)" fill="#0f546e"/>
          <path id="Trazado_217445" data-name="Trazado 217445" d="M-1126.195,643.308h442.013l-1.9-3.308H-1124.3Z" transform="translate(1202.08 -640)" fill="#0f546e"/>
        </g>
        <g id="Grupo_156308" data-name="Grupo 156308" transform="translate(-1100.968 451.808)" style="mix-blend-mode: screen;isolation: isolate">
          <path id="Trazado_217446" data-name="Trazado 217446" d="M-1098.454,589.974h383.432l-1.9-3.308h-379.638Z" transform="translate(1098.454 -454.359)" fill="#0f546e"/>
          <path id="Trazado_217447" data-name="Trazado 217447" d="M-1022.007,456.641h231.7l-1.9-3.308h-227.91Z" transform="translate(1097.866 -453.333)" fill="#0f546e"/>
        </g>
        <g id="Grupo_156310" data-name="Grupo 156310" transform="translate(-997.518 266.577)" style="mix-blend-mode: screen;isolation: isolate">
          <g id="Grupo_156309" data-name="Grupo 156309" transform="translate(0 0)">
            <path id="Trazado_217448" data-name="Trazado 217448" d="M-994.2,403.308h168.843l-1.9-3.308H-992.3Z" transform="translate(994.202 -267.692)" fill="#de3f18"/>
            <path id="Trazado_217449" data-name="Trazado 217449" d="M-917.729,269.974h17.075l-1.9-3.308h-13.279Z" transform="translate(993.613 -266.667)" fill="#de3f18"/>
          </g>
        </g>
        <path id="Trazado_217450" data-name="Trazado 217450" d="M-1000.893,413.769h91.061V255Z" transform="translate(-3.265 0)" fill="#de3f18" opacity="0.5" style="mix-blend-mode: screen;isolation: isolate"/>
        <path id="Trazado_217451" data-name="Trazado 217451" d="M-1105.134,600.436l91.044-158.769h105.069V600.436Z" transform="translate(-2.463 -1.436)" fill="#0f546e" opacity="0.5" style="mix-blend-mode: screen;isolation: isolate"/>
        <path id="Trazado_217452" data-name="Trazado 217452" d="M-1118.3,628.333h212.469V787.1h-303.531Z" transform="translate(-1.661 -2.872)" fill="#0f546e" opacity="0.5" style="mix-blend-mode: screen;isolation: isolate"/>
        <path id="Trazado_217453" data-name="Trazado 217453" d="M-1230.315,815h321.756V973.769h-412.8Z" transform="translate(-0.8 -4.308)" fill="#0f546e" opacity="0.5" style="mix-blend-mode: screen;isolation: isolate"/>
        <path id="Trazado_217454" data-name="Trazado 217454" d="M-1334.3,1001.667h424.939v158.769h-516Z" transform="translate(0 -5.743)" fill="#0f546e" opacity="0.5" style="mix-blend-mode: screen;isolation: isolate"/>
      </g>
      <g id="Grupo_156320" data-name="Grupo 156320" transform="matrix(-0.259, 0.966, -0.966, -0.259, 3108.014, 1287.743)">
        <g id="Grupo_130269-2" data-name="Grupo 130269" transform="translate(1327.752 2006.163) rotate(180)">
          <g id="Grupo_130268-2" data-name="Grupo 130268" transform="translate(0 0)">
            <circle id="Elipse_5852-2" data-name="Elipse 5852" cx="10.719" cy="10.719" r="10.719" transform="translate(105.054 192.028)" fill="#f57c22"/>
            <circle id="Elipse_5853-2" data-name="Elipse 5853" cx="10.719" cy="10.719" r="10.719" transform="translate(115.773 87.884)" fill="#f57c22"/>
            <path id="Trazado_196335-2" data-name="Trazado 196335" d="M11.553,5.778A5.777,5.777,0,1,1,5.775,0,5.776,5.776,0,0,1,11.553,5.778Z" transform="translate(146.666 115.714)" fill="#f57c22"/>
            <circle id="Elipse_5854-2" data-name="Elipse 5854" cx="5.719" cy="5.719" r="5.719" transform="translate(42.138 202.03)" fill="#f57c22"/>
            <circle id="Elipse_5855-2" data-name="Elipse 5855" cx="10.719" cy="10.719" r="10.719" transform="translate(0 199.114)" fill="#f57c22"/>
          </g>
        </g>
      </g>
      <g id="Grupo_80119" data-name="Grupo 80119" transform="translate(-2192.318 3875.571)">
        <circle id="Elipse_4711" data-name="Elipse 4711" cx="1.386" cy="1.386" r="1.386" transform="translate(3365.884 -1363.873)" fill="#fefefe"/>
        <circle id="Elipse_4712" data-name="Elipse 4712" cx="1.386" cy="1.386" r="1.386" transform="translate(3365.884 -1345.268)" fill="#fefefe"/>
        <circle id="Elipse_4713" data-name="Elipse 4713" cx="1.386" cy="1.386" r="1.386" transform="translate(3365.884 -1326.663)" fill="#fefefe"/>
        <circle id="Elipse_4714" data-name="Elipse 4714" cx="1.386" cy="1.386" r="1.386" transform="translate(3365.884 -1308.058)" fill="#fefefe"/>
        <circle id="Elipse_4715" data-name="Elipse 4715" cx="1.386" cy="1.386" r="1.386" transform="translate(3389.781 -1401.039)" fill="#fefefe"/>
        <circle id="Elipse_4716" data-name="Elipse 4716" cx="1.386" cy="1.386" r="1.386" transform="translate(3389.781 -1382.434)" fill="#fefefe"/>
        <circle id="Elipse_4717" data-name="Elipse 4717" cx="1.386" cy="1.386" r="1.386" transform="translate(3389.781 -1363.829)" fill="#fefefe"/>
        <circle id="Elipse_4718" data-name="Elipse 4718" cx="1.386" cy="1.386" r="1.386" transform="translate(3389.781 -1345.224)" fill="#fefefe"/>
        <circle id="Elipse_4719" data-name="Elipse 4719" cx="1.386" cy="1.386" r="1.386" transform="translate(3389.781 -1326.619)" fill="#fefefe"/>
        <circle id="Elipse_4720" data-name="Elipse 4720" cx="1.386" cy="1.386" r="1.386" transform="translate(3389.781 -1308.014)" fill="#fefefe"/>
        <circle id="Elipse_4721" data-name="Elipse 4721" cx="1.386" cy="1.386" r="1.386" transform="translate(3389.781 -1289.41)" fill="#fefefe"/>
        <circle id="Elipse_4722" data-name="Elipse 4722" cx="1.386" cy="1.386" r="1.386" transform="translate(3413.678 -1401.039)" fill="#fefefe"/>
        <circle id="Elipse_4723" data-name="Elipse 4723" cx="1.386" cy="1.386" r="1.386" transform="translate(3413.678 -1382.434)" fill="#fefefe"/>
        <circle id="Elipse_4724" data-name="Elipse 4724" cx="1.386" cy="1.386" r="1.386" transform="translate(3413.678 -1363.829)" fill="#fefefe"/>
        <circle id="Elipse_4725" data-name="Elipse 4725" cx="1.386" cy="1.386" r="1.386" transform="translate(3413.678 -1345.224)" fill="#fefefe"/>
        <circle id="Elipse_4726" data-name="Elipse 4726" cx="1.386" cy="1.386" r="1.386" transform="translate(3413.678 -1326.619)" fill="#fefefe"/>
        <circle id="Elipse_4727" data-name="Elipse 4727" cx="1.386" cy="1.386" r="1.386" transform="translate(3413.678 -1308.014)" fill="#fefefe"/>
        <circle id="Elipse_4728" data-name="Elipse 4728" cx="1.386" cy="1.386" r="1.386" transform="translate(3413.678 -1289.41)" fill="#fefefe"/>
        <circle id="Elipse_4729" data-name="Elipse 4729" cx="1.386" cy="1.386" r="1.386" transform="translate(3413.678 -1270.805)" fill="#fefefe"/>
        <circle id="Elipse_4731" data-name="Elipse 4731" cx="1.386" cy="1.386" r="1.386" transform="translate(3437.576 -1382.434)" fill="#fefefe"/>
        <circle id="Elipse_4732" data-name="Elipse 4732" cx="1.386" cy="1.386" r="1.386" transform="translate(3413.678 -1419.644)" fill="#fefefe"/>
        <circle id="Elipse_4734" data-name="Elipse 4734" cx="1.386" cy="1.386" r="1.386" transform="translate(3437.576 -1363.829)" fill="#fefefe"/>
        <circle id="Elipse_4735" data-name="Elipse 4735" cx="1.386" cy="1.386" r="1.386" transform="translate(3437.576 -1345.224)" fill="#fefefe"/>
        <circle id="Elipse_4736" data-name="Elipse 4736" cx="1.386" cy="1.386" r="1.386" transform="translate(3437.576 -1326.619)" fill="#fefefe"/>
        <circle id="Elipse_4737" data-name="Elipse 4737" cx="1.386" cy="1.386" r="1.386" transform="translate(3437.576 -1308.014)" fill="#fefefe"/>
        <circle id="Elipse_4738" data-name="Elipse 4738" cx="1.386" cy="1.386" r="1.386" transform="translate(3437.576 -1289.41)" fill="#fefefe"/>
        <circle id="Elipse_4739" data-name="Elipse 4739" cx="1.386" cy="1.386" r="1.386" transform="translate(3437.576 -1270.805)" fill="#fefefe"/>
        <circle id="Elipse_4743" data-name="Elipse 4743" cx="1.386" cy="1.386" r="1.386" transform="translate(3461.473 -1345.224)" fill="#fefefe"/>
        <circle id="Elipse_4744" data-name="Elipse 4744" cx="1.386" cy="1.386" r="1.386" transform="translate(3461.473 -1326.619)" fill="#fefefe"/>
        <circle id="Elipse_4745" data-name="Elipse 4745" cx="1.386" cy="1.386" r="1.386" transform="translate(3461.473 -1308.014)" fill="#fefefe"/>
        <circle id="Elipse_4746" data-name="Elipse 4746" cx="1.386" cy="1.386" r="1.386" transform="translate(3461.473 -1289.41)" fill="#fefefe"/>
        <circle id="Elipse_4748" data-name="Elipse 4748" cx="1.386" cy="1.386" r="1.386" transform="translate(3365.884 -1382.434)" fill="#fefefe"/>
        <circle id="Elipse_4752" data-name="Elipse 4752" cx="1.386" cy="1.386" r="1.386" transform="translate(3485.371 -1308.058)" fill="#fefefe"/>
      </g>
      <g id="Grupo_80120" data-name="Grupo 80120" transform="translate(-2608.318 3638.92)">
        <circle id="Elipse_4756" data-name="Elipse 4756" cx="1.196" cy="1.196" r="1.196" transform="translate(2938.143 -1126.202)" fill="#fefefe"/>
        <circle id="Elipse_4760" data-name="Elipse 4760" cx="1.196" cy="1.196" r="1.196" transform="translate(2958.771 -1158.284)" fill="#fefefe"/>
        <circle id="Elipse_4761" data-name="Elipse 4761" cx="1.196" cy="1.196" r="1.196" transform="translate(2958.771 -1142.224)" fill="#fefefe"/>
        <circle id="Elipse_4762" data-name="Elipse 4762" cx="1.196" cy="1.196" r="1.196" transform="translate(2958.771 -1126.164)" fill="#fefefe"/>
        <circle id="Elipse_4763" data-name="Elipse 4763" cx="1.196" cy="1.196" r="1.196" transform="translate(2958.771 -1110.104)" fill="#fefefe"/>
        <circle id="Elipse_4765" data-name="Elipse 4765" cx="1.196" cy="1.196" r="1.196" transform="translate(2979.4 -1190.404)" fill="#fefefe"/>
        <circle id="Elipse_4766" data-name="Elipse 4766" cx="1.196" cy="1.196" r="1.196" transform="translate(2979.4 -1174.344)" fill="#fefefe"/>
        <circle id="Elipse_4767" data-name="Elipse 4767" cx="1.196" cy="1.196" r="1.196" transform="translate(2979.4 -1158.284)" fill="#fefefe"/>
        <circle id="Elipse_4768" data-name="Elipse 4768" cx="1.196" cy="1.196" r="1.196" transform="translate(2979.4 -1142.224)" fill="#fefefe"/>
        <circle id="Elipse_4769" data-name="Elipse 4769" cx="1.196" cy="1.196" r="1.196" transform="translate(2979.4 -1126.164)" fill="#fefefe"/>
        <circle id="Elipse_4770" data-name="Elipse 4770" cx="1.196" cy="1.196" r="1.196" transform="translate(2979.4 -1110.104)" fill="#fefefe"/>
        <circle id="Elipse_4771" data-name="Elipse 4771" cx="1.196" cy="1.196" r="1.196" transform="translate(2979.4 -1094.044)" fill="#fefefe"/>
        <circle id="Elipse_4773" data-name="Elipse 4773" cx="1.196" cy="1.196" r="1.196" transform="translate(3000.029 -1190.404)" fill="#fefefe"/>
        <circle id="Elipse_4776" data-name="Elipse 4776" cx="1.196" cy="1.196" r="1.196" transform="translate(3000.029 -1174.344)" fill="#fefefe"/>
        <circle id="Elipse_4777" data-name="Elipse 4777" cx="1.196" cy="1.196" r="1.196" transform="translate(3000.029 -1158.284)" fill="#fefefe"/>
        <circle id="Elipse_4778" data-name="Elipse 4778" cx="1.196" cy="1.196" r="1.196" transform="translate(3000.029 -1142.224)" fill="#fefefe"/>
        <circle id="Elipse_4779" data-name="Elipse 4779" cx="1.196" cy="1.196" r="1.196" transform="translate(3000.029 -1126.164)" fill="#fefefe"/>
        <circle id="Elipse_4780" data-name="Elipse 4780" cx="1.196" cy="1.196" r="1.196" transform="translate(3000.029 -1110.104)" fill="#fefefe"/>
        <circle id="Elipse_4781" data-name="Elipse 4781" cx="1.196" cy="1.196" r="1.196" transform="translate(3000.029 -1094.044)" fill="#fefefe"/>
        <circle id="Elipse_4783" data-name="Elipse 4783" cx="1.196" cy="1.196" r="1.196" transform="translate(3020.657 -1190.404)" fill="#fefefe"/>
        <circle id="Elipse_4784" data-name="Elipse 4784" cx="1.196" cy="1.196" r="1.196" transform="translate(3020.657 -1174.344)" fill="#fefefe"/>
        <circle id="Elipse_4785" data-name="Elipse 4785" cx="1.196" cy="1.196" r="1.196" transform="translate(3020.657 -1158.284)" fill="#fefefe"/>
        <circle id="Elipse_4786" data-name="Elipse 4786" cx="1.196" cy="1.196" r="1.196" transform="translate(3020.657 -1142.224)" fill="#fefefe"/>
        <circle id="Elipse_4787" data-name="Elipse 4787" cx="1.196" cy="1.196" r="1.196" transform="translate(3020.657 -1126.164)" fill="#fefefe"/>
        <circle id="Elipse_4788" data-name="Elipse 4788" cx="1.196" cy="1.196" r="1.196" transform="translate(3020.657 -1110.104)" fill="#fefefe"/>
        <circle id="Elipse_4789" data-name="Elipse 4789" cx="1.196" cy="1.196" r="1.196" transform="translate(3041.286 -1174.382)" fill="#fefefe"/>
        <circle id="Elipse_4791" data-name="Elipse 4791" cx="1.196" cy="1.196" r="1.196" transform="translate(3041.286 -1190.404)" fill="#fefefe"/>
        <circle id="Elipse_4792" data-name="Elipse 4792" cx="1.196" cy="1.196" r="1.196" transform="translate(3041.286 -1158.322)" fill="#fefefe"/>
        <circle id="Elipse_4793" data-name="Elipse 4793" cx="1.196" cy="1.196" r="1.196" transform="translate(3041.286 -1142.262)" fill="#fefefe"/>
        <circle id="Elipse_4794" data-name="Elipse 4794" cx="1.196" cy="1.196" r="1.196" transform="translate(3041.286 -1126.202)" fill="#fefefe"/>
      </g>
    </g>
    <g id="Grupo_158856" data-name="Grupo 158856" transform="translate(761.667 1524.476)">
      <g id="Grupo_158854" data-name="Grupo 158854" transform="translate(1.116 1.29)">
        <path id="Trazado_224293" data-name="Trazado 224293" d="M45.96,342.7h62.49v6.34H45.96Z" transform="translate(-40.239 -292.861)" fill="#f9f6f9"/>
        <path id="Trazado_224294" data-name="Trazado 224294" d="M33.5,363.647H99.7v14.3H33.5Z" transform="translate(-29.634 -310.693)" fill="#9d6b6b"/>
        <circle id="Elipse_6297" data-name="Elipse 6297" cx="7.363" cy="7.363" r="7.363" transform="translate(16.912 31.559)" fill="#365e7d"/>
        <path id="Trazado_224295" data-name="Trazado 224295" d="M12.849,229.158H10.185A2.685,2.685,0,0,1,7.5,226.473V183.757a2.685,2.685,0,0,1,2.685-2.685h2.664a2.685,2.685,0,0,1,2.685,2.685v42.716A2.685,2.685,0,0,1,12.849,229.158Z" transform="translate(-7.5 -155.277)" fill="#9d6b6b"/>
        <path id="Trazado_224296" data-name="Trazado 224296" d="M13.221,229.136a2.56,2.56,0,0,1-.372.027H10.185A2.685,2.685,0,0,1,7.5,226.478V183.761a2.685,2.685,0,0,1,2.685-2.684h2.664a2.555,2.555,0,0,1,.372.027,2.683,2.683,0,0,0-2.315,2.657v42.717a2.685,2.685,0,0,0,2.315,2.658Z" transform="translate(-7.5 -155.282)" fill="#8b5e5e"/>
        <path id="Trazado_224297" data-name="Trazado 224297" d="M455.842,321.494h-2.664a2.685,2.685,0,0,1-2.685-2.685v-26.58a2.685,2.685,0,0,1,2.685-2.685h2.664a2.685,2.685,0,0,1,2.685,2.685v26.58A2.685,2.685,0,0,1,455.842,321.494Z" transform="translate(-384.594 -247.613)" fill="#9d6b6b"/>
        <path id="Trazado_224298" data-name="Trazado 224298" d="M456.107,321.484a2.591,2.591,0,0,1-.265.013h-2.663a2.685,2.685,0,0,1-2.685-2.685v-26.58a2.685,2.685,0,0,1,2.685-2.685h2.663a2.583,2.583,0,0,1,.265.013,2.683,2.683,0,0,0-2.419,2.672v26.58A2.683,2.683,0,0,0,456.107,321.484Z" transform="translate(-384.595 -247.616)" fill="#8b5e5e"/>
        <ellipse id="Elipse_6298" data-name="Elipse 6298" cx="14.893" cy="5.762" rx="14.893" ry="5.762" transform="translate(8.034 38.314)" fill="#f9f6f9"/>
        <path id="Trazado_224299" data-name="Trazado 224299" d="M91.294,303.969c-1.83,3.325-7.8,5.761-14.892,5.761s-13.062-2.437-14.892-5.761c1.83.9,7.8,1.563,14.892,1.563S89.465,304.87,91.294,303.969Z" transform="translate(-53.476 -259.893)" fill="#dddaec"/>
        <g id="Grupo_158853" data-name="Grupo 158853" transform="translate(39.942)">
          <circle id="Elipse_6299" data-name="Elipse 6299" cx="16.995" cy="16.995" r="16.995" transform="translate(0 0)" fill="#d3effb"/>
          <path id="Trazado_224300" data-name="Trazado 224300" d="M296.383,41.417a17,17,0,1,1,0-33.5,17,17,0,0,0,0,33.5Z" transform="translate(-276.418 -7.672)" fill="#9dc6fb"/>
          <path id="Trazado_224301" data-name="Trazado 224301" d="M332.68,111.7h-7.9a2.165,2.165,0,0,1,0-4.33h7.9a2.165,2.165,0,0,1,0,4.33Z" transform="translate(-315.685 -92.538)" fill="#365e7d"/>
          <path id="Trazado_224302" data-name="Trazado 224302" d="M377.863,80.064A2.165,2.165,0,0,1,375.7,77.9V72.371a2.165,2.165,0,1,1,4.33,0V77.9A2.165,2.165,0,0,1,377.863,80.064Z" transform="translate(-360.868 -60.904)" fill="#2b4d66"/>
        </g>
        <path id="Trazado_224303" data-name="Trazado 224303" d="M204.592,244.5v9.291l-13.715,9.141L161.62,249.723a43.092,43.092,0,0,1,1.129-10.181,7.734,7.734,0,0,1,6.829-5.886c.5-.043,1.025-.082,1.583-.112.845-.045,1.758-.071,2.73-.068a48.605,48.605,0,0,1,20.113,4.4A49.124,49.124,0,0,1,204.592,244.5Z" transform="translate(-138.693 -199.885)" fill="#9dc6fb"/>
        <path id="Trazado_224304" data-name="Trazado 224304" d="M190.876,263.327,161.62,250.116a43.092,43.092,0,0,1,1.129-10.181,7.734,7.734,0,0,1,6.829-5.886c.5-.043,1.025-.082,1.583-.112C169.674,239.783,169.558,252.481,190.876,263.327Z" transform="translate(-138.693 -200.278)" fill="#698ed5"/>
        <path id="Trazado_224305" data-name="Trazado 224305" d="M264.223,237.873,252.946,245.9l-8.836-12.42A48.605,48.605,0,0,1,264.223,237.873Z" transform="translate(-208.912 -199.887)" fill="#f9f6f9"/>
      </g>
      <g id="Grupo_158855" data-name="Grupo 158855" transform="translate(0 0.175)">
        <path id="Trazado_224306" data-name="Trazado 224306" d="M72.363,189.709H69.7a3.8,3.8,0,0,0-3.29,1.9c-.979-.748-1.982-1.462-3-2.131a1.116,1.116,0,1,0-1.226,1.864c1.268.834,2.515,1.74,3.715,2.7V202.2l-12.7,8.466L25.163,198.014a41.491,41.491,0,0,1,1.092-9.2,6.614,6.614,0,0,1,5.843-5.039c1.028-.09,2.257-.158,3.645-.168l8.5,11.943a1.116,1.116,0,0,0,1.556.262l10.746-7.646q.953.453,1.911.962a1.116,1.116,0,1,0,1.05-1.969,50.128,50.128,0,0,0-27.6-5.607q-.357.031-.7.091a8.474,8.474,0,0,0-14.24,5.288,17.446,17.446,0,0,0-6.693,3.089V177.374a3.8,3.8,0,0,0-3.8-3.8H3.8a3.8,3.8,0,0,0-3.8,3.8V220.09a3.8,3.8,0,0,0,3.8,3.8H6.465a3.8,3.8,0,0,0,3.8-3.8v-2.824h2.816a1.116,1.116,0,0,0,0-2.231H10.266V203.917h22.55l20.023,9.041a1.115,1.115,0,0,0,1.078-.088L65.9,204.886v10.148H17.916a1.116,1.116,0,0,0,0,2.231H65.9v2.824a3.8,3.8,0,0,0,3.8,3.8h2.664a3.8,3.8,0,0,0,3.8-3.8v-26.58A3.8,3.8,0,0,0,72.363,189.709Zm-26.952,3.639-6.886-9.679a47.894,47.894,0,0,1,15.639,3.451ZM25.39,181.568a6.254,6.254,0,0,1,3.262.923,8.855,8.855,0,0,0-3.716,3.614q-.445-.012-.893-.013a30.38,30.38,0,0,0-4.748.365A6.256,6.256,0,0,1,25.39,181.568Zm-7.126,7.35a27.39,27.39,0,0,1,5.778-.6h.036a43.424,43.424,0,0,0-1.139,9.271c-5.584-.218-10.57-2.069-12.465-4.625C11.793,191.191,14.637,189.7,18.264,188.918Zm-5.253,8.7H10.265v-1.7A13.862,13.862,0,0,0,13.01,197.616ZM8.034,220.09a1.571,1.571,0,0,1-1.569,1.569H3.8a1.571,1.571,0,0,1-1.569-1.569V177.373A1.571,1.571,0,0,1,3.8,175.8H6.465a1.571,1.571,0,0,1,1.569,1.569Zm2.232-18.4v-1.839H23.8l4.072,1.839Zm63.667,18.4a1.571,1.571,0,0,1-1.569,1.569H69.7a1.571,1.571,0,0,1-1.569-1.569v-26.58A1.571,1.571,0,0,1,69.7,191.94h2.664a1.571,1.571,0,0,1,1.569,1.569Z" transform="translate(0 -147.779)"/>
        <path id="Trazado_224307" data-name="Trazado 224307" d="M286.616,36.4a18.111,18.111,0,1,0-18.111-18.111A18.131,18.131,0,0,0,286.616,36.4ZM277.732,5.13l.5.859a1.116,1.116,0,1,0,1.932-1.116l-.5-.861A15.762,15.762,0,0,1,285.5,2.446V4.886a1.116,1.116,0,1,0,2.231,0V2.446a15.762,15.762,0,0,1,5.837,1.566l-.5.861A1.116,1.116,0,1,0,295,5.989l.5-.859A16.01,16.01,0,0,1,299.772,9.4l-.859.5a1.116,1.116,0,1,0,1.116,1.932l.861-.5a15.76,15.76,0,0,1,1.566,5.837h-2.439a1.116,1.116,0,0,0,0,2.231h2.439a15.759,15.759,0,0,1-1.566,5.837l-.861-.5a1.116,1.116,0,1,0-1.116,1.932l.858.5a16.009,16.009,0,0,1-4.272,4.272l-.5-.859a1.116,1.116,0,1,0-1.932,1.116l.5.861a15.762,15.762,0,0,1-5.837,1.566V31.686a1.116,1.116,0,0,0-2.231,0v2.439a15.762,15.762,0,0,1-5.837-1.566l.5-.861a1.116,1.116,0,1,0-1.932-1.116l-.5.859a16.015,16.015,0,0,1-4.272-4.272l.859-.5a1.116,1.116,0,0,0-1.116-1.932l-.861.5a15.762,15.762,0,0,1-1.566-5.837h2.439a1.116,1.116,0,1,0,0-2.231h-2.439a15.759,15.759,0,0,1,1.566-5.837l.861.5A1.116,1.116,0,0,0,274.318,9.9l-.859-.5a16.013,16.013,0,0,1,4.272-4.272Z" transform="translate(-228.563 -0.175)"/>
        <path id="Trazado_224308" data-name="Trazado 224308" d="M318.395,74.8h7.9a3.285,3.285,0,0,0,3.281-3.281V65.987a3.281,3.281,0,0,0-6.562,0v2.248h-4.616a3.281,3.281,0,1,0,0,6.561Zm6.847-8.809a1.049,1.049,0,0,1,2.1,0v5.528a1.049,1.049,0,1,1-2.1,0Zm-6.847,4.479h4.616v1.049a3.264,3.264,0,0,0,.173,1.049h-4.789a1.049,1.049,0,1,1,0-2.1Z" transform="translate(-268.238 -53.404)"/>
        <path id="Trazado_224309" data-name="Trazado 224309" d="M182.739,128.531a1.116,1.116,0,0,0,1.116,1.116h2.184l-3.257,5a1.116,1.116,0,0,0,.935,1.725H188.2a1.116,1.116,0,1,0,0-2.231h-2.427l3.257-5a1.116,1.116,0,0,0-.935-1.725h-4.243a1.116,1.116,0,0,0-1.116,1.116Z" transform="translate(-155.438 -108.487)"/>
        <path id="Trazado_224310" data-name="Trazado 224310" d="M131.555,50.937h6.463a1.116,1.116,0,0,0,0-2.231h-4.4l5.189-7.964a1.116,1.116,0,0,0-.935-1.725h-6.114a1.116,1.116,0,0,0,0,2.231h4.056l-5.189,7.964a1.116,1.116,0,0,0,.935,1.725Z" transform="translate(-111.035 -33.239)"/>
      </g>
    </g>
    <g id="Grupo_158906" data-name="Grupo 158906" transform="translate(844.019 1722.666) rotate(-90)">
      <path id="Trazado_224285" data-name="Trazado 224285" d="M692.818,128.457V189.57" transform="translate(-689 -128.457)" fill="#1f2a40" stroke="#12263f" stroke-miterlimit="10" stroke-width="2"/>
      <circle id="Elipse_6296" data-name="Elipse 6296" cx="4" cy="4" r="4" transform="translate(0 58.648)" fill="#12263f"/>
    </g>
    <g id="Grupo_158907" data-name="Grupo 158907" transform="translate(831.373 1918.666) rotate(-90)">
      <path id="Trazado_224285-2" data-name="Trazado 224285" d="M692.818,128.457V320.448" transform="translate(-689 -128.457)" fill="#1f2a40" stroke="#12263f" stroke-miterlimit="10" stroke-width="2"/>
      <circle id="Elipse_6296-2" data-name="Elipse 6296" cx="4" cy="4" r="4" transform="translate(0 189.526)" fill="#12263f"/>
    </g>
    <g id="Grupo_158908" data-name="Grupo 158908" transform="translate(841.942 2102.666) rotate(-90)">
      <path id="Trazado_224285-3" data-name="Trazado 224285" d="M692.818,128.457V414.879" transform="translate(-689 -128.457)" fill="#1f2a40" stroke="#12263f" stroke-miterlimit="10" stroke-width="2"/>
      <circle id="Elipse_6296-3" data-name="Elipse 6296" cx="4" cy="4" r="4" transform="translate(0 283.957)" fill="#12263f"/>
    </g>
    <g id="Grupo_158909" data-name="Grupo 158909" transform="translate(820.922 2283.666) rotate(-90)">
      <path id="Trazado_224285-4" data-name="Trazado 224285" d="M692.818,128.457V541.9" transform="translate(-689 -128.457)" fill="#1f2a40" stroke="#12263f" stroke-miterlimit="10" stroke-width="2"/>
      <circle id="Elipse_6296-4" data-name="Elipse 6296" cx="4" cy="4" r="4" transform="translate(0 410.977)" fill="#12263f"/>
    </g>
    <g id="Grupo_158901" data-name="Grupo 158901" transform="translate(749.667 1684)">
      <g id="Grupo_158858" data-name="Grupo 158858" transform="translate(36.978 36.559)">
        <path id="Trazado_224311" data-name="Trazado 224311" d="M204.3,187.447c-4.756,5.981-11.773,5.137-14.132,4.644a.7.7,0,0,0-.84.671v10.484a13.022,13.022,0,1,0,26.045,0v-11.6c0-.068,0-.136,0-.2a.7.7,0,0,0-.672-.684c-5.41-.159-8.26-2.3-9.355-3.376A.7.7,0,0,0,204.3,187.447Z" transform="translate(-189.326 -187.18)" fill="#f9d0b4"/>
      </g>
      <g id="Grupo_158859" data-name="Grupo 158859" transform="translate(62.989 42.7)">
        <path id="Trazado_224312" data-name="Trazado 224312" d="M323.374,218.624a5.4,5.4,0,0,0-.836.066v9.858c0,.294-.013.584-.033.873a5.434,5.434,0,1,0,.868-10.8Z" transform="translate(-322.506 -218.624)" fill="#f9d0b4"/>
      </g>
      <g id="Grupo_158860" data-name="Grupo 158860" transform="translate(30.705 42.7)">
        <path id="Trazado_224313" data-name="Trazado 224313" d="M163.484,228.549V218.69a5.439,5.439,0,1,0,.033,10.731h0C163.5,229.133,163.484,228.842,163.484,228.549Z" transform="translate(-157.212 -218.624)" fill="#f9d0b4"/>
      </g>
      <g id="Grupo_158861" data-name="Grupo 158861" transform="translate(22.886 64.169)">
        <path id="Trazado_224314" data-name="Trazado 224314" d="M169.716,363.4a1.687,1.687,0,0,0,1.684-1.785l-1.039-17.91a5.139,5.139,0,0,0-3.877-4.7l-7.475-1.882a25.5,25.5,0,0,1-2.48-.765l-5.588,6.447a1.428,1.428,0,0,1-2.014.144l-2.491-2.159a1.428,1.428,0,0,1-.144-2.014l4.807-5.546a4.482,4.482,0,0,1-.812-2.568v-2.12a12.917,12.917,0,0,1-12,0v2.12a4.486,4.486,0,0,1-.836,2.607l4.773,5.507a1.428,1.428,0,0,1-.144,2.014l-2.491,2.159a1.428,1.428,0,0,1-2.014-.144l-5.573-6.43a25.382,25.382,0,0,1-2.428.746l-7.484,1.884a5.139,5.139,0,0,0-3.877,4.7l-1.039,17.91a1.687,1.687,0,0,0,1.684,1.785h50.854Z" transform="translate(-117.175 -328.546)" fill="#3caadc"/>
      </g>
      <g id="Grupo_158862" data-name="Grupo 158862" transform="translate(64.637 16.634)">
        <path id="Trazado_224315" data-name="Trazado 224315" d="M348.22,85.167a17.194,17.194,0,0,0-4.952,33.685,1.786,1.786,0,0,1,1.28,1.714v2.82a.644.644,0,0,0,1.053.5l5.255-4.321a1.831,1.831,0,0,1,.793-.373,17.192,17.192,0,0,0-3.429-34.021Z" transform="translate(-330.941 -85.167)" fill="#edf4fc"/>
      </g>
      <g id="Grupo_158863" data-name="Grupo 158863" transform="translate(0.977 16.634)">
        <path id="Trazado_224316" data-name="Trazado 224316" d="M22.108,85.167a17.194,17.194,0,0,1,4.952,33.685,1.786,1.786,0,0,0-1.28,1.714v2.82a.644.644,0,0,1-1.053.5l-5.255-4.321a1.831,1.831,0,0,0-.793-.373,17.192,17.192,0,0,1,3.429-34.021Z" transform="translate(-5 -85.167)" fill="#edf4fc"/>
      </g>
      <g id="Grupo_158864" data-name="Grupo 158864" transform="translate(32.75 24.427)">
        <path id="Trazado_224317" data-name="Trazado 224317" d="M199.568,134.173a16.98,16.98,0,0,1,.675-4.457,7.365,7.365,0,0,0-8.924-1.007,7.446,7.446,0,0,0-6.379-3.641h-3.82a13.456,13.456,0,0,0-11.174,6,17.118,17.118,0,0,1-2.267,12.517v.951a5.409,5.409,0,0,1,3.392-1.192,5.506,5.506,0,0,1,.836.066v-.626a.7.7,0,0,1,.84-.671c2.359.494,9.376,1.338,14.132-4.643a.7.7,0,0,1,1.042-.066c1.1,1.074,3.946,3.218,9.355,3.376a.7.7,0,0,1,.672.684c0,.068,0,.136,0,.2v1.742a5.406,5.406,0,0,1,4.607,1.46v-.706a17.115,17.115,0,0,1-2.989-9.986Z" transform="translate(-167.678 -125.068)" fill="#754e34"/>
      </g>
      <g id="Grupo_158865" data-name="Grupo 158865" transform="translate(43.164 64.169)">
        <path id="Trazado_224318" data-name="Trazado 224318" d="M225.773,338.777a1.413,1.413,0,0,1,.34.819H229.5a1.418,1.418,0,0,1,.34-.819l4.807-5.546a4.483,4.483,0,0,1-.812-2.568v-2.12a12.917,12.917,0,0,1-12,0v2.119A4.486,4.486,0,0,1,221,333.27Z" transform="translate(-221 -328.544)" fill="#f9d0b4"/>
      </g>
      <g id="Grupo_158866" data-name="Grupo 158866" transform="translate(51.655 68.856)">
        <path id="Trazado_224319" data-name="Trazado 224319" d="M267.459,362.263a1.428,1.428,0,0,0,2.014-.144l5.588-6.447a25.542,25.542,0,0,1-2.7-1.158c-.728-.364-1.358-.684-1.475-.759a4.5,4.5,0,0,1-1.252-1.211l-4.807,5.546a1.428,1.428,0,0,0,.144,2.014Z" transform="translate(-264.475 -352.544)" fill="#70d6f9"/>
      </g>
      <g id="Grupo_158867" data-name="Grupo 158867" transform="translate(37.715 68.895)">
        <path id="Trazado_224320" data-name="Trazado 224320" d="M197.045,354.081c-.061.033-.62.311-1.288.641a25.443,25.443,0,0,1-2.655,1.127l5.573,6.43a1.428,1.428,0,0,0,2.014.144l2.491-2.159a1.428,1.428,0,0,0,.144-2.014l-4.773-5.507a4.5,4.5,0,0,1-1.506,1.339Z" transform="translate(-193.102 -352.742)" fill="#70d6f9"/>
      </g>
      <g id="Grupo_158868" data-name="Grupo 158868" transform="translate(22.886 92.696)">
        <path id="Trazado_224321" data-name="Trazado 224321" d="M118.862,480.933h7.485v-6.327h-8.906l-.263,4.542A1.687,1.687,0,0,0,118.862,480.933Z" transform="translate(-117.175 -474.606)" fill="#f9d0b4"/>
      </g>
      <g id="Grupo_158869" data-name="Grupo 158869" transform="translate(68.131 92.696)">
        <path id="Trazado_224322" data-name="Trazado 224322" d="M357.549,474.606h-8.717v6.327h7.3a1.687,1.687,0,0,0,1.684-1.785Z" transform="translate(-348.832 -474.606)" fill="#f9d0b4"/>
      </g>
      <g id="Grupo_158870" data-name="Grupo 158870" transform="translate(36.001 35.582)">
        <path id="Trazado_224323" data-name="Trazado 224323" d="M198.325,213.222a14.014,14.014,0,0,1-14-14V188.747a1.657,1.657,0,0,1,.615-1.3,1.674,1.674,0,0,1,1.4-.34c2.513.526,8.829,1.161,13.168-4.3a1.678,1.678,0,0,1,2.49-.155c.9.882,3.546,2.947,8.7,3.1a1.672,1.672,0,0,1,1.62,1.641l0,.224v11.6a14.014,14.014,0,0,1-14,14Zm-12.046-24.133v10.134a12.046,12.046,0,0,0,24.091,0V187.7c-5.173-.215-8.119-2.153-9.519-3.439-4.918,5.944-12.013,5.3-14.573,4.827Zm14-5.666h0Z" transform="translate(-184.326 -182.18)"/>
      </g>
      <g id="Grupo_158871" data-name="Grupo 158871" transform="translate(62.389 41.723)">
        <path id="Trazado_224324" data-name="Trazado 224324" d="M320.9,226.451a5.742,5.742,0,0,1-.591-.031.976.976,0,0,1,.2-1.943c.13.013.261.021.394.021a4.46,4.46,0,0,0,0-8.921c-.131,0-.26.006-.388.018a.977.977,0,0,1-.179-1.945c.189-.018.38-.026.567-.026a6.413,6.413,0,1,1,0,12.827Z" transform="translate(-319.432 -213.624)"/>
      </g>
      <g id="Grupo_158872" data-name="Grupo 158872" transform="translate(29.729 41.723)">
        <path id="Trazado_224325" data-name="Trazado 224325" d="M158.623,226.449a6.413,6.413,0,0,1,0-12.827,6.341,6.341,0,0,1,.638.033.976.976,0,1,1-.2,1.943,4.41,4.41,0,0,0-.442-.023,4.46,4.46,0,0,0,0,8.921c.118,0,.234-.006.35-.017a.977.977,0,1,1,.179,1.945c-.174.016-.35.025-.529.025Z" transform="translate(-152.21 -213.622)"/>
      </g>
      <g id="Grupo_158873" data-name="Grupo 158873" transform="translate(21.909 63.402)">
        <path id="Trazado_224326" data-name="Trazado 224326" d="M165.692,361.218H114.838a2.664,2.664,0,0,1-2.659-2.818l1.039-17.91a6.089,6.089,0,0,1,4.613-5.589l7.484-1.884a24.322,24.322,0,0,0,2.334-.717.977.977,0,0,1,1.07.279l5.573,6.43a.453.453,0,0,0,.637.045l2.491-2.159a.452.452,0,0,0,.046-.637l-4.773-5.507a.977.977,0,0,1-.057-1.207,3.494,3.494,0,0,0,.655-2.04v-1.847a.977.977,0,0,1,1.953,0v1.847a5.424,5.424,0,0,1-.609,2.5l4.307,4.969a2.406,2.406,0,0,1-.243,3.392l-2.491,2.159a2.4,2.4,0,0,1-3.392-.241l-5.14-5.93c-.634.212-1.266.4-1.884.553l-7.484,1.884a4.144,4.144,0,0,0-3.14,3.8l-1.039,17.912a.71.71,0,0,0,.709.752h50.855a.71.71,0,0,0,.709-.752l-1.039-17.91a4.144,4.144,0,0,0-3.14-3.807l-7.475-1.881c-.637-.161-1.286-.352-1.938-.571l-5.153,5.946a2.408,2.408,0,0,1-3.392.241l-2.491-2.159a2.4,2.4,0,0,1-.241-3.392l4.345-5.013a5.429,5.429,0,0,1-.588-2.461V325.6a.977.977,0,1,1,1.953,0v1.909a3.5,3.5,0,0,0,.636,2.009.977.977,0,0,1-.063,1.2l-4.807,5.546a.45.45,0,0,0,.045.636l2.492,2.159a.452.452,0,0,0,.637-.045l5.587-6.447a.976.976,0,0,1,1.072-.278,24.654,24.654,0,0,0,2.385.736L162.7,334.9a6.089,6.089,0,0,1,4.613,5.591l1.039,17.907a2.666,2.666,0,0,1-2.659,2.819Z" transform="translate(-112.174 -324.62)"/>
      </g>
      <g id="Grupo_158874" data-name="Grupo 158874" transform="translate(67.155 82.44)">
        <path id="Trazado_224327" data-name="Trazado 224327" d="M344.809,439.526a.976.976,0,0,1-.977-.977V423.069a.977.977,0,0,1,1.953,0V438.55A.976.976,0,0,1,344.809,439.526Z" transform="translate(-343.832 -422.092)"/>
      </g>
      <g id="Grupo_158875" data-name="Grupo 158875" transform="translate(31.082 82.44)">
        <path id="Trazado_224328" data-name="Trazado 224328" d="M160.115,439.526a.976.976,0,0,1-.977-.977V423.069a.977.977,0,0,1,1.953,0V438.55A.976.976,0,0,1,160.115,439.526Z" transform="translate(-159.138 -422.092)"/>
      </g>
      <g id="Grupo_158876" data-name="Grupo 158876" transform="translate(63.661 15.657)">
        <path id="Trazado_224329" data-name="Trazado 224329" d="M341.173,120.984a1.629,1.629,0,0,1-.7-.157,1.606,1.606,0,0,1-.928-1.465v-2.82a.813.813,0,0,0-.579-.777,18.171,18.171,0,0,1,5.143-35.6h.089a18.168,18.168,0,0,1,3.623,35.954.87.87,0,0,0-.372.172l-5.255,4.321A1.611,1.611,0,0,1,341.173,120.984Zm2.941-38.865a16.218,16.218,0,0,0-4.592,31.772,2.778,2.778,0,0,1,1.98,2.651v2.115l4.711-3.873a2.826,2.826,0,0,1,1.214-.575,16.215,16.215,0,0,0-3.234-32.088h-.08Z" transform="translate(-325.943 -80.166)"/>
      </g>
      <g id="Grupo_158877" data-name="Grupo 158877" transform="translate(0 15.657)">
        <path id="Trazado_224330" data-name="Trazado 224330" d="M21.109,120.984a1.61,1.61,0,0,1-1.025-.371l-5.255-4.321a.868.868,0,0,0-.373-.171A18.169,18.169,0,0,1,18.08,80.166h.089a18.171,18.171,0,0,1,5.143,35.6.813.813,0,0,0-.579.777v2.82a1.606,1.606,0,0,1-.928,1.465,1.629,1.629,0,0,1-.7.157ZM18.089,82.12a16.216,16.216,0,0,0-3.235,32.089,2.824,2.824,0,0,1,1.215.575l4.711,3.874v-2.115a2.778,2.778,0,0,1,1.98-2.651A16.218,16.218,0,0,0,18.168,82.12Zm0-.977h0Z" transform="translate(0 -80.166)"/>
      </g>
      <g id="Grupo_158878" data-name="Grupo 158878" transform="translate(34.282 23.451)">
        <path id="Trazado_224331" data-name="Trazado 224331" d="M176.5,127.669a.977.977,0,0,1-.793-1.545,14.469,14.469,0,0,1,11.727-6.055h3.82a8.462,8.462,0,0,1,6.7,3.347,8.331,8.331,0,0,1,9.028,1.339.976.976,0,1,1-1.291,1.466,6.385,6.385,0,0,0-7.553-.7.977.977,0,0,1-1.34-.336,6.506,6.506,0,0,0-5.542-3.166h-3.82a12.514,12.514,0,0,0-10.139,5.24.975.975,0,0,1-.795.408Z" transform="translate(-175.525 -120.068)"/>
      </g>
      <g id="Grupo_158879" data-name="Grupo 158879" transform="translate(47.469 74.245)">
        <path id="Trazado_224332" data-name="Trazado 224332" d="M247,382.085h-2.979a.977.977,0,1,1,0-1.953H247a.977.977,0,1,1,0,1.953Z" transform="translate(-243.042 -380.132)"/>
      </g>
      <g id="Grupo_158880" data-name="Grupo 158880" transform="translate(55.834 67.88)">
        <path id="Trazado_224333" data-name="Trazado 224333" d="M292.276,352.627a.979.979,0,0,1-.334-.059,26.685,26.685,0,0,1-2.807-1.2c-1.368-.683-1.5-.767-1.568-.811a5.455,5.455,0,0,1-1.524-1.474.977.977,0,1,1,1.6-1.118,3.511,3.511,0,0,0,.979.95c.019.011.22.125,1.383.707a24.766,24.766,0,0,0,2.6,1.114.976.976,0,0,1-.333,1.894Z" transform="translate(-285.868 -347.546)"/>
      </g>
      <g id="Grupo_158881" data-name="Grupo 158881" transform="translate(36.739 67.918)">
        <path id="Trazado_224334" data-name="Trazado 224334" d="M189.079,352.8a.977.977,0,0,1-.332-1.9,24.744,24.744,0,0,0,2.554-1.084c.637-.316,1.174-.581,1.259-.627a3.5,3.5,0,0,0,1.173-1.045.977.977,0,0,1,1.59,1.134,5.523,5.523,0,0,1-1.832,1.628c-.051.028-.185.1-1.323.659a26.581,26.581,0,0,1-2.757,1.17.965.965,0,0,1-.331.059Z" transform="translate(-188.101 -347.741)"/>
      </g>
      <g id="Grupo_158882" data-name="Grupo 158882" transform="translate(22.51 91.72)">
        <path id="Trazado_224335" data-name="Trazado 224335" d="M124.527,471.561h-8.3a.977.977,0,0,1,0-1.953h8.3a.977.977,0,1,1,0,1.953Z" transform="translate(-115.25 -469.608)"/>
      </g>
      <g id="Grupo_158883" data-name="Grupo 158883" transform="translate(67.42 91.72)">
        <path id="Trazado_224336" data-name="Trazado 224336" d="M354.38,471.561h-8.215a.977.977,0,0,1,0-1.953h8.215a.977.977,0,0,1,0,1.953Z" transform="translate(-345.188 -469.608)"/>
      </g>
      <g id="Grupo_158884" data-name="Grupo 158884" transform="translate(27.541 7.522)">
        <path id="Trazado_224337" data-name="Trazado 224337" d="M141.988,47.717a.976.976,0,0,1-.673-1.684,32.562,32.562,0,0,1,12.692-7.477.977.977,0,1,1,.58,1.865,30.6,30.6,0,0,0-11.926,7.027A.974.974,0,0,1,141.988,47.717Z" transform="translate(-141.011 -38.512)"/>
      </g>
      <g id="Grupo_158885" data-name="Grupo 158885" transform="translate(58.257 7.521)">
        <path id="Trazado_224338" data-name="Trazado 224338" d="M311.534,47.681a.975.975,0,0,1-.673-.269,30.415,30.415,0,0,0-11.9-6.994.976.976,0,1,1,.579-1.865A32.37,32.37,0,0,1,312.208,46a.976.976,0,0,1-.673,1.683Z" transform="translate(-298.276 -38.508)"/>
      </g>
      <g id="Grupo_158886" data-name="Grupo 158886" transform="translate(44.327 0.977)">
        <path id="Trazado_224339" data-name="Trazado 224339" d="M232.627,5a5.673,5.673,0,1,0,5.673,5.673A5.673,5.673,0,0,0,232.627,5Z" transform="translate(-226.954 -5)" fill="#87d147"/>
      </g>
      <g id="Grupo_158887" data-name="Grupo 158887" transform="translate(43.35)">
        <path id="Trazado_224340" data-name="Trazado 224340" d="M228.6,13.3a6.65,6.65,0,1,1,6.65-6.65,6.657,6.657,0,0,1-6.65,6.65Zm0-11.346a4.7,4.7,0,1,0,4.7,4.7,4.7,4.7,0,0,0-4.7-4.7Z" transform="translate(-221.954 0)"/>
      </g>
      <g id="Grupo_158888" data-name="Grupo 158888" transform="translate(46.565 4.554)">
        <path id="Trazado_224341" data-name="Trazado 224341" d="M241.278,28.239a.978.978,0,0,1-.691-.286L238.7,26.062a.976.976,0,0,1,1.381-1.381l1.2,1.2,2.28-2.28a.976.976,0,0,1,1.381,1.381l-2.97,2.971a.975.975,0,0,1-.69.286Z" transform="translate(-238.41 -23.314)"/>
      </g>
      <g id="Grupo_158889" data-name="Grupo 158889" transform="translate(45.511 55.067)">
        <path id="Trazado_224342" data-name="Trazado 224342" d="M237.69,285.481a5.815,5.815,0,0,1-4.446-1.934.977.977,0,1,1,1.5-1.255,4.138,4.138,0,0,0,5.9,0,.977.977,0,1,1,1.5,1.255A5.813,5.813,0,0,1,237.69,285.481Z" transform="translate(-233.016 -281.943)"/>
      </g>
      <g id="Grupo_158890" data-name="Grupo 158890" transform="translate(53.891 47.266)">
        <circle id="Elipse_6300" data-name="Elipse 6300" cx="1.65" cy="1.65" r="1.65"/>
      </g>
      <g id="Grupo_158891" data-name="Grupo 158891" transform="translate(42.808 47.266)">
        <circle id="Elipse_6301" data-name="Elipse 6301" cx="1.65" cy="1.65" r="1.65"/>
      </g>
      <g id="Grupo_158892" data-name="Grupo 158892" transform="translate(73.817 28.906)">
        <path id="Trazado_224343" data-name="Trazado 224343" d="M392.752,149.225a4.18,4.18,0,0,0-5.911,0l-.325.325a.788.788,0,0,1-1.114,0l-.325-.325a4.18,4.18,0,0,0-5.911,5.911l5.52,5.52a1.8,1.8,0,0,0,2.548,0l5.52-5.52a4.18,4.18,0,0,0,0-5.911Z" transform="translate(-377.941 -148.001)" fill="#fc657e"/>
      </g>
      <g id="Grupo_158893" data-name="Grupo 158893" transform="translate(72.843 27.93)">
        <path id="Trazado_224344" data-name="Trazado 224344" d="M381.947,158.134a2.768,2.768,0,0,1-1.964-.812l-5.52-5.52a5.156,5.156,0,0,1,7.292-7.292l.192.192.191-.191a5.156,5.156,0,1,1,7.292,7.291l-5.52,5.52A2.767,2.767,0,0,1,381.947,158.134Zm-3.838-13.18a3.2,3.2,0,0,0-2.265,5.468l5.52,5.52a.827.827,0,0,0,1.167,0l5.52-5.52a3.2,3.2,0,0,0-4.53-4.53l-.325.325a1.766,1.766,0,0,1-2.5,0l-.325-.325a3.182,3.182,0,0,0-2.264-.938Z" transform="translate(-372.955 -143)"/>
      </g>
      <g id="Grupo_158894" data-name="Grupo 158894" transform="translate(10.306 39.91)">
        <path id="Trazado_224345" data-name="Trazado 224345" d="M57.845,204.5a2.835,2.835,0,0,1-3.466-.1.291.291,0,0,0-.4.048,2,2,0,0,1-.91.645,7.754,7.754,0,0,1,.092,1.049,11.243,11.243,0,0,1-.352,2.432,1.641,1.641,0,0,0,2.53,1.7c.825-.607,1.282-2.426,2.6-5.816a.3.3,0,0,0-.093.039Z" transform="translate(-52.767 -204.34)" fill="#f98fa6"/>
      </g>
      <g id="Grupo_158895" data-name="Grupo 158895" transform="translate(6.034 22.426)">
        <path id="Trazado_224346" data-name="Trazado 224346" d="M33.65,132.855a2.178,2.178,0,0,0,2.727-.441.291.291,0,0,1,.4-.048,2.835,2.835,0,0,0,3.466.1.29.29,0,0,1,.309-.014c.677.4,3.457,1.752,5.353-1.692,2.172-3.945,9-3.272,9.922-7.041a3.824,3.824,0,0,0-3.327-4.608.287.287,0,0,1-.283-.21,2.537,2.537,0,0,0-3.128-1.88.284.284,0,0,1-.295-.15,2.4,2.4,0,0,0-3.018-1.229.293.293,0,0,1-.3-.071,2.306,2.306,0,0,0-3.391-.016.282.282,0,0,1-.292.044,3.343,3.343,0,0,0-4.611,1.689.291.291,0,0,1-.238.168,3.858,3.858,0,0,0-3.773,4.163.287.287,0,0,1-.17.274c-.721.314-3.3,1.73-1.466,5.322a.29.29,0,0,1,.02.217A4.425,4.425,0,0,0,33.65,132.855Z" transform="translate(-30.895 -114.822)" fill="#fc657e"/>
      </g>
      <g id="Grupo_158896" data-name="Grupo 158896" transform="translate(5.056 21.454)">
        <path id="Trazado_224347" data-name="Trazado 224347" d="M30.81,130.131a3.515,3.515,0,0,1-1.658-.422,5.307,5.307,0,0,1-2.634-6.3,5.024,5.024,0,0,1-.4-3.9,4.394,4.394,0,0,1,2.051-2.309,4.728,4.728,0,0,1,4.276-4.675,4.208,4.208,0,0,1,5.308-1.977,3.215,3.215,0,0,1,4.084.057A3.289,3.289,0,0,1,45.379,112a3.4,3.4,0,0,1,3.593,2.171,4.8,4.8,0,0,1,2.873,1.785,4.573,4.573,0,0,1,.9,3.993c-.594,2.426-2.955,3.322-5.238,4.189-1.912.726-3.889,1.477-4.777,3.09a5.053,5.053,0,0,1-3.035,2.651,4.759,4.759,0,0,1-3.3-.388,3.741,3.741,0,0,1-3.741-.016,2.842,2.842,0,0,1-1.848.657Zm5.216-.841,0,0Zm-2.928-.258h0ZM30.1,128a1.158,1.158,0,0,0,1.5-.211,1.262,1.262,0,0,1,1.752-.2,1.857,1.857,0,0,0,2.327.061,1.274,1.274,0,0,1,1.349-.041,3,3,0,0,0,2.16.386,3.207,3.207,0,0,0,1.839-1.709c1.234-2.242,3.657-3.162,5.795-3.974,1.977-.751,3.684-1.4,4.034-2.828a2.637,2.637,0,0,0-.536-2.317,2.678,2.678,0,0,0-1.828-1.082h-.014a1.268,1.268,0,0,1-1.225-.93,1.579,1.579,0,0,0-2.033-1.171,1.262,1.262,0,0,1-1.312-.66,1.417,1.417,0,0,0-1.861-.752,1.267,1.267,0,0,1-1.284-.317,1.375,1.375,0,0,0-2.062.039,1.251,1.251,0,0,1-1.305.2,2.353,2.353,0,0,0-3.349,1.2,1.268,1.268,0,0,1-1.043.726,2.842,2.842,0,0,0-2.875,3.164,1.26,1.26,0,0,1-.758,1.2,2.579,2.579,0,0,0-1.4,1.381,3.338,3.338,0,0,0,.42,2.6,1.261,1.261,0,0,1,.083.947,3.435,3.435,0,0,0,1.608,4.27Zm-1.513-11,0,0Zm3.687-4.127v0Zm.566-.388h0Zm12.792-.067v0Z" transform="translate(-25.886 -109.845)"/>
      </g>
      <g id="Grupo_158897" data-name="Grupo 158897" transform="translate(9.331 39.398)">
        <path id="Trazado_224348" data-name="Trazado 224348" d="M50.411,209.442a2.642,2.642,0,0,1-1.438-.433,2.6,2.6,0,0,1-1.136-2.752l.023-.1a10.009,10.009,0,0,0,.307-2.114,6.594,6.594,0,0,0-.054-.761.977.977,0,1,1,1.938-.244,8.622,8.622,0,0,1,.07.99,11.523,11.523,0,0,1-.352,2.546l-.023.1a.64.64,0,0,0,.291.7.614.614,0,0,0,.706.009,9.794,9.794,0,0,0,1.386-3.03c.217-.591.462-1.257.749-2a.977.977,0,1,1,1.823.7c-.284.737-.525,1.394-.739,1.977-.784,2.133-1.215,3.307-2.062,3.931a2.507,2.507,0,0,1-1.489.489Z" transform="translate(-47.775 -201.718)"/>
      </g>
      <g id="Grupo_158898" data-name="Grupo 158898" transform="translate(11.429 27.739)">
        <path id="Trazado_224349" data-name="Trazado 224349" d="M60.65,145.289a.977.977,0,0,1-.849-.492,3.584,3.584,0,0,0-.882-1,.977.977,0,0,1,1.135-1.589,5.444,5.444,0,0,1,1.444,1.625.977.977,0,0,1-.847,1.461Z" transform="translate(-58.515 -142.024)"/>
      </g>
      <g id="Grupo_158899" data-name="Grupo 158899" transform="translate(11.946 29.163)">
        <path id="Trazado_224350" data-name="Trazado 224350" d="M62.14,152.573a.96.96,0,0,1-.273-.039.976.976,0,0,1-.665-1.211,2.789,2.789,0,0,1,3.454-1.9.977.977,0,0,1-.546,1.875.834.834,0,0,0-1.033.567.978.978,0,0,1-.937.7Z" transform="translate(-61.163 -149.315)"/>
      </g>
      <g id="Grupo_158900" data-name="Grupo 158900" transform="translate(19.572 26.225)">
        <path id="Trazado_224351" data-name="Trazado 224351" d="M103.021,138.01a.977.977,0,0,1-.976-.964.827.827,0,0,0-.252-.586.841.841,0,0,0-.593-.236h-.013a.977.977,0,0,1-.013-1.953,2.805,2.805,0,0,1,1.981.789,2.767,2.767,0,0,1,.843,1.96.976.976,0,0,1-.964.989Z" transform="translate(-100.21 -134.272)"/>
      </g>
    </g>
    <g id="Layer_33" data-name="Layer 33" transform="translate(747.667 1866)">
      <path id="Trazado_224352" data-name="Trazado 224352" d="M291.437,8a19.437,19.437,0,0,1,19.437,19.437V54.974a12.958,12.958,0,0,1-12.958,12.958H284.958A12.958,12.958,0,0,1,272,54.974V27.437A19.437,19.437,0,0,1,291.437,8Z" transform="translate(-216.927 -6.38)" fill="#c67a60"/>
      <path id="Trazado_224353" data-name="Trazado 224353" d="M63.073,280.253v32.341H14.479A6.479,6.479,0,0,1,8,306.114V280.253a12.958,12.958,0,0,1,9.395-12.459L30.677,264H40.4l13.282,3.794A12.958,12.958,0,0,1,63.073,280.253Z" transform="translate(-6.38 -210.547)" fill="#62b5e8"/>
      <path id="Trazado_224354" data-name="Trazado 224354" d="M12.859,306.114V280.253a12.958,12.958,0,0,1,9.395-12.459L35.536,264H30.677l-13.282,3.794A12.958,12.958,0,0,0,8,280.253v25.861a6.479,6.479,0,0,0,6.479,6.479h4.859A6.479,6.479,0,0,1,12.859,306.114Z" transform="translate(-6.38 -210.547)" fill="#44a7d8"/>
      <path id="Trazado_224355" data-name="Trazado 224355" d="M276.858,54.938V27.4A19.428,19.428,0,0,1,293.865,8.126,19.319,19.319,0,0,0,272,27.4V54.938A12.958,12.958,0,0,0,284.957,67.9h4.859A12.958,12.958,0,0,1,276.858,54.938Z" transform="translate(-216.926 -6.345)" fill="#b26049"/>
      <path id="Trazado_224356" data-name="Trazado 224356" d="M287.073,280.253v25.861a6.479,6.479,0,0,1-6.479,6.479H232V280.253a12.958,12.958,0,0,1,9.395-12.459L254.677,264H264.4l13.282,3.794A12.958,12.958,0,0,1,287.073,280.253Z" transform="translate(-185.026 -210.547)" fill="#f2a7b1"/>
      <path id="Trazado_224357" data-name="Trazado 224357" d="M344,224h9.719v8.1a4.859,4.859,0,1,1-9.719,0V224Z" transform="translate(-274.349 -178.646)" fill="#ffddb0" stroke="#000" stroke-linecap="round" stroke-linejoin="round" stroke-width="16"/>
      <path id="Trazado_224358" data-name="Trazado 224358" d="M72,88h29.156v17.818a14.578,14.578,0,1,1-29.156,0V88Z" transform="translate(-57.422 -70.182)" fill="#f7d1c6"/>
      <path id="Trazado_224359" data-name="Trazado 224359" d="M103.327,180.565l-3.97-3.157A6.479,6.479,0,0,0,95.319,176H83.656a6.479,6.479,0,0,0-4.032,1.408l-3.977,3.157a14.578,14.578,0,0,0,27.679,0Z" transform="translate(-60.331 -140.365)" fill="#c67a60"/>
      <path id="Trazado_224360" data-name="Trazado 224360" d="M52.859,120h0v9.719h0a4.859,4.859,0,0,1,0-9.719Z" transform="translate(-38.281 -95.703)" fill="#f4b19f"/>
      <path id="Trazado_224361" data-name="Trazado 224361" d="M216,129.719h0V120h0a4.859,4.859,0,0,1,0,9.719Z" transform="translate(-172.266 -95.703)" fill="#f7d1c6"/>
      <path id="Trazado_224362" data-name="Trazado 224362" d="M310.578,120.4A14.578,14.578,0,0,1,296,105.818V94.479h6.479A12.958,12.958,0,0,0,312.846,89.3l.972-1.3.972,1.3a12.958,12.958,0,0,0,10.367,5.183v11.338A14.578,14.578,0,0,1,310.578,120.4Z" transform="translate(-236.068 -70.182)" fill="#f7d1c6"/>
      <path id="Trazado_224363" data-name="Trazado 224363" d="M76.858,105.818V88H72v17.818a14.5,14.5,0,0,0,17.008,14.359A14.57,14.57,0,0,1,76.858,105.818Z" transform="translate(-57.421 -70.182)" fill="#f4b19f"/>
      <path id="Trazado_224364" data-name="Trazado 224364" d="M276.859,120h0v9.719h0a4.859,4.859,0,1,1,0-9.719Z" transform="translate(-216.927 -95.703)" fill="#f4b19f"/>
      <path id="Trazado_224365" data-name="Trazado 224365" d="M440,129.719h0V120h0a4.859,4.859,0,0,1,0,9.719Z" transform="translate(-350.912 -95.703)" fill="#f7d1c6"/>
      <path id="Trazado_224366" data-name="Trazado 224366" d="M77.156,12.84v-1.6A3.239,3.239,0,0,0,73.917,8H61.467A13.467,13.467,0,0,0,48,21.467h0a9.21,9.21,0,0,0,9.21,9.21h0a29.155,29.155,0,0,0,18.213-6.388l.113-.091a6.479,6.479,0,0,0,6.479,6.479v-14.6a3.239,3.239,0,0,0-3.24-3.24Z" transform="translate(-38.281 -6.38)" fill="#c67a60"/>
      <path id="Trazado_224367" data-name="Trazado 224367" d="M456,392.1h9.719v16.178a6.479,6.479,0,0,1-6.479,6.479H456V392.1Z" transform="translate(-363.672 -312.707)" fill="#f7d1c6"/>
      <path id="Trazado_224368" data-name="Trazado 224368" d="M76.908,424.248H60.71a12.958,12.958,0,0,0-12.958,12.958V440.4H89.866v-3.189A12.958,12.958,0,0,0,76.908,424.248Z" transform="translate(-38.084 -338.349)" fill="#f96464"/>
      <path id="Trazado_224369" data-name="Trazado 224369" d="M136,424h6.479v1.62a3.24,3.24,0,0,1-6.479,0V424Z" transform="translate(-108.464 -338.152)" fill="#f7d1c6"/>
      <path id="Trazado_224370" data-name="Trazado 224370" d="M88,296h25.917v12.958a12.958,12.958,0,0,1-25.917,0V296Z" transform="translate(-70.182 -236.068)" fill="#f7d1c6"/>
      <path id="Trazado_224371" data-name="Trazado 224371" d="M92.859,308.958V296H88v12.958a12.934,12.934,0,0,0,15.388,12.723A12.958,12.958,0,0,1,92.859,308.958Z" transform="translate(-70.182 -236.068)" fill="#f4b19f"/>
      <path id="Trazado_224372" data-name="Trazado 224372" d="M91.943,195.344a15.075,15.075,0,0,1-2.43.211,14.536,14.536,0,0,1-13.833-10.01l3.968-3.159a.968.968,0,0,1,.211-.146,14.557,14.557,0,0,0,12.084,13.1Z" transform="translate(-60.357 -145.341)" fill="#b26049"/>
      <path id="Trazado_224373" data-name="Trazado 224373" d="M67.24,328h1.62v6.479H67.24a3.24,3.24,0,0,1,0-6.479Z" transform="translate(-51.042 -261.589)" fill="#f4b19f"/>
      <path id="Trazado_224374" data-name="Trazado 224374" d="M217.62,334.759H216V328.28h1.62a3.24,3.24,0,0,1,0,6.479Z" transform="translate(-172.266 -261.812)" fill="#f7d1c6"/>
      <path id="Trazado_224375" data-name="Trazado 224375" d="M113.917,251.437h-7.035a6.479,6.479,0,0,1-4.582-1.9l-1.341-1.341-1.341,1.341a6.479,6.479,0,0,1-4.582,1.9H88v-6.479a12.958,12.958,0,0,1,25.917,0Z" transform="translate(-70.182 -185.026)" fill="#c67a60"/>
      <path id="Trazado_224376" data-name="Trazado 224376" d="M103.388,232.225A12.934,12.934,0,0,0,88,244.948v6.479h4.859v-6.479A12.958,12.958,0,0,1,103.388,232.225Z" transform="translate(-70.182 -185.017)" fill="#b26049"/>
      <path id="Trazado_224377" data-name="Trazado 224377" d="M299.635,344h-32.4L264,360.2h38.875Z" transform="translate(-210.547 -274.349)" fill="#c67a60"/>
      <path id="Trazado_224378" data-name="Trazado 224378" d="M296,296h25.917v12.958a12.958,12.958,0,0,1-25.917,0V296Z" transform="translate(-236.068 -236.068)" fill="#f7d1c6"/>
      <g id="Grupo_158902" data-name="Grupo 158902" transform="translate(55.073 24.297)">
        <path id="Trazado_224379" data-name="Trazado 224379" d="M300.859,308.958V296H296v12.958a12.934,12.934,0,0,0,15.388,12.723A12.958,12.958,0,0,1,300.859,308.958Z" transform="translate(-291.141 -260.365)" fill="#f4b19f"/>
        <path id="Trazado_224380" data-name="Trazado 224380" d="M275.24,328h1.62v6.479h-1.62a3.24,3.24,0,1,1,0-6.479Z" transform="translate(-272 -285.886)" fill="#f4b19f"/>
        <path id="Trazado_224381" data-name="Trazado 224381" d="M300.858,131.338V120H296v11.338A14.5,14.5,0,0,0,313.007,145.7,14.57,14.57,0,0,1,300.858,131.338Z" transform="translate(-291.14 -120)" fill="#f4b19f"/>
      </g>
      <path id="Trazado_224382" data-name="Trazado 224382" d="M425.62,334.759H424V328.28h1.62a3.24,3.24,0,0,1,0,6.479Z" transform="translate(-338.152 -261.812)" fill="#f7d1c6"/>
      <path id="Trazado_224383" data-name="Trazado 224383" d="M309.156,251.437h-6.479l-3.24-3.24-3.24,3.24H283.24A3.239,3.239,0,0,1,280,248.2a16.2,16.2,0,1,1,32.4,0A3.239,3.239,0,0,1,309.156,251.437Z" transform="translate(-223.308 -185.026)" fill="#c67a60"/>
      <path id="Trazado_224384" data-name="Trazado 224384" d="M284.858,248.186a16.186,16.186,0,0,1,13.768-16,16.081,16.081,0,0,0-18.627,16,3.239,3.239,0,0,0,3.24,3.24H288.1A3.239,3.239,0,0,1,284.858,248.186Z" transform="translate(-223.306 -185.015)" fill="#b26049"/>
      <path id="Trazado_224385" data-name="Trazado 224385" d="M57.827,448.1v-3.24A4.859,4.859,0,0,0,52.968,440c-.172,0-.335.034-.5.05a12.918,12.918,0,0,0-4.328,8.321,4.85,4.85,0,0,0,9.691-.272Z" transform="translate(-38.39 -350.912)" fill="#d34444"/>
      <path id="Trazado_224386" data-name="Trazado 224386" d="M284.908,424.248h-16.2a12.958,12.958,0,0,0-12.958,12.958V440.4h42.114v-3.189A12.958,12.958,0,0,0,284.908,424.248Z" transform="translate(-203.969 -338.349)" fill="#fcab68"/>
      <path id="Trazado_224387" data-name="Trazado 224387" d="M273.57,424.248H268.71a12.958,12.958,0,0,0-12.958,12.958V440.4h4.859v-3.189A12.958,12.958,0,0,1,273.57,424.248Z" transform="translate(-203.969 -338.349)" fill="#ea8e49"/>
      <path id="Trazado_224388" data-name="Trazado 224388" d="M344,424h6.479v1.62a3.24,3.24,0,0,1-6.479,0V424Z" transform="translate(-274.349 -338.152)" fill="#f7d1c6"/>
      <path id="Trazado_224389" data-name="Trazado 224389" d="M36.859,440h0a4.859,4.859,0,0,1,4.859,4.859v3.24a4.859,4.859,0,0,1-4.859,4.859h0A4.859,4.859,0,0,1,32,448.1v-3.24A4.859,4.859,0,0,1,36.859,440Z" transform="translate(-25.521 -350.912)" fill="#f7d1c6"/>
      <path id="Trazado_224390" data-name="Trazado 224390" d="M35.9,448.1v-3.24a4.843,4.843,0,0,1,3.24-4.561,4.8,4.8,0,0,0-1.62-.3,4.859,4.859,0,0,0-4.859,4.859v3.24a4.859,4.859,0,0,0,4.859,4.859,4.8,4.8,0,0,0,1.62-.3A4.843,4.843,0,0,1,35.9,448.1Z" transform="translate(-26.05 -350.912)" fill="#f4b19f"/>
      <path id="Trazado_224391" data-name="Trazado 224391" d="M436.859,440h0a4.859,4.859,0,0,1,4.859,4.859v3.24a4.859,4.859,0,0,1-4.859,4.859h0A4.859,4.859,0,0,1,432,448.1v-3.24A4.859,4.859,0,0,1,436.859,440Z" transform="translate(-344.532 -350.912)" fill="#f7d1c6"/>
      <path id="Trazado_224392" data-name="Trazado 224392" d="M52.859,21.467A13.467,13.467,0,0,1,66.326,8H61.467A13.467,13.467,0,0,0,48,21.467h0a9.21,9.21,0,0,0,9.21,9.21h0a29.06,29.06,0,0,0,3.055-.18,9.21,9.21,0,0,1-7.406-9.03Z" transform="translate(-38.281 -6.38)" fill="#b26049"/>
      <path id="Trazado_224393" data-name="Trazado 224393" d="M435.24,448.1v-3.24a4.843,4.843,0,0,1,3.24-4.561,4.8,4.8,0,0,0-1.62-.3A4.859,4.859,0,0,0,432,444.859v3.24a4.859,4.859,0,0,0,4.859,4.859,4.8,4.8,0,0,0,1.62-.3A4.843,4.843,0,0,1,435.24,448.1Z" transform="translate(-344.532 -350.912)" fill="#f4b19f"/>
      <path id="Trazado_224394" data-name="Trazado 224394" d="M321.62,136a1.62,1.62,0,0,0-1.62,1.62v1.54a1.62,1.62,0,1,0,3.24,0v-1.54A1.62,1.62,0,0,0,321.62,136Z" transform="translate(-255.209 -108.464)"/>
      <path id="Trazado_224395" data-name="Trazado 224395" d="M401.62,140.859a1.62,1.62,0,0,0,1.62-1.62v-1.62a1.62,1.62,0,1,0-3.24,0v1.62A1.62,1.62,0,0,0,401.62,140.859Z" transform="translate(-319.011 -108.464)"/>
      <path id="Trazado_224396" data-name="Trazado 224396" d="M351.032,200.553a2.488,2.488,0,0,1-4.189,0,1.62,1.62,0,0,0-2.29,2.29,5.643,5.643,0,0,0,8.77,0,1.62,1.62,0,0,0-2.29-2.29Z" transform="translate(-274.428 -159.583)"/>
      <path id="Trazado_224397" data-name="Trazado 224397" d="M97.62,140.859a1.62,1.62,0,0,0,1.62-1.62v-1.62a1.62,1.62,0,1,0-3.24,0v1.62A1.62,1.62,0,0,0,97.62,140.859Z" transform="translate(-76.563 -108.464)"/>
      <path id="Trazado_224398" data-name="Trazado 224398" d="M177.62,140.859a1.62,1.62,0,0,0,1.62-1.62v-1.62a1.62,1.62,0,0,0-3.24,0v1.62A1.62,1.62,0,0,0,177.62,140.859Z" transform="translate(-140.365 -108.464)"/>
      <path id="Trazado_224399" data-name="Trazado 224399" d="M129.323,200.476a1.62,1.62,0,0,0-2.29,0,2.488,2.488,0,0,1-4.189,0,1.62,1.62,0,0,0-2.29,2.29,5.64,5.64,0,0,0,8.769,0,1.62,1.62,0,0,0,0-2.291l0,0Z" transform="translate(-95.782 -159.507)"/>
      <path id="Trazado_224400" data-name="Trazado 224400" d="M93.623,55.863a14.621,14.621,0,0,0,1.944-7.27V21.057a21.057,21.057,0,0,0-42.114,0V48.593a14.639,14.639,0,0,0,1.958,7.289,14.511,14.511,0,0,0-3.564,1.73,14.461,14.461,0,0,0-4.1-1.916l-3.361-.967a14.625,14.625,0,0,0-5.007-6.546,16.277,16.277,0,0,0,5.979-12.548v-.23a6.448,6.448,0,0,0,0-12.5V9.7A4.859,4.859,0,0,0,40.495,4.84,4.859,4.859,0,0,0,35.635,0H23.186A15.1,15.1,0,0,0,8.1,15.087a10.8,10.8,0,0,0,3.776,8.2,6.45,6.45,0,0,0,1.084,12.119v.23A16.169,16.169,0,0,0,20.68,49.441a14.64,14.64,0,0,0-3.05,4.232L10.574,55.69A14.638,14.638,0,0,0,0,69.706V95.567a8.109,8.109,0,0,0,8.1,8.1H95.567a8.109,8.109,0,0,0,8.1-8.1V69.706A14.633,14.633,0,0,0,93.623,55.863Zm6.8,13.843v8.063H92.363l-1.038-5.195a4.805,4.805,0,0,0-1.267-7.02,4.806,4.806,0,0,0,.65-2.383,17.713,17.713,0,0,0-.727-5L92.2,58.8a11.385,11.385,0,0,1,8.224,10.9ZM95.567,97.187a3.24,3.24,0,1,1-6.479,0v-3.24a3.24,3.24,0,0,1,6.479,0ZM48.593,88.045v-14.8a4.78,4.78,0,0,0,.473-6.693,11.287,11.287,0,0,1,6.448-7.279,17.764,17.764,0,0,0-.442,3.9,4.808,4.808,0,0,0,.648,2.383,4.806,4.806,0,0,0-1.265,7.022l-2.58,12.958a1.62,1.62,0,0,0,1.589,1.944h2.185a14.673,14.673,0,0,0-3.858,4.769,14.645,14.645,0,0,0-3.2-4.2ZM14.578,69.651a1.62,1.62,0,0,1,1.62-1.62v3.24A1.62,1.62,0,0,1,14.578,69.651Zm4.859-1.62h5.415a8.043,8.043,0,0,0,5.726-2.371l.2-.2.2.2A8.043,8.043,0,0,0,36.7,68.031h5.415V72.89a11.338,11.338,0,0,1-22.677,0Zm27.536,1.62a1.62,1.62,0,0,1-1.62,1.62v-3.24A1.62,1.62,0,0,1,46.974,69.651ZM32.4,87.468a1.62,1.62,0,1,1-3.24,0ZM45.258,74.51h.1v11.3a14.418,14.418,0,0,0-5.507-1.523A14.562,14.562,0,0,0,45.258,74.51ZM56.692,34.735a6.427,6.427,0,0,0,1.62.671v.23a16.075,16.075,0,0,0,5.566,12.192A17.929,17.929,0,0,0,57.885,53.6a11.217,11.217,0,0,1-1.192-5.007Zm35.635-5.579a3.24,3.24,0,0,1-1.62,2.8V26.352A3.24,3.24,0,0,1,92.328,29.156Zm0,5.579V48.593a11.177,11.177,0,0,1-1.968,6.317l-2.021-.578A17.923,17.923,0,0,0,83.641,49a16.272,16.272,0,0,0,7.067-13.362v-.23a6.427,6.427,0,0,0,1.62-.671ZM90.351,84.229H82.032a14.571,14.571,0,0,0,5.345-9.719h.091a4.943,4.943,0,0,0,.922-.092ZM72.89,68.031a1.62,1.62,0,0,0,1.145-.475l2.094-2.094,2.094,2.094a1.62,1.62,0,0,0,1.145.475h4.859V72.89a11.338,11.338,0,0,1-22.677,0V68.031Zm14.578,3.24v-3.24a1.62,1.62,0,0,1,0,3.24Zm-29.156,0a1.62,1.62,0,1,1,0-3.24ZM57.4,74.418a4.875,4.875,0,0,0,.917.092h.1a14.57,14.57,0,0,0,5.345,9.719H55.44Zm28.453-9.626H80.04l-2.765-2.765a1.62,1.62,0,0,0-2.29,0L72.22,64.791H59.932a1.62,1.62,0,0,1-1.62-1.62,14.578,14.578,0,1,1,29.156,0A1.62,1.62,0,0,1,85.848,64.791Zm1.62-30.776v1.62A13,13,0,0,1,80.5,47.09,17.58,17.58,0,0,0,67.187,46.3a12.865,12.865,0,0,1-5.635-10.668V25.917h4.859A14.649,14.649,0,0,0,77.75,20.5a14.657,14.657,0,0,0,9.719,5.324ZM58.312,31.96a3.24,3.24,0,0,1,0-5.608Zm16.2,55.508a1.62,1.62,0,0,1-3.24,0Zm16.2,0v.23c-.078.021-.154.049-.23.071-.117-.1-.225-.206-.343-.3ZM74.51,3.24A17.839,17.839,0,0,1,92.328,21.057v2.52a6.413,6.413,0,0,0-3.24-.9,11.4,11.4,0,0,1-9.071-4.535l-.972-1.3a1.678,1.678,0,0,0-2.592,0l-.972,1.3a11.4,11.4,0,0,1-9.071,4.535H59.932a6.413,6.413,0,0,0-3.24.9v-2.52A17.839,17.839,0,0,1,74.51,3.24ZM46.849,58.8a11.332,11.332,0,0,1,2.386,1,14.511,14.511,0,0,0-3.048,5.072,4.866,4.866,0,0,0-.833-.078V59.932a14.994,14.994,0,0,0-.089-1.581ZM16.2,25.554a10.778,10.778,0,0,0,2.731.363,30.909,30.909,0,0,0,17.213-5.276,8.121,8.121,0,0,0,5.972,5.093S42.075,36.777,42,37.339l-1.966-1.565a8.129,8.129,0,0,0-5.046-1.759H23.325a8.131,8.131,0,0,0-5.039,1.759l-1.955,1.555c-.081-.56-.133-11.776-.133-11.776Zm30.776,3.6a3.24,3.24,0,0,1-1.62,2.8V26.352A3.24,3.24,0,0,1,46.974,29.156ZM23.186,3.24h12.45a1.62,1.62,0,0,1,1.62,1.62v1.6a1.62,1.62,0,0,0,1.62,1.62h1.62a1.62,1.62,0,0,1,1.62,1.62V22.4a4.869,4.869,0,0,1-3.24-4.582A1.62,1.62,0,0,0,37.9,16.4a1.733,1.733,0,0,0-1.769.241,27.642,27.642,0,0,1-17.205,6.034,7.6,7.6,0,0,1-7.59-7.59A11.86,11.86,0,0,1,23.186,3.24ZM11.338,29.156a3.24,3.24,0,0,1,1.62-2.8V31.96A3.24,3.24,0,0,1,11.338,29.156Zm5.924,11.565,3.034-2.41a4.859,4.859,0,0,1,3.029-1.056H34.987a4.873,4.873,0,0,1,3.024,1.056l3.035,2.413a13.009,13.009,0,0,1-4.785,5.713,14.465,14.465,0,0,0-12.719.85A12.9,12.9,0,0,1,17.262,40.721Zm13.514,7.872A11.351,11.351,0,0,1,42.114,59.932v4.859H36.7a4.892,4.892,0,0,1-3.436-1.422l-1.343-1.343a1.62,1.62,0,0,0-2.29,0l-1.343,1.343a4.892,4.892,0,0,1-3.436,1.422H19.437V59.932A11.351,11.351,0,0,1,30.776,48.593ZM3.24,95.567V69.706A11.385,11.385,0,0,1,11.463,58.8l4.973-1.421a14.509,14.509,0,0,0-.238,2.554v4.859a4.859,4.859,0,1,0,0,9.719h.1a14.578,14.578,0,0,0,5.4,9.766,14.449,14.449,0,0,0-8.554,3.479c-.062-.018-.12-.04-.183-.057V76.13a1.62,1.62,0,1,0-3.24,0V87.7a6.479,6.479,0,0,0-4.859,6.249v3.24a6.424,6.424,0,0,0,.458,2.354A4.859,4.859,0,0,1,3.24,95.567ZM8.1,97.187v-3.24a3.24,3.24,0,1,1,6.479,0v3.24a3.24,3.24,0,1,1-6.479,0Zm42.048,3.24H16.917a6.413,6.413,0,0,0,.9-3.24v-3.24a6.433,6.433,0,0,0-1.74-4.385,11.244,11.244,0,0,1,6.533-2.094h3.306a4.859,4.859,0,1,0,9.719,0h3.173A11.371,11.371,0,0,1,50.147,98.846Zm3.306-1.62A11.351,11.351,0,0,1,64.791,87.468h3.24a4.859,4.859,0,0,0,9.719,0h3.24a11.272,11.272,0,0,1,6.58,2.119,6.438,6.438,0,0,0-1.72,4.36v3.24a6.413,6.413,0,0,0,.9,3.24h-33.3Zm46.974-3.24a4.859,4.859,0,0,1-2.078,3.973,6.42,6.42,0,0,0,.458-2.354v-3.24A6.479,6.479,0,0,0,93.947,87.7v-6.69h6.479Z"/>
      <path id="Trazado_224401" data-name="Trazado 224401" d="M113.62,348.55a1.62,1.62,0,0,0,1.62-1.62v-1.31a1.62,1.62,0,1,0-3.24,0v1.31A1.62,1.62,0,0,0,113.62,348.55Z" transform="translate(-89.323 -274.349)"/>
      <path id="Trazado_224402" data-name="Trazado 224402" d="M177.62,348.55a1.62,1.62,0,0,0,1.62-1.62v-1.31a1.62,1.62,0,1,0-3.24,0v1.31A1.62,1.62,0,0,0,177.62,348.55Z" transform="translate(-140.365 -274.349)"/>
      <path id="Trazado_224403" data-name="Trazado 224403" d="M128.553,386.856a5.64,5.64,0,0,0,8.77,0,1.62,1.62,0,0,0-2.29-2.29,2.488,2.488,0,0,1-4.189,0,1.62,1.62,0,0,0-2.29,2.29Z" transform="translate(-102.162 -306.341)"/>
      <path id="Trazado_224404" data-name="Trazado 224404" d="M321.62,348.55a1.62,1.62,0,0,0,1.62-1.62v-1.31a1.62,1.62,0,1,0-3.24,0v1.31A1.62,1.62,0,0,0,321.62,348.55Z" transform="translate(-255.209 -274.349)"/>
      <path id="Trazado_224405" data-name="Trazado 224405" d="M385.62,348.55a1.62,1.62,0,0,0,1.62-1.62v-1.31a1.62,1.62,0,1,0-3.24,0v1.31A1.62,1.62,0,0,0,385.62,348.55Z" transform="translate(-306.25 -274.349)"/>
      <path id="Trazado_224406" data-name="Trazado 224406" d="M336.553,386.843a5.643,5.643,0,0,0,8.769,0,1.62,1.62,0,0,0-2.29-2.29,2.488,2.488,0,0,1-4.189,0,1.62,1.62,0,0,0-2.29,2.29Z" transform="translate(-268.047 -306.328)"/>
    </g>
    <g id="Grupo_158904" data-name="Grupo 158904" transform="translate(723.061 2043.692)">
      <path id="Trazado_224407" data-name="Trazado 224407" d="M222.9,251.207a7.385,7.385,0,0,1-2.535-5.571v-4.064c-2.872,1.97-6.344.819-10.071.819s-7.2,1.152-10.071-.819v4.064a7.385,7.385,0,0,1-2.535,5.571l12.48,11.388a.227.227,0,0,0,.251,0Z" transform="translate(-133.316 -189.357)" fill="#f4a86d"/>
      <path id="Trazado_224408" data-name="Trazado 224408" d="M208.179,288.379l-2.542-.635a7.368,7.368,0,0,1-3.061-1.6l-12.48,8.32a.227.227,0,0,1-.251,0l-12.48-8.32a7.371,7.371,0,0,1-3.061,1.6l-2.542.636,18.084,14.154c.076.051.251,2.109.251.011Z" transform="translate(-112.997 -224.298)" fill="#eff3f5"/>
      <path id="Trazado_224409" data-name="Trazado 224409" d="M148.811,298.6l-8.507-2.127L122.22,308.531a.227.227,0,0,1-.251,0l-18.084-12.056-8.5,2.126a13.481,13.481,0,0,0-10.212,13.079v29.469a.289.289,0,0,0,.289.289h73.275a.289.289,0,0,0,.289-.289V311.681A13.482,13.482,0,0,0,148.811,298.6Z" transform="translate(-45.121 -232.393)" fill="#1dd0b0"/>
      <path id="Trazado_224410" data-name="Trazado 224410" d="M148.81,304.366l-2.149-.537a13.469,13.469,0,0,1,3.715,9.293v15.869a13.889,13.889,0,0,1-13.889,13.889H85.168v4.034a.289.289,0,0,0,.289.289h73.275a.289.289,0,0,0,.289-.289V317.445a13.481,13.481,0,0,0-10.212-13.079Z" transform="translate(-45.12 -238.158)" fill="#04b49c"/>
      <path id="Trazado_224411" data-name="Trazado 224411" d="M139.969,116.219h-3.685a4.529,4.529,0,0,0-4.529,4.529,8.9,8.9,0,0,0,8.9,8.9h.171Z" transform="translate(-81.638 -91.099)" fill="#ffb983"/>
      <path id="Trazado_224412" data-name="Trazado 224412" d="M342.834,116.219H339.15l-.857,13.428h.171a8.9,8.9,0,0,0,8.9-8.9A4.529,4.529,0,0,0,342.834,116.219Z" transform="translate(-243.533 -91.099)" fill="#f4a86d"/>
      <path id="Trazado_224413" data-name="Trazado 224413" d="M104.144,362.942l16.276-16.276a3.292,3.292,0,0,0,0-4.655l-4.217-4.217a5.354,5.354,0,0,1,0-7.572l6.15-6.15a.558.558,0,0,1,.79,0l1.561,1.561a4.539,4.539,0,0,1,0,6.419l-.919.919a1.467,1.467,0,0,0,0,2.074l5.863,5.863a5.727,5.727,0,0,1,.611,7.379L119.79,362.942Z" transform="translate(-59.995 -253.897)" fill="#fcd0a3"/>
      <path id="Trazado_224414" data-name="Trazado 224414" d="M108.467,484.5l-4.323,4.323H119.79l3.088-4.323Z" transform="translate(-59.995 -379.777)" fill="#ffb983"/>
      <path id="Trazado_224415" data-name="Trazado 224415" d="M309.283,362.942l-16.276-16.276a3.291,3.291,0,0,1,0-4.655l4.217-4.217a5.354,5.354,0,0,0,0-7.572l-6.15-6.15a.558.558,0,0,0-.79,0l-1.561,1.561a4.539,4.539,0,0,0,0,6.419l.919.919a1.467,1.467,0,0,1,0,2.074l-5.863,5.863a5.727,5.727,0,0,0-.611,7.379l10.468,14.655h15.646Z" transform="translate(-199.488 -253.897)" fill="#fcd0a3"/>
      <path id="Trazado_224416" data-name="Trazado 224416" d="M321.487,469.352h-.305l3.088,4.323h15.646l-8.5-8.5A13.847,13.847,0,0,1,321.487,469.352Z" transform="translate(-230.121 -364.63)" fill="#ffb983"/>
      <path id="Trazado_224417" data-name="Trazado 224417" d="M225.763,308.665a6.117,6.117,0,0,0-10.442-4.272l-1.033,1.033a.055.055,0,0,1-.078,0l-1.033-1.033a6.117,6.117,0,1,0-8.651,8.65l9.683,9.683a.055.055,0,0,0,.078,0l9.683-9.683a6.1,6.1,0,0,0,1.791-4.378Z" transform="translate(-137.276 -237.196)" fill="#fb0363"/>
      <g id="Grupo_158903" data-name="Grupo 158903" transform="translate(29.227 12.464)">
        <path id="Trazado_224418" data-name="Trazado 224418" d="M419.8,165.328H410.85a2.984,2.984,0,1,1,0-5.968H419.8a2.984,2.984,0,1,1,0,5.968Z" transform="translate(-327.295 -137.379)" fill="#fff8bf"/>
        <path id="Trazado_224419" data-name="Trazado 224419" d="M420.1,63.233l-7.753,4.476a2.984,2.984,0,1,1-2.984-5.168l7.753-4.476a2.984,2.984,0,0,1,2.984,5.168Z" transform="translate(-327.296 -57.664)" fill="#fff8bf"/>
        <path id="Trazado_224420" data-name="Trazado 224420" d="M420.1,245.222l-7.753-4.476a2.984,2.984,0,1,0-2.984,5.168l7.753,4.476a2.984,2.984,0,0,0,2.984-5.168Z" transform="translate(-327.296 -200.86)" fill="#fff8bf"/>
        <path id="Trazado_224421" data-name="Trazado 224421" d="M38.089,165.328h8.952a2.984,2.984,0,1,0,0-5.968H38.089a2.984,2.984,0,1,0,0,5.968Z" transform="translate(-35.105 -137.379)" fill="#fff8bf"/>
        <path id="Trazado_224422" data-name="Trazado 224422" d="M42.143,63.233,49.9,67.709a2.984,2.984,0,1,0,2.984-5.168l-7.753-4.476a2.984,2.984,0,1,0-2.984,5.168Z" transform="translate(-39.452 -57.664)" fill="#fff8bf"/>
        <path id="Trazado_224423" data-name="Trazado 224423" d="M42.143,245.222l7.753-4.476a2.984,2.984,0,1,1,2.984,5.168l-7.753,4.476a2.984,2.984,0,1,1-2.984-5.168Z" transform="translate(-39.452 -200.86)" fill="#fff8bf"/>
      </g>
      <path id="Trazado_224424" data-name="Trazado 224424" d="M187.47,7.5A18.809,18.809,0,0,0,175,12.2a2.461,2.461,0,0,0-.123,3.589l.3.3a2.448,2.448,0,0,0-3.812.425A18.8,18.8,0,0,0,168.61,27.6l.828,12.978,2.829-5.658a3.878,3.878,0,0,1,.726-1.009A12.956,12.956,0,0,0,176.4,27.89l1.883-7.534a.537.537,0,0,1,.9-.25l.918.918a25.139,25.139,0,0,0,17.776,7.363h1.025a.8.8,0,0,1,.72.445L205.5,40.579l.828-12.978A18.9,18.9,0,0,0,187.47,7.5Z" transform="translate(-110.496 -5.879)" fill="#fd7e42"/>
      <path id="Trazado_224425" data-name="Trazado 224425" d="M202.052,73.536h-1.025a25.139,25.139,0,0,1-17.776-7.363l-.918-.918a.538.538,0,0,0-.9.25l-1.883,7.534a12.956,12.956,0,0,1-3.408,6.019,3.892,3.892,0,0,0-.729,1.011l-2.829,5.658.252,3.952a17.815,17.815,0,0,0,35.558,0l.252-3.952-5.873-11.746a.805.805,0,0,0-.72-.445Z" transform="translate(-113.64 -51.027)" fill="#fcd0a3"/>
      <path id="Trazado_224426" data-name="Trazado 224426" d="M224.69,102.584a.805.805,0,0,0-.72-.445h-1.025a25.136,25.136,0,0,1-5.237-.552l2.439,4.877a14.67,14.67,0,0,1,1.519,7.494,17.83,17.83,0,0,1-21.121,16.368,17.815,17.815,0,0,0,29.767-12.044l.252-3.952Z" transform="translate(-135.558 -79.629)" fill="#ffb983"/>
      <path id="Trazado_224427" data-name="Trazado 224427" d="M143.324,64.636l-11.05-2.762a5.768,5.768,0,0,1-4.368-5.595V53.028a19.44,19.44,0,0,0,7.574-12.94,10.536,10.536,0,0,0,9.211-10.439,6.157,6.157,0,0,0-6.15-6.15h-1.957l.107-1.674a20.519,20.519,0,0,0-34.022-16.72,4.111,4.111,0,0,0-1.386,2.859,4.007,4.007,0,0,0-2.561,1.822,20.618,20.618,0,0,0-1.334,2.556,1.621,1.621,0,0,0,2.973,1.294,17.3,17.3,0,0,1,1.123-2.152.784.784,0,0,1,.586-.369.845.845,0,0,1,.7.242,1.621,1.621,0,0,0,2.293-2.292l-.3-.3a.824.824,0,0,1-.243-.613.847.847,0,0,1,.291-.613,17.278,17.278,0,0,1,28.646,14.08L133.01,28.6l-3.187-6.375a2.413,2.413,0,0,0-2.17-1.342h-1.025A23.364,23.364,0,0,1,110,14l-.918-.918a2.159,2.159,0,0,0-3.62,1l-1.883,7.534a11.337,11.337,0,0,1-2.982,5.266,5.945,5.945,0,0,0-1.176,1.72c-.443-7.119-.483-7.148-.482-8.118a1.621,1.621,0,1,0-3.242,0c0,1.019.068,1.613.149,3.016H93.887a6.157,6.157,0,0,0-6.15,6.15,10.535,10.535,0,0,0,9.211,10.439,19.44,19.44,0,0,0,7.574,12.94v3.251a5.767,5.767,0,0,1-4.368,5.595L89.107,64.635a15.081,15.081,0,0,0-11.44,14.652v29.469a1.913,1.913,0,0,0,1.911,1.911h73.275a1.913,1.913,0,0,0,1.911-1.911V79.287a15.08,15.08,0,0,0-11.439-14.652Zm-11.711,29.28,13.509,13.509h-10.9l-9.983-13.977a4.094,4.094,0,0,1,.438-5.29l5.863-5.863a3.092,3.092,0,0,0,0-4.367l-.919-.919a2.917,2.917,0,0,1,0-4.126l.81-.81,5.4,5.4a3.733,3.733,0,0,1,0,5.279l-4.217,4.217a4.918,4.918,0,0,0,0,6.947ZM87.3,107.424l13.509-13.509a4.919,4.919,0,0,0,0-6.947l-4.218-4.217a3.733,3.733,0,0,1,0-5.279l5.4-5.4.81.81a2.921,2.921,0,0,1,0,4.126l-.919.919a3.092,3.092,0,0,0,0,4.367l5.863,5.863a4.094,4.094,0,0,1,.438,5.29L98.2,107.424Zm16.359-43.59,2.4,1.6a7.859,7.859,0,0,0-1.255,1.235l-2.917-1.945a9.077,9.077,0,0,0,1.772-.89Zm7.161,31.5a7.326,7.326,0,0,0-.784-9.467l-5.754-5.754.81-.81a6.143,6.143,0,0,0,1.087-1.47l.174.174a1.621,1.621,0,0,0,2.293-2.293c-.491-.633-2.35-1.714-2.328-4.23a4.516,4.516,0,0,1,4.456-4.456A4.46,4.46,0,0,1,114,68.344l1.035,1.035a1.676,1.676,0,0,0,2.367,0l1.033-1.033a4.462,4.462,0,0,1,3.179-1.317,4.515,4.515,0,0,1,4.5,4.456A4.464,4.464,0,0,1,124.79,74.7l-8.576,8.576-2.1-2.1a1.621,1.621,0,0,0-2.293,2.292l3.206,3.206a1.676,1.676,0,0,0,2.373,0l8.843-8.843A6.176,6.176,0,0,0,127.33,79.3l.81.81-5.754,5.754a7.326,7.326,0,0,0-.784,9.467l8.637,12.092H102.186Zm16.8-28.663a7.868,7.868,0,0,0-1.255-1.235l2.4-1.6a9.072,9.072,0,0,0,1.772.89Zm10.921-39.928a2.911,2.911,0,0,1,2.908,2.908,7.291,7.291,0,0,1-5.711,7.108c.157-2.461.051-.8.639-10.016ZM90.979,29.649a2.911,2.911,0,0,1,2.908-2.908H96.05l.639,10.016A7.291,7.291,0,0,1,90.979,29.649Zm9.074,8.9c0-.022.017.271-.224-3.515l2.634-5.267a2.268,2.268,0,0,1,.425-.59,14.58,14.58,0,0,0,3.834-6.772l1.421-5.685a26.573,26.573,0,0,0,18.485,7.41h.521l5.452,10.9-.224,3.515a16.194,16.194,0,0,1-32.323,0Zm24.611,16.465v1.265a9.009,9.009,0,0,0,1.7,5.262l-3.516,2.344a7.732,7.732,0,0,0-6.631,2.094,7.732,7.732,0,0,0-6.631-2.094l-3.516-2.344a9.007,9.007,0,0,0,1.7-5.262V55.014a19.362,19.362,0,0,0,16.9,0ZM80.909,79.287a11.843,11.843,0,0,1,8.984-11.506L97.7,65.829l3.9,2.6a2.168,2.168,0,0,0-1.148.6l-6.15,6.15a6.975,6.975,0,0,0,0,9.864l4.217,4.217a1.673,1.673,0,0,1,0,2.362L93.963,96.18V88.9a1.621,1.621,0,0,0-3.242,0V99.422l-8,8H80.909Zm70.612,28.137h-1.814l-8-8V88.9a1.621,1.621,0,0,0-3.242,0v7.276l-4.556-4.556a1.672,1.672,0,0,1,0-2.362l4.217-4.217a6.975,6.975,0,0,0,0-9.864l-6.15-6.15a2.165,2.165,0,0,0-1.146-.6l3.9-2.6,7.812,1.953a11.843,11.843,0,0,1,8.984,11.506v28.137Z" transform="translate(-39.241)"/>
      <path id="Trazado_224428" data-name="Trazado 224428" d="M242.361,150.125h.452a4.531,4.531,0,0,0,4.526-4.526V141.79a1.621,1.621,0,0,0-3.242,0V145.6a1.285,1.285,0,0,1-1.284,1.284h-.452a1.621,1.621,0,1,0,0,3.242Z" transform="translate(-167.066 -109.872)"/>
      <path id="Trazado_224429" data-name="Trazado 224429" d="M218.045,204.793a12,12,0,0,0,15.481,0,1.621,1.621,0,1,0-2.053-2.509,8.759,8.759,0,0,1-11.374,0,1.621,1.621,0,1,0-2.053,2.509Z" transform="translate(-148.811 -158.274)"/>
      <path id="Trazado_224430" data-name="Trazado 224430" d="M413.923,157.829H413.5a1.621,1.621,0,0,0,0,3.242h.427a4.605,4.605,0,1,0,0-9.21h-8.952a4.605,4.605,0,1,0,0,9.21h.96a1.621,1.621,0,1,0,0-3.242h-.96a1.363,1.363,0,1,1,0-2.726h8.952a1.363,1.363,0,1,1,0,2.726Z" transform="translate(-292.19 -119.037)"/>
      <path id="Trazado_224431" data-name="Trazado 224431" d="M407.27,63.238l7.752-4.476a4.605,4.605,0,1,0-4.6-7.976l-7.752,4.476a4.605,4.605,0,1,0,4.6,7.976Zm-2.984-5.168,7.753-4.476a1.363,1.363,0,1,1,1.363,2.361l-7.752,4.476a1.363,1.363,0,1,1-1.363-2.361Z" transform="translate(-292.185 -39.326)"/>
      <path id="Trazado_224432" data-name="Trazado 224432" d="M415.022,237.944l-7.752-4.476a4.605,4.605,0,1,0-4.6,7.976l7.752,4.476a4.605,4.605,0,1,0,4.6-7.976Zm-1.122,4.669a1.365,1.365,0,0,1-1.862.5l-7.753-4.476a1.363,1.363,0,1,1,1.363-2.361l7.752,4.476a1.362,1.362,0,0,1,.5,1.862Z" transform="translate(-292.185 -182.522)"/>
      <path id="Trazado_224433" data-name="Trazado 224433" d="M32.211,161.071h8.952a4.605,4.605,0,1,0,0-9.21H32.211a4.605,4.605,0,1,0,0,9.21Zm0-5.968h8.952a1.363,1.363,0,1,1,0,2.726H32.211a1.363,1.363,0,1,1,0-2.726Z" transform="translate(0 -119.037)"/>
      <path id="Trazado_224434" data-name="Trazado 224434" d="M35.458,58.763l7.753,4.476a4.605,4.605,0,0,0,4.605-7.976l-7.753-4.476a4.605,4.605,0,0,0-4.605,7.976Zm1.122-4.67a1.365,1.365,0,0,1,1.862-.5L46.2,58.071a1.363,1.363,0,0,1-1.363,2.361l-7.753-4.476A1.364,1.364,0,0,1,36.58,54.094Z" transform="translate(-4.351 -39.327)"/>
      <path id="Trazado_224435" data-name="Trazado 224435" d="M49.5,235.142a4.605,4.605,0,0,0-6.291-1.686l-7.753,4.476a4.605,4.605,0,1,0,4.6,7.976l7.753-4.476A4.61,4.61,0,0,0,49.5,235.142Zm-3.307,3.483L38.442,243.1a1.363,1.363,0,1,1-1.363-2.361l7.753-4.476a1.363,1.363,0,0,1,1.363,2.361Z" transform="translate(-4.351 -182.511)"/>
    </g>
    <g id="Grupo_158905" data-name="Grupo 158905" transform="translate(694.415 2224.387)">
      <path id="Trazado_224436" data-name="Trazado 224436" d="M138.325,195.452l-33.008,18.287,33.008,18.288,33.009-18.288Z" transform="translate(-33.562 -151.446)" fill="#fc3e81"/>
      <path id="Trazado_224437" data-name="Trazado 224437" d="M139.961,81h24.061a55.392,55.392,0,0,1,11.085-26.9,29.038,29.038,0,1,0-46.1.165A54.093,54.093,0,0,1,139.961,81Z" transform="translate(-47.228 -5.808)" fill="#ffdf46"/>
      <path id="Trazado_224438" data-name="Trazado 224438" d="M269.047,36.537a28.884,28.884,0,0,1-5.923,17.571A55.355,55.355,0,0,0,252.042,81h-6.907a55.352,55.352,0,0,1,11.082-26.9A29.036,29.036,0,0,0,236.547,7.7q1.024-.116,2.059-.168A29.039,29.039,0,0,1,269.047,36.537Z" transform="translate(-135.246 -5.811)" fill="#f9b200"/>
      <path id="Trazado_224439" data-name="Trazado 224439" d="M208.078,356.474H184.333a4.318,4.318,0,0,1-4.317-4.317v-17.7a4.317,4.317,0,0,1,4.317-4.317h23.745a4.317,4.317,0,0,1,4.317,4.317v17.7A4.316,4.316,0,0,1,208.078,356.474Z" transform="translate(-91.443 -255.808)" fill="#a7c7d3"/>
      <path id="Trazado_224440" data-name="Trazado 224440" d="M272.584,60.993a10.9,10.9,0,0,0-6.921-10.147,7.587,7.587,0,0,0-13.036-4.155,2.582,2.582,0,0,0-.7,1.773V80.691a3.379,3.379,0,0,0,3.335,3.39h.039A4.928,4.928,0,0,0,260.154,80a8.15,8.15,0,0,0,8.628-10.737A10.867,10.867,0,0,0,272.584,60.993Z" transform="translate(-147.163 -34.331)" fill="#fc3e81"/>
      <path id="Trazado_224441" data-name="Trazado 224441" d="M160.176,60.993A10.9,10.9,0,0,1,167.1,50.846a7.588,7.588,0,0,1,13.036-4.155,2.587,2.587,0,0,1,.7,1.773V80.691a3.38,3.38,0,0,1-3.335,3.39h-.039A4.927,4.927,0,0,1,172.606,80a8.15,8.15,0,0,1-8.628-10.737A10.864,10.864,0,0,1,160.176,60.993Z" transform="translate(-76.07 -34.331)" fill="#fd82ac"/>
      <path id="Trazado_224442" data-name="Trazado 224442" d="M284.935,309.683,251.926,327.97V294.962l33.009-18.288Z" transform="translate(-147.163 -214.381)" fill="#e29c6d"/>
      <path id="Trazado_224443" data-name="Trazado 224443" d="M105.317,309.683l33.008,18.287V294.962l-33.008-18.288Z" transform="translate(-33.562 -214.381)" fill="#edb48a"/>
      <path id="Trazado_224444" data-name="Trazado 224444" d="M291.849,292.968,262.738,309.1a2.228,2.228,0,0,1-3-.821l-7.811-13.313,33.008-18.288,7.756,13.218A2.228,2.228,0,0,1,291.849,292.968Z" transform="translate(-147.163 -214.381)" fill="#edb48a"/>
      <path id="Trazado_224445" data-name="Trazado 224445" d="M70.657,292.968,99.768,309.1a2.228,2.228,0,0,0,3-.821l7.811-13.313L77.571,276.674l-7.755,13.218A2.228,2.228,0,0,0,70.657,292.968Z" transform="translate(-5.816 -214.381)" fill="#e29c6d"/>
      <path id="Trazado_224446" data-name="Trazado 224446" d="M190.245,43.841a9.271,9.271,0,0,0-15.223-4.631A9.272,9.272,0,0,0,159.8,43.841a12.585,12.585,0,0,0-3.532,20.141,9.84,9.84,0,0,0,9.286,11.94,6.6,6.6,0,0,0,6.095,4.037h.053a5.014,5.014,0,0,0,3.321-1.3,4.984,4.984,0,0,0,3.307,1.3h.068a6.6,6.6,0,0,0,6.1-4.037,9.84,9.84,0,0,0,9.286-11.94,12.586,12.586,0,0,0-3.533-20.141ZM171.674,76.581h-.026A3.232,3.232,0,0,1,169.07,75.3a9.806,9.806,0,0,0,3.121-2,1.689,1.689,0,1,0-2.32-2.455,6.276,6.276,0,0,1-3.307,1.661,6.576,6.576,0,0,1-.692.038,6.46,6.46,0,0,1-6.117-8.527,6.575,6.575,0,0,1,4.305-3.939,8.612,8.612,0,0,0,1.514,2.881,1.689,1.689,0,0,0,2.63-2.12,5.58,5.58,0,0,1-1.175-3.5,5.667,5.667,0,0,1,.873-3.083,1.689,1.689,0,1,0-2.84-1.828,8.963,8.963,0,0,0-1.389,4.27,9.756,9.756,0,0,0-5.869,3.879,9.2,9.2,0,0,1,4.1-13.973,1.687,1.687,0,0,0,1.056-1.34,5.918,5.918,0,0,1,5.842-5.081,5.842,5.842,0,0,1,4.292,1.853.891.891,0,0,1,.242.615v2.913a9.1,9.1,0,0,0-5.85,2.4,1.689,1.689,0,0,0,2.282,2.491,5.74,5.74,0,0,1,3.566-1.506V74.88A1.692,1.692,0,0,1,171.674,76.581Zm20.564-16A9.756,9.756,0,0,0,186.37,56.7a8.965,8.965,0,0,0-1.389-4.27,1.689,1.689,0,0,0-2.84,1.828,5.674,5.674,0,0,1,.873,3.083,5.581,5.581,0,0,1-1.175,3.5,1.689,1.689,0,0,0,2.629,2.12,8.613,8.613,0,0,0,1.515-2.881,6.572,6.572,0,0,1,4.3,3.94,6.457,6.457,0,0,1-6.117,8.526,6.581,6.581,0,0,1-.692-.038,6.278,6.278,0,0,1-3.307-1.661,1.689,1.689,0,1,0-2.319,2.455,9.806,9.806,0,0,0,3.12,2,3.231,3.231,0,0,1-2.578,1.278h-.025a1.692,1.692,0,0,1-1.66-1.7V48.947a5.748,5.748,0,0,1,3.567,1.506,1.688,1.688,0,1,0,2.281-2.49,9.1,9.1,0,0,0-5.848-2.4V42.653a.892.892,0,0,1,.241-.615,5.842,5.842,0,0,1,4.292-1.853,5.918,5.918,0,0,1,5.843,5.081,1.689,1.689,0,0,0,1.056,1.341,9.2,9.2,0,0,1,4.1,13.972Z" transform="translate(-70.258 -28.52)"/>
      <path id="Trazado_224447" data-name="Trazado 224447" d="M139.229,61.438a1.728,1.728,0,0,0-.639-.623l-12.5-6.928q1.447-2.347,3.135-4.568a30.72,30.72,0,0,0,.017-37.168,1.688,1.688,0,1,0-2.688,2.043,27.342,27.342,0,0,1-.014,33.079,57.526,57.526,0,0,0-11.081,25.368H94.078A55.976,55.976,0,0,0,83.111,47.428,27.347,27.347,0,0,1,121.7,9.255a1.689,1.689,0,1,0,2.094-2.65A30.724,30.724,0,0,0,80.439,49.494a53.052,53.052,0,0,1,3.039,4.373L70.937,60.817a1.693,1.693,0,0,0-.639.623L62.544,74.657a3.917,3.917,0,0,0,1.48,5.408l6.043,3.348V95.3a1.69,1.69,0,0,0,.871,1.478l33.008,18.287a1.709,1.709,0,0,0,1.637,0l20.678-11.456a1.689,1.689,0,0,0-1.637-2.954l-18.171,10.067V86.8l4.665,7.952a3.892,3.892,0,0,0,3.366,1.942,3.939,3.939,0,0,0,1.91-.5l19.689-10.908v9.023l-4.621,2.56a1.689,1.689,0,0,0,1.637,2.954l5.491-3.042a1.689,1.689,0,0,0,.871-1.477V83.412l6.043-3.348a3.917,3.917,0,0,0,1.48-5.408ZM104.763,78.65l-4.748-2.631h9.5Zm29.525-16.357-15.007,8.314a53.445,53.445,0,0,1,5.12-13.791Zm-49.117-5.5a52.5,52.5,0,0,1,5.09,13.824L75.24,62.293ZM73.444,85.283l3.164,1.753a1.689,1.689,0,0,0,1.637-2.954L65.659,77.11a.539.539,0,0,1-.2-.744l6.922-11.8,30.053,16.65L95.5,93.039a.536.536,0,0,1-.727.2L84.7,87.656a1.689,1.689,0,1,0-1.637,2.954l10.074,5.581a3.9,3.9,0,0,0,5.276-1.443l4.666-7.952v23.927L73.444,94.307Zm70.682-8.5a.533.533,0,0,1-.259.329l-29.11,16.128a.536.536,0,0,1-.726-.2L107.1,81.219l30.054-16.65,6.921,11.8A.533.533,0,0,1,144.126,76.781Z"/>
      <path id="Trazado_224448" data-name="Trazado 224448" d="M90.3,204.269h.008a1.688,1.688,0,0,0,1.681-1.7l0-.42a1.69,1.69,0,0,0-1.689-1.681h-.009a1.689,1.689,0,0,0-1.68,1.7l0,.421A1.688,1.688,0,0,0,90.3,204.269Z" transform="translate(-20.614 -155.335)"/>
      <path id="Trazado_224449" data-name="Trazado 224449" d="M88.675,230.119a1.688,1.688,0,0,0,1.689,1.681h.008a1.689,1.689,0,0,0,1.681-1.7l0-.421A1.689,1.689,0,0,0,90.361,228h-.009a1.688,1.688,0,0,0-1.68,1.7Z" transform="translate(-20.665 -176.667)"/>
      <path id="Trazado_224450" data-name="Trazado 224450" d="M103.163,218.514h.01l.419,0a1.689,1.689,0,0,0-.008-3.377h-.009l-.421,0a1.689,1.689,0,0,0,.008,3.377Z" transform="translate(-30.584 -166.697)"/>
      <path id="Trazado_224451" data-name="Trazado 224451" d="M75.634,218.577h.01l.421,0a1.689,1.689,0,0,0-.009-3.377h-.009l-.421,0a1.689,1.689,0,0,0,.008,3.377Z" transform="translate(-9.254 -166.746)"/>
      <path id="Trazado_224452" data-name="Trazado 224452" d="M419.413,153.239l0,.42a1.689,1.689,0,0,0,1.689,1.68h.009a1.689,1.689,0,0,0,1.681-1.7l0-.42a1.689,1.689,0,0,0-1.689-1.681h-.008A1.69,1.69,0,0,0,419.413,153.239Z" transform="translate(-276.94 -117.422)"/>
      <path id="Trazado_224453" data-name="Trazado 224453" d="M421.167,182.871h.009a1.689,1.689,0,0,0,1.68-1.7l0-.42a1.688,1.688,0,0,0-1.688-1.681h-.01a1.69,1.69,0,0,0-1.68,1.7l0,.419A1.689,1.689,0,0,0,421.167,182.871Z" transform="translate(-276.989 -138.754)"/>
      <path id="Trazado_224454" data-name="Trazado 224454" d="M434.39,166.206h-.009l-.42,0a1.689,1.689,0,0,0,.008,3.378h.008l.42,0a1.689,1.689,0,0,0-.007-3.377Z" transform="translate(-286.911 -128.784)"/>
      <path id="Trazado_224455" data-name="Trazado 224455" d="M406.438,169.648h.009l.419,0a1.688,1.688,0,0,0-.007-3.377h-.008l-.42,0a1.689,1.689,0,0,0,.007,3.377Z" transform="translate(-265.578 -128.833)"/>
      <path id="Trazado_224456" data-name="Trazado 224456" d="M103.129,25.907h.009a1.689,1.689,0,0,0,1.68-1.7l0-.42a1.688,1.688,0,0,0-1.688-1.68h-.01a1.689,1.689,0,0,0-1.68,1.7l0,.42A1.688,1.688,0,0,0,103.129,25.907Z" transform="translate(-30.556 -17.13)"/>
      <path id="Trazado_224457" data-name="Trazado 224457" d="M104.878,51.32a1.688,1.688,0,0,0-1.688-1.68h-.01a1.689,1.689,0,0,0-1.68,1.7l0,.421a1.688,1.688,0,0,0,1.689,1.68h.009a1.69,1.69,0,0,0,1.68-1.7Z" transform="translate(-30.605 -38.463)"/>
      <path id="Trazado_224458" data-name="Trazado 224458" d="M116,40.149h.009l.421,0a1.689,1.689,0,0,0-.009-3.377h-.009l-.421,0A1.689,1.689,0,0,0,116,40.149Z" transform="translate(-40.529 -28.49)"/>
      <path id="Trazado_224459" data-name="Trazado 224459" d="M88.463,40.212h.009l.42,0a1.689,1.689,0,0,0-.008-3.378h-.01l-.421,0a1.688,1.688,0,0,0,.009,3.377Z" transform="translate(-19.194 -28.538)"/>
      <path id="Trazado_224460" data-name="Trazado 224460" d="M392.679,202.155a1.689,1.689,0,0,0-1.68,1.7l0,.42a1.688,1.688,0,0,0,1.689,1.68h.009a1.69,1.69,0,0,0,1.68-1.7l0-.42A1.7,1.7,0,0,0,392.679,202.155Z" transform="translate(-254.924 -156.64)"/>
      <path id="Trazado_224461" data-name="Trazado 224461" d="M392.756,233.484h.009a1.688,1.688,0,0,0,1.68-1.7l0-.42a1.689,1.689,0,0,0-1.688-1.68h-.009a1.687,1.687,0,0,0-1.68,1.7l0,.42A1.688,1.688,0,0,0,392.756,233.484Z" transform="translate(-254.976 -177.972)"/>
      <path id="Trazado_224462" data-name="Trazado 224462" d="M405.558,220.195h.01l.42,0a1.689,1.689,0,0,0-.009-3.377h-.009l-.42,0a1.689,1.689,0,0,0,.008,3.377Z" transform="translate(-264.897 -167.999)"/>
      <path id="Trazado_224463" data-name="Trazado 224463" d="M378.439,216.878l-.42,0a1.689,1.689,0,0,0,.009,3.377h.009l.42,0a1.688,1.688,0,1,0-.018-3.377Z" transform="translate(-243.564 -168.048)"/>
      <path id="Trazado_224464" data-name="Trazado 224464" d="M398.534,77.077a1.688,1.688,0,0,0,1.622,1.22,1.669,1.669,0,0,0,.469-.067l1.725-.5a1.688,1.688,0,0,0-.937-3.244l-1.725.5A1.688,1.688,0,0,0,398.534,77.077Z" transform="translate(-260.711 -57.664)"/>
      <path id="Trazado_224465" data-name="Trazado 224465" d="M391.547,58.194a1.683,1.683,0,0,0,1.217-.518l1.244-1.294a1.688,1.688,0,1,0-2.434-2.341l-1.244,1.294a1.688,1.688,0,0,0,1.216,2.859Z" transform="translate(-254.04 -41.472)"/>
      <path id="Trazado_224466" data-name="Trazado 224466" d="M404.28,96.4l-1.743-.431a1.689,1.689,0,1,0-.811,3.279l1.743.431a1.689,1.689,0,0,0,.811-3.279Z" transform="translate(-262.241 -74.319)"/>
      <path id="Trazado_224467" data-name="Trazado 224467" d="M77.924,144.875c.029,0,.059,0,.089,0l1.793-.093a1.689,1.689,0,0,0-.177-3.373l-1.792.094a1.688,1.688,0,0,0,.087,3.374Z" transform="translate(-11.029 -109.566)"/>
      <path id="Trazado_224468" data-name="Trazado 224468" d="M80.466,121.749l1.6.815a1.689,1.689,0,1,0,1.534-3.01L82,118.74a1.689,1.689,0,1,0-1.533,3.01Z" transform="translate(-13.591 -91.862)"/>
      <path id="Trazado_224469" data-name="Trazado 224469" d="M86.07,163.38a1.688,1.688,0,1,0-1.839-2.832l-1.506.977a1.689,1.689,0,1,0,1.839,2.833Z" transform="translate(-15.461 -124.189)"/>
    </g>
  </g>
</svg>
